<svg width="16" height="16" viewBox="0 0 16 16" fill="none" xmlns="http://www.w3.org/2000/svg">
<path d="M11.3368 10.0691C11.0039 10.0691 10.7331 9.79958 10.7331 9.46852C10.7331 9.13746 11.0039 8.86817 11.3368 8.86817C11.6698 8.86817 11.9406 9.13746 11.9406 9.46852C11.9406 9.79958 11.6698 10.0691 11.3368 10.0691ZM4.66316 10.0691C4.33022 10.0691 4.05941 9.79958 4.05941 9.46852C4.05941 9.13746 4.33022 8.86817 4.66316 8.86817C4.9961 8.86817 5.26692 9.13746 5.26692 9.46852C5.26692 9.79958 4.9961 10.0691 4.66316 10.0691ZM11.5534 6.45253L12.7601 4.37438C12.8293 4.25494 12.7881 4.10236 12.6682 4.03338C12.5483 3.9646 12.3946 4.00552 12.3253 4.12477L11.1035 6.22922C10.1691 5.80521 9.11973 5.56905 7.99999 5.56905C6.88027 5.56905 5.8309 5.80521 4.89655 6.22922L3.67473 4.12477C3.60536 4.00552 3.45173 3.9646 3.3318 4.03338C3.21187 4.10236 3.17052 4.25494 3.23989 4.37438L4.44662 6.45253C2.37452 7.57315 0.957325 9.65909 0.75 12.1234H15.25C15.0425 9.65909 13.6253 7.57315 11.5534 6.45253Z" fill="#3DDB85"/>
</svg>
