<svg width="16" height="16" viewBox="0 0 16 16" fill="none" xmlns="http://www.w3.org/2000/svg">
<path d="M7.98341 1.50115C7.98341 1.50115 11.8148 1.32981 13.8461 5.16717H7.65741C7.65741 5.16717 6.48953 5.12969 5.49182 6.54148C5.20522 7.13405 4.89713 7.74445 5.24284 8.94742C4.74488 8.10677 2.599 4.38364 2.599 4.38364C2.599 4.38364 4.11258 1.65286 7.98341 1.50115Z" fill="#EF3F36"/>
<path d="M13.6473 11.2427C13.6473 11.2427 11.8794 14.6356 7.53027 14.4679C8.06764 13.5415 10.6255 9.12767 10.6255 9.12767C10.6255 9.12767 11.2435 8.13888 10.5144 6.57181C10.1437 6.02744 9.76572 5.45808 8.54769 5.15466C9.52748 5.14574 13.8354 5.15466 13.8354 5.15466C13.8354 5.15466 15.4493 7.82654 13.6473 11.2427Z" fill="#FCD900"/>
<path d="M2.34647 11.2695C2.34647 11.2695 0.281189 8.04789 2.60261 4.3783C3.13819 5.30462 5.69605 9.71848 5.69605 9.71848C5.69605 9.71848 6.24774 10.7465 7.97269 10.9C8.63007 10.8518 9.31431 10.8108 10.1884 9.91302C9.70659 10.7626 7.54459 14.475 7.54459 14.475C7.54459 14.475 4.41353 14.5321 2.34647 11.2695Z" fill="#61BC5B"/>
<path d="M7.52844 14.5L8.39898 10.8804C8.39898 10.8804 9.35549 10.8054 10.158 9.92908C9.66 10.8019 7.52844 14.5 7.52844 14.5Z" fill="#5AB055"/>
<path d="M5.06738 8.04075C5.06738 6.44512 6.36602 5.15112 7.96737 5.15112C9.56872 5.15112 10.8674 6.44512 10.8674 8.04075C10.8674 9.63638 9.56872 10.9304 7.96737 10.9304C6.36602 10.9286 5.06738 9.63638 5.06738 8.04075Z" fill="white"/>
<path d="M5.55273 8.04073C5.55273 6.71283 6.63284 5.6348 7.9673 5.6348C9.29997 5.6348 10.3819 6.71104 10.3819 8.04073C10.3819 9.36864 9.30176 10.4467 7.9673 10.4467C6.63463 10.4467 5.55273 9.36864 5.55273 8.04073Z" fill="url(#paint0_linear)"/>
<path d="M13.8336 5.15646L10.2493 6.20415C10.2493 6.20415 9.7084 5.41348 8.5459 5.15646C9.55436 5.15111 13.8336 5.15646 13.8336 5.15646Z" fill="#EACA05"/>
<path d="M5.17298 8.81535C4.66965 7.94614 2.599 4.38364 2.599 4.38364L5.25359 7.00018C5.25359 7.00018 4.98132 7.55883 5.08342 8.35843L5.17298 8.81535Z" fill="#DF3A32"/>
<defs>
<linearGradient id="paint0_linear" x1="7.96719" y1="5.66876" x2="7.96719" y2="10.3018" gradientUnits="userSpaceOnUse">
<stop stop-color="#86BBE5"/>
<stop offset="1" stop-color="#1072BA"/>
</linearGradient>
</defs>
</svg>
