<svg width="168" height="128" viewBox="0 0 168 128" fill="none" xmlns="http://www.w3.org/2000/svg">
<path d="M164 116V120C164 124.4 160.4 128 156 128H12C7.6 128 4 124.4 4 120V116H68V118C68 120.2 69.8 122 72 122H96C98.2 122 100 120.2 100 118V116H164Z" fill="#C5C6CD"/>
<path d="M96 122.4H72C69.6 122.4 67.6 120.4 67.6 118V116C67.6 115.8 67.8 115.6 68 115.6C68.2 115.6 68.4 115.8 68.4 116V118C68.4 120 70 121.6 72 121.6H96C98 121.6 99.6 120 99.6 118V116C99.6 115.8 99.8 115.6 100 115.6C100.2 115.6 100.4 115.8 100.4 116V118C100.4 120.4 98.4 122.4 96 122.4Z" fill="#828C97"/>
<path d="M100 116V118C100 120.2 98.2 122 96 122H72C69.8 122 68 120.2 68 118V116H100Z" fill="#B3B9C0"/>
<path d="M92 116V118C92 120.2 90.2 122 88 122H96C98.2 122 100 120.2 100 118V116H92Z" fill="#828C97"/>
<path d="M156 116H12V28C12 23.6 15.6 20 20 20H148C152.4 20 156 23.6 156 28V116Z" fill="#0B1F35"/>
<path d="M148 108H20V32C20 29.8 21.8 28 24 28H144C146.2 28 148 29.8 148 32V108Z" fill="white"/>
<path d="M124 46H68V78H124V46Z" fill="#4480FF"/>
<path d="M112 36.5H104C103.7 36.5 103.5 36.3 103.5 36C103.5 35.7 103.7 35.5 104 35.5H112C112.3 35.5 112.5 35.7 112.5 36C112.5 36.3 112.3 36.5 112 36.5Z" fill="#0B1F35"/>
<path d="M100 36.5H92C91.7 36.5 91.5 36.3 91.5 36C91.5 35.7 91.7 35.5 92 35.5H100C100.3 35.5 100.5 35.7 100.5 36C100.5 36.3 100.3 36.5 100 36.5Z" fill="#0B1F35"/>
<path d="M88 36.5H80C79.7 36.5 79.5 36.3 79.5 36C79.5 35.7 79.7 35.5 80 35.5H88C88.3 35.5 88.5 35.7 88.5 36C88.5 36.3 88.3 36.5 88 36.5Z" fill="#0B1F35"/>
<path d="M124 36.5H116C115.7 36.5 115.5 36.3 115.5 36C115.5 35.7 115.7 35.5 116 35.5H124C124.3 35.5 124.5 35.7 124.5 36C124.5 36.3 124.3 36.5 124 36.5Z" fill="#0B1F35"/>
<path d="M96 84H72V100H96V84Z" fill="#4480FF"/>
<path d="M96 105.5H72C71.7 105.5 71.5 105.3 71.5 105C71.5 104.7 71.7 104.5 72 104.5H96C96.3 104.5 96.5 104.7 96.5 105C96.5 105.3 96.3 105.5 96 105.5Z" fill="#0B1F35"/>
<path d="M89.1 102.5H72C71.7 102.5 71.5 102.3 71.5 102C71.5 101.7 71.7 101.5 72 101.5H89.1C89.4 101.5 89.6 101.7 89.6 102C89.6 102.3 89.4 102.5 89.1 102.5Z" fill="#0B1F35"/>
<path d="M124 84H100V100H124V84Z" fill="#4480FF"/>
<path d="M120 102.5H100C99.7 102.5 99.5 102.3 99.5 102C99.5 101.7 99.7 101.5 100 101.5H120C120.3 101.5 120.5 101.7 120.5 102C120.5 102.3 120.3 102.5 120 102.5Z" fill="#0B1F35"/>
<path d="M124 105.5H100C99.7 105.5 99.5 105.3 99.5 105C99.5 104.7 99.7 104.5 100 104.5H124C124.3 104.5 124.5 104.7 124.5 105C124.5 105.3 124.3 105.5 124 105.5Z" fill="#0B1F35"/>
<path d="M68 108H20V32C20 29.8 21.8 28 24 28H68V108Z" fill="#F0F1F2"/>
<path d="M30 34.4H28C27.8 34.4 27.6 34.2 27.6 34C27.6 33.8 27.8 33.6 28 33.6H30C30.2 33.6 30.4 33.8 30.4 34C30.4 34.2 30.2 34.4 30 34.4Z" fill="#DC3124"/>
<path d="M49 34.5H33C32.7 34.5 32.5 34.3 32.5 34C32.5 33.7 32.7 33.5 33 33.5H49C49.3 33.5 49.5 33.7 49.5 34C49.5 34.3 49.3 34.5 49 34.5Z" fill="#0B1F35"/>
<path d="M41 39.5H33C32.7 39.5 32.5 39.3 32.5 39C32.5 38.7 32.7 38.5 33 38.5H41C41.3 38.5 41.5 38.7 41.5 39C41.5 39.3 41.3 39.5 41 39.5Z" fill="#0B1F35"/>
<path d="M60 51.5H50C49.7 51.5 49.5 51.3 49.5 51C49.5 50.7 49.7 50.5 50 50.5H60C60.3 50.5 60.5 50.7 60.5 51C60.5 51.3 60.3 51.5 60 51.5Z" fill="#4480FF"/>
<path d="M60 39.5H44C43.7 39.5 43.5 39.3 43.5 39C43.5 38.7 43.7 38.5 44 38.5H60C60.3 38.5 60.5 38.7 60.5 39C60.5 39.3 60.3 39.5 60 39.5Z" fill="#4480FF"/>
<path d="M47 51.5H33C32.7 51.5 32.5 51.3 32.5 51C32.5 50.7 32.7 50.5 33 50.5H47C47.3 50.5 47.5 50.7 47.5 51C47.5 51.3 47.3 51.5 47 51.5Z" fill="#0B1F35"/>
<path d="M53 46.5H33C32.7 46.5 32.5 46.3 32.5 46C32.5 45.7 32.7 45.5 33 45.5H53C53.3 45.5 53.5 45.7 53.5 46C53.5 46.3 53.3 46.5 53 46.5Z" fill="#4480FF"/>
<path d="M64 46.5H56C55.7 46.5 55.5 46.3 55.5 46C55.5 45.7 55.7 45.5 56 45.5H64C64.3 45.5 64.5 45.7 64.5 46C64.5 46.3 64.3 46.5 64 46.5Z" fill="#0B1F35"/>
<path d="M30 46.4H28C27.8 46.4 27.6 46.2 27.6 46C27.6 45.8 27.8 45.6 28 45.6H30C30.2 45.6 30.4 45.8 30.4 46C30.4 46.2 30.2 46.4 30 46.4Z" fill="#DC3124"/>
<path d="M30 58.4H28C27.8 58.4 27.6 58.2 27.6 58C27.6 57.8 27.8 57.6 28 57.6H30C30.2 57.6 30.4 57.8 30.4 58C30.4 58.2 30.2 58.4 30 58.4Z" fill="#DC3124"/>
<path d="M49 58.5H33C32.7 58.5 32.5 58.3 32.5 58C32.5 57.7 32.7 57.5 33 57.5H49C49.3 57.5 49.5 57.7 49.5 58C49.5 58.3 49.3 58.5 49 58.5Z" fill="#4480FF"/>
<path d="M41 63.5H33C32.7 63.5 32.5 63.3 32.5 63C32.5 62.7 32.7 62.5 33 62.5H41C41.3 62.5 41.5 62.7 41.5 63C41.5 63.3 41.3 63.5 41 63.5Z" fill="#0B1F35"/>
<path d="M60 75.5H50C49.7 75.5 49.5 75.3 49.5 75C49.5 74.7 49.7 74.5 50 74.5H60C60.3 74.5 60.5 74.7 60.5 75C60.5 75.3 60.3 75.5 60 75.5Z" fill="#4480FF"/>
<path d="M60 63.5H44C43.7 63.5 43.5 63.3 43.5 63C43.5 62.7 43.7 62.5 44 62.5H60C60.3 62.5 60.5 62.7 60.5 63C60.5 63.3 60.3 63.5 60 63.5Z" fill="#0B1F35"/>
<path d="M47 75.5H33C32.7 75.5 32.5 75.3 32.5 75C32.5 74.7 32.7 74.5 33 74.5H47C47.3 74.5 47.5 74.7 47.5 75C47.5 75.3 47.3 75.5 47 75.5Z" fill="#0B1F35"/>
<path d="M53 70.5H33C32.7 70.5 32.5 70.3 32.5 70C32.5 69.7 32.7 69.5 33 69.5H53C53.3 69.5 53.5 69.7 53.5 70C53.5 70.3 53.3 70.5 53 70.5Z" fill="#4480FF"/>
<path d="M64 70.5H56C55.7 70.5 55.5 70.3 55.5 70C55.5 69.7 55.7 69.5 56 69.5H64C64.3 69.5 64.5 69.7 64.5 70C64.5 70.3 64.3 70.5 64 70.5Z" fill="#0B1F35"/>
<path d="M30 70.4H28C27.8 70.4 27.6 70.2 27.6 70C27.6 69.8 27.8 69.6 28 69.6H30C30.2 69.6 30.4 69.8 30.4 70C30.4 70.2 30.2 70.4 30 70.4Z" fill="#DC3124"/>
<path d="M30 82.4H28C27.8 82.4 27.6 82.2 27.6 82C27.6 81.8 27.8 81.6 28 81.6H30C30.2 81.6 30.4 81.8 30.4 82C30.4 82.2 30.2 82.4 30 82.4Z" fill="#DC3124"/>
<path d="M49 82.5H33C32.7 82.5 32.5 82.3 32.5 82C32.5 81.7 32.7 81.5 33 81.5H49C49.3 81.5 49.5 81.7 49.5 82C49.5 82.3 49.3 82.5 49 82.5Z" fill="#0B1F35"/>
<path d="M41 87.5H33C32.7 87.5 32.5 87.3 32.5 87C32.5 86.7 32.7 86.5 33 86.5H41C41.3 86.5 41.5 86.7 41.5 87C41.5 87.3 41.3 87.5 41 87.5Z" fill="#0B1F35"/>
<path d="M60 99.5H50C49.7 99.5 49.5 99.3 49.5 99C49.5 98.7 49.7 98.5 50 98.5H60C60.3 98.5 60.5 98.7 60.5 99C60.5 99.3 60.3 99.5 60 99.5Z" fill="#4480FF"/>
<path d="M60 87.5H44C43.7 87.5 43.5 87.3 43.5 87C43.5 86.7 43.7 86.5 44 86.5H60C60.3 86.5 60.5 86.7 60.5 87C60.5 87.3 60.3 87.5 60 87.5Z" fill="#4480FF"/>
<path d="M47 99.5H33C32.7 99.5 32.5 99.3 32.5 99C32.5 98.7 32.7 98.5 33 98.5H47C47.3 98.5 47.5 98.7 47.5 99C47.5 99.3 47.3 99.5 47 99.5Z" fill="#0B1F35"/>
<path d="M53 94.5H33C32.7 94.5 32.5 94.3 32.5 94C32.5 93.7 32.7 93.5 33 93.5H53C53.3 93.5 53.5 93.7 53.5 94C53.5 94.3 53.3 94.5 53 94.5Z" fill="#4480FF"/>
<path d="M64 94.5H56C55.7 94.5 55.5 94.3 55.5 94C55.5 93.7 55.7 93.5 56 93.5H64C64.3 93.5 64.5 93.7 64.5 94C64.5 94.3 64.3 94.5 64 94.5Z" fill="#0B1F35"/>
<path d="M30 94.4H28C27.8 94.4 27.6 94.2 27.6 94C27.6 93.8 27.8 93.6 28 93.6H30C30.2 93.6 30.4 93.8 30.4 94C30.4 94.2 30.2 94.4 30 94.4Z" fill="#DC3124"/>
<path d="M126 20H140V43.3107C140 43.6179 139.668 43.8104 139.402 43.658L133.992 40.567C133.377 40.2157 132.623 40.2157 132.008 40.567L126.598 43.658C126.332 43.8104 126 43.6179 126 43.3107V20Z" fill="#EF3124"/>
</svg>
