<svg width="168" height="128" viewBox="0 0 168 128" fill="none" xmlns="http://www.w3.org/2000/svg">
<path d="M92 128H52C49.8 128 48 126.2 48 124C48 121.8 49.8 120 52 120H92C94.2 120 96 121.8 96 124C96 126.2 94.2 128 92 128Z" fill="#C5C6CD"/>
<path d="M87 120H57L60 104H84L87 120Z" fill="#B3B9C0"/>
<path d="M85.5 112L83.9999 104H59.9999L58.5 112H85.5Z" fill="#828C97"/>
<path d="M87 120.8H57C56.8 120.8 56.6 120.6 56.6 120.4C56.6 120.2 56.8 120 57 120H87C87.2 120 87.4 120.2 87.4 120.4C87.4 120.6 87.2 120.8 87 120.8Z" fill="#828C97"/>
<path d="M144 88V96C144 100.4 140.4 104 136 104H8C3.6 104 0 100.4 0 96V88H144Z" fill="#C5C6CD"/>
<path d="M72 100.4C69.6 100.4 67.6 98.4 67.6 96C67.6 93.6 69.6 91.6 72 91.6C74.4 91.6 76.4 93.6 76.4 96C76.4 98.4 74.4 100.4 72 100.4ZM72 92.4C70 92.4 68.4 94 68.4 96C68.4 98 70 99.6 72 99.6C74 99.6 75.6 98 75.6 96C75.6 94 74 92.4 72 92.4Z" fill="#828C97"/>
<path d="M136 0H8C3.6 0 0 3.6 0 8V88H144V8C144 3.6 140.4 0 136 0Z" fill="#0B1F35"/>
<path d="M136 80H8V12C8 9.8 9.8 8 12 8H132C134.2 8 136 9.8 136 12V80Z" fill="white"/>
<path d="M112 26H32V58H112V26Z" fill="#4480FF"/>
<path d="M56 64H32V80H56V64Z" fill="#4480FF"/>
<path d="M112 64H88V80H112V64Z" fill="#4480FF"/>
<path d="M84 64H60V80H84V64Z" fill="#4480FF"/>
<path d="M52 16.5H32C31.7 16.5 31.5 16.3 31.5 16C31.5 15.7 31.7 15.5 32 15.5H52C52.3 15.5 52.5 15.7 52.5 16C52.5 16.3 52.3 16.5 52 16.5Z" fill="#0B1F35"/>
<path d="M100 16.5H92C91.7 16.5 91.5 16.3 91.5 16C91.5 15.7 91.7 15.5 92 15.5H100C100.3 15.5 100.5 15.7 100.5 16C100.5 16.3 100.3 16.5 100 16.5Z" fill="#0B1F35"/>
<path d="M88 16.5H80C79.7 16.5 79.5 16.3 79.5 16C79.5 15.7 79.7 15.5 80 15.5H88C88.3 15.5 88.5 15.7 88.5 16C88.5 16.3 88.3 16.5 88 16.5Z" fill="#0B1F35"/>
<path d="M76 16.5H68C67.7 16.5 67.5 16.3 67.5 16C67.5 15.7 67.7 15.5 68 15.5H76C76.3 15.5 76.5 15.7 76.5 16C76.5 16.3 76.3 16.5 76 16.5Z" fill="#0B1F35"/>
<path d="M112 16.5H104C103.7 16.5 103.5 16.3 103.5 16C103.5 15.7 103.7 15.5 104 15.5H112C112.3 15.5 112.5 15.7 112.5 16C112.5 16.3 112.3 16.5 112 16.5Z" fill="#0B1F35"/>
<path d="M160 32H122C117.6 32 114 35.6 114 40V120C114 124.4 117.6 128 122 128H160C164.4 128 168 124.4 168 120V40C168 35.6 164.4 32 160 32Z" fill="#0B1F35"/>
<path d="M159 38H123C121.3 38 120 39.3 120 41V119C120 120.7 121.3 122 123 122H159C160.7 122 162 120.7 162 119V41C162 39.3 160.7 38 159 38Z" fill="white"/>
<path d="M162 56H120V80H162V56Z" fill="#4480FF"/>
<path d="M158 84H124V102H158V84Z" fill="#4480FF"/>
<path d="M158 46.5H152C151.7 46.5 151.5 46.3 151.5 46C151.5 45.7 151.7 45.5 152 45.5H158C158.3 45.5 158.5 45.7 158.5 46C158.5 46.3 158.3 46.5 158 46.5Z" fill="#0B1F35"/>
<path d="M158 48.5H152C151.7 48.5 151.5 48.3 151.5 48C151.5 47.7 151.7 47.5 152 47.5H158C158.3 47.5 158.5 47.7 158.5 48C158.5 48.3 158.3 48.5 158 48.5Z" fill="#0B1F35"/>
<path d="M158 50.5H152C151.7 50.5 151.5 50.3 151.5 50C151.5 49.7 151.7 49.5 152 49.5H158C158.3 49.5 158.5 49.7 158.5 50C158.5 50.3 158.3 50.5 158 50.5Z" fill="#0B1F35"/>
<path d="M140 48.5H124C123.7 48.5 123.5 48.3 123.5 48C123.5 47.7 123.7 47.5 124 47.5H140C140.3 47.5 140.5 47.7 140.5 48C140.5 48.3 140.3 48.5 140 48.5Z" fill="#0B1F35"/>
<path d="M144 105.5H124C123.7 105.5 123.5 105.3 123.5 105C123.5 104.7 123.7 104.5 124 104.5H144C144.3 104.5 144.5 104.7 144.5 105C144.5 105.3 144.3 105.5 144 105.5Z" fill="#0B1F35"/>
<path d="M152 108.5H124C123.7 108.5 123.5 108.3 123.5 108C123.5 107.7 123.7 107.5 124 107.5H152C152.3 107.5 152.5 107.7 152.5 108C152.5 108.3 152.3 108.5 152 108.5Z" fill="#0B1F35"/>
<path d="M149 120H133C132.4 120 132 119.6 132 119C132 118.4 132.4 118 133 118H149C149.6 118 150 118.4 150 119C150 119.6 149.6 120 149 120Z" fill="#0B1F35"/>
<path d="M148 42H134C131.8 42 130 40.2 130 38V32H152V38C152 40.2 150.2 42 148 42Z" fill="#0B1F35"/>
</svg>
