<svg width="216" height="216" viewBox="0 0 216 216" fill="none" xmlns="http://www.w3.org/2000/svg">
<path d="M204 16.5C206.2 16.5 208 14.7 208 12.5C208 10.3 206.2 8.5 204 8.5C201.8 8.5 200 10.3 200 12.5C200 14.7 201.8 16.5 204 16.5Z" fill="#FF716F"/>
<path d="M204 40.5C206.2 40.5 208 38.7 208 36.5C208 34.3 206.2 32.5 204 32.5C201.8 32.5 200 34.3 200 36.5C200 38.7 201.8 40.5 204 40.5Z" fill="#FF716F"/>
<path d="M204 64.5C206.2 64.5 208 62.7 208 60.5C208 58.3 206.2 56.5 204 56.5C201.8 56.5 200 58.3 200 60.5C200 62.7 201.8 64.5 204 64.5Z" fill="#FF716F"/>
<path d="M204 88.5C206.2 88.5 208 86.7 208 84.5C208 82.3 206.2 80.5 204 80.5C201.8 80.5 200 82.3 200 84.5C200 86.7 201.8 88.5 204 88.5Z" fill="#FF716F"/>
<path d="M204 112.5C206.2 112.5 208 110.7 208 108.5C208 106.3 206.2 104.5 204 104.5C201.8 104.5 200 106.3 200 108.5C200 110.7 201.8 112.5 204 112.5Z" fill="#FF716F"/>
<path d="M204 136.5C206.2 136.5 208 134.7 208 132.5C208 130.3 206.2 128.5 204 128.5C201.8 128.5 200 130.3 200 132.5C200 134.7 201.8 136.5 204 136.5Z" fill="#FF716F"/>
<path d="M204 160.5C206.2 160.5 208 158.7 208 156.5C208 154.3 206.2 152.5 204 152.5C201.8 152.5 200 154.3 200 156.5C200 158.7 201.8 160.5 204 160.5Z" fill="#FF716F"/>
<path d="M204 184.5C206.2 184.5 208 182.7 208 180.5C208 178.3 206.2 176.5 204 176.5C201.8 176.5 200 178.3 200 180.5C200 182.7 201.8 184.5 204 184.5Z" fill="#FF716F"/>
<path d="M204 208.5C206.2 208.5 208 206.7 208 204.5C208 202.3 206.2 200.5 204 200.5C201.8 200.5 200 202.3 200 204.5C200 206.7 201.8 208.5 204 208.5Z" fill="#FF716F"/>
<path d="M180 16.5C182.2 16.5 184 14.7 184 12.5C184 10.3 182.2 8.5 180 8.5C177.8 8.5 176 10.3 176 12.5C176 14.7 177.8 16.5 180 16.5Z" fill="#FF716F"/>
<path d="M180 40.5C182.2 40.5 184 38.7 184 36.5C184 34.3 182.2 32.5 180 32.5C177.8 32.5 176 34.3 176 36.5C176 38.7 177.8 40.5 180 40.5Z" fill="#FF716F"/>
<path d="M180 64.5C182.2 64.5 184 62.7 184 60.5C184 58.3 182.2 56.5 180 56.5C177.8 56.5 176 58.3 176 60.5C176 62.7 177.8 64.5 180 64.5Z" fill="#FF716F"/>
<path d="M180 88.5C182.2 88.5 184 86.7 184 84.5C184 82.3 182.2 80.5 180 80.5C177.8 80.5 176 82.3 176 84.5C176 86.7 177.8 88.5 180 88.5Z" fill="#FF716F"/>
<path d="M180 112.5C182.2 112.5 184 110.7 184 108.5C184 106.3 182.2 104.5 180 104.5C177.8 104.5 176 106.3 176 108.5C176 110.7 177.8 112.5 180 112.5Z" fill="#FF716F"/>
<path d="M180 136.5C182.2 136.5 184 134.7 184 132.5C184 130.3 182.2 128.5 180 128.5C177.8 128.5 176 130.3 176 132.5C176 134.7 177.8 136.5 180 136.5Z" fill="#FF716F"/>
<path d="M180 160.5C182.2 160.5 184 158.7 184 156.5C184 154.3 182.2 152.5 180 152.5C177.8 152.5 176 154.3 176 156.5C176 158.7 177.8 160.5 180 160.5Z" fill="#FF716F"/>
<path d="M180 184.5C182.2 184.5 184 182.7 184 180.5C184 178.3 182.2 176.5 180 176.5C177.8 176.5 176 178.3 176 180.5C176 182.7 177.8 184.5 180 184.5Z" fill="#FF716F"/>
<path d="M180 208.5C182.2 208.5 184 206.7 184 204.5C184 202.3 182.2 200.5 180 200.5C177.8 200.5 176 202.3 176 204.5C176 206.7 177.8 208.5 180 208.5Z" fill="#FF716F"/>
<path d="M156 16.5C158.2 16.5 160 14.7 160 12.5C160 10.3 158.2 8.5 156 8.5C153.8 8.5 152 10.3 152 12.5C152 14.7 153.8 16.5 156 16.5Z" fill="#FF716F"/>
<path d="M156 40.5C158.2 40.5 160 38.7 160 36.5C160 34.3 158.2 32.5 156 32.5C153.8 32.5 152 34.3 152 36.5C152 38.7 153.8 40.5 156 40.5Z" fill="#FF716F"/>
<path d="M156 64.5C158.2 64.5 160 62.7 160 60.5C160 58.3 158.2 56.5 156 56.5C153.8 56.5 152 58.3 152 60.5C152 62.7 153.8 64.5 156 64.5Z" fill="#FF716F"/>
<path d="M156 88.5C158.2 88.5 160 86.7 160 84.5C160 82.3 158.2 80.5 156 80.5C153.8 80.5 152 82.3 152 84.5C152 86.7 153.8 88.5 156 88.5Z" fill="#FF716F"/>
<path d="M156 112.5C158.2 112.5 160 110.7 160 108.5C160 106.3 158.2 104.5 156 104.5C153.8 104.5 152 106.3 152 108.5C152 110.7 153.8 112.5 156 112.5Z" fill="#FF716F"/>
<path d="M156 136.5C158.2 136.5 160 134.7 160 132.5C160 130.3 158.2 128.5 156 128.5C153.8 128.5 152 130.3 152 132.5C152 134.7 153.8 136.5 156 136.5Z" fill="#FF716F"/>
<path d="M156 160.5C158.2 160.5 160 158.7 160 156.5C160 154.3 158.2 152.5 156 152.5C153.8 152.5 152 154.3 152 156.5C152 158.7 153.8 160.5 156 160.5Z" fill="#FF716F"/>
<path d="M156 184.5C158.2 184.5 160 182.7 160 180.5C160 178.3 158.2 176.5 156 176.5C153.8 176.5 152 178.3 152 180.5C152 182.7 153.8 184.5 156 184.5Z" fill="#FF716F"/>
<path d="M156 208.5C158.2 208.5 160 206.7 160 204.5C160 202.3 158.2 200.5 156 200.5C153.8 200.5 152 202.3 152 204.5C152 206.7 153.8 208.5 156 208.5Z" fill="#FF716F"/>
<path d="M132 16.5C134.2 16.5 136 14.7 136 12.5C136 10.3 134.2 8.5 132 8.5C129.8 8.5 128 10.3 128 12.5C128 14.7 129.8 16.5 132 16.5Z" fill="#FF716F"/>
<path d="M132 40.5C134.2 40.5 136 38.7 136 36.5C136 34.3 134.2 32.5 132 32.5C129.8 32.5 128 34.3 128 36.5C128 38.7 129.8 40.5 132 40.5Z" fill="#FF716F"/>
<path d="M132 64.5C134.2 64.5 136 62.7 136 60.5C136 58.3 134.2 56.5 132 56.5C129.8 56.5 128 58.3 128 60.5C128 62.7 129.8 64.5 132 64.5Z" fill="#FF716F"/>
<path d="M132 88.5C134.2 88.5 136 86.7 136 84.5C136 82.3 134.2 80.5 132 80.5C129.8 80.5 128 82.3 128 84.5C128 86.7 129.8 88.5 132 88.5Z" fill="#FF716F"/>
<path d="M132 112.5C134.2 112.5 136 110.7 136 108.5C136 106.3 134.2 104.5 132 104.5C129.8 104.5 128 106.3 128 108.5C128 110.7 129.8 112.5 132 112.5Z" fill="#FF716F"/>
<path d="M132 136.5C134.2 136.5 136 134.7 136 132.5C136 130.3 134.2 128.5 132 128.5C129.8 128.5 128 130.3 128 132.5C128 134.7 129.8 136.5 132 136.5Z" fill="#FF716F"/>
<path d="M132 160.5C134.2 160.5 136 158.7 136 156.5C136 154.3 134.2 152.5 132 152.5C129.8 152.5 128 154.3 128 156.5C128 158.7 129.8 160.5 132 160.5Z" fill="#FF716F"/>
<path d="M132 184.5C134.2 184.5 136 182.7 136 180.5C136 178.3 134.2 176.5 132 176.5C129.8 176.5 128 178.3 128 180.5C128 182.7 129.8 184.5 132 184.5Z" fill="#FF716F"/>
<path d="M132 208.5C134.2 208.5 136 206.7 136 204.5C136 202.3 134.2 200.5 132 200.5C129.8 200.5 128 202.3 128 204.5C128 206.7 129.8 208.5 132 208.5Z" fill="#FF716F"/>
<path d="M108 16.5C110.2 16.5 112 14.7 112 12.5C112 10.3 110.2 8.5 108 8.5C105.8 8.5 104 10.3 104 12.5C104 14.7 105.8 16.5 108 16.5Z" fill="#FF716F"/>
<path d="M108 40.5C110.2 40.5 112 38.7 112 36.5C112 34.3 110.2 32.5 108 32.5C105.8 32.5 104 34.3 104 36.5C104 38.7 105.8 40.5 108 40.5Z" fill="#FF716F"/>
<path d="M108 64.5C110.2 64.5 112 62.7 112 60.5C112 58.3 110.2 56.5 108 56.5C105.8 56.5 104 58.3 104 60.5C104 62.7 105.8 64.5 108 64.5Z" fill="#FF716F"/>
<path d="M108 88.5C110.2 88.5 112 86.7 112 84.5C112 82.3 110.2 80.5 108 80.5C105.8 80.5 104 82.3 104 84.5C104 86.7 105.8 88.5 108 88.5Z" fill="#FF716F"/>
<path d="M108 112.5C110.2 112.5 112 110.7 112 108.5C112 106.3 110.2 104.5 108 104.5C105.8 104.5 104 106.3 104 108.5C104 110.7 105.8 112.5 108 112.5Z" fill="#FF716F"/>
<path d="M108 136.5C110.2 136.5 112 134.7 112 132.5C112 130.3 110.2 128.5 108 128.5C105.8 128.5 104 130.3 104 132.5C104 134.7 105.8 136.5 108 136.5Z" fill="#FF716F"/>
<path d="M108 160.5C110.2 160.5 112 158.7 112 156.5C112 154.3 110.2 152.5 108 152.5C105.8 152.5 104 154.3 104 156.5C104 158.7 105.8 160.5 108 160.5Z" fill="#FF716F"/>
<path d="M108 184.5C110.2 184.5 112 182.7 112 180.5C112 178.3 110.2 176.5 108 176.5C105.8 176.5 104 178.3 104 180.5C104 182.7 105.8 184.5 108 184.5Z" fill="#FF716F"/>
<path d="M108 208.5C110.2 208.5 112 206.7 112 204.5C112 202.3 110.2 200.5 108 200.5C105.8 200.5 104 202.3 104 204.5C104 206.7 105.8 208.5 108 208.5Z" fill="#FF716F"/>
<path d="M84 16.5C86.2 16.5 88 14.7 88 12.5C88 10.3 86.2 8.5 84 8.5C81.8 8.5 80 10.3 80 12.5C80 14.7 81.8 16.5 84 16.5Z" fill="#FF716F"/>
<path d="M84 40.5C86.2 40.5 88 38.7 88 36.5C88 34.3 86.2 32.5 84 32.5C81.8 32.5 80 34.3 80 36.5C80 38.7 81.8 40.5 84 40.5Z" fill="#FF716F"/>
<path d="M84 64.5C86.2 64.5 88 62.7 88 60.5C88 58.3 86.2 56.5 84 56.5C81.8 56.5 80 58.3 80 60.5C80 62.7 81.8 64.5 84 64.5Z" fill="#FF716F"/>
<path d="M84 88.5C86.2 88.5 88 86.7 88 84.5C88 82.3 86.2 80.5 84 80.5C81.8 80.5 80 82.3 80 84.5C80 86.7 81.8 88.5 84 88.5Z" fill="#FF716F"/>
<path d="M84 112.5C86.2 112.5 88 110.7 88 108.5C88 106.3 86.2 104.5 84 104.5C81.8 104.5 80 106.3 80 108.5C80 110.7 81.8 112.5 84 112.5Z" fill="#FF716F"/>
<path d="M84 136.5C86.2 136.5 88 134.7 88 132.5C88 130.3 86.2 128.5 84 128.5C81.8 128.5 80 130.3 80 132.5C80 134.7 81.8 136.5 84 136.5Z" fill="#FF716F"/>
<path d="M84 160.5C86.2 160.5 88 158.7 88 156.5C88 154.3 86.2 152.5 84 152.5C81.8 152.5 80 154.3 80 156.5C80 158.7 81.8 160.5 84 160.5Z" fill="#FF716F"/>
<path d="M84 184.5C86.2 184.5 88 182.7 88 180.5C88 178.3 86.2 176.5 84 176.5C81.8 176.5 80 178.3 80 180.5C80 182.7 81.8 184.5 84 184.5Z" fill="#FF716F"/>
<path d="M84 208.5C86.2 208.5 88 206.7 88 204.5C88 202.3 86.2 200.5 84 200.5C81.8 200.5 80 202.3 80 204.5C80 206.7 81.8 208.5 84 208.5Z" fill="#FF716F"/>
<path d="M60 16.5C62.2 16.5 64 14.7 64 12.5C64 10.3 62.2 8.5 60 8.5C57.8 8.5 56 10.3 56 12.5C56 14.7 57.8 16.5 60 16.5Z" fill="#FF716F"/>
<path d="M60 40.5C62.2 40.5 64 38.7 64 36.5C64 34.3 62.2 32.5 60 32.5C57.8 32.5 56 34.3 56 36.5C56 38.7 57.8 40.5 60 40.5Z" fill="#FF716F"/>
<path d="M60 64.5C62.2 64.5 64 62.7 64 60.5C64 58.3 62.2 56.5 60 56.5C57.8 56.5 56 58.3 56 60.5C56 62.7 57.8 64.5 60 64.5Z" fill="#FF716F"/>
<path d="M60 88.5C62.2 88.5 64 86.7 64 84.5C64 82.3 62.2 80.5 60 80.5C57.8 80.5 56 82.3 56 84.5C56 86.7 57.8 88.5 60 88.5Z" fill="#FF716F"/>
<path d="M60 112.5C62.2 112.5 64 110.7 64 108.5C64 106.3 62.2 104.5 60 104.5C57.8 104.5 56 106.3 56 108.5C56 110.7 57.8 112.5 60 112.5Z" fill="#FF716F"/>
<path d="M60 136.5C62.2 136.5 64 134.7 64 132.5C64 130.3 62.2 128.5 60 128.5C57.8 128.5 56 130.3 56 132.5C56 134.7 57.8 136.5 60 136.5Z" fill="#FF716F"/>
<path d="M60 160.5C62.2 160.5 64 158.7 64 156.5C64 154.3 62.2 152.5 60 152.5C57.8 152.5 56 154.3 56 156.5C56 158.7 57.8 160.5 60 160.5Z" fill="#FF716F"/>
<path d="M60 184.5C62.2 184.5 64 182.7 64 180.5C64 178.3 62.2 176.5 60 176.5C57.8 176.5 56 178.3 56 180.5C56 182.7 57.8 184.5 60 184.5Z" fill="#FF716F"/>
<path d="M60 208.5C62.2 208.5 64 206.7 64 204.5C64 202.3 62.2 200.5 60 200.5C57.8 200.5 56 202.3 56 204.5C56 206.7 57.8 208.5 60 208.5Z" fill="#FF716F"/>
<path d="M36 16.5C38.2 16.5 40 14.7 40 12.5C40 10.3 38.2 8.5 36 8.5C33.8 8.5 32 10.3 32 12.5C32 14.7 33.8 16.5 36 16.5Z" fill="#FF716F"/>
<path d="M36 40.5C38.2 40.5 40 38.7 40 36.5C40 34.3 38.2 32.5 36 32.5C33.8 32.5 32 34.3 32 36.5C32 38.7 33.8 40.5 36 40.5Z" fill="#FF716F"/>
<path d="M36 64.5C38.2 64.5 40 62.7 40 60.5C40 58.3 38.2 56.5 36 56.5C33.8 56.5 32 58.3 32 60.5C32 62.7 33.8 64.5 36 64.5Z" fill="#FF716F"/>
<path d="M36 88.5C38.2 88.5 40 86.7 40 84.5C40 82.3 38.2 80.5 36 80.5C33.8 80.5 32 82.3 32 84.5C32 86.7 33.8 88.5 36 88.5Z" fill="#FF716F"/>
<path d="M36 112.5C38.2 112.5 40 110.7 40 108.5C40 106.3 38.2 104.5 36 104.5C33.8 104.5 32 106.3 32 108.5C32 110.7 33.8 112.5 36 112.5Z" fill="#FF716F"/>
<path d="M36 136.5C38.2 136.5 40 134.7 40 132.5C40 130.3 38.2 128.5 36 128.5C33.8 128.5 32 130.3 32 132.5C32 134.7 33.8 136.5 36 136.5Z" fill="#FF716F"/>
<path d="M36 160.5C38.2 160.5 40 158.7 40 156.5C40 154.3 38.2 152.5 36 152.5C33.8 152.5 32 154.3 32 156.5C32 158.7 33.8 160.5 36 160.5Z" fill="#FF716F"/>
<path d="M36 184.5C38.2 184.5 40 182.7 40 180.5C40 178.3 38.2 176.5 36 176.5C33.8 176.5 32 178.3 32 180.5C32 182.7 33.8 184.5 36 184.5Z" fill="#FF716F"/>
<path d="M36 208.5C38.2 208.5 40 206.7 40 204.5C40 202.3 38.2 200.5 36 200.5C33.8 200.5 32 202.3 32 204.5C32 206.7 33.8 208.5 36 208.5Z" fill="#FF716F"/>
<path d="M12 16.5C14.2 16.5 16 14.7 16 12.5C16 10.3 14.2 8.5 12 8.5C9.8 8.5 8 10.3 8 12.5C8 14.7 9.8 16.5 12 16.5Z" fill="#FF716F"/>
<path d="M12 40.5C14.2 40.5 16 38.7 16 36.5C16 34.3 14.2 32.5 12 32.5C9.8 32.5 8 34.3 8 36.5C8 38.7 9.8 40.5 12 40.5Z" fill="#FF716F"/>
<path d="M12 64.5C14.2 64.5 16 62.7 16 60.5C16 58.3 14.2 56.5 12 56.5C9.8 56.5 8 58.3 8 60.5C8 62.7 9.8 64.5 12 64.5Z" fill="#FF716F"/>
<path d="M12 88.5C14.2 88.5 16 86.7 16 84.5C16 82.3 14.2 80.5 12 80.5C9.8 80.5 8 82.3 8 84.5C8 86.7 9.8 88.5 12 88.5Z" fill="#FF716F"/>
<path d="M12 112.5C14.2 112.5 16 110.7 16 108.5C16 106.3 14.2 104.5 12 104.5C9.8 104.5 8 106.3 8 108.5C8 110.7 9.8 112.5 12 112.5Z" fill="#FF716F"/>
<path d="M12 136.5C14.2 136.5 16 134.7 16 132.5C16 130.3 14.2 128.5 12 128.5C9.8 128.5 8 130.3 8 132.5C8 134.7 9.8 136.5 12 136.5Z" fill="#FF716F"/>
<path d="M12 160.5C14.2 160.5 16 158.7 16 156.5C16 154.3 14.2 152.5 12 152.5C9.8 152.5 8 154.3 8 156.5C8 158.7 9.8 160.5 12 160.5Z" fill="#FF716F"/>
<path d="M12 184.5C14.2 184.5 16 182.7 16 180.5C16 178.3 14.2 176.5 12 176.5C9.8 176.5 8 178.3 8 180.5C8 182.7 9.8 184.5 12 184.5Z" fill="#FF716F"/>
<path d="M12 208.5C14.2 208.5 16 206.7 16 204.5C16 202.3 14.2 200.5 12 200.5C9.8 200.5 8 202.3 8 204.5C8 206.7 9.8 208.5 12 208.5Z" fill="#FF716F"/>
</svg>
