<svg width="112" height="192" viewBox="0 0 112 192" fill="none" xmlns="http://www.w3.org/2000/svg">
<path d="M108 50L104 47.6V175.6L108 178V50Z" fill="#C4C4C4"/>
<path d="M12 148L28 157.6V181.6L20 168L12 172V148Z" fill="#EF3124"/>
<path d="M8 24.8V20.8L36 6.80005V10.8001L8 24.8Z" fill="#0B1F35"/>
<path d="M36 130.8V10.8L12 22.8V142.8L36 130.8Z" fill="#F9FAFA"/>
<path d="M28 2L108 50V178L28 130V2Z" fill="#0B1F35"/>
<path d="M104 51.6L80 63.6L12 22.8L36 10.8L104 51.6Z" fill="#F9FAFA"/>
<path d="M108 50V54L36 10.8001V6.80005L108 50Z" fill="#0B1F35"/>
<path d="M104 171.6V51.6L80 63.6V183.6L104 171.6Z" fill="#F3F4F5"/>
<path d="M112 48L32 0C24.7184 1.37189 20.578 2.5892 14 6C8.03532 9.09279 4.67719 11.1765 0 16L80 64L84 62L12 18.8L36 6.8L108 50L112 48Z" fill="#78A3FF"/>
<path d="M84 62L80 64V192L84 190V62Z" fill="#125EFF"/>
<path d="M112 48L108 50V178L112 176V48Z" fill="#125EFF"/>
<path d="M0 16L80 64V192L0 144V16Z" fill="#4480FF"/>
<path d="M29.1811 82.6494C29.383 82.9989 29.4841 83.3256 29.4841 83.6286C29.4841 83.9318 29.3833 84.1419 29.1811 84.2581L17.2781 91.13L29.181 111.747C29.3829 112.097 29.484 112.423 29.484 112.726C29.484 112.862 29.4637 112.979 29.4232 113.077C29.3733 113.199 29.2926 113.292 29.181 113.356L27.6664 114.229C27.4646 114.346 27.2327 114.328 26.9698 114.177C26.7069 114.025 26.4749 113.775 26.2731 113.425L12.1594 88.9791C11.9575 88.6294 11.8564 88.3027 11.8564 87.9998C11.8564 87.6968 11.9572 87.4866 12.1594 87.3703L26.2732 79.2218C26.475 79.1051 26.7074 79.1223 26.9699 79.2739C27.2324 79.4254 27.4646 79.6765 27.6666 80.0262L29.1811 82.6494Z" fill="#F9FAFA"/>
<path d="M46.4145 84.5896L44.5363 82.9107C44.2945 82.6779 44.0563 82.5697 43.8247 82.5873C43.613 82.6032 43.4637 82.7185 43.378 82.9331C43.3697 82.954 43.362 82.9757 43.3549 82.9982L32.0576 121.626C31.9769 121.882 32.0022 122.183 32.1334 122.527C32.2013 122.705 32.2869 122.87 32.3901 123.021C32.486 123.162 32.5974 123.292 32.7241 123.41L34.6018 125.089C34.8441 125.322 35.0815 125.43 35.3137 125.412C35.546 125.394 35.7027 125.258 35.7831 125.002L47.0808 86.3734C47.1613 86.117 47.1363 85.8166 47.0049 85.4724C46.8735 85.1282 46.6771 84.8342 46.4145 84.5896Z" fill="#F9FAFA"/>
<path d="M66.9792 119.02L52.865 94.574C52.6632 94.2246 52.4308 93.9735 52.1688 93.8222C51.9059 93.6704 51.6743 93.6537 51.4718 93.7697L49.9578 94.6441C49.7561 94.7608 49.6555 94.9708 49.6555 95.274C49.6555 95.5775 49.756 95.9036 49.9578 96.253L61.8611 116.87L49.9578 123.743C49.7561 123.859 49.6555 124.07 49.6555 124.372C49.6555 124.676 49.756 125.002 49.9578 125.351L51.4718 127.973C51.6743 128.324 51.906 128.574 52.1688 128.725C52.4309 128.877 52.6632 128.894 52.865 128.778L66.9792 120.629C67.0665 120.579 67.135 120.511 67.1845 120.426C67.2495 120.313 67.2819 120.171 67.2819 119.999C67.2819 119.696 67.1811 119.37 66.9792 119.02Z" fill="#F9FAFA"/>
</svg>
