<svg width="16" height="16" viewBox="0 0 16 16" fill="none" xmlns="http://www.w3.org/2000/svg">
<path d="M12.2944 1.59918C11.9415 2.01007 11.7772 2.93482 12.135 3.87227C12.4928 4.80971 13.0412 4.60611 13.3831 5.56206C13.8344 6.82345 13.6243 8.5179 13.6243 8.5179C13.6243 8.5179 14.1668 10.0889 14.5448 8.42016C15.3816 5.28581 12.2944 2.37103 12.2944 1.59918Z" fill="url(#paint0_radial)"/>
<path d="M7.98829 14.6121C11.602 14.6121 14.5295 11.6688 14.5295 8.03951C14.5295 4.41025 11.602 1.46695 7.99179 1.46695C4.38156 1.46695 1.45411 4.41026 1.45411 8.03951C1.44711 11.6723 4.37803 14.6121 7.98829 14.6121Z" fill="url(#paint1_radial)"/>
<path d="M12.8894 12.0922C12.748 12.1919 12.5997 12.2815 12.4455 12.3601C12.6497 12.0609 12.8381 11.7512 13.0099 11.4323C13.1493 11.2781 13.277 11.1281 13.3811 10.9659C13.4317 10.8862 13.4889 10.7879 13.5493 10.6739C13.9165 10.0122 14.3215 8.94147 14.3329 7.84164V7.83899C14.3332 7.81192 14.3334 7.78483 14.3332 7.75772C14.3351 7.48164 14.3068 7.20618 14.249 6.93623C14.2519 6.95732 14.2545 6.97839 14.2572 6.99946C14.2539 6.98325 14.2512 6.96686 14.2477 6.95063C14.2531 6.9806 14.2574 7.00957 14.2621 7.03879C14.3371 7.67563 14.2837 8.29681 14.0162 8.75477C14.012 8.76146 14.0077 8.76772 14.0034 8.77427C14.1421 8.07824 14.1885 7.30972 14.0342 6.54032C14.0342 6.54032 13.9725 6.16628 13.5129 5.03077C13.2484 4.3772 12.7786 3.84136 12.3635 3.45099C11.9997 3.00088 11.6693 2.69881 11.4871 2.50702C11.1066 2.10637 10.9471 1.80605 10.8817 1.6101C10.8249 1.58163 10.0987 0.876152 10.041 0.849274C9.724 1.34074 8.72711 2.87802 9.20133 4.31433C9.41623 4.96524 9.95973 5.64081 10.5285 6.0198C10.5535 6.04832 10.867 6.38881 11.0161 7.15676C11.17 7.95017 11.0891 8.56926 10.7723 9.48477C10.3997 10.2879 9.44506 11.082 8.55123 11.1632C6.64035 11.3368 5.9408 10.2038 5.9408 10.2038C6.6236 10.4767 7.37854 10.4196 7.83765 10.1366C8.30035 9.85038 8.58024 9.63815 8.80741 9.72184C9.03139 9.80514 9.2097 9.56334 9.0497 9.31267C8.92613 9.12236 8.74933 8.97259 8.54129 8.882C8.33325 8.79141 8.10317 8.76401 7.87967 8.80321C7.41648 8.87849 6.9922 9.24541 6.38529 8.89006C6.34601 8.86727 6.30799 8.84237 6.2714 8.81547C6.23139 8.78917 6.40145 8.85551 6.36177 8.82561C6.24366 8.76145 6.03464 8.62163 5.98041 8.5719C5.97137 8.56362 6.07205 8.60401 6.06302 8.59571C5.49554 8.12841 5.56642 7.81274 5.58425 7.61475C5.59853 7.45636 5.70161 7.25339 5.8753 7.17106C5.95919 7.21684 6.01146 7.2518 6.01146 7.2518C6.01146 7.2518 5.97568 7.17869 5.95633 7.14016C5.96311 7.13721 5.96959 7.13799 5.97634 7.13512C6.04507 7.16829 6.19704 7.25448 6.27705 7.30704C6.38127 7.38054 6.41448 7.44609 6.41448 7.44609C6.41448 7.44609 6.44192 7.43098 6.42163 7.36688C6.41426 7.34059 6.38262 7.25706 6.2794 7.17275L6.28585 7.17347C6.34763 7.20868 6.40616 7.24932 6.46072 7.29491C6.48982 7.1891 6.54217 7.07861 6.53066 6.88096C6.52363 6.74198 6.52687 6.706 6.50238 6.65233C6.48045 6.60624 6.51467 6.58826 6.55275 6.63612C6.54623 6.59862 6.53531 6.56202 6.52021 6.52707L6.52053 6.52348C6.56806 6.35791 7.52622 5.92725 7.59597 5.87692C7.71056 5.79584 7.80665 5.69137 7.87789 5.57041C7.93119 5.48549 7.97127 5.36635 7.98104 5.18563C7.98627 5.05531 7.92565 4.96852 6.9568 4.86707C6.69184 4.84098 6.53637 4.64898 6.44803 4.47182C6.43191 4.43365 6.41548 4.39907 6.39904 4.36451C6.38334 4.32411 6.37074 4.28258 6.36134 4.24027C6.51974 3.78533 6.78588 3.40067 7.17722 3.11004C7.19854 3.09062 7.09202 3.11502 7.11332 3.0956C7.13818 3.07293 7.30056 3.00752 7.33122 2.99279C7.36868 2.9751 7.17087 2.89111 6.99625 2.91156C6.8184 2.9316 6.78063 2.95282 6.68572 2.99307C6.72511 2.95385 6.85036 2.90245 6.821 2.90279C6.62927 2.93219 6.39102 3.04364 6.18736 3.16987C6.18696 3.14788 6.19115 3.12606 6.19966 3.10579C6.10475 3.14605 5.87164 3.30897 5.80378 3.44681C5.80671 3.42039 5.80802 3.39382 5.8077 3.36724C5.7354 3.42754 5.67017 3.49585 5.61327 3.57086L5.60971 3.57408C5.05921 3.35231 4.57478 3.33796 4.16483 3.43739C4.07514 3.34733 4.03134 3.41317 3.82727 2.96483C3.81341 2.93784 3.83791 2.99149 3.82727 2.96483C3.79371 2.87789 3.84774 3.08083 3.82727 2.96483C3.48417 3.23556 3.03272 3.54237 2.81602 3.75894C2.81333 3.76758 3.06882 3.68674 2.81602 3.75894C2.72748 3.78423 2.7335 3.83676 2.72004 4.31153C2.7168 4.34753 2.71967 4.38785 2.71676 4.42026C2.54364 4.64082 2.42574 4.8276 2.38115 4.92438C2.15727 5.31016 1.91069 5.91156 1.67168 6.86289C1.7771 6.60503 1.90421 6.35657 2.05163 6.12019C1.85287 6.62514 1.66073 7.41809 1.62231 8.6392C1.67039 8.38722 1.73205 8.13802 1.807 7.89268C1.76008 8.90576 1.93478 9.91688 2.31892 10.8555C2.45639 11.1918 2.68378 11.7021 3.07087 12.2613C4.28706 13.5409 6.00248 14.3375 7.90203 14.3375C9.88505 14.3376 11.6658 13.4699 12.8894 12.0922Z" fill="url(#paint2_linear)"/>
<path d="M11.4223 13.0216C13.8223 12.7437 14.8847 10.2705 13.5204 10.2218C12.288 10.1824 10.2855 13.1528 11.4223 13.0216Z" fill="url(#paint3_radial)"/>
<path d="M13.6931 9.71662C15.3443 8.75564 14.9138 6.67987 14.9138 6.67987C14.9138 6.67987 14.2765 7.42017 13.8436 8.60024C13.416 9.76877 12.7004 10.297 13.6931 9.71662Z" fill="url(#paint4_radial)"/>
<path d="M8.45121 14.2499C10.7533 14.9845 12.732 13.171 11.5123 12.5653C10.4034 12.0191 7.35855 13.9026 8.45121 14.2499Z" fill="url(#paint5_radial)"/>
<path d="M13.8647 10.598C13.9207 10.5189 13.9964 10.2659 14.0633 10.1528C14.4697 9.4967 14.4726 8.97358 14.4726 8.9616C14.7181 7.73531 14.6958 7.23457 14.5448 6.30853C14.4232 5.5629 13.8917 4.49467 13.4312 3.98027C12.9567 3.4503 13.291 3.62298 12.8316 3.23585C12.4289 2.78946 12.0385 2.34742 11.8258 2.16964C10.2893 0.885022 10.324 0.612159 10.3536 0.565638C10.3486 0.571105 10.3412 0.579225 10.3319 0.589849C10.3137 0.517305 10.3008 0.456299 10.3008 0.456299C10.3008 0.456299 9.46089 1.29624 9.28406 2.69614C9.16862 3.61007 9.51074 4.56281 10.0061 5.17175C10.2641 5.48733 10.5556 5.77391 10.8755 6.02643V6.02604C11.2498 6.56356 11.4558 7.22685 11.4558 7.94035C11.4558 9.72698 10.0067 11.1753 8.21907 11.1753C7.97544 11.1754 7.73257 11.1482 7.49504 11.094C6.65163 10.9333 6.16458 10.5078 5.92168 10.2189C5.78247 10.0534 5.72327 9.93274 5.72327 9.93274C6.47897 10.2034 7.31453 10.1468 7.82265 9.86616C8.3347 9.58227 8.64452 9.37183 8.89596 9.45481C9.14382 9.53742 9.34114 9.29762 9.16415 9.04904C8.9907 8.80082 8.53935 8.44532 7.8692 8.54381C7.35656 8.61848 6.88696 8.98235 6.21526 8.62994C6.172 8.60747 6.12992 8.58278 6.08921 8.55597C6.04493 8.52987 6.23315 8.59568 6.18922 8.56602C6.05851 8.50239 5.82712 8.36373 5.76714 8.31442C5.75714 8.30621 5.86857 8.34627 5.8585 8.338C5.23045 7.87457 5.30886 7.56153 5.32862 7.36517C5.34443 7.20809 5.4585 7.0068 5.65073 6.92516C5.74356 6.97056 5.80142 7.00522 5.80142 7.00522C5.80142 7.00522 5.76181 6.93272 5.7404 6.89451C5.7479 6.89165 5.75504 6.89237 5.7625 6.88952C5.83857 6.92241 6.00676 7.00783 6.09532 7.06001C6.21066 7.13291 6.24742 7.19791 6.24742 7.19791C6.24742 7.19791 6.27779 7.18293 6.25532 7.11936C6.24712 7.0933 6.21216 7.01045 6.09792 6.92684L6.10506 6.92756C6.17288 6.96213 6.23763 7.00242 6.2986 7.048C6.33081 6.94307 6.38876 6.83349 6.37601 6.63748C6.36823 6.49967 6.37182 6.46396 6.34471 6.41075C6.32044 6.36507 6.35833 6.34721 6.40044 6.39472C6.39315 6.35725 6.38105 6.32088 6.36443 6.28651L6.3648 6.28295C6.4174 6.11875 7.47786 5.69167 7.55505 5.64175C7.67943 5.56367 7.78579 5.46005 7.86708 5.33775C7.92602 5.25353 7.97044 5.13538 7.98125 4.95617C7.98488 4.87541 7.96002 4.8115 7.67917 4.75038C7.51061 4.71369 7.24983 4.67798 6.84758 4.64025C6.55434 4.61437 6.38227 4.42398 6.2845 4.24827C6.26665 4.21042 6.24847 4.17607 6.23027 4.14185C6.21297 4.10202 6.19902 4.06081 6.18856 4.01866C6.36403 3.55929 6.68004 3.16703 7.09155 2.89781C7.11513 2.87854 6.99724 2.90275 7.02082 2.88349C7.04834 2.86102 7.22805 2.79615 7.262 2.78153C7.30345 2.76406 7.08452 2.68074 6.89126 2.70099C6.69443 2.72087 6.65263 2.74189 6.54758 2.78183C6.59118 2.74294 6.7298 2.69194 6.69731 2.69231C6.48511 2.72145 6.22134 2.83199 5.99588 2.95715C5.99547 2.93521 6.00013 2.91346 6.0095 2.89361C5.90445 2.93353 5.64646 3.09511 5.57135 3.2318C5.57458 3.20563 5.57602 3.17927 5.57568 3.1529C5.49657 3.21186 5.4244 3.27958 5.36054 3.35478L5.3566 3.358C4.74732 3.13806 4.21116 3.12383 3.75745 3.22243C3.65819 3.13311 3.4986 2.99806 3.27276 2.55342C3.25742 2.52665 3.24918 2.60876 3.23739 2.58232C3.14964 2.37877 3.09662 2.04529 3.10533 1.81538C3.10533 1.81538 2.92381 1.89811 2.77358 2.2436C2.74569 2.30571 2.7278 2.33997 2.70992 2.37424C2.7017 2.38423 2.72856 2.26077 2.72428 2.26749C2.69816 2.3117 2.63061 2.37347 2.60092 2.45343C2.58053 2.51268 2.55193 2.54586 2.53367 2.61976L2.52938 2.62654C2.52791 2.60476 2.53479 2.53693 2.52978 2.55084C2.45936 2.69311 2.39876 2.84003 2.34841 2.99057C2.26753 3.2565 2.17336 3.61847 2.15844 4.08935C2.15484 4.12505 2.15804 4.16503 2.1548 4.19717C1.96323 4.41591 1.8327 4.60112 1.78335 4.69713C1.53569 5.07983 1.26278 5.67624 0.998229 6.61967C1.11593 6.36197 1.25668 6.11542 1.41876 5.88305C1.19877 6.38381 0.986116 7.17019 0.943604 8.3812C0.997003 8.13059 1.06526 7.88338 1.14802 7.64088C1.11003 8.4484 1.20409 9.44955 1.71459 10.5791C2.01771 11.2435 2.71546 12.5927 4.42038 13.6456L4.42023 13.6457C4.42023 13.6457 5.00023 14.0775 5.99721 14.4011C6.07089 14.4278 6.14553 14.4541 6.2217 14.4796C6.19779 14.47 6.17467 14.4598 6.15222 14.4494C6.81581 14.6482 7.5048 14.7495 8.19754 14.75C10.779 14.7522 11.5403 13.7156 11.5403 13.7156C11.5403 13.7156 11.5376 13.7176 11.5327 13.7211C11.5692 13.6868 11.6042 13.6512 11.638 13.6142C11.2307 13.9988 10.3012 14.0243 9.9537 13.9966C10.5464 13.8225 10.9364 13.6752 11.6951 13.3847C11.7839 13.3518 11.8747 13.3143 11.9674 13.2722C11.9775 13.2677 11.9876 13.2629 11.9977 13.2584C12.0161 13.2498 12.0343 13.2417 12.0529 13.2327C12.4225 13.0585 12.7701 12.8409 13.0883 12.5845C13.8501 11.9759 14.0159 11.3827 14.1025 10.9915C14.0904 11.029 14.0528 11.1164 14.0263 11.173C13.8301 11.5927 13.395 11.8503 12.9225 12.0711C13.1474 11.7761 13.3559 11.469 13.5471 11.1511C13.7014 10.9981 13.7495 10.7588 13.8647 10.598Z" fill="url(#paint6_radial)"/>
<path d="M12.9374 12.0531C13.2481 11.7106 13.527 11.3189 13.7383 10.8747C14.2821 9.73148 15.1228 7.83059 14.4606 5.8453C13.9373 4.27619 13.2188 3.41819 12.3065 2.58005C10.825 1.21897 10.4112 0.611336 10.4112 0.25C10.4112 0.25 8.70049 2.15694 9.44239 4.14586C10.1843 6.13478 11.7037 6.06187 12.709 8.1374C13.8919 10.5798 11.7519 13.245 9.98224 13.991C10.0906 13.967 13.9163 13.1012 14.1173 10.913C14.1128 10.9532 14.0266 11.5584 12.9374 12.0531Z" fill="url(#paint7_radial)"/>
<path d="M7.98129 4.95619C7.98708 4.82696 7.92005 4.74016 6.85132 4.63991C6.41162 4.59932 6.24325 4.19292 6.19192 4.02188C6.03558 4.42807 5.97102 4.85431 6.00572 5.36987C6.02945 5.70761 6.25636 6.07013 6.36483 6.28297C6.36483 6.28297 6.38894 6.25164 6.40007 6.24006C6.60432 6.02741 7.4601 5.7034 7.5405 5.65739C7.62912 5.60141 7.96641 5.35497 7.98129 4.95619Z" fill="url(#paint8_linear)"/>
<path d="M3.27645 2.55571C3.26111 2.52892 3.25287 2.61103 3.24109 2.58461C3.15333 2.38106 3.09995 2.05117 3.11259 1.81802C3.11259 1.81802 2.93107 1.90075 2.78084 2.24625C2.75295 2.30836 2.73506 2.34262 2.71718 2.37688C2.70896 2.38687 2.73582 2.26341 2.73154 2.27013C2.70544 2.31434 2.63789 2.37611 2.60855 2.45249C2.58422 2.51495 2.5592 2.54849 2.54058 2.62596C2.53484 2.64701 2.54635 2.53278 2.54134 2.54669C2.19194 3.22196 2.12525 4.24299 2.16207 4.19981C2.90591 3.40555 3.75833 3.21719 3.75833 3.21719C3.66763 3.15037 3.47057 2.95747 3.27647 2.55571H3.27645Z" fill="url(#paint9_linear)"/>
<path d="M6.09892 10.8612C5.07149 10.4226 3.90341 9.80387 3.9475 8.39833C4.00755 6.54723 5.67372 6.91309 5.67372 6.91309C5.61085 6.9284 5.44274 7.0481 5.38316 7.17568C5.3202 7.33523 5.20532 7.6955 5.55338 8.07309C6.09991 8.66535 4.43051 9.47824 7.00725 11.0139C7.07224 11.0492 6.40322 10.9928 6.09895 10.8612H6.09892Z" fill="url(#paint10_linear)"/>
<path d="M5.73379 9.93879C6.46236 10.1924 7.31111 10.1479 7.81924 9.86721C8.15942 9.67784 8.59582 9.37453 8.86433 9.4494C8.63185 9.35751 8.45577 9.31457 8.24396 9.30408C8.20788 9.30408 8.16465 9.30331 8.12536 9.29936C8.04778 9.29911 7.97026 9.30336 7.89317 9.31208C7.76202 9.32413 7.61664 9.40688 7.48447 9.3936C7.47733 9.39288 7.61268 9.33799 7.60167 9.34048C7.53164 9.35508 7.45556 9.35823 7.37518 9.3682C7.32409 9.37388 7.28015 9.38028 7.22943 9.38239C5.71191 9.51107 4.42938 8.55994 4.42938 8.55994C4.32022 8.92759 4.91811 9.65481 5.73381 9.93879H5.73379Z" fill="url(#paint11_linear)"/>
<path d="M12.9346 12.0629C14.4695 10.5559 15.2461 8.72399 14.9178 6.66932C14.9178 6.66932 15.0489 7.72292 14.5516 8.80052C14.7905 7.74849 14.8183 6.44112 14.1836 5.08728C13.3364 3.28022 11.943 2.32936 11.4111 1.93267C10.6051 1.33162 10.271 0.719639 10.265 0.593353C10.0242 1.08666 9.29588 2.7772 10.1867 4.23309C11.0214 5.5971 12.3362 6.00196 13.2566 7.25315C14.9523 9.55812 12.9346 12.0629 12.9346 12.0629Z" fill="url(#paint12_linear)"/>
<path d="M12.7146 8.14177C12.1782 7.03362 11.5087 6.55029 10.8754 6.02643C10.9491 6.12958 10.9672 6.16602 11.008 6.23273C11.5654 6.82682 12.3874 8.27593 11.7906 10.0951C10.6673 13.5193 6.17418 11.9068 5.70312 11.4539C5.89369 13.4357 9.21077 14.384 11.3705 13.0989C12.5995 11.9355 13.5937 9.95776 12.7146 8.14177Z" fill="url(#paint13_linear)"/>
<defs>
<radialGradient id="paint0_radial" cx="0" cy="0" r="1" gradientUnits="userSpaceOnUse" gradientTransform="translate(14.3265 3.87791) rotate(2.55481) scale(5.06776 7.44869)">
<stop offset="0.045" stop-color="#FFEA00"/>
<stop offset="0.12" stop-color="#FFDE00"/>
<stop offset="0.254" stop-color="#FFBF00"/>
<stop offset="0.429" stop-color="#FF8E00"/>
<stop offset="0.769" stop-color="#FF272D"/>
<stop offset="0.872" stop-color="#E0255A"/>
<stop offset="0.953" stop-color="#CC2477"/>
<stop offset="1" stop-color="#C42482"/>
</radialGradient>
<radialGradient id="paint1_radial" cx="0" cy="0" r="1" gradientUnits="userSpaceOnUse" gradientTransform="translate(10.7151 3.09599) scale(14.2827)">
<stop stop-color="#00CCDA"/>
<stop offset="0.22" stop-color="#0083FF"/>
<stop offset="0.261" stop-color="#007AF9"/>
<stop offset="0.33" stop-color="#0060E8"/>
<stop offset="0.333" stop-color="#005FE7"/>
<stop offset="0.438" stop-color="#2639AD"/>
<stop offset="0.522" stop-color="#401E84"/>
<stop offset="0.566" stop-color="#4A1475"/>
</radialGradient>
<linearGradient id="paint2_linear" x1="8.91068" y1="10.9951" x2="6.08969" y2="1.76717" gradientUnits="userSpaceOnUse">
<stop stop-color="#000F43" stop-opacity="0.4"/>
<stop offset="0.485" stop-color="#001962" stop-opacity="0.173"/>
<stop offset="1" stop-color="#002079" stop-opacity="0"/>
</linearGradient>
<radialGradient id="paint3_radial" cx="0" cy="0" r="1" gradientUnits="userSpaceOnUse" gradientTransform="translate(15.5721 9.61389) rotate(5.76178) scale(4.8184)">
<stop offset="0.003" stop-color="#FFEA00"/>
<stop offset="0.497" stop-color="#FF272D"/>
<stop offset="1" stop-color="#C42482"/>
</radialGradient>
<radialGradient id="paint4_radial" cx="0" cy="0" r="1" gradientUnits="userSpaceOnUse" gradientTransform="translate(15.6021 4.9732) rotate(5.76178) scale(8.04633)">
<stop offset="0.003" stop-color="#FFE900"/>
<stop offset="0.157" stop-color="#FFAF0E"/>
<stop offset="0.316" stop-color="#FF7A1B"/>
<stop offset="0.472" stop-color="#FF4E26"/>
<stop offset="0.621" stop-color="#FF2C2E"/>
<stop offset="0.762" stop-color="#FF1434"/>
<stop offset="0.892" stop-color="#FF0538"/>
<stop offset="1" stop-color="#FF0039"/>
</radialGradient>
<radialGradient id="paint5_radial" cx="0" cy="0" r="1" gradientUnits="userSpaceOnUse" gradientTransform="translate(15.9857 12.5086) rotate(5.76177) scale(7.38338)">
<stop offset="0.003" stop-color="#FF272D"/>
<stop offset="0.497" stop-color="#C42482"/>
<stop offset="0.986" stop-color="#620700"/>
</radialGradient>
<radialGradient id="paint6_radial" cx="0" cy="0" r="1" gradientUnits="userSpaceOnUse" gradientTransform="translate(11.4825 6.0565) scale(11.526)">
<stop offset="0.156" stop-color="#FFEA00"/>
<stop offset="0.231" stop-color="#FFDE00"/>
<stop offset="0.365" stop-color="#FFBF00"/>
<stop offset="0.541" stop-color="#FF8E00"/>
<stop offset="0.763" stop-color="#FF272D"/>
<stop offset="0.796" stop-color="#F92433"/>
<stop offset="0.841" stop-color="#E91C45"/>
<stop offset="0.893" stop-color="#CF0E62"/>
<stop offset="0.935" stop-color="#B5007F"/>
</radialGradient>
<radialGradient id="paint7_radial" cx="0" cy="0" r="1" gradientUnits="userSpaceOnUse" gradientTransform="translate(10.6153 0.268994) scale(13.6102)">
<stop offset="0.279" stop-color="#FFEA00"/>
<stop offset="0.402" stop-color="#FFDD00"/>
<stop offset="0.63" stop-color="#FFBA00"/>
<stop offset="0.856" stop-color="#FF9100"/>
<stop offset="0.933" stop-color="#FF6711"/>
<stop offset="0.994" stop-color="#FF4A1D"/>
</radialGradient>
<linearGradient id="paint8_linear" x1="3.58276" y1="5.47927" x2="8.82209" y2="4.69265" gradientUnits="userSpaceOnUse">
<stop stop-color="#C42482" stop-opacity="0.5"/>
<stop offset="0.474" stop-color="#FF272D" stop-opacity="0.5"/>
<stop offset="0.486" stop-color="#FF2C2C" stop-opacity="0.513"/>
<stop offset="0.675" stop-color="#FF7A1A" stop-opacity="0.72"/>
<stop offset="0.829" stop-color="#FFB20D" stop-opacity="0.871"/>
<stop offset="0.942" stop-color="#FFD605" stop-opacity="0.964"/>
<stop offset="1" stop-color="#FFE302"/>
</linearGradient>
<linearGradient id="paint9_linear" x1="3.06" y1="4.07943" x2="2.46594" y2="1.94857" gradientUnits="userSpaceOnUse">
<stop stop-color="#891551" stop-opacity="0.6"/>
<stop offset="1" stop-color="#C42482" stop-opacity="0"/>
</linearGradient>
<linearGradient id="paint10_linear" x1="4.19273" y1="7.16058" x2="5.41505" y2="8.86644" gradientUnits="userSpaceOnUse">
<stop offset="0.005" stop-color="#891551" stop-opacity="0.5"/>
<stop offset="0.484" stop-color="#FF272D" stop-opacity="0.5"/>
<stop offset="1" stop-color="#FF272D" stop-opacity="0"/>
</linearGradient>
<linearGradient id="paint11_linear" x1="6.52962" y1="10.147" x2="6.6408" y2="9.0507" gradientUnits="userSpaceOnUse">
<stop stop-color="#C42482"/>
<stop offset="0.083" stop-color="#C42482" stop-opacity="0.81"/>
<stop offset="0.206" stop-color="#C42482" stop-opacity="0.565"/>
<stop offset="0.328" stop-color="#C42482" stop-opacity="0.362"/>
<stop offset="0.447" stop-color="#C42482" stop-opacity="0.204"/>
<stop offset="0.562" stop-color="#C42482" stop-opacity="0.091"/>
<stop offset="0.673" stop-color="#C42482" stop-opacity="0.023"/>
<stop offset="0.773" stop-color="#C42482" stop-opacity="0"/>
</linearGradient>
<linearGradient id="paint12_linear" x1="10.0875" y1="0.782266" x2="14.5916" y2="10.8541" gradientUnits="userSpaceOnUse">
<stop stop-color="#FFF14F"/>
<stop offset="0.268" stop-color="#FFEE4C"/>
<stop offset="0.452" stop-color="#FFE643"/>
<stop offset="0.612" stop-color="#FFD834"/>
<stop offset="0.757" stop-color="#FFC41E"/>
<stop offset="0.892" stop-color="#FFAB02"/>
<stop offset="0.902" stop-color="#FFA900"/>
<stop offset="0.949" stop-color="#FFA000"/>
<stop offset="1" stop-color="#FF9100"/>
</linearGradient>
<linearGradient id="paint13_linear" x1="10.9768" y1="6.57475" x2="8.84329" y2="12.3033" gradientUnits="userSpaceOnUse">
<stop stop-color="#FF8E00"/>
<stop offset="0.04" stop-color="#FF8E00" stop-opacity="0.858"/>
<stop offset="0.084" stop-color="#FF8E00" stop-opacity="0.729"/>
<stop offset="0.13" stop-color="#FF8E00" stop-opacity="0.628"/>
<stop offset="0.178" stop-color="#FF8E00" stop-opacity="0.557"/>
<stop offset="0.227" stop-color="#FF8E00" stop-opacity="0.514"/>
<stop offset="0.282" stop-color="#FF8E00" stop-opacity="0.5"/>
<stop offset="0.389" stop-color="#FF8E00" stop-opacity="0.478"/>
<stop offset="0.524" stop-color="#FF8E00" stop-opacity="0.416"/>
<stop offset="0.676" stop-color="#FF8E00" stop-opacity="0.314"/>
<stop offset="0.838" stop-color="#FF8E00" stop-opacity="0.172"/>
<stop offset="1" stop-color="#FF8E00" stop-opacity="0"/>
</linearGradient>
</defs>
</svg>
