<svg width="688" height="480" viewBox="0 0 688 480" fill="none" xmlns="http://www.w3.org/2000/svg">
<path d="M474 74H470C468.9 74 468 73.1 468 72V56C468 54.9 468.9 54 470 54H474C475.1 54 476 54.9 476 56C476 57.1 475.1 58 474 58H472V70H474C475.1 70 476 70.9 476 72C476 73.1 475.1 74 474 74Z" fill="#FFB96F"/>
<path d="M32 262C35.3137 262 38 259.314 38 256C38 252.686 35.3137 250 32 250C28.6863 250 26 252.686 26 256C26 259.314 28.6863 262 32 262Z" fill="#4480FF"/>
<path d="M656 262C650.5 262 646 257.5 646 252C646 250.9 646.9 250 648 250C649.1 250 650 250.9 650 252C650 255.3 652.7 258 656 258C659.3 258 662 255.3 662 252C662 250.9 662.9 250 664 250C665.1 250 666 250.9 666 252C666 257.5 661.5 262 656 262Z" fill="#FF5C5C"/>
<path d="M300 58C299.5 58 299 57.8 298.6 57.4L290.6 49.4C289.8 48.6 289.8 47.4 290.6 46.6L298.6 38.6C299.4 37.8 300.6 37.8 301.4 38.6C302.2 39.4 302.2 40.6 301.4 41.4L294.8 48L301.4 54.6C302.2 55.4 302.2 56.6 301.4 57.4C301 57.8 300.5 58 300 58Z" fill="#40B198"/>
<path d="M89.6999 94.3C92.9999 97.6 92.9999 102.9 89.6999 106.1C89.5999 106.2 89.2999 106.2 89.1999 106.1C89.0999 106 89.0999 105.7 89.1999 105.6C92.1999 102.6 92.1999 97.8 89.1999 94.8C86.1999 91.8 81.4 91.8 78.4 94.8C78.3 94.9 78 94.9 77.9 94.8C77.8 94.7 77.8 94.4 77.9 94.3C81.1 91 86.4999 91 89.6999 94.3Z" fill="black"/>
<path d="M632 422.4C628.5 422.4 625.6 419.5 625.6 416C625.6 412.5 628.5 409.6 632 409.6C635.5 409.6 638.4 412.5 638.4 416C638.4 419.5 635.5 422.4 632 422.4ZM632 410.4C628.9 410.4 626.4 412.9 626.4 416C626.4 419.1 628.9 421.6 632 421.6C635.1 421.6 637.6 419.1 637.6 416C637.6 412.9 635.1 410.4 632 410.4Z" fill="#0B1F35"/>
<path d="M626.1 101.9C626 101.8 626 101.5 626.1 101.4L637.4 90.0999C637.5 89.9999 637.8 89.9999 637.9 90.0999C638 90.1999 638 90.4999 637.9 90.5999L626.6 101.9C626.5 102.1 626.2 102.1 626.1 101.9Z" fill="black"/>
<path d="M56 425C51 425 47 421 47 416C47 411 51 407 56 407C61 407 65 411 65 416C65 421 61 425 56 425ZM56 411C53.2 411 51 413.2 51 416C51 418.8 53.2 421 56 421C58.8 421 61 418.8 61 416C61 413.2 58.8 411 56 411Z" fill="#FF5C5C"/>
<path opacity="0.3" d="M620 153H604V480H620V153Z" fill="#E0DEDE"/>
<path d="M604 137H92V480H604V137Z" fill="#808085"/>
<path d="M588 129V480H108V129C110.7 128.8 113.4 128.6 116 128.5C118.7 128.3 121.4 128.2 124 128C179.1 124.5 220.6 123.3 252 123.6C311.8 124.1 334.4 129.7 342.9 133.5C344.9 134.4 346.2 135.2 346.9 135.9C347.6 136.5 347.8 136.9 347.9 137C347.9 137 347.9 137 348 137C348 137 348 137 348.1 136.9C350.9 135.2 387.8 114.3 510.4 121.7C528.9 122.8 549.3 124.6 571.9 127.1C574.5 127.4 577.2 127.7 579.9 128C582.6 128.3 585.3 128.6 588 129Z" fill="#C5C6CD"/>
<path d="M580 121V480H116V121C118.7 120.8 121.4 120.6 124 120.5C179.1 116.9 220.7 116.2 252 117.3C312 119.3 334.5 127.6 342.9 133.5C344.8 134.9 346 136.1 346.7 137.1C347.9 138.7 347.9 139.8 347.9 139.8C347.9 139.8 347.9 138.7 351 137.1C351.6 136.8 352.4 136.4 353.3 136.1C364.7 131.5 400.2 124 510.4 121.8C528.7 121.4 549.2 121.2 571.9 121.2C574.6 121 577.3 121 580 121Z" fill="#E0DEDE"/>
<path d="M348 137V480H124V105C177.9 95.1999 219.8 94.3999 252 97.9999C252.1 97.9999 252.3 97.9999 252.4 97.9999C253.4 98.0999 254.4 98.1999 255.4 98.3999C257.6 98.6999 259.8 98.9999 262 99.2999C264.1 99.5999 266.2 100 268.3 100.3C269.1 100.4 269.9 100.6 270.6 100.7C270.9 100.8 271.2 100.8 271.5 100.9C272.9 101.2 274.3 101.4 275.7 101.7C276.3 101.8 276.8 101.9 277.4 102C279.2 102.4 281 102.8 282.8 103.2C283.6 103.4 284.3 103.6 285.1 103.8C286.2 104.1 287.3 104.4 288.4 104.7C289.2 104.9 289.9 105.1 290.7 105.3C291.4 105.5 292.1 105.7 292.8 105.9C295.4 106.7 297.9 107.4 300.3 108.3C301 108.5 301.6 108.8 302.2 109C305.2 110.1 308.1 111.2 310.8 112.3C311.5 112.6 312.1 112.8 312.7 113.1C313.1 113.3 313.5 113.5 313.9 113.6C314.1 113.7 314.3 113.8 314.6 113.9C315.1 114.1 315.6 114.3 316 114.6C316.1 114.7 316.3 114.7 316.4 114.8C317 115.1 317.5 115.3 318 115.6C324.4 118.7 329.6 121.8 333.8 124.6C334.2 124.8 334.5 125.1 334.8 125.3C336.6 126.6 338.3 127.8 339.7 129C339.9 129.2 340.1 129.4 340.4 129.5C341.5 130.4 342.5 131.3 343.4 132.1C343.8 132.4 344.1 132.7 344.4 133C344.5 133.1 344.7 133.3 344.8 133.4C344.9 133.5 344.9 133.5 345 133.5L345.3 133.8C345.5 134 345.7 134.1 345.8 134.3C345.9 134.4 345.9 134.5 346 134.5C346.1 134.6 346.2 134.7 346.2 134.8L346.3 134.9C346.5 135.2 346.8 135.4 346.9 135.6C346.9 135.6 347 135.6 347 135.7C347.5 136.3 347.8 136.7 348 137C347.9 136.9 348 136.9 348 137C348 136.9 348 136.9 348 137Z" fill="white"/>
<path d="M332 157.6V172.3C332 175.4 328.7 177.3 326 175.8C300.7 161.4 250.4 144.7 160.4 155.5C158 155.8 155.9 153.9 155.9 151.5V135.6C155.9 133.6 157.4 131.9 159.4 131.6C255.1 120 306.1 139.3 330 154.3C331.3 155 332 156.2 332 157.6Z" fill="#EFEFEF"/>
<path d="M332 198.6V212.3C332 215.4 328.7 217.3 326 215.8C300.7 201.4 250.4 184.7 160.4 195.5C158 195.8 155.9 193.9 155.9 191.5V176.5C155.9 174.5 157.4 172.8 159.4 172.5C255.1 160.9 306.1 180.2 330 195.2C331.3 195.9 332 197.2 332 198.6Z" fill="#EFEFEF"/>
<path d="M332 365.6V380.3C332 383.4 328.7 385.3 326 383.8C300.7 369.4 250.4 352.7 160.4 363.5C158 363.8 155.9 361.9 155.9 359.5V343.6C155.9 341.6 157.4 339.9 159.4 339.6C255.1 328 306.1 347.3 330 362.3C331.3 363 332 364.2 332 365.6Z" fill="#EFEFEF"/>
<path d="M332 406.6V420.3C332 423.4 328.7 425.3 326 423.8C300.7 409.4 250.4 392.7 160.4 403.5C158 403.8 155.9 401.9 155.9 399.5V384.5C155.9 382.5 157.4 380.8 159.4 380.5C255.1 368.9 306.1 388.2 330 403.2C331.3 403.9 332 405.2 332 406.6Z" fill="#EFEFEF"/>
<path d="M332 461.6V475.3C332 477 330.9 478.4 329.5 479C328.6 479.4 327.5 479.4 326.5 479C326.3 478.9 326.2 478.9 326 478.8C311 470.3 287.4 461 252 457C227.5 454.2 197.3 454.1 160.5 458.5C158.1 458.8 156 456.9 156 454.5V439.5C156 437.5 157.5 435.8 159.5 435.5C196.8 431 227.2 431.1 252 433.9C290.8 438.2 315.5 449 330.1 458.1C331.3 458.9 332 460.2 332 461.6Z" fill="#EFEFEF"/>
<path d="M268 231.6V303.5C268 306 265.8 307.8 263.4 307.4C237 303.3 203.2 302.2 160.5 307.3C158.1 307.6 156 305.7 156 303.3V231.4C156 229.4 157.5 227.7 159.5 227.4C203.4 222.1 237.8 223.3 264.6 227.5C266.6 228 268 229.7 268 231.6Z" fill="#EFEFEF"/>
<path opacity="0.15" d="M348 137V480H252V98C252.1 98 252.3 98 252.4 98C253.4 98.1 254.4 98.2 255.4 98.4C257.6 98.7 259.8 99 262 99.3C264.1 99.6 266.2 100 268.3 100.3C269.1 100.4 269.9 100.6 270.6 100.7C270.9 100.8 271.2 100.8 271.5 100.9C272.9 101.2 274.3 101.4 275.7 101.7C276.3 101.8 276.8 101.9 277.4 102C279.2 102.4 281 102.8 282.8 103.2C283.6 103.4 284.3 103.6 285.1 103.8C286.2 104.1 287.3 104.4 288.4 104.7C289.2 104.9 289.9 105.1 290.7 105.3C291.4 105.5 292.1 105.7 292.8 105.9C295.4 106.7 297.9 107.4 300.3 108.3C301 108.5 301.6 108.8 302.2 109C305.2 110.1 308.1 111.2 310.8 112.3C311.5 112.6 312.1 112.8 312.7 113.1C313.1 113.3 313.5 113.5 313.9 113.6C314.1 113.7 314.3 113.8 314.6 113.9C315.1 114.1 315.6 114.3 316 114.6C316.1 114.7 316.3 114.7 316.4 114.8C317 115.1 317.5 115.3 318 115.6C324.4 118.7 329.6 121.8 333.8 124.6C334.2 124.8 334.5 125.1 334.8 125.3C336.6 126.6 338.3 127.8 339.7 129C339.9 129.2 340.1 129.4 340.4 129.5C341.5 130.4 342.5 131.3 343.4 132.1C343.8 132.4 344.1 132.7 344.4 133C344.5 133.1 344.7 133.3 344.8 133.4C344.9 133.5 344.9 133.5 345 133.5L345.3 133.8C345.5 134 345.7 134.1 345.8 134.3C345.9 134.4 345.9 134.5 346 134.5C346.1 134.6 346.2 134.7 346.2 134.8L346.3 134.9C346.5 135.2 346.8 135.4 346.9 135.6C346.9 135.6 347 135.6 347 135.7C347.5 136.3 347.8 136.7 348 137C347.9 136.9 348 136.9 348 137C348 136.9 348 136.9 348 137Z" fill="#E0DEDE"/>
<path d="M572 113V480H348V137C348 137 348 137 348.1 137C348.1 137 348.1 137 348.2 136.9C351.6 134.1 402.3 97.4999 572 113Z" fill="white"/>
<path d="M540 146.3V162.3C540 164.6 538.1 166.4 535.8 166.3C445 161.5 394.6 172.9 369.4 182.2C366.8 183.2 364 181.3 364 178.5V163.1C364 161.5 365 160 366.5 159.4C390.7 149.9 441.5 137.3 536.2 142.4C538.3 142.5 540 144.2 540 146.3Z" fill="#EFEFEF"/>
<path d="M540 186.3V202.3C540 204.6 538.1 206.4 535.8 206.3C445 201.5 394.6 212.9 369.4 222.2C366.8 223.2 364 221.3 364 218.5V203.1C364 201.5 365 200 366.5 199.4C390.7 189.9 441.5 177.3 536.2 182.4C538.3 182.5 540 184.2 540 186.3Z" fill="#EFEFEF"/>
<path d="M540 226.3V242.3C540 244.6 538.1 246.4 535.8 246.3C445 241.5 394.6 252.9 369.4 262.2C366.8 263.2 364 261.3 364 258.5V243.1C364 241.5 365 240 366.5 239.4C390.7 229.9 441.5 217.3 536.2 222.4C538.3 222.5 540 224.2 540 226.3Z" fill="#EFEFEF"/>
<path d="M540 306.3V322.3C540 324.6 538.1 326.4 535.8 326.3C445 321.5 394.6 332.9 369.4 342.2C366.8 343.2 364 341.3 364 338.5V323.1C364 321.5 365 320 366.5 319.4C390.7 309.9 441.5 297.3 536.2 302.4C538.3 302.5 540 304.2 540 306.3Z" fill="#EFEFEF"/>
<path d="M540 346.3V362.3C540 364.6 538.1 366.4 535.8 366.3C445 361.5 394.6 372.9 369.4 382.2C366.8 383.2 364 381.3 364 378.5V363.1C364 361.5 365 360 366.5 359.4C390.7 349.9 441.5 337.3 536.2 342.4C538.3 342.5 540 344.2 540 346.3Z" fill="#EFEFEF"/>
<path d="M540 420.8V436.8C540 439.1 538.1 440.9 535.8 440.8C445 436 394.6 447.4 369.4 456.7C366.8 457.7 364 455.8 364 453V437.6C364 436 365 434.5 366.5 433.9C390.7 424.4 441.5 411.8 536.2 416.9C538.3 416.9 540 418.7 540 420.8Z" fill="#EFEFEF"/>
<path opacity="0.1" d="M396 139.9V480H348V137C348.3 136.9 350.1 136.4 353.4 136C359 135.3 368.8 134.8 382.4 137C386.6 137.6 391.1 138.6 396 139.9Z" fill="#E0DEDE"/>
<path d="M420 115V208.1L397.9 172.8C397.5 172.1 396.7 171.8 396 171.9C395.4 172 394.7 172.3 394.4 173L372 219.4C372 219.4 371.6 160.9 371.8 135.7C371.8 129.2 371.9 124.9 372 124.5C372.4 122.7 373.2 121.1 375 120.7L415.2 111.3C417.7 110.6 420 112.4 420 115Z" fill="#FF5C5C"/>
<g opacity="0.5">
<path opacity="0.5" d="M396 139.9V171.9C395.4 172 394.7 172.3 394.4 173L372 219.4C372 219.4 371.6 160.9 371.8 135.7C375 136 378.6 136.4 382.4 137C386.6 137.6 391.1 138.6 396 139.9Z" fill="#DC3124"/>
</g>
</svg>
