<svg width="168" height="128" viewBox="0 0 168 128" fill="none" xmlns="http://www.w3.org/2000/svg">
<path d="M12 28L12 20C12 15.6 15.6 12 20 12L148 12C152.4 12 156 15.6 156 20L156 28L12 28Z" fill="#0B1F35"/>
<circle cx="23" cy="20" r="3" fill="white"/>
<circle cx="33" cy="20" r="3" fill="white"/>
<circle cx="43" cy="20" r="3" fill="white"/>
<path d="M20 116L148 116C152.4 116 156 112.4 156 108L156 28L12 28L12 108C12 112.4 15.6 116 20 116Z" fill="#F3F4F5"/>
<rect x="104" y="37" width="4" height="30" rx="2" fill="#4480FF"/>
<path d="M112 39.4464C112 37.9107 113.659 36.948 114.992 37.7099L136.961 50.2635C138.305 51.0313 138.305 52.9687 136.961 53.7365L114.992 66.2901C113.659 67.052 112 66.0893 112 64.5536V39.4464Z" fill="#4480FF"/>
<path d="M147.5 77H95.5C95.2 77 95 76.8 95 76.5C95 76.2 95.2 76 95.5 76H147.5C147.8 76 148 76.2 148 76.5C148 76.8 147.8 77 147.5 77Z" fill="#0B1F35"/>
<path d="M147.5 103H95.5C95.2 103 95 102.8 95 102.5C95 102.2 95.2 102 95.5 102H147.5C147.8 102 148 102.2 148 102.5C148 102.8 147.8 103 147.5 103Z" fill="#0B1F35"/>
<path d="M123.5 82H95.5C95.2 82 95 81.8 95 81.5C95 81.2 95.2 81 95.5 81H123.5C123.8 81 124 81.2 124 81.5C124 81.8 123.8 82 123.5 82Z" fill="#0B1F35"/>
<path d="M123.5 98H95.5C95.2 98 95 97.8 95 97.5C95 97.2 95.2 97 95.5 97H123.5C123.8 97 124 97.2 124 97.5C124 97.8 123.8 98 123.5 98Z" fill="#0B1F35"/>
<path d="M107.5 87H95.5C95.2 87 95 86.8 95 86.5C95 86.2 95.2 86 95.5 86H107.5C107.8 86 108 86.2 108 86.5C108 86.8 107.8 87 107.5 87Z" fill="#0B1F35"/>
<path d="M140.5 87H112.5C112.2 87 112 86.8 112 86.5C112 86.2 112.2 86 112.5 86L140.5 86C140.8 86 141 86.2 141 86.5C141 86.8 140.8 87 140.5 87Z" fill="#0B1F35"/>
<path d="M111.5 108H95.5C95.2 108 95 107.8 95 107.5C95 107.2 95.2 107 95.5 107L111.5 107C111.8 107 112 107.2 112 107.5C112 107.8 111.8 108 111.5 108Z" fill="#0B1F35"/>
<path d="M12 28H87V116H20C15.5817 116 12 112.418 12 108V28Z" fill="#C5C6CD"/>
<path d="M22.4 36.9H20.4C20.2 36.9 20 36.7 20 36.5C20 36.3 20.2 36.1 20.4 36.1H22.4C22.6 36.1 22.8 36.3 22.8 36.5C22.8 36.7 22.6 36.9 22.4 36.9Z" fill="#DC3124"/>
<path d="M41.3999 37H25.3999C25.0999 37 24.8999 36.8 24.8999 36.5C24.8999 36.2 25.0999 36 25.3999 36H41.3999C41.6999 36 41.8999 36.2 41.8999 36.5C41.8999 36.8 41.6999 37 41.3999 37Z" fill="#0B1F35"/>
<path d="M33.3999 42H25.3999C25.0999 42 24.8999 41.8 24.8999 41.5C24.8999 41.2 25.0999 41 25.3999 41H33.3999C33.6999 41 33.8999 41.2 33.8999 41.5C33.8999 41.8 33.6999 42 33.3999 42Z" fill="#0B1F35"/>
<path d="M52.3999 42H36.3999C36.0999 42 35.8999 41.8 35.8999 41.5C35.8999 41.2 36.0999 41 36.3999 41H52.3999C52.6999 41 52.8999 41.2 52.8999 41.5C52.8999 41.8 52.6999 42 52.3999 42Z" fill="#4480FF"/>
<path d="M26.0038 65.3242L28.5999 98.5363C28.6389 99.035 28.9764 99.4603 29.4533 99.6115L43.1139 103.943C43.3555 104.019 43.6149 104.019 43.8565 103.943L57.5171 99.6115C57.994 99.4603 58.3315 99.035 58.3705 98.5363L60.9666 65.3242C61.0224 64.6101 60.4581 64 59.7419 64H27.2285C26.5124 64 25.9481 64.6101 26.0038 65.3242Z" fill="#4480FF"/>
<path d="M26.0038 65.3242L28.5999 98.5363C28.6389 99.035 28.9764 99.4603 29.4533 99.6115L43.1139 103.943C43.3555 104.019 43.6149 104.019 43.8565 103.943L57.5171 99.6115C57.994 99.4603 58.3315 99.035 58.3705 98.5363L60.9666 65.3242C61.0224 64.6101 60.4581 64 59.7419 64H27.2285C26.5124 64 25.9481 64.6101 26.0038 65.3242ZM54.3091 75.6288H37.39L37.9006 80.3373H53.9411L52.8918 93.7607L43.4852 96.743L34.0787 93.7607L33.5305 86.7478H38.4678V90.1877L43.6172 91.5697L48.7358 90.1877L49.1329 84.7054H33.3708L32.3243 71.3172H54.6461L54.3091 75.6288Z" fill="white"/>
<path fill-rule="evenodd" clip-rule="evenodd" d="M82 116V56H85V48H77V51H15V48H12V56H15V53H77V56H80V116H82Z" fill="#828C97"/>
<path fill-rule="evenodd" clip-rule="evenodd" d="M77 50H9V118H77V50ZM7 48V120H79V48H7Z" fill="#F3F4F5"/>
<path d="M4 45H12V53H4V45Z" fill="#F3F4F5"/>
<path d="M74 45H82V53H74V45Z" fill="#F3F4F5"/>
<path d="M4 115H12V123H4V115Z" fill="#F3F4F5"/>
<path d="M74 115H82V123H74V115Z" fill="#F3F4F5"/>
</svg>
