<svg width="16" height="16" viewBox="0 0 16 16" fill="none" xmlns="http://www.w3.org/2000/svg">
<path d="M14.5 7.95884C14.5 6.81174 14.2036 5.73407 13.6839 4.79762C15.8991 -0.219448 11.3103 0.515404 11.0548 0.56543C10.0826 0.755802 9.1832 1.06144 8.35356 1.44888C8.23122 1.44198 8.10813 1.43819 7.9841 1.43819C4.88784 1.43819 2.29609 3.59935 1.63276 6.4965C3.26469 4.66438 4.40678 3.92513 5.09071 3.6293C4.98154 3.72692 4.87467 3.82562 4.76955 3.92506C4.73456 3.95812 4.70085 3.99165 4.66633 4.02491C4.59702 4.09164 4.52784 4.15843 4.46028 4.22583C4.42009 4.26592 4.38097 4.30635 4.34139 4.34671C4.28147 4.40775 4.22168 4.46873 4.16318 4.53012C4.12163 4.57372 4.0811 4.61746 4.04029 4.66113C3.98564 4.71968 3.93133 4.77829 3.87803 4.8371C3.83661 4.8828 3.79588 4.9285 3.75521 4.97434C3.70468 5.03126 3.65462 5.08818 3.60524 5.14524C3.5643 5.19256 3.5237 5.23989 3.48357 5.28728C3.43676 5.34258 3.39055 5.39788 3.34481 5.45318C3.30435 5.50212 3.26402 5.551 3.22443 5.59988C3.1816 5.65274 3.13971 5.70554 3.0979 5.75827C3.05737 5.80938 3.01683 5.86042 2.97724 5.91146C2.93955 5.96007 2.90293 6.00847 2.86605 6.05695C2.82443 6.1117 2.78248 6.16646 2.74195 6.22095C2.71297 6.25996 2.68514 6.29856 2.6567 6.33743C2.39924 6.68897 2.16402 7.03375 1.95155 7.36494C1.95101 7.36575 1.95047 7.36656 1.95 7.36738C1.89406 7.45458 1.84009 7.54051 1.78719 7.62569C1.78435 7.63029 1.78138 7.63495 1.77855 7.63962C1.72558 7.72513 1.67444 7.80917 1.62459 7.89232C1.62283 7.89522 1.62101 7.8982 1.61925 7.90111C1.48522 8.12494 1.36092 8.34073 1.24898 8.54375C0.662128 9.60803 0.376437 10.3516 0.364074 10.3958C-1.4891 17.0258 4.29471 14.226 5.10179 13.808C5.97082 14.2377 6.94915 14.4795 7.9841 14.4795C10.8174 14.4795 13.2279 12.6697 14.1252 10.1423H10.7015C10.1949 10.9988 9.21961 11.5789 8.09914 11.5789C6.45749 11.5789 5.12672 10.3342 5.12672 8.79868H14.4464C14.4817 8.52367 14.5 8.24338 14.5 7.95884ZM13.2828 1.54217C13.8439 1.92115 14.294 2.51634 13.5211 4.52072C12.7798 3.32772 11.6645 2.39188 10.3389 1.87748C10.9419 1.58604 12.4352 0.969633 13.2828 1.54217ZM1.35822 13.7947C0.901206 13.3257 0.82041 12.1833 1.82887 10.1017C2.33783 11.566 3.35346 12.793 4.66619 13.5718C4.01334 13.9314 2.28014 14.741 1.35822 13.7947ZM5.11233 7.01557C5.16441 5.52321 6.46228 4.32832 8.05692 4.32832C9.6515 4.32832 10.9494 5.52321 11.0015 7.01557H5.11233Z" fill="#1EBBEE"/>
</svg>
