<svg width="16" height="16" viewBox="0 0 16 16" fill="none" xmlns="http://www.w3.org/2000/svg">
<path d="M8.5032 1.21854C9.41661 0.0061851 10.6865 0.000274658 10.6865 0.000274658C10.6865 0.000274658 10.8754 1.14009 9.96794 2.2381C8.99903 3.41053 7.89772 3.21869 7.89772 3.21869C7.89772 3.21869 7.69093 2.29661 8.5032 1.21854ZM8.0139 4.01713C8.48381 4.01713 9.35593 3.36665 10.4911 3.36665C12.4452 3.36665 13.2139 4.76683 13.2139 4.76683C13.2139 4.76683 11.7104 5.54092 11.7104 7.4192C11.7104 9.53806 13.5833 10.2683 13.5833 10.2683C13.5833 10.2683 12.2741 13.9791 10.5057 13.9791C9.69345 13.9791 9.06199 13.428 8.20619 13.428C7.33406 13.428 6.46861 13.9997 5.90493 13.9997C4.29009 13.9998 2.25 10.4796 2.25 7.65C2.25 4.86607 3.97681 3.40566 5.59648 3.40566C6.64941 3.40566 7.4665 4.01713 8.0139 4.01713Z" fill="#999999"/>
</svg>
