<svg width="329" height="328" viewBox="0 0 329 328" fill="none" xmlns="http://www.w3.org/2000/svg">
    <path d="M163.999 283.273C229.872 283.273 283.272 229.873 283.272 164C283.272 98.1275 229.872 44.7273 163.999 44.7273C98.1268 44.7273 44.7266 98.1275 44.7266 164C44.7266 229.873 98.1268 283.273 163.999 283.273Z" fill="#0B1F35"/>
    <path d="M328 203.882V184.5C328 181.332 325.577 178.909 322.409 178.909H302.654H267.618C265.195 178.909 262.773 179.841 261.095 181.705L260.164 182.636L245.068 197.732C243.391 199.409 242.459 201.459 242.459 203.882C242.459 204.068 242.459 204.255 242.459 204.441V247.864V251.964V277.682C242.459 280.664 244.882 283.273 248.05 283.273H267.618H303.027H322.409C325.577 283.273 328 280.664 328 277.682V251.964V247.864V204.441C328 204.068 328 203.882 328 203.882ZM263.704 184.127C263.891 183.941 264.264 183.568 264.636 183.382V199.223C264.636 200.155 263.891 201.086 262.773 201.086H246.932C247.118 200.714 247.304 200.527 247.677 200.155L263.704 184.127ZM324.273 277.682C324.273 278.8 323.527 279.545 322.409 279.545H300.418H269.854H247.864C246.745 279.545 246 278.8 246 277.682V250.473V205H262.773C265.941 205 268.364 202.391 268.364 199.409V182.636H310.109H322.409C323.527 182.636 324.273 183.382 324.273 184.5V196.8V205V250.473V277.682Z" fill="#FFD600"/>
    <path d="M270.227 268.364C269.109 268.364 268.363 269.109 268.363 270.227V273.955C268.363 275.073 269.109 275.818 270.227 275.818C271.345 275.818 272.091 275.073 272.091 273.955V270.227C272.091 269.109 271.159 268.364 270.227 268.364Z" fill="#FFD600"/>
    <path d="M279.545 268.364C278.427 268.364 277.682 269.109 277.682 270.227V273.955C277.682 275.073 278.427 275.818 279.545 275.818C280.663 275.818 281.409 275.073 281.409 273.955V270.227C281.409 269.109 280.477 268.364 279.545 268.364Z" fill="#FFD600"/>
    <path d="M260.909 268.364C259.79 268.364 259.045 269.109 259.045 270.227V273.955C259.045 275.073 259.79 275.818 260.909 275.818C262.027 275.818 262.772 275.073 262.772 273.955V270.227C262.772 269.109 261.84 268.364 260.909 268.364Z" fill="#FFD600"/>
    <path d="M251.59 268.364C250.472 268.364 249.727 269.109 249.727 270.227V273.955C249.727 275.073 250.472 275.818 251.59 275.818C252.708 275.818 253.454 275.073 253.454 273.955V270.227C253.454 269.109 252.522 268.364 251.59 268.364Z" fill="#FFD600"/>
    <path d="M316.817 268.364C315.699 268.364 314.953 269.109 314.953 270.227V273.955C314.953 275.073 315.699 275.818 316.817 275.818C317.935 275.818 318.68 275.073 318.68 273.955V270.227C318.68 269.109 317.749 268.364 316.817 268.364Z" fill="#FFD600"/>
    <path d="M307.498 268.364C306.38 268.364 305.635 269.109 305.635 270.227V273.955C305.635 275.073 306.38 275.818 307.498 275.818C308.617 275.818 309.362 275.073 309.362 273.955V270.227C309.362 269.109 308.43 268.364 307.498 268.364Z" fill="#FFD600"/>
    <path d="M288.864 268.364C287.745 268.364 287 269.109 287 270.227V273.955C287 275.073 287.745 275.818 288.864 275.818C289.982 275.818 290.727 275.073 290.727 273.955V270.227C290.727 269.109 289.795 268.364 288.864 268.364Z" fill="#FFD600"/>
    <path d="M298.182 268.364C297.064 268.364 296.318 269.109 296.318 270.227V273.955C296.318 275.073 297.064 275.818 298.182 275.818C299.3 275.818 300.046 275.073 300.046 273.955V270.227C300.046 269.109 299.114 268.364 298.182 268.364Z" fill="#FFD600"/>
    <path d="M290.727 242.273H259.045C257.927 242.273 257.182 243.018 257.182 244.136C257.182 245.255 257.927 246 259.045 246H290.727C291.845 246 292.591 245.255 292.591 244.136C292.591 243.018 291.659 242.273 290.727 242.273Z" fill="#FFD600"/>
    <path d="M259.045 227.364H296.318C297.436 227.364 298.182 226.618 298.182 225.5C298.182 224.382 297.436 223.636 296.318 223.636H259.045C257.927 223.636 257.182 224.382 257.182 225.5C257.182 226.618 257.927 227.364 259.045 227.364Z" fill="#FFD600"/>
    <path d="M259.045 219.909H288.863C289.982 219.909 290.727 219.164 290.727 218.045C290.727 216.927 289.982 216.182 288.863 216.182H259.045C257.927 216.182 257.182 216.927 257.182 218.045C257.182 219.164 257.927 219.909 259.045 219.909Z" fill="#FFD600"/>
    <path d="M300.045 234.818H259.045C257.927 234.818 257.182 235.564 257.182 236.682C257.182 237.8 257.927 238.545 259.045 238.545H300.045C301.163 238.545 301.909 237.8 301.909 236.682C301.909 235.564 300.977 234.818 300.045 234.818Z" fill="#FFD600"/>
    <path d="M303.773 216.182H296.319C295.201 216.182 294.455 216.927 294.455 218.045C294.455 219.164 295.201 219.909 296.319 219.909H303.773C304.891 219.909 305.637 219.164 305.637 218.045C305.637 216.927 304.705 216.182 303.773 216.182Z" fill="#FFD600"/>
    <path d="M104.363 216.182V111.818C104.363 107.718 107.718 104.364 111.818 104.364H216.181C220.281 104.364 223.636 107.718 223.636 111.818V216.182C223.636 220.282 220.281 223.636 216.181 223.636H111.818C107.718 223.636 104.363 220.282 104.363 216.182Z" fill="#FFD600"/>
    <path d="M182.264 193.632C184.5 197.359 187.109 200.9 192.327 200.9C196.8 200.9 199.036 198.664 199.036 195.682C199.036 191.955 196.614 190.65 191.768 188.6L189.159 187.482C181.518 184.127 176.3 180.027 176.3 171.455C176.3 163.441 182.45 157.477 191.955 157.477C198.664 157.477 203.695 159.9 207.236 166.05L198.85 171.455C196.986 168.1 195.123 166.982 191.955 166.982C188.786 166.982 186.736 169.032 186.736 171.455C186.736 174.623 188.786 175.927 193.259 177.977L195.868 179.095C205 183.009 210.032 186.923 210.032 195.868C210.032 205.373 202.391 210.777 192.327 210.777C182.45 210.777 176.673 205.745 173.691 199.595L182.264 193.632ZM144.059 193.818C145.736 196.8 148.345 199.223 151.886 199.223C155.427 199.223 157.477 197.918 157.477 192.514V157.291H168.473V194.005C168.473 205.186 161.95 210.218 152.632 210.218C144.059 210.218 137.909 204.441 135.486 199.036L144.059 193.818Z" fill="#0B1F35"/>
    <path d="M54.604 168.473H22.9222C21.804 168.473 21.0586 169.218 21.0586 170.336C21.0586 171.455 21.804 172.2 22.9222 172.2H54.604C55.7222 172.2 56.4677 171.455 56.4677 170.336C56.4677 169.218 55.5359 168.473 54.604 168.473Z" fill="#FFD600"/>
    <path d="M22.9222 153.564H60.195C61.3131 153.564 62.0586 152.818 62.0586 151.7C62.0586 150.582 61.3131 149.836 60.195 149.836H22.9222C21.804 149.836 21.0586 150.582 21.0586 151.7C21.0586 152.818 21.804 153.564 22.9222 153.564Z" fill="#FFD600"/>
    <path d="M22.9222 146.109H52.7404C53.8586 146.109 54.604 145.364 54.604 144.245C54.604 143.127 53.8586 142.382 52.7404 142.382H22.9222C21.804 142.382 21.0586 143.127 21.0586 144.245C21.0586 145.364 21.804 146.109 22.9222 146.109Z" fill="#FFD600"/>
    <path d="M63.9222 161.018H22.9222C21.804 161.018 21.0586 161.764 21.0586 162.882C21.0586 164 21.804 164.745 22.9222 164.745H63.9222C65.0404 164.745 65.7859 164 65.7859 162.882C65.7859 161.764 64.854 161.018 63.9222 161.018Z" fill="#FFD600"/>
    <path d="M67.6502 142.382H60.1957C59.0775 142.382 58.332 143.127 58.332 144.245C58.332 145.364 59.0775 146.109 60.1957 146.109H67.6502C68.7684 146.109 69.5139 145.364 69.5139 144.245C69.5139 143.127 68.582 142.382 67.6502 142.382Z" fill="#FFD600"/>
    <path d="M42.3053 55.5364C42.3053 55.9092 42.1189 56.2819 41.9325 56.6546L32.2416 65.9728C31.8689 66.1592 31.4962 66.3455 31.1234 66.3455C30.7507 66.3455 30.378 66.1592 30.0053 65.9728C29.4462 65.4137 29.4462 64.4819 30.0053 63.9228L38.578 55.7228L30.0053 47.5228C29.4462 46.9637 29.4462 46.0319 30.0053 45.4728C30.5643 44.9137 31.4962 44.9137 32.0553 45.4728L41.7462 54.791C42.1189 54.791 42.3053 55.1637 42.3053 55.5364Z" fill="#FFD600"/>
    <path d="M0 55.5364C0 55.9091 0.186364 56.2818 0.372727 56.6546L10.0636 65.9727C10.4364 66.1591 10.8091 66.3455 11.1818 66.3455C11.5545 66.3455 11.9273 66.1591 12.3 65.9727C12.8591 65.4137 12.8591 64.4818 12.3 63.9227L3.72727 55.5364L12.3 47.3364C12.8591 46.7773 12.8591 45.8455 12.3 45.2864C11.7409 44.7273 10.8091 44.7273 10.25 45.2864L0.559091 54.6046C0.186364 54.7909 0 55.1637 0 55.5364Z" fill="#FFD600"/>
    <path d="M18.6364 66.5319C18.45 66.5319 18.45 66.5319 18.2637 66.5319C17.5182 66.3455 16.9591 65.4137 17.1455 64.6682L22.1773 46.0319C22.3637 45.2864 23.2955 44.7273 24.0409 44.9137C24.7864 45.1 25.3455 46.0319 25.1591 46.7773L20.1273 65.4137C19.9409 65.9728 19.1955 66.5319 18.6364 66.5319Z" fill="#FFD600"/>
    <path d="M164 85.7273C162.882 85.7273 162.137 84.9818 162.137 83.8636V3.72728C162.137 2.6091 162.882 1.86365 164 1.86365H324.273C325.391 1.86365 326.137 2.6091 326.137 3.72728C326.137 4.84547 325.391 5.59092 324.273 5.59092H165.864V83.8636C165.864 84.7955 165.119 85.7273 164 85.7273Z" fill="#FFD600"/>
    <path d="M208.728 35.409H164C162.882 35.409 162.137 34.6636 162.137 33.5454C162.137 32.4272 162.882 31.6818 164 31.6818H208.728C209.846 31.6818 210.591 32.4272 210.591 33.5454C210.591 34.6636 209.846 35.409 208.728 35.409Z" fill="#FFD600"/>
    <path d="M178.91 27.9546C173.692 27.9546 169.592 23.8546 169.592 18.6364C169.592 13.4182 173.692 9.31824 178.91 9.31824C184.128 9.31824 188.228 13.4182 188.228 18.6364C188.228 23.8546 184.128 27.9546 178.91 27.9546ZM178.91 13.0455C175.742 13.0455 173.319 15.4682 173.319 18.6364C173.319 21.8046 175.742 24.2273 178.91 24.2273C182.078 24.2273 184.501 21.8046 184.501 18.6364C184.501 15.4682 182.078 13.0455 178.91 13.0455Z" fill="#FFD600"/>
    <path d="M201.273 27.9546C196.055 27.9546 191.955 23.8546 191.955 18.6364C191.955 13.4182 196.055 9.31824 201.273 9.31824C206.491 9.31824 210.591 13.4182 210.591 18.6364C210.591 23.8546 206.491 27.9546 201.273 27.9546ZM201.273 13.0455C198.105 13.0455 195.682 15.4682 195.682 18.6364C195.682 21.8046 198.105 24.2273 201.273 24.2273C204.441 24.2273 206.864 21.8046 206.864 18.6364C206.864 15.4682 204.441 13.0455 201.273 13.0455Z" fill="#FFD600"/>
    <path d="M223.637 27.9546C218.418 27.9546 214.318 23.8546 214.318 18.6364C214.318 13.4182 218.418 9.31824 223.637 9.31824C228.855 9.31824 232.955 13.4182 232.955 18.6364C232.955 23.8546 228.855 27.9546 223.637 27.9546ZM223.637 13.0455C220.468 13.0455 218.046 15.4682 218.046 18.6364C218.046 21.8046 220.468 24.2273 223.637 24.2273C226.805 24.2273 229.227 21.8046 229.227 18.6364C229.227 15.4682 226.805 13.0455 223.637 13.0455Z" fill="#FFD600"/>
    <path d="M324.274 7.45455C326.333 7.45455 328.001 5.78579 328.001 3.72727C328.001 1.66876 326.333 0 324.274 0C322.216 0 320.547 1.66876 320.547 3.72727C320.547 5.78579 322.216 7.45455 324.274 7.45455Z" fill="#FFD600"/>
    <path d="M164.001 87.5909C166.059 87.5909 167.728 85.9221 167.728 83.8636C167.728 81.8051 166.059 80.1364 164.001 80.1364C161.942 80.1364 160.273 81.8051 160.273 83.8636C160.273 85.9221 161.942 87.5909 164.001 87.5909Z" fill="#FFD600"/>
    <path d="M108.091 313.091H54.4183C53.3001 313.091 52.5547 312.345 52.5547 311.227C52.5547 310.109 53.3001 309.364 54.4183 309.364H106.227V248.236C106.227 247.118 106.973 246.373 108.091 246.373C109.209 246.373 109.955 247.118 109.955 248.236V311.227C109.955 312.159 109.209 313.091 108.091 313.091Z" fill="#FFD600"/>
    <path d="M39.1364 328H16.7727C7.45455 328 0 320.545 0 311.227C0 301.909 7.45455 294.454 16.7727 294.454H39.1364C48.4545 294.454 55.9091 301.909 55.9091 311.227C55.9091 320.545 48.4545 328 39.1364 328ZM16.7727 298.182C9.50455 298.182 3.72727 303.959 3.72727 311.227C3.72727 318.495 9.50455 324.273 16.7727 324.273H39.1364C46.4045 324.273 52.1818 318.495 52.1818 311.227C52.1818 303.959 46.4045 298.182 39.1364 298.182H16.7727Z" fill="#FFD600"/>
    <path d="M46.5916 313.091H39.1371C38.0189 313.091 37.2734 312.345 37.2734 311.227C37.2734 310.109 38.0189 309.364 39.1371 309.364H46.5916C47.7098 309.364 48.4553 310.109 48.4553 311.227C48.4553 312.345 47.7098 313.091 46.5916 313.091Z" fill="#FFD600"/>
    <path d="M108.091 251.591C110.149 251.591 111.818 249.922 111.818 247.864C111.818 245.805 110.149 244.136 108.091 244.136C106.032 244.136 104.363 245.805 104.363 247.864C104.363 249.922 106.032 251.591 108.091 251.591Z" fill="#FFD600"/>
</svg>
