<svg width="100" height="100" viewBox="0 0 100 100" fill="none" xmlns="http://www.w3.org/2000/svg">
    <path d="M4 100C1.79086 100 0 98.2091 0 96V4C0 1.79086 1.79086 0 4 0H96C98.2091 0 100 1.79086 100 4V96C100 98.2091 98.2091 100 96 100H4Z" fill="#FFD600"/>
    <path d="M65.3863 74.8481C67.3069 77.9731 69.3902 80.9679 73.8173 80.9679C77.5391 80.9679 79.4813 79.1233 79.4813 76.5625C79.4813 73.5027 77.474 72.4176 73.3832 70.6381L71.1371 69.6832C64.6701 66.938 60.3624 63.4983 60.3624 56.2392C60.3624 49.5443 65.4948 44.4445 73.5026 44.4445C79.1992 44.4445 83.3008 46.4193 86.2522 51.5951L79.2752 56.0547C77.7344 53.3095 76.0742 52.2353 73.5026 52.2353C70.8767 52.2353 69.2057 53.8954 69.2057 56.0547C69.2057 58.7349 70.8767 59.8199 74.7179 61.4801L76.964 62.4349C84.592 65.6793 88.8889 68.9996 88.8889 76.454C88.8889 84.4836 82.5412 88.8889 74.0234 88.8889C65.701 88.8889 60.97 84.7114 58.3333 79.5356L65.3863 74.8481ZM33.2031 75.076C34.6029 77.5934 36.7404 79.5356 39.8112 79.5356C42.7517 79.5356 44.4444 78.3746 44.4444 73.8607V44.4445H53.7001V75.2822C53.7001 84.6355 48.2747 88.8889 40.3537 88.8889C33.1923 88.8889 28.0273 84.0387 25.9223 79.5356L33.2031 75.076Z" fill="#0B1F35"/>
</svg>
