<svg width="784" height="608" viewBox="0 0 784 608" fill="none" xmlns="http://www.w3.org/2000/svg">
<path opacity="0.5" d="M559.5 0C720.5 0 680 188 700 240C721.2 295.1 784 300.3 784 410C784 560 620 560 460 568C398.9 571.1 325.7 608 238.3 608C100 608 0 523 0 416.3C0 279.5 100 252 260 172C333.7 135.2 419.3 0 559.5 0Z" fill="#F3F4F5"/>
<path opacity="0.5" d="M719.3 525.9L689.9 532.9L700.4 535.4C679.6 544.1 655.8 550.1 630 554.5C629.5 550.1 627.3 524.5 644.8 504.3L667.6 508.8L649.1 497.9L658.2 482.1L667.1 484.2L660 477C660 477 670.7 446.7 692.2 443.5C692.2 443.5 698.5 450 701 460.4L691.6 466.2L702.7 464.5L710.1 480.5L689.9 486.9L712.1 487.2C712.1 487.1 720.4 505.3 719.3 525.9Z" fill="#E0DEDE"/>
<path d="M663.8 547.5C661 541.9 657.2 536.6 652 533.5C652.2 539.3 651.6 545.1 650.2 550.7C654.8 549.7 659.3 548.6 663.8 547.5ZM643.4 530.1C641.8 524.6 639.6 519.2 635.9 514.9C632.2 510.6 626.8 506.9 621.1 507C625 520.9 623.1 536.3 616.1 548.9C615.8 549.5 615.4 550.1 614.7 550.1C614.1 550.1 613.6 549.5 613.3 548.9C610.7 544 611.4 538.3 612.8 532.8C613.1 531.5 613.5 530.3 613.9 529C615.9 522.5 618 515.4 615.3 509.1C613.2 504.1 608.3 500.7 603.2 499.1C598 497.5 592.5 496.8 587.1 496.7C592.8 505.8 594.8 517.1 592.7 527.6C592.7 527.8 592.6 527.9 592.6 528.1C592.6 528.3 592.5 528.5 592.5 528.6C592.4 529.1 592.3 529.5 591.9 529.8C591.1 530.5 589.9 529.5 589.3 528.7C586.1 523.8 586.4 517.6 586.5 511.8C586.6 506 586.2 499.6 582.2 495.4C578.6 491.6 573.1 490.5 567.9 490.2C562.7 489.9 557.5 489.8 552.7 487.8C550.4 492.7 548 497.8 547.4 503.2C546.8 508.6 548.3 514.6 552.4 518.1C556.7 521.7 563.3 522.4 566.1 527.2C567.2 529 567.3 531.7 565.5 532.8C564 533.7 562.1 533 560.5 532.2C554.2 529.1 547.7 524.8 543 519.6C541.8 522.4 540.7 525.3 539.5 528.1C538.3 531.1 537.1 534.2 537.3 537.3C537.7 542.1 541.5 546 545.9 548C550.3 550 555.2 550.3 559.9 550.7C564.7 551.1 569.6 551.5 573.9 553.6C576.6 554.9 579.3 557.7 578.3 560.5C578.2 560.7 578.2 560.8 578.1 560.9C580.8 560.7 583.5 560.4 586.1 560.1C586.5 559.9 586.8 559.8 587.2 559.6C589.4 558.8 591.8 558.3 594.2 558.6C594.9 558.7 595.5 558.8 596.2 559C604.1 558.1 611.9 557.1 619.5 556C619.6 554.9 620 553.8 620.6 552.8C621 552.1 621.5 551.4 622 550.7C622.5 550 623.2 549.2 624.1 549.2C624.9 549.2 625.6 549.7 626 550.4C626.6 551.7 626.1 553.2 625.4 554.5C625.3 554.7 625.2 554.9 625.1 555.1C631.7 554.1 638.2 552.9 644.5 551.6C646.4 544.9 645.4 537.1 643.4 530.1ZM587.4 539.7C587.1 539.8 586.8 539.8 586.5 539.7C586 539.6 585.5 539.5 585 539.4C584.2 539.2 583.3 539.1 582.5 538.6C581.8 538.2 581.2 537.4 581.2 536.5C581.2 535.5 582.1 534.7 583 534.5C583.9 534.3 584.9 534.6 585.7 535.2C586.5 535.8 587 536.6 587.5 537.4C587.7 537.8 587.9 538.2 588 538.6C588 539.1 587.8 539.5 587.4 539.7ZM599 536.4C598.4 536.6 597.7 536.2 597.3 535.7C596.9 535.2 596.8 534.5 596.7 533.9C596.5 532.6 596.4 531.3 596.4 530.1C596.4 529.5 596.4 529 596.6 528.5C596.6 528.3 596.7 528.2 596.8 528C597.1 527.3 597.6 526.7 598.3 526.5C599.3 526.2 600.5 526.9 601 527.8C601.5 528.7 601.5 529.9 601.4 530.9C601.3 531.4 601.2 531.9 601.1 532.4C600.7 533.9 600 535.3 599 536.4ZM537.3 564.1C546.6 563.5 555.7 562.9 564.8 562.2C555.6 559.9 546.8 555.7 538.3 551.5C537.2 555.6 536.9 559.8 537.3 564.1Z" fill="#E0DEDE"/>
<path d="M256 520H112V536H256V520Z" fill="#828C97"/>
<path d="M144 536V593.5C139.6 592 135.2 590.5 130.9 588.8L128 536H144Z" fill="#828C97"/>
<path d="M240 536L236 608C232 608 228 607.9 224 607.7V536H240Z" fill="#828C97"/>
<path d="M169 227C169 227 173 276 147 276C147 276 157 300 183 300C209 300 212 275 212 275C208 274 198 273 198 265C198 252.6 198 248 198 248L169 227Z" fill="#FF9D9B"/>
<path d="M198 264.6C198 252.5 198 248 198 248L169 227C169 227 169.3 230.1 169.2 234.7C170.4 235.1 171.7 235.3 172.9 235.2C174.8 248.8 184.6 259.5 196 264C196.7 264.3 197.3 264.5 198 264.6Z" fill="#FF8988"/>
<path d="M221.6 230.3C221.6 230.3 223.7 223.3 228 213C233 201 228 182 228 182L218.8 188.3L221.6 230.3Z" fill="#172A3F"/>
<path d="M222.6 222.5C222 224.6 221.7 229.9 221.7 232.1C221.7 238.8 210.6 265.7 196 259.9C181 253.9 168.6 237.2 173.8 217.2C179 197.1 193.6 187.4 207.4 187.1C230.2 186.7 228.6 202.6 222.6 222.5Z" fill="#FFA3A2"/>
<path d="M196.39 219.742C196.677 218.11 195.808 216.593 194.448 216.353C193.089 216.114 191.753 217.242 191.466 218.874C191.178 220.505 192.047 222.022 193.407 222.262C194.767 222.502 196.102 221.373 196.39 219.742Z" fill="#172A3F"/>
<path d="M215.6 221.7C215.3 223.3 214 224.5 212.6 224.2C211.2 224 210.4 222.4 210.7 220.8C211 219.2 212.3 218 213.7 218.3C215 218.6 215.9 220.1 215.6 221.7Z" fill="#172A3F"/>
<path d="M193.2 213.2C196.3 212.2 197.2 211.6 196.6 210.3C196 209 190.3 210.1 189 211.7C187.8 213.4 189.5 214.5 193.2 213.2Z" fill="#172A3F"/>
<path d="M215.7 214.4C213.1 213.1 212.3 212.5 212.9 211.1C213.5 209.7 218.4 211.4 219.4 213.2C220.4 215 218.9 216 215.7 214.4Z" fill="#172A3F"/>
<path d="M200.7 235.4C200.5 235.4 200.3 235.2 200.3 235C200.3 234.8 200.5 234.6 200.7 234.6C202.3 234.6 206.6 234.3 207.4 232.8C207.9 231.8 207.5 231.1 206.8 229.9C206.4 229.2 205.8 228.3 205.4 227.1C204.4 224 207.3 216.2 207.4 215.8C207.5 215.6 207.7 215.5 207.9 215.6C208.1 215.7 208.2 215.9 208.1 216.1C208.1 216.2 205.2 224 206.1 226.9C206.5 228 207 228.8 207.4 229.6C208.1 230.8 208.8 231.8 208.1 233.2C207 235.3 201.4 235.4 200.7 235.4Z" fill="#FF736F"/>
<path d="M202.2 245.7C199.5 245.7 195.4 245 191.7 241.3C191.6 241.2 191.6 240.9 191.7 240.8C191.8 240.7 192.1 240.7 192.2 240.8C198 246.6 204.8 244.7 204.8 244.7C205 244.6 205.2 244.8 205.3 245C205.4 245.2 205.2 245.4 205 245.5C205.1 245.4 203.9 245.7 202.2 245.7Z" fill="#FF736F"/>
<path d="M233 164C233 164 236 189 226 193C216 197 216.3 195 212.3 197C208.3 199 207.1 200 202.1 199C197.1 198 192 193 187 196C182 199 180 217 175 221C170 225 165 226 165 226C165 226 159 199 161 194C164.5 185.2 167.4 185.4 169 183C171 180 168 177 173 172C178 167 182 170 188 168C194 166 193 160 204 158C215 156 217 165 228 159L225 166L233 164Z" fill="#1C334D"/>
<path d="M161.8 184.6C161.6 184.6 161.5 184.5 161.4 184.3C161.3 184.1 161.4 183.8 161.6 183.6C162.9 182.9 166.5 182.2 169 183.2C169.3 183.3 169.4 183.6 169.3 183.9C169.2 184.2 168.9 184.3 168.6 184.2C166.5 183.3 163.2 183.9 162 184.5C161.9 184.6 161.8 184.6 161.8 184.6Z" fill="#1C334D"/>
<path d="M170 183.5C169.7 183.5 169.5 183.3 169.5 183C169.5 181.4 166.6 180.2 165.5 179.8C165.2 179.7 165.1 179.4 165.2 179.2C165.3 178.9 165.6 178.8 165.8 178.9C166.3 179.1 170.5 180.5 170.5 183C170.5 183.3 170.3 183.5 170 183.5Z" fill="#1C334D"/>
<path d="M164.8 213.9C161.2 216.4 160.7 222.1 163.8 226.5C166.9 231 172.3 232.6 176 230C179.6 227.5 180.1 221.8 177 217.4C173.9 212.9 168.5 211.3 164.8 213.9Z" fill="#FFA3A2"/>
<path d="M174.6 224.7C174.5 224.7 174.3 224.6 174.3 224.5C170.7 217.1 165.9 218.6 165.7 218.6C165.5 218.7 165.3 218.6 165.2 218.4C165.1 218.2 165.2 218 165.4 217.9C165.5 217.9 171.1 216.1 175 224.2C175.1 224.4 175 224.6 174.8 224.7C174.7 224.7 174.7 224.7 174.6 224.7Z" fill="#FF736F"/>
<path d="M168.5 226.4C168.3 226.4 168.1 226.3 168.1 226.1C167.6 221.4 171.9 220.2 171.9 220.2C172.1 220.2 172.3 220.3 172.4 220.5C172.5 220.7 172.3 220.9 172.1 221C171.9 221 168.4 222 168.8 226.1C168.9 226.2 168.8 226.4 168.5 226.4Z" fill="#FF736F"/>
<path d="M237.5 440L237 454H123L124.9 440H237.5Z" fill="#366CBA"/>
<path d="M288 368H240L238.3 416L237.5 440H124.9L128.2 416L130.2 401.6L135 367L89 366L96 316C96 316 99 299 106 291C110.2 286.2 116.3 283.2 120.4 281.5C122.3 280.8 123.7 280.3 124.5 280.1H124.6C124.9 280 125.1 280 125.1 280L154.4 270C155.7 285.7 170.5 294.3 183.2 294.4C196.9 294.5 208.5 287.1 209.8 272.8L232.1 279.7C232.7 279.9 233.3 280 233.9 280.2C236.1 280.8 242.7 282.8 249 286.8C252.4 288.9 255.7 291.7 258.2 295C268.8 309.9 288 368 288 368Z" fill="#4480FF"/>
<path d="M183.1 294.4C196.1 294.5 207.2 287.8 209.4 274.8C209.5 274.1 209.6 273.4 209.7 272.7L204 271C203 282 195.4 287 183.5 287C171.6 287 161 280 160 268L154.3 270C155.6 285.6 170.4 294.3 183.1 294.4Z" fill="white"/>
<path d="M232 332H200V340H232V332Z" fill="white"/>
<path d="M96.5 366.5C96.2 366.5 96.1 366.3 96.1 366.1L102.6 320C102.7 319.3 105.7 302.8 112.7 294.8C119.7 286.8 131.8 283.7 131.9 283.7L155.3 275.7C155.5 275.6 155.7 275.7 155.8 275.9C155.9 276.1 155.8 276.3 155.6 276.4L132.2 284.4C132.1 284.4 120.2 287.5 113.4 295.3C106.5 303.1 103.5 319.9 103.5 320.1L97 366.2C96.9 366.4 96.7 366.5 96.5 366.5Z" fill="#2E51B8"/>
<path d="M256.8 293.9C256.7 293.9 256.6 293.9 256.6 293.8C254.7 292.3 252.1 290.7 249 289.1C244.8 286.9 240.1 285.1 235.1 283.6L209.2 275.8C209 275.7 208.9 275.5 208.9 275.3C209 275.1 209.2 275 209.4 275L235.3 282.8C240.3 284.3 245 286.2 249.3 288.4C252.5 290 255.1 291.7 257.1 293.2C257.3 293.3 257.3 293.6 257.2 293.7C257.1 293.9 257 293.9 256.8 293.9Z" fill="#2E51B8"/>
<path d="M137.4 331.5L142.5 348.4C144.5 355.1 145.4 362.1 144.9 369L143.9 385.4L133.7 384L137.4 331.5Z" fill="#366CBA"/>
<path d="M224 364.4H208C203.4 364.4 199.6 360.6 199.6 356V332C199.6 331.8 199.8 331.6 200 331.6C200.2 331.6 200.4 331.8 200.4 332V356C200.4 360.2 203.8 363.6 208 363.6H224C228.2 363.6 231.6 360.2 231.6 356V332C231.6 331.8 231.8 331.6 232 331.6C232.2 331.6 232.4 331.8 232.4 332V356C232.4 360.6 228.6 364.4 224 364.4Z" fill="#2E51B8"/>
<path d="M95.3 366.1L135 367L133.8 384C133.8 384 155.6 386.5 170.1 389C184.6 391.5 199.1 395.3 206.3 396C213.5 396.7 223 393.2 238.3 392.8V416H121.8C121.8 416 109.5 416.7 105.5 413C101.5 409.3 97 403 96 390.2C95 377.3 95.3 366.1 95.3 366.1Z" fill="#FF9D9B"/>
<path d="M208.3 396.5C207.6 396.5 207 396.5 206.3 396.4C202.4 396 196.3 394.7 189.2 393.2C183.3 391.9 176.7 390.5 170.1 389.4C155.8 386.9 134 384.4 133.8 384.4C118.9 382.9 112.5 384.4 112.5 384.4C112.3 384.5 112.1 384.3 112 384.1C112 383.9 112.1 383.7 112.3 383.6C112.6 383.5 118.8 382.1 133.9 383.6C134.1 383.6 155.9 386.1 170.3 388.6C176.9 389.7 183.6 391.2 189.4 392.4C196.4 393.9 202.5 395.2 206.4 395.6C209.8 395.9 213.7 395.3 218.6 394.5C223.8 393.7 230.3 392.6 238.3 392.4C238.5 392.4 238.7 392.6 238.7 392.8C238.7 393 238.5 393.2 238.3 393.2C230.4 393.4 223.9 394.4 218.7 395.3C214.6 395.9 211.3 396.5 208.3 396.5Z" fill="#FF736F"/>
<path d="M272.2 606.2L267.1 588L260 607.3L272.2 606.2Z" fill="#B99059"/>
<path d="M357.5 494.5C355.9 504.4 352 512 352 512L327.8 565.1L323.1 575.4L315.8 591.4L312 600L311.9 600.2C302.1 602.1 292.1 603.8 281.9 605.1C278.7 605.5 275.5 605.9 272.2 606.2L267.1 588L272.8 572.4L279.8 553.3L248 454H318.9C318.9 454 338.2 454.8 347.4 462.3C358.3 471 359.2 483.9 357.5 494.5Z" fill="#FFB96F"/>
<path d="M323.2 575.4L312 600L248 454H279.7C279.7 454 299.4 454.4 308.2 462.3C319.1 472.1 319.9 483.2 320.8 501.9C321.8 522 321.9 541.4 323.2 575.4Z" fill="#B99059"/>
<path d="M316.6 599.3C315 599.6 313.5 599.9 311.9 600.2C302.1 602.1 292.1 603.8 281.9 605.1C278.7 605.5 275.5 605.9 272.2 606.2L267.1 588L252.5 536L251.3 531.7C249.4 524.8 243.1 520 235.9 520H152C152 520 144 520 136 512C129.8 505.8 122.2 497.2 121.6 475.9C121.4 469.7 121.8 462.5 123 454H265.3C265.3 454 285 454.4 293.8 462.3C298.9 466.9 301.5 471.7 303 477.5C304.7 484.1 305.1 492 306.4 501.9C308 514.5 309.5 527.4 310.9 539.8C311.2 542.1 311.4 544.4 311.6 546.7C313.5 564.3 315 580.2 316 591.5C316.2 594.4 316.4 597 316.6 599.3Z" fill="#FFB96F"/>
<path d="M281.9 605.5C281.7 605.5 281.6 605.4 281.5 605.2L272.4 572.4V572.3L258.9 523.7C258.4 522.1 257.7 520.5 256.7 519.1C253.8 514.9 249 512.3 243.8 512.3H160C159.7 512.3 151.8 512.2 143.7 504.2C138.5 499 132.9 492 130.4 479.1C130.4 478.9 130.6 478.7 130.8 478.7C131 478.7 131.2 478.8 131.2 479C133.6 491.7 139.2 498.6 144.2 503.6C152 511.4 159.9 511.5 159.9 511.5H243.8C249.2 511.5 254.3 514.2 257.3 518.6C258.3 520.1 259.1 521.7 259.6 523.5L273.1 572.2V572.3L282.2 605C282.3 605.2 282.1 605.4 281.9 605.5C281.9 605.5 281.9 605.5 281.9 605.5Z" fill="#B99059"/>
<path d="M130.7 479.5C127.2 479.5 123.7 478.6 121.3 476.2C121.2 476.1 121.1 475.8 121.3 475.7C121.4 475.6 121.7 475.5 121.8 475.7C127.1 480.8 137.9 478.7 142.8 475C150.5 469.2 151.7 462.7 151.2 454C151.2 453.8 151.3 453.6 151.6 453.6C151.8 453.6 152 453.7 152 454C152.5 462.9 151.2 469.7 143.3 475.6C140.3 477.8 135.4 479.5 130.7 479.5Z" fill="#B99059"/>
<path d="M348.6 497.6C341.1 497.6 334.9 492.5 334.6 486C334.6 485.8 334.7 485.6 335 485.6C335.2 485.6 335.4 485.7 335.4 486C335.7 492.4 342 497.3 349.4 496.9C352.3 496.7 355 495.8 357.3 494.2C357.5 494.1 357.7 494.1 357.8 494.3C357.9 494.5 357.9 494.7 357.7 494.8C355.3 496.5 352.5 497.5 349.4 497.6C349.1 497.6 348.8 497.6 348.6 497.6Z" fill="#B99059"/>
<path d="M288.2 491.7C285.9 491.7 283.7 491.2 281.7 490.2C278.5 488.6 276.3 486 275.4 482.8C275.3 482.6 275.5 482.4 275.7 482.3C275.9 482.2 276.1 482.4 276.2 482.6C277 485.6 279.1 488 282.1 489.5C285.1 491 288.7 491.3 292.2 490.4C298.6 488.7 303 483.2 302.5 477.5C302.5 477.3 302.6 477.1 302.8 477.1C303 477.1 303.2 477.2 303.2 477.4C303.7 483.4 299 489.3 292.3 491.1C291 491.5 289.6 491.7 288.2 491.7Z" fill="#B99059"/>
<path d="M464 416H0V440H464V416Z" fill="#B3B9C0"/>
<path d="M48 440L36.8 521.2C30.5 513.2 24.9 504.7 20.2 495.8L24 440H48Z" fill="#B3B9C0"/>
<path d="M88.3 448H64.8L64 440H88L88.3 448Z" fill="#828C97"/>
<path d="M92.5 569.9C86.9 566.5 81.5 562.9 76.4 559.1L64.8 448H88.3L92.5 569.9Z" fill="#B3B9C0"/>
<path d="M448.9 568.9C444 569.4 439.1 570.2 434.1 571L416 440H440L448.9 568.9Z" fill="#B3B9C0"/>
<path d="M400 440L399.2 448H375.7L376 440H400Z" fill="#828C97"/>
<path d="M399.2 448L385.3 582.2C380.6 583.5 375.8 584.7 371 586L375.8 448H399.2Z" fill="#B3B9C0"/>
<path d="M772 17C774.2 17 776 15.2 776 13C776 10.8 774.2 9 772 9C769.8 9 768 10.8 768 13C768 15.2 769.8 17 772 17Z" fill="#FF716F"/>
<path d="M772 41C774.2 41 776 39.2 776 37C776 34.8 774.2 33 772 33C769.8 33 768 34.8 768 37C768 39.2 769.8 41 772 41Z" fill="#FF716F"/>
<path d="M772 65C774.2 65 776 63.2 776 61C776 58.8 774.2 57 772 57C769.8 57 768 58.8 768 61C768 63.2 769.8 65 772 65Z" fill="#FF716F"/>
<path d="M772 89C774.2 89 776 87.2 776 85C776 82.8 774.2 81 772 81C769.8 81 768 82.8 768 85C768 87.2 769.8 89 772 89Z" fill="#FF716F"/>
<path d="M772 113C774.2 113 776 111.2 776 109C776 106.8 774.2 105 772 105C769.8 105 768 106.8 768 109C768 111.2 769.8 113 772 113Z" fill="#FF716F"/>
<path d="M772 137C774.2 137 776 135.2 776 133C776 130.8 774.2 129 772 129C769.8 129 768 130.8 768 133C768 135.2 769.8 137 772 137Z" fill="#FF716F"/>
<path d="M772 161C774.2 161 776 159.2 776 157C776 154.8 774.2 153 772 153C769.8 153 768 154.8 768 157C768 159.2 769.8 161 772 161Z" fill="#FF716F"/>
<path d="M772 185C774.2 185 776 183.2 776 181C776 178.8 774.2 177 772 177C769.8 177 768 178.8 768 181C768 183.2 769.8 185 772 185Z" fill="#FF716F"/>
<path d="M772 209C774.2 209 776 207.2 776 205C776 202.8 774.2 201 772 201C769.8 201 768 202.8 768 205C768 207.2 769.8 209 772 209Z" fill="#FF716F"/>
<path d="M748 17C750.2 17 752 15.2 752 13C752 10.8 750.2 9 748 9C745.8 9 744 10.8 744 13C744 15.2 745.8 17 748 17Z" fill="#FF716F"/>
<path d="M748 41C750.2 41 752 39.2 752 37C752 34.8 750.2 33 748 33C745.8 33 744 34.8 744 37C744 39.2 745.8 41 748 41Z" fill="#FF716F"/>
<path d="M748 65C750.2 65 752 63.2 752 61C752 58.8 750.2 57 748 57C745.8 57 744 58.8 744 61C744 63.2 745.8 65 748 65Z" fill="#FF716F"/>
<path d="M748 89C750.2 89 752 87.2 752 85C752 82.8 750.2 81 748 81C745.8 81 744 82.8 744 85C744 87.2 745.8 89 748 89Z" fill="#FF716F"/>
<path d="M748 113C750.2 113 752 111.2 752 109C752 106.8 750.2 105 748 105C745.8 105 744 106.8 744 109C744 111.2 745.8 113 748 113Z" fill="#FF716F"/>
<path d="M748 137C750.2 137 752 135.2 752 133C752 130.8 750.2 129 748 129C745.8 129 744 130.8 744 133C744 135.2 745.8 137 748 137Z" fill="#FF716F"/>
<path d="M748 161C750.2 161 752 159.2 752 157C752 154.8 750.2 153 748 153C745.8 153 744 154.8 744 157C744 159.2 745.8 161 748 161Z" fill="#FF716F"/>
<path d="M748 185C750.2 185 752 183.2 752 181C752 178.8 750.2 177 748 177C745.8 177 744 178.8 744 181C744 183.2 745.8 185 748 185Z" fill="#FF716F"/>
<path d="M748 209C750.2 209 752 207.2 752 205C752 202.8 750.2 201 748 201C745.8 201 744 202.8 744 205C744 207.2 745.8 209 748 209Z" fill="#FF716F"/>
<path d="M724 17C726.2 17 728 15.2 728 13C728 10.8 726.2 9 724 9C721.8 9 720 10.8 720 13C720 15.2 721.8 17 724 17Z" fill="#FF716F"/>
<path d="M724 41C726.2 41 728 39.2 728 37C728 34.8 726.2 33 724 33C721.8 33 720 34.8 720 37C720 39.2 721.8 41 724 41Z" fill="#FF716F"/>
<path d="M724 65C726.2 65 728 63.2 728 61C728 58.8 726.2 57 724 57C721.8 57 720 58.8 720 61C720 63.2 721.8 65 724 65Z" fill="#FF716F"/>
<path d="M724 89C726.2 89 728 87.2 728 85C728 82.8 726.2 81 724 81C721.8 81 720 82.8 720 85C720 87.2 721.8 89 724 89Z" fill="#FF716F"/>
<path d="M724 113C726.2 113 728 111.2 728 109C728 106.8 726.2 105 724 105C721.8 105 720 106.8 720 109C720 111.2 721.8 113 724 113Z" fill="#FF716F"/>
<path d="M724 137C726.2 137 728 135.2 728 133C728 130.8 726.2 129 724 129C721.8 129 720 130.8 720 133C720 135.2 721.8 137 724 137Z" fill="#FF716F"/>
<path d="M724 161C726.2 161 728 159.2 728 157C728 154.8 726.2 153 724 153C721.8 153 720 154.8 720 157C720 159.2 721.8 161 724 161Z" fill="#FF716F"/>
<path d="M724 185C726.2 185 728 183.2 728 181C728 178.8 726.2 177 724 177C721.8 177 720 178.8 720 181C720 183.2 721.8 185 724 185Z" fill="#FF716F"/>
<path d="M724 209C726.2 209 728 207.2 728 205C728 202.8 726.2 201 724 201C721.8 201 720 202.8 720 205C720 207.2 721.8 209 724 209Z" fill="#FF716F"/>
<path d="M700 17C702.2 17 704 15.2 704 13C704 10.8 702.2 9 700 9C697.8 9 696 10.8 696 13C696 15.2 697.8 17 700 17Z" fill="#FF716F"/>
<path d="M700 41C702.2 41 704 39.2 704 37C704 34.8 702.2 33 700 33C697.8 33 696 34.8 696 37C696 39.2 697.8 41 700 41Z" fill="#FF716F"/>
<path d="M700 65C702.2 65 704 63.2 704 61C704 58.8 702.2 57 700 57C697.8 57 696 58.8 696 61C696 63.2 697.8 65 700 65Z" fill="#FF716F"/>
<path d="M700 89C702.2 89 704 87.2 704 85C704 82.8 702.2 81 700 81C697.8 81 696 82.8 696 85C696 87.2 697.8 89 700 89Z" fill="#FF716F"/>
<path d="M700 113C702.2 113 704 111.2 704 109C704 106.8 702.2 105 700 105C697.8 105 696 106.8 696 109C696 111.2 697.8 113 700 113Z" fill="#FF716F"/>
<path d="M700 137C702.2 137 704 135.2 704 133C704 130.8 702.2 129 700 129C697.8 129 696 130.8 696 133C696 135.2 697.8 137 700 137Z" fill="#FF716F"/>
<path d="M700 161C702.2 161 704 159.2 704 157C704 154.8 702.2 153 700 153C697.8 153 696 154.8 696 157C696 159.2 697.8 161 700 161Z" fill="#FF716F"/>
<path d="M700 185C702.2 185 704 183.2 704 181C704 178.8 702.2 177 700 177C697.8 177 696 178.8 696 181C696 183.2 697.8 185 700 185Z" fill="#FF716F"/>
<path d="M700 209C702.2 209 704 207.2 704 205C704 202.8 702.2 201 700 201C697.8 201 696 202.8 696 205C696 207.2 697.8 209 700 209Z" fill="#FF716F"/>
<path d="M676 17C678.2 17 680 15.2 680 13C680 10.8 678.2 9 676 9C673.8 9 672 10.8 672 13C672 15.2 673.8 17 676 17Z" fill="#FF716F"/>
<path d="M676 41C678.2 41 680 39.2 680 37C680 34.8 678.2 33 676 33C673.8 33 672 34.8 672 37C672 39.2 673.8 41 676 41Z" fill="#FF716F"/>
<path d="M676 65C678.2 65 680 63.2 680 61C680 58.8 678.2 57 676 57C673.8 57 672 58.8 672 61C672 63.2 673.8 65 676 65Z" fill="#FF716F"/>
<path d="M676 89C678.2 89 680 87.2 680 85C680 82.8 678.2 81 676 81C673.8 81 672 82.8 672 85C672 87.2 673.8 89 676 89Z" fill="#FF716F"/>
<path d="M676 113C678.2 113 680 111.2 680 109C680 106.8 678.2 105 676 105C673.8 105 672 106.8 672 109C672 111.2 673.8 113 676 113Z" fill="#FF716F"/>
<path d="M676 137C678.2 137 680 135.2 680 133C680 130.8 678.2 129 676 129C673.8 129 672 130.8 672 133C672 135.2 673.8 137 676 137Z" fill="#FF716F"/>
<path d="M676 161C678.2 161 680 159.2 680 157C680 154.8 678.2 153 676 153C673.8 153 672 154.8 672 157C672 159.2 673.8 161 676 161Z" fill="#FF716F"/>
<path d="M676 185C678.2 185 680 183.2 680 181C680 178.8 678.2 177 676 177C673.8 177 672 178.8 672 181C672 183.2 673.8 185 676 185Z" fill="#FF716F"/>
<path d="M676 209C678.2 209 680 207.2 680 205C680 202.8 678.2 201 676 201C673.8 201 672 202.8 672 205C672 207.2 673.8 209 676 209Z" fill="#FF716F"/>
<path d="M652 17C654.2 17 656 15.2 656 13C656 10.8 654.2 9 652 9C649.8 9 648 10.8 648 13C648 15.2 649.8 17 652 17Z" fill="#FF716F"/>
<path d="M652 41C654.2 41 656 39.2 656 37C656 34.8 654.2 33 652 33C649.8 33 648 34.8 648 37C648 39.2 649.8 41 652 41Z" fill="#FF716F"/>
<path d="M652 65C654.2 65 656 63.2 656 61C656 58.8 654.2 57 652 57C649.8 57 648 58.8 648 61C648 63.2 649.8 65 652 65Z" fill="#FF716F"/>
<path d="M652 89C654.2 89 656 87.2 656 85C656 82.8 654.2 81 652 81C649.8 81 648 82.8 648 85C648 87.2 649.8 89 652 89Z" fill="#FF716F"/>
<path d="M652 113C654.2 113 656 111.2 656 109C656 106.8 654.2 105 652 105C649.8 105 648 106.8 648 109C648 111.2 649.8 113 652 113Z" fill="#FF716F"/>
<path d="M652 137C654.2 137 656 135.2 656 133C656 130.8 654.2 129 652 129C649.8 129 648 130.8 648 133C648 135.2 649.8 137 652 137Z" fill="#FF716F"/>
<path d="M652 161C654.2 161 656 159.2 656 157C656 154.8 654.2 153 652 153C649.8 153 648 154.8 648 157C648 159.2 649.8 161 652 161Z" fill="#FF716F"/>
<path d="M652 185C654.2 185 656 183.2 656 181C656 178.8 654.2 177 652 177C649.8 177 648 178.8 648 181C648 183.2 649.8 185 652 185Z" fill="#FF716F"/>
<path d="M652 209C654.2 209 656 207.2 656 205C656 202.8 654.2 201 652 201C649.8 201 648 202.8 648 205C648 207.2 649.8 209 652 209Z" fill="#FF716F"/>
<path d="M628 17C630.2 17 632 15.2 632 13C632 10.8 630.2 9 628 9C625.8 9 624 10.8 624 13C624 15.2 625.8 17 628 17Z" fill="#FF716F"/>
<path d="M628 41C630.2 41 632 39.2 632 37C632 34.8 630.2 33 628 33C625.8 33 624 34.8 624 37C624 39.2 625.8 41 628 41Z" fill="#FF716F"/>
<path d="M628 65C630.2 65 632 63.2 632 61C632 58.8 630.2 57 628 57C625.8 57 624 58.8 624 61C624 63.2 625.8 65 628 65Z" fill="#FF716F"/>
<path d="M628 89C630.2 89 632 87.2 632 85C632 82.8 630.2 81 628 81C625.8 81 624 82.8 624 85C624 87.2 625.8 89 628 89Z" fill="#FF716F"/>
<path d="M628 113C630.2 113 632 111.2 632 109C632 106.8 630.2 105 628 105C625.8 105 624 106.8 624 109C624 111.2 625.8 113 628 113Z" fill="#FF716F"/>
<path d="M628 137C630.2 137 632 135.2 632 133C632 130.8 630.2 129 628 129C625.8 129 624 130.8 624 133C624 135.2 625.8 137 628 137Z" fill="#FF716F"/>
<path d="M628 161C630.2 161 632 159.2 632 157C632 154.8 630.2 153 628 153C625.8 153 624 154.8 624 157C624 159.2 625.8 161 628 161Z" fill="#FF716F"/>
<path d="M628 185C630.2 185 632 183.2 632 181C632 178.8 630.2 177 628 177C625.8 177 624 178.8 624 181C624 183.2 625.8 185 628 185Z" fill="#FF716F"/>
<path d="M628 209C630.2 209 632 207.2 632 205C632 202.8 630.2 201 628 201C625.8 201 624 202.8 624 205C624 207.2 625.8 209 628 209Z" fill="#FF716F"/>
<path d="M604 17C606.2 17 608 15.2 608 13C608 10.8 606.2 9 604 9C601.8 9 600 10.8 600 13C600 15.2 601.8 17 604 17Z" fill="#FF716F"/>
<path d="M604 41C606.2 41 608 39.2 608 37C608 34.8 606.2 33 604 33C601.8 33 600 34.8 600 37C600 39.2 601.8 41 604 41Z" fill="#FF716F"/>
<path d="M604 65C606.2 65 608 63.2 608 61C608 58.8 606.2 57 604 57C601.8 57 600 58.8 600 61C600 63.2 601.8 65 604 65Z" fill="#FF716F"/>
<path d="M604 89C606.2 89 608 87.2 608 85C608 82.8 606.2 81 604 81C601.8 81 600 82.8 600 85C600 87.2 601.8 89 604 89Z" fill="#FF716F"/>
<path d="M604 113C606.2 113 608 111.2 608 109C608 106.8 606.2 105 604 105C601.8 105 600 106.8 600 109C600 111.2 601.8 113 604 113Z" fill="#FF716F"/>
<path d="M604 137C606.2 137 608 135.2 608 133C608 130.8 606.2 129 604 129C601.8 129 600 130.8 600 133C600 135.2 601.8 137 604 137Z" fill="#FF716F"/>
<path d="M604 161C606.2 161 608 159.2 608 157C608 154.8 606.2 153 604 153C601.8 153 600 154.8 600 157C600 159.2 601.8 161 604 161Z" fill="#FF716F"/>
<path d="M604 185C606.2 185 608 183.2 608 181C608 178.8 606.2 177 604 177C601.8 177 600 178.8 600 181C600 183.2 601.8 185 604 185Z" fill="#FF716F"/>
<path d="M604 209C606.2 209 608 207.2 608 205C608 202.8 606.2 201 604 201C601.8 201 600 202.8 600 205C600 207.2 601.8 209 604 209Z" fill="#FF716F"/>
<path d="M580 17C582.2 17 584 15.2 584 13C584 10.8 582.2 9 580 9C577.8 9 576 10.8 576 13C576 15.2 577.8 17 580 17Z" fill="#FF716F"/>
<path d="M580 41C582.2 41 584 39.2 584 37C584 34.8 582.2 33 580 33C577.8 33 576 34.8 576 37C576 39.2 577.8 41 580 41Z" fill="#FF716F"/>
<path d="M580 65C582.2 65 584 63.2 584 61C584 58.8 582.2 57 580 57C577.8 57 576 58.8 576 61C576 63.2 577.8 65 580 65Z" fill="#FF716F"/>
<path d="M580 89C582.2 89 584 87.2 584 85C584 82.8 582.2 81 580 81C577.8 81 576 82.8 576 85C576 87.2 577.8 89 580 89Z" fill="#FF716F"/>
<path d="M580 113C582.2 113 584 111.2 584 109C584 106.8 582.2 105 580 105C577.8 105 576 106.8 576 109C576 111.2 577.8 113 580 113Z" fill="#FF716F"/>
<path d="M580 137C582.2 137 584 135.2 584 133C584 130.8 582.2 129 580 129C577.8 129 576 130.8 576 133C576 135.2 577.8 137 580 137Z" fill="#FF716F"/>
<path d="M580 161C582.2 161 584 159.2 584 157C584 154.8 582.2 153 580 153C577.8 153 576 154.8 576 157C576 159.2 577.8 161 580 161Z" fill="#FF716F"/>
<path d="M580 185C582.2 185 584 183.2 584 181C584 178.8 582.2 177 580 177C577.8 177 576 178.8 576 181C576 183.2 577.8 185 580 185Z" fill="#FF716F"/>
<path d="M580 209C582.2 209 584 207.2 584 205C584 202.8 582.2 201 580 201C577.8 201 576 202.8 576 205C576 207.2 577.8 209 580 209Z" fill="#FF716F"/>
<path opacity="0.3" d="M728 392H312C303.2 392 296 384.8 296 376V88C296 79.2 303.2 72 312 72H728C736.8 72 744 79.2 744 88V376C744 384.8 736.8 392 728 392Z" fill="#E0DEDE"/>
<path d="M720 384H304C295.2 384 288 376.8 288 368V80C288 71.2 295.2 64 304 64H720C728.8 64 736 71.2 736 80V368C736 376.8 728.8 384 720 384Z" fill="#172A3F"/>
<path d="M714 86C717.314 86 720 83.3137 720 80C720 76.6863 717.314 74 714 74C710.686 74 708 76.6863 708 80C708 83.3137 710.686 86 714 86Z" fill="#ED4539"/>
<path d="M694 86C697.314 86 700 83.3137 700 80C700 76.6863 697.314 74 694 74C690.686 74 688 76.6863 688 80C688 83.3137 690.686 86 694 86Z" fill="#40B198"/>
<path d="M720 376H304C299.6 376 296 372.4 296 368V104C296 99.6 299.6 96 304 96H720C724.4 96 728 99.6 728 104V368C728 372.4 724.4 376 720 376Z" fill="white"/>
<path d="M696 160H544V344H696V160Z" fill="#172A3F"/>
<path d="M696 303.6H544V304.4H696V303.6Z" fill="#203B59"/>
<path d="M696 224H544V264H696V224Z" fill="#203B59"/>
<path d="M560 252C564.418 252 568 248.418 568 244C568 239.582 564.418 236 560 236C555.582 236 552 239.582 552 244C552 248.418 555.582 252 560 252Z" fill="#172A3F"/>
<path d="M672 238.4H576C575.8 238.4 575.6 238.2 575.6 238C575.6 237.8 575.8 237.6 576 237.6H672C672.2 237.6 672.4 237.8 672.4 238C672.4 238.2 672.2 238.4 672 238.4Z" fill="#C5C6CD"/>
<path d="M640 250.4H576C575.8 250.4 575.6 250.2 575.6 250C575.6 249.8 575.8 249.6 576 249.6H640C640.2 249.6 640.4 249.8 640.4 250C640.4 250.2 640.2 250.4 640 250.4Z" fill="#C5C6CD"/>
<path d="M552 204V180C552 177.8 553.8 176 556 176H580C582.2 176 584 177.8 584 180V204C584 206.2 582.2 208 580 208H556C553.8 208 552 206.2 552 204Z" fill="#203B59"/>
<path d="M672 186.4H592C591.8 186.4 591.6 186.2 591.6 186C591.6 185.8 591.8 185.6 592 185.6H672C672.2 185.6 672.4 185.8 672.4 186C672.4 186.2 672.2 186.4 672 186.4Z" fill="#C5C6CD"/>
<path d="M624 198.4H592C591.8 198.4 591.6 198.2 591.6 198C591.6 197.8 591.8 197.6 592 197.6H624C624.2 197.6 624.4 197.8 624.4 198C624.4 198.2 624.2 198.4 624 198.4Z" fill="#C5C6CD"/>
<path d="M560 291.1C564.418 291.1 568 287.518 568 283.1C568 278.682 564.418 275.1 560 275.1C555.582 275.1 552 278.682 552 283.1C552 287.518 555.582 291.1 560 291.1Z" fill="#203B59"/>
<path d="M672 277.5H576C575.8 277.5 575.6 277.3 575.6 277.1C575.6 276.9 575.8 276.7 576 276.7H672C672.2 276.7 672.4 276.9 672.4 277.1C672.4 277.3 672.2 277.5 672 277.5Z" fill="#C5C6CD"/>
<path d="M640 289.5H576C575.8 289.5 575.6 289.3 575.6 289.1C575.6 288.9 575.8 288.7 576 288.7H640C640.2 288.7 640.4 288.9 640.4 289.1C640.4 289.3 640.2 289.5 640 289.5Z" fill="#C5C6CD"/>
<path d="M560 332.9C564.418 332.9 568 329.318 568 324.9C568 320.482 564.418 316.9 560 316.9C555.582 316.9 552 320.482 552 324.9C552 329.318 555.582 332.9 560 332.9Z" fill="#203B59"/>
<path d="M672 319.2H576C575.8 319.2 575.6 319 575.6 318.8C575.6 318.6 575.8 318.4 576 318.4H672C672.2 318.4 672.4 318.6 672.4 318.8C672.4 319 672.2 319.2 672 319.2Z" fill="#C5C6CD"/>
<path d="M640 331.2H576C575.8 331.2 575.6 331 575.6 330.8C575.6 330.6 575.8 330.4 576 330.4H640C640.2 330.4 640.4 330.6 640.4 330.8C640.4 331 640.2 331.2 640 331.2Z" fill="#C5C6CD"/>
<path d="M544 160H328V344H544V160Z" fill="#203B59"/>
<path d="M728 127.6H296V128.4H728V127.6Z" fill="#F0F1F2"/>
<path d="M372.5 113H328.5C328.2 113 328 112.8 328 112.5C328 112.2 328.2 112 328.5 112H372.5C372.8 112 373 112.2 373 112.5C373 112.8 372.8 113 372.5 113Z" fill="#172A3F"/>
<path d="M404.5 113H388.5C388.2 113 388 112.8 388 112.5C388 112.2 388.2 112 388.5 112H404.5C404.8 112 405 112.2 405 112.5C405 112.8 404.8 113 404.5 113Z" fill="#172A3F"/>
<path d="M428.5 113H412.5C412.2 113 412 112.8 412 112.5C412 112.2 412.2 112 412.5 112H428.5C428.8 112 429 112.2 429 112.5C429 112.8 428.8 113 428.5 113Z" fill="#172A3F"/>
<path d="M452.5 113H436.5C436.2 113 436 112.8 436 112.5C436 112.2 436.2 112 436.5 112H452.5C452.8 112 453 112.2 453 112.5C453 112.8 452.8 113 452.5 113Z" fill="#172A3F"/>
<path opacity="0.3" d="M580 120H484C481.8 120 480 121.8 480 124V192V216L496 192H580C582.2 192 584 190.2 584 188V124C584 121.8 582.2 120 580 120Z" fill="#B3B9C0"/>
<path d="M572 112H476C473.8 112 472 113.8 472 116V184V208L488 184H572C574.2 184 576 182.2 576 180V116C576 113.8 574.2 112 572 112Z" fill="white"/>
<path d="M471.5 209.7V116C471.5 113.5 473.5 111.5 476 111.5H572C574.5 111.5 576.5 113.5 576.5 116V180C576.5 182.5 574.5 184.5 572 184.5H488.3L471.5 209.7ZM476 112.5C474.1 112.5 472.5 114.1 472.5 116V206.3L487.7 183.5H572C573.9 183.5 575.5 181.9 575.5 180V116C575.5 114.1 573.9 112.5 572 112.5H476Z" fill="#F0F1F2"/>
<path d="M504.4 163.7L491.2 150.5C489.8 149.1 489.8 146.9 491.2 145.5L504.4 132.3C504.9 131.8 505.6 131.8 506.1 132.3L509.4 135.6C509.9 136.1 509.9 136.8 509.4 137.3L498.6 148L509.3 158.7C509.8 159.2 509.8 159.9 509.3 160.4L506 163.7C505.6 164.1 504.8 164.1 504.4 163.7Z" fill="#FF5C5C"/>
<path d="M519.1 163.1L514.9 161C514.3 160.7 514.1 160 514.4 159.4L527.4 133.5C527.7 132.9 528.4 132.7 529 133L533.2 135.1C533.8 135.4 534 136.1 533.7 136.7L520.7 162.6C520.4 163.1 519.7 163.3 519.1 163.1Z" fill="#FF5C5C"/>
<path d="M542 163.7L538.7 160.4C538.2 159.9 538.2 159.2 538.7 158.7L549.4 148L538.7 137.3C538.2 136.8 538.2 136.1 538.7 135.6L542 132.3C542.5 131.8 543.2 131.8 543.7 132.3L556.9 145.5C558.3 146.9 558.3 149.1 556.9 150.5L543.7 163.7C543.2 164.1 542.4 164.1 542 163.7Z" fill="#FF5C5C"/>
<path d="M510.2 283.1L544 302.3C550.4 305.9 552.7 314 549.2 320.5C545.7 327 537.6 329.5 531.1 326L497.9 308.6L510.2 283.1Z" fill="#FFA3A2"/>
<path d="M540 250L526.6 312.6C525.1 319.5 529.7 326.3 536.7 327.4C544.1 328.6 550.8 323 551 315.5L553.7 250.5L540 250Z" fill="#FFA3A2"/>
<path d="M540 250C540 250 535.2 245.2 532.5 230.1C532.3 229.2 532.8 228.2 533.6 227.7C534.8 226.9 536.4 227.4 537 228.6L539.9 234.7L553.8 250.5L540 250Z" fill="#FFA3A2"/>
<path d="M539.8 234.7L537.6 213.6C537.5 212.7 538 211.4 539.1 211.2C540.3 210.9 541.4 211.7 541.5 212.6L543.9 227.5L544.5 209.7C544.5 208.8 545.2 208.1 546.1 208.1C547 208.1 547.7 208.7 547.7 209.6L549.2 228.7L551 212.6C551.1 211.7 551.8 211.1 552.7 211C553.7 210.9 554.6 211.7 554.6 212.8L554.8 230.1L561 218.5C561.6 217.6 562.7 217.5 563.5 218.1C564.1 218.6 564.3 219.4 564 220.1L559.3 233.8C559.3 233.8 559.9 241.9 553.6 250.5L541.5 245.2L539.8 234.7Z" fill="#FFA3A2"/>
<path d="M548.8 241.2C548.6 241.2 548.5 241.1 548.4 240.9C547.4 234.2 540.1 235 539.8 235.1C539.6 235.1 539.4 235 539.4 234.8C539.4 234.6 539.5 234.4 539.7 234.4C539.8 234.4 548 233.5 549.1 240.9C549.2 241 549.1 241.2 548.8 241.2Z" fill="#FF736F"/>
<path d="M533.9 327.5C533.4 327.3 532.9 327.1 532.4 326.8C530.1 325.5 528.3 323.5 527.4 321.2C527.3 321 527.4 320.8 527.6 320.7C527.8 320.6 528 320.7 528.1 320.9C528.9 323 530.6 324.9 532.7 326.2C533.2 326.5 533.6 326.7 534 326.9L533.9 327.3V327.5Z" fill="#FF736F"/>
<path d="M459.1 265.8C459.1 265.8 449.4 279.4 435.1 280.5C420.8 281.6 410.7 270 410.7 270C421.3 268.8 421.4 255.9 421.2 252.1C424.7 256.1 429.4 258.7 435.8 258.7C439.8 258.7 443.1 257.7 445.9 255.9C447.8 267.5 459.1 265.8 459.1 265.8Z" fill="#FFA3A2"/>
<path d="M445.6 251.7C442.5 254.2 438.7 255.7 433.8 255.7C428.5 255.7 424.4 253.9 421.1 251.1C421.1 251.1 421.1 251.5 421.2 252.2C424.7 256.2 429.4 258.8 435.8 258.8C439.8 258.8 443.1 257.8 445.9 256C445.7 254.7 445.6 253.2 445.6 251.7Z" fill="#FF8988"/>
<path d="M503.5 314.5L484 303.4L485.8 344H369.3L374.2 301.2C374.2 301.2 374.8 279.9 392 272.9C410.7 265.3 418.7 261.1 418.7 261.1L420.1 262.1C428.8 268.4 440.6 268.1 448.9 261.2L471.7 263.9C488.3 266.9 487.7 267.4 495.7 271.6C497.1 272.3 517.7 285.3 517.7 285.3L503.5 314.5Z" fill="#DC3124"/>
<path d="M434.1 273.7C419.6 273.7 413 264.1 412.9 264C412.8 263.8 412.8 263.6 413 263.5C413.2 263.4 413.4 263.4 413.5 263.6C413.6 263.7 420.2 273.3 434.8 272.9C449.4 272.6 455.9 262.1 455.9 262C456 261.8 456.2 261.8 456.4 261.9C456.6 262 456.6 262.2 456.5 262.4C456.4 262.5 449.8 273.3 434.8 273.7C434.6 273.7 434.4 273.7 434.1 273.7Z" fill="#A9261C"/>
<path d="M484 303.4L485.9 302.6L505.9 309.5L503.5 314.5L484 303.4Z" fill="#A9261C"/>
<path d="M398.5 344L399.9 308.9L402.9 325.8V344H398.5Z" fill="#A9261C"/>
<path d="M456.9 212.7C456.9 212.7 459.8 255.6 433.8 255.6C407.9 255.6 409.9 212.7 409.9 212.7C409.9 212.7 408.6 187.2 434.6 187.2C458.9 187.2 456.9 212.7 456.9 212.7Z" fill="#FFA3A2"/>
<path d="M425.1 209.5C424.9 210.1 423.3 210 421.5 210.5C419.7 210.9 418.3 211.8 417.9 211.4C417.5 211.1 418.6 209.2 421 208.6C423.4 207.9 425.3 209 425.1 209.5Z" fill="#172A3F"/>
<path d="M448 211.5C447.6 211.9 446 211.1 444 210.6C442 210 440.2 210 440 209.4C439.8 208.9 441.9 207.9 444.5 208.6C447 209.2 448.4 211.1 448 211.5Z" fill="#172A3F"/>
<path d="M423.2 220.6C424.305 220.6 425.2 219.257 425.2 217.6C425.2 215.943 424.305 214.6 423.2 214.6C422.096 214.6 421.2 215.943 421.2 217.6C421.2 219.257 422.096 220.6 423.2 220.6Z" fill="#172A3F"/>
<path d="M443.9 217.6C443.9 219.3 443 220.6 441.9 220.6C440.8 220.6 439.9 219.3 439.9 217.6C439.9 215.9 440.8 214.6 441.9 214.6C443 214.6 443.9 215.9 443.9 217.6Z" fill="#172A3F"/>
<path d="M433.8 231.7H433.7C432.4 231.3 431.7 231.1 431.3 230.8C431.1 230.6 430.9 230.5 430.8 230.3C430.7 230.1 430.6 229.9 430.6 229.7C430.6 229.4 430.7 229 430.9 228.2L431.1 227.7C431.3 227.2 431.5 226.6 431.7 225.9C432.9 221.8 432.9 218 432.9 217.9C432.9 217.7 433.1 217.5 433.3 217.5C433.5 217.5 433.7 217.7 433.7 217.9C433.7 218.1 433.7 221.8 432.4 226.1C432.2 226.8 432 227.4 431.8 227.9L431.6 228.4C431.5 228.8 431.3 229.3 431.3 229.6C431.3 229.7 431.3 229.8 431.4 229.8C431.4 229.9 431.5 230 431.7 230.1C432.1 230.3 432.8 230.6 433.9 230.9C434.1 231 434.2 231.2 434.2 231.4C434.1 231.6 433.9 231.7 433.8 231.7Z" fill="#FF736F"/>
<path d="M435.1 248.2C435 248.2 434.9 248.2 434.8 248.1C433.3 246.4 429.8 247.4 429.7 247.4C429.5 247.5 429.3 247.3 429.2 247.1C429.1 246.9 429.3 246.7 429.5 246.6C429.7 246.6 433.5 245.5 435.3 247.5C435.4 247.7 435.4 247.9 435.3 248C435.2 248.2 435.2 248.2 435.1 248.2Z" fill="#FF736F"/>
<path d="M410.1 220.6C410.1 220.6 407.7 217.1 404.8 218.8C401.9 220.5 402.8 226.8 404.8 229.9C406.8 233 409.9 234.6 411.7 232.2L410.1 220.6Z" fill="#FFA3A2"/>
<path d="M410.7 226.8C410.6 226.8 410.4 226.7 410.4 226.6C408.3 222.2 405.3 223.1 405.3 223.1C405.1 223.2 404.9 223.1 404.8 222.9C404.7 222.7 404.8 222.5 405 222.4C405 222.4 408.6 221.3 411 226.3C411.1 226.5 411 226.7 410.8 226.8C410.8 226.8 410.7 226.8 410.7 226.8Z" fill="#FF736F"/>
<path d="M407.1 227.5C406.9 227.5 406.7 227.3 406.7 227.1C406.6 224.3 409 223.7 409 223.7C409.2 223.7 409.4 223.8 409.4 224C409.4 224.2 409.3 224.4 409.1 224.4C409 224.4 407.3 224.8 407.4 227C407.5 227.3 407.3 227.5 407.1 227.5Z" fill="#FF736F"/>
<path d="M456.9 221.2C456.9 221.2 459.3 217.7 462.2 219.4C465.1 221.1 464.2 227.4 462.2 230.5C460.2 233.6 457.1 235.2 455.3 232.8L456.9 221.2Z" fill="#FFA3A2"/>
<path d="M456.3 226.8C456.2 226.8 456.2 226.8 456.1 226.8C455.9 226.7 455.8 226.5 455.9 226.3C458.3 221.3 461.9 222.4 461.9 222.4C462.1 222.5 462.2 222.7 462.1 222.9C462 223.1 461.8 223.2 461.6 223.1C461.5 223.1 458.6 222.2 456.5 226.6C456.6 226.8 456.4 226.8 456.3 226.8Z" fill="#FF736F"/>
<path d="M459.9 227.5C459.7 227.5 459.5 227.3 459.5 227.1C459.6 224.9 457.9 224.5 457.8 224.5C457.6 224.5 457.5 224.3 457.5 224.1C457.5 223.9 457.7 223.8 457.9 223.8C457.9 223.8 460.3 224.3 460.2 227.2C460.2 227.3 460.1 227.5 459.9 227.5Z" fill="#FF736F"/>
<path d="M441.4 235.1C441.4 235.1 441.2 236.3 440.5 237.7L426.7 238.8C425.7 237.5 425.2 236.4 425.2 236.4L441.4 235.1Z" fill="white"/>
<path d="M440.4 237.7C439.8 238.8 439 240 437.6 240.9C436.6 241.6 435.3 242.1 433.8 242.1C431.9 242.2 430.4 241.7 429.2 241C428.1 240.4 427.2 239.5 426.6 238.8L440.4 237.7Z" fill="#9E403C"/>
<path d="M437.7 240.9C436.7 241.6 435.4 242.1 433.9 242.1C432 242.2 430.5 241.7 429.3 241C430.3 240.5 431.8 240.2 433.4 240.2C435.1 240.1 436.6 240.4 437.7 240.9Z" fill="#FF736F"/>
<path d="M456.8 221.4C456.8 221.4 458 219.5 459.6 219C459.6 219 464 198.1 460.6 191.1C456.7 182.9 448.6 185.6 448.1 185.8C447.9 185.5 442.7 176.1 428.1 175.9C415.9 175.7 398.1 183.9 407.3 211.6L407.8 218.7C409.1 219.3 410.2 220.9 410.2 220.9L412.1 202.5C424.5 209.2 433.2 201.6 440.5 196.7C447.2 192.2 451.9 198.7 453.1 200.6C454 202.2 454.7 203.9 454.9 205.7L456.8 221.4Z" fill="#FF736F"/>
<path d="M446.7 188H446.6C446.4 187.9 446.2 187.7 446.2 187.5C446.2 187.3 447 181.5 450.6 180.1C450.9 180 451.1 180.1 451.2 180.4C451.3 180.7 451.2 180.9 450.9 181C449.2 181.7 448.2 183.7 447.7 185.4C449.8 183.5 452.7 183.4 452.8 183.4C453.1 183.4 453.3 183.6 453.3 183.9C453.3 184.2 453.1 184.4 452.8 184.4C452.8 184.4 448.6 184.6 447.1 187.8C447 187.9 446.8 188 446.7 188Z" fill="#FF716F"/>
<path d="M686 122C691.523 122 696 117.523 696 112C696 106.477 691.523 102 686 102C680.477 102 676 106.477 676 112C676 117.523 680.477 122 686 122Z" fill="#E0DEDE"/>
<path d="M686 107L681.4 115H690.6L686 107Z" fill="#172A3F"/>
<path d="M168 408V416H335.8L336 408H168Z" fill="#828C97"/>
<path d="M335.8 416L395.9 326.2C397.7 323.5 395.8 320 392.6 320H274.3C272.9 320 271.6 320.8 270.8 322L208 416H335.8Z" fill="#C5C6CD"/>
<path d="M310.876 377.668C314 374.543 314.475 369.953 311.936 367.415C309.398 364.876 304.808 365.351 301.683 368.475C298.559 371.599 298.084 376.19 300.623 378.728C303.161 381.267 307.752 380.792 310.876 377.668Z" fill="white"/>
<path d="M308.7 364.1C307.2 364.1 305.7 363.7 304.5 363C303.2 362.2 302.2 361.1 301.5 359.8C300.8 358.5 300.6 357.1 300.3 355.6C302.5 355.6 304.7 356.5 306.3 358.1C307.9 359.6 308.7 361.9 308.7 364.1Z" fill="white"/>
<path d="M221.3 408.4C221.2 408.4 221.2 408.4 221.1 408.3C220.9 408.2 220.9 408 221 407.8L274.3 327.9C274.4 327.7 274.6 327.7 274.8 327.8C275 327.9 275 328.1 274.9 328.3L221.6 408.2C221.6 408.3 221.5 408.4 221.3 408.4Z" fill="#172A3F"/>
<path opacity="0.3" d="M680 404V292C680 289.8 681.8 288 684 288H764C766.2 288 768 289.8 768 292V404C768 406.2 766.2 408 764 408H684C681.8 408 680 406.2 680 404Z" fill="#E0DEDE"/>
<path d="M672 396V284C672 281.8 673.8 280 676 280H756C758.2 280 760 281.8 760 284V396C760 398.2 758.2 400 756 400H676C673.8 400 672 398.2 672 396Z" fill="#E0DEDE"/>
<path d="M680 388V292C680 289.8 681.8 288 684 288H748C750.2 288 752 289.8 752 292V388C752 390.2 750.2 392 748 392H684C681.8 392 680 390.2 680 388Z" fill="white"/>
<path d="M734 316H698C696.9 316 696 315.1 696 314V310C696 308.9 696.9 308 698 308H734C735.1 308 736 308.9 736 310V314C736 315.1 735.1 316 734 316Z" fill="#C5C6CD"/>
<path d="M695.3 328.8V335.3H688.8V328.8H695.3ZM696 328H688V336H696V328Z" fill="#C5C6CD"/>
<path d="M695.3 344.8V351.3H688.8V344.8H695.3ZM696 344H688V352H696V344Z" fill="#C5C6CD"/>
<path d="M695.3 360.8V367.3H688.8V360.8H695.3ZM696 360H688V368H696V360Z" fill="#C5C6CD"/>
<path d="M744 332.4H700C699.8 332.4 699.6 332.2 699.6 332C699.6 331.8 699.8 331.6 700 331.6H744C744.2 331.6 744.4 331.8 744.4 332C744.4 332.2 744.2 332.4 744 332.4Z" fill="#172A3F"/>
<path d="M744 348.4H700C699.8 348.4 699.6 348.2 699.6 348C699.6 347.8 699.8 347.6 700 347.6H744C744.2 347.6 744.4 347.8 744.4 348C744.4 348.2 744.2 348.4 744 348.4Z" fill="#172A3F"/>
<path d="M744 364.4H700C699.8 364.4 699.6 364.2 699.6 364C699.6 363.8 699.8 363.6 700 363.6H744C744.2 363.6 744.4 363.8 744.4 364C744.4 364.2 744.2 364.4 744 364.4Z" fill="#172A3F"/>
<path d="M691.4 335.7C691.3 335.7 691.3 335.7 691.4 335.7C691.2 335.7 691 335.5 691 335.3C690.8 331.1 685.7 326.3 685.7 326.2C685.5 326.1 685.5 325.8 685.7 325.7C685.8 325.5 686.1 325.5 686.2 325.7C686.4 325.9 690.4 329.7 691.5 333.7C692.8 330.1 696.4 321 701.8 320.2C702 320.2 702.2 320.3 702.2 320.5C702.2 320.7 702.1 320.9 701.9 320.9C695.8 321.7 691.7 335.2 691.7 335.3C691.7 335.6 691.5 335.7 691.4 335.7Z" fill="#172A3F"/>
<path d="M704 292V284C704 281.8 705.8 280 708 280H724C726.2 280 728 281.8 728 284V292C728 294.2 726.2 296 724 296H708C705.8 296 704 294.2 704 292Z" fill="#808085"/>
<path d="M716 274C718.2 274 720 275.8 720 278C720 280.2 718.2 282 716 282C713.8 282 712 280.2 712 278C712 275.8 713.8 274 716 274ZM716 270C711.6 270 708 273.6 708 278C708 282.4 711.6 286 716 286C720.4 286 724 282.4 724 278C724 273.6 720.4 270 716 270Z" fill="#808085"/>
<path d="M489.2 500.3C484.2 500.3 480.2 496.3 480.2 491.3C480.2 486.3 484.2 482.3 489.2 482.3C494.2 482.3 498.2 486.3 498.2 491.3C498.2 496.3 494.1 500.3 489.2 500.3ZM489.2 486.3C486.4 486.3 484.2 488.5 484.2 491.3C484.2 494.1 486.4 496.3 489.2 496.3C492 496.3 494.2 494.1 494.2 491.3C494.2 488.5 491.9 486.3 489.2 486.3Z" fill="#FF5C5C"/>
<path d="M514 44H510C508.9 44 508 43.1 508 42V26C508 24.9 508.9 24 510 24H514C515.1 24 516 24.9 516 26C516 27.1 515.1 28 514 28H512V40H514C515.1 40 516 40.9 516 42C516 43.1 515.1 44 514 44Z" fill="#4480FF"/>
<path d="M751 507.2C754.314 507.2 757 504.514 757 501.2C757 497.886 754.314 495.2 751 495.2C747.686 495.2 745 497.886 745 501.2C745 504.514 747.686 507.2 751 507.2Z" fill="#4480FF"/>
<path d="M608.706 582.561C612.006 585.861 612.006 591.161 608.706 594.361C608.606 594.461 608.306 594.461 608.206 594.361C608.106 594.261 608.106 593.961 608.206 593.861C611.206 590.861 611.206 586.061 608.206 583.061C605.206 580.061 600.406 580.061 597.406 583.061C597.306 583.161 597.006 583.161 596.906 583.061C596.806 582.961 596.806 582.661 596.906 582.561C600.106 579.261 605.406 579.261 608.706 582.561Z" fill="black"/>
<path d="M620 436C619.5 436 619 435.8 618.6 435.4L610.6 427.4C609.8 426.6 609.8 425.4 610.6 424.6L618.6 416.6C619.4 415.8 620.6 415.8 621.4 416.6C622.2 417.4 622.2 418.6 621.4 419.4L614.8 426L621.4 432.6C622.2 433.4 622.2 434.6 621.4 435.4C621 435.8 620.5 436 620 436Z" fill="#FFB96F"/>
<path d="M224 104C218.5 104 214 99.5 214 94C214 92.9 214.9 92 216 92C217.1 92 218 92.9 218 94C218 97.3 220.7 100 224 100C227.3 100 230 97.3 230 94C230 92.9 230.9 92 232 92C233.1 92 234 92.9 234 94C234 99.5 229.5 104 224 104Z" fill="#FFB96F"/>
<path d="M51 585.4C47.5 585.4 44.6 582.5 44.6 579C44.6 575.5 47.5 572.6 51 572.6C54.5 572.6 57.4 575.5 57.4 579C57.4 582.5 54.5 585.4 51 585.4ZM51 573.4C47.9 573.4 45.4 575.9 45.4 579C45.4 582.1 47.9 584.6 51 584.6C54.1 584.6 56.6 582.1 56.6 579C56.6 575.9 54.1 573.4 51 573.4Z" fill="#0B1F35"/>
<path d="M50.5 296.5C53.8137 296.5 56.5 293.814 56.5 290.5C56.5 287.186 53.8137 284.5 50.5 284.5C47.1863 284.5 44.5 287.186 44.5 290.5C44.5 293.814 47.1863 296.5 50.5 296.5Z" fill="#40B198"/>
</svg>
