<svg width="16" height="16" viewBox="0 0 16 16" fill="none" xmlns="http://www.w3.org/2000/svg">
<path d="M5.86211 11.6613C5.14102 10.8133 4.67891 9.55898 4.64844 8.15234V7.84766C4.67891 6.44102 5.14609 5.18672 5.86211 4.33867C6.79648 3.13008 8.16758 2.58672 9.71641 2.58672C10.6711 2.58672 11.5699 2.65273 12.3316 3.16055C11.1891 2.12969 9.68086 1.50508 8.02539 1.5H8C4.40977 1.5 1.5 4.40977 1.5 8C1.5 11.4836 4.24219 14.3324 7.69024 14.4949C7.7918 14.5 7.89844 14.5 8 14.5C9.66563 14.5 11.184 13.8754 12.3316 12.8445C11.5699 13.3523 10.7219 13.3727 9.76719 13.3727C8.22344 13.3777 6.79141 12.875 5.86211 11.6613Z" fill="url(#paint0_linear)"/>
<path d="M5.86206 4.33868C6.4562 3.63282 7.22808 3.21134 8.07104 3.21134C9.96518 3.21134 11.4988 5.35431 11.4988 8.00509C11.4988 10.6559 9.96518 12.7988 8.07104 12.7988C7.22808 12.7988 6.46128 12.3723 5.86206 11.6715C6.79644 12.8801 8.18276 13.652 9.72651 13.652C10.6761 13.652 11.5699 13.3625 12.3316 12.8547C13.6621 11.6563 14.5 9.92462 14.5 8.00001C14.5 6.0754 13.6621 4.34376 12.3316 3.15548C11.5699 2.64767 10.6812 2.35822 9.72651 2.35822C8.17769 2.35822 6.79136 3.12501 5.86206 4.33868Z" fill="url(#paint1_linear)"/>
<defs>
<linearGradient id="paint0_linear" x1="6.9161" y1="1.71195" x2="6.9161" y2="14.3108" gradientUnits="userSpaceOnUse">
<stop offset="0.3" stop-color="#FF1B2D"/>
<stop offset="0.4381" stop-color="#FA1A2C"/>
<stop offset="0.5939" stop-color="#ED1528"/>
<stop offset="0.7581" stop-color="#D60E21"/>
<stop offset="0.9272" stop-color="#B70519"/>
<stop offset="1" stop-color="#A70014"/>
</linearGradient>
<linearGradient id="paint1_linear" x1="10.1802" y1="2.45455" x2="10.1802" y2="13.5976" gradientUnits="userSpaceOnUse">
<stop stop-color="#9C0000"/>
<stop offset="0.7" stop-color="#FF4B4B"/>
</linearGradient>
</defs>
</svg>
