<svg width="513" height="488" viewBox="0 0 513 488" fill="none" xmlns="http://www.w3.org/2000/svg">
<path opacity="0.5" d="M159 0C106.5 0 48.8 70.8 40.8 149.2C36 195.4 0 229.1 0 312C0 409.9 113.3 488 249 488C370.3 488 513.7 461.6 512 312.6C512 231.4 416.1 190 344 140.6C306 114.6 261.6 0 159 0Z" fill="#F3F4F5"/>
<path d="M248 457C243 457 239 453 239 448C239 443 243 439 248 439C253 439 257 443 257 448C257 453 253 457 248 457ZM248 443C245.2 443 243 445.2 243 448C243 450.8 245.2 453 248 453C250.8 453 253 450.8 253 448C253 445.2 250.8 443 248 443Z" fill="#FF5C5C"/>
<path d="M40 416C39.5 416 39 415.8 38.6 415.4L30.6 407.4C29.8 406.6 29.8 405.4 30.6 404.6L38.6 396.6C39.4 395.8 40.6 395.8 41.4 396.6C42.2 397.4 42.2 398.6 41.4 399.4L34.8 406L41.4 412.6C42.2 413.4 42.2 414.6 41.4 415.4C41 415.8 40.5 416 40 416Z" fill="#4480FF"/>
<path d="M152 422.4C148.5 422.4 145.6 419.5 145.6 416C145.6 412.5 148.5 409.6 152 409.6C155.5 409.6 158.4 412.5 158.4 416C158.4 419.5 155.5 422.4 152 422.4ZM152 410.4C148.9 410.4 146.4 412.9 146.4 416C146.4 419.1 148.9 421.6 152 421.6C155.1 421.6 157.6 419.1 157.6 416C157.6 412.9 155.1 410.4 152 410.4Z" fill="#0B1F35"/>
<path d="M488 254C491.314 254 494 251.314 494 248C494 244.686 491.314 242 488 242C484.686 242 482 244.686 482 248C482 251.314 484.686 254 488 254Z" fill="#4480FF"/>
<path d="M388.2 179.3C388.1 179.2 388.1 178.9 388.2 178.8L399.5 167.5C399.6 167.4 399.9 167.4 400 167.5C400.1 167.6 400.1 167.9 400 168L388.7 179.3C388.5 179.5 388.3 179.5 388.2 179.3Z" fill="black"/>
<path d="M464 118C458.5 118 454 113.5 454 108C454 106.9 454.9 106 456 106C457.1 106 458 106.9 458 108C458 111.3 460.7 114 464 114C467.3 114 470 111.3 470 108C470 106.9 470.9 106 472 106C473.1 106 474 106.9 474 108C474 113.5 469.5 118 464 118Z" fill="#FFB96F"/>
</svg>
