<svg width="738" height="192" viewBox="0 0 738 192" fill="none" xmlns="http://www.w3.org/2000/svg">
<path d="M176.212 124C174.588 124 173.58 123.16 173.188 121.48L163.276 67.636L163.192 66.964C163.192 66.46 163.36 66.04 163.696 65.704C164.032 65.368 164.452 65.2 164.956 65.2H172.516C173.244 65.2 173.776 65.34 174.112 65.62C174.448 65.844 174.672 66.264 174.784 66.88L181.756 104.68L189.232 80.32C189.792 78.92 190.716 78.22 192.004 78.22H196.624C197.352 78.22 197.94 78.444 198.388 78.892C198.836 79.284 199.144 79.76 199.312 80.32L206.872 104.68L213.76 66.88C213.928 65.76 214.712 65.2 216.112 65.2H223.672C224.12 65.2 224.512 65.368 224.848 65.704C225.184 66.04 225.352 66.46 225.352 66.964C225.352 67.244 225.324 67.468 225.268 67.636L215.356 121.48C215.244 122.264 214.908 122.88 214.348 123.328C213.844 123.776 213.172 124 212.332 124H206.62C205.836 124 205.192 123.804 204.688 123.412C204.184 122.964 203.848 122.46 203.68 121.9L194.272 94.012L184.864 121.9C184.416 123.3 183.436 124 181.924 124H176.212Z" fill="#0B1F35"/>
<path d="M249.701 124.84C243.429 124.84 238.445 123.048 234.749 119.464C231.109 115.88 229.177 110.784 228.953 104.176L228.869 102.076C228.869 95.076 230.689 89.56 234.329 85.528C238.025 81.496 243.121 79.48 249.617 79.48C256.281 79.48 261.405 81.496 264.989 85.528C268.629 89.56 270.449 94.936 270.449 101.656V103.42C270.449 103.98 270.253 104.456 269.861 104.848C269.469 105.24 268.965 105.436 268.349 105.436H240.461V106.108C240.573 109.244 241.413 111.848 242.981 113.92C244.605 115.936 246.817 116.944 249.617 116.944C252.809 116.944 255.413 115.656 257.429 113.08C257.933 112.464 258.325 112.1 258.605 111.988C258.885 111.82 259.361 111.736 260.033 111.736H267.425C267.929 111.736 268.349 111.876 268.685 112.156C269.077 112.436 269.273 112.828 269.273 113.332C269.273 114.676 268.461 116.272 266.837 118.12C265.269 119.912 263.001 121.48 260.033 122.824C257.065 124.168 253.621 124.84 249.701 124.84ZM258.857 98.296V98.128C258.857 94.824 258.017 92.192 256.337 90.232C254.713 88.216 252.473 87.208 249.617 87.208C246.761 87.208 244.521 88.216 242.897 90.232C241.273 92.192 240.461 94.824 240.461 98.128V98.296H258.857Z" fill="#0B1F35"/>
<path d="M301.96 124.84C296.136 124.84 291.684 122.852 288.604 118.876V121.984C288.604 122.544 288.408 123.02 288.016 123.412C287.624 123.804 287.12 124 286.504 124H279.784C279.224 124 278.748 123.804 278.356 123.412C277.964 123.02 277.768 122.544 277.768 121.984V66.376C277.768 65.76 277.964 65.284 278.356 64.948C278.748 64.556 279.224 64.36 279.784 64.36H287.092C287.708 64.36 288.184 64.556 288.52 64.948C288.912 65.284 289.108 65.76 289.108 66.376V85.024C292.244 81.328 296.528 79.48 301.96 79.48C307.616 79.48 311.956 81.328 314.98 85.024C318.06 88.664 319.684 93.452 319.852 99.388C319.908 100.06 319.936 100.984 319.936 102.16C319.936 103.28 319.908 104.204 319.852 104.932C319.628 110.98 318.004 115.824 314.98 119.464C311.956 123.048 307.616 124.84 301.96 124.84ZM298.768 115.768C304.76 115.768 307.952 112.072 308.344 104.68C308.4 104.12 308.428 103.28 308.428 102.16C308.428 101.04 308.4 100.2 308.344 99.64C307.952 92.248 304.76 88.552 298.768 88.552C295.688 88.552 293.336 89.532 291.712 91.492C290.088 93.452 289.22 95.832 289.108 98.632C289.052 99.304 289.024 100.396 289.024 101.908C289.024 103.364 289.052 104.428 289.108 105.1C289.22 108.068 290.06 110.588 291.628 112.66C293.196 114.732 295.576 115.768 298.768 115.768Z" fill="#0B1F35"/>
<path d="M348.059 124C347.499 124 347.023 123.804 346.631 123.412C346.239 123.02 346.043 122.544 346.043 121.984V67.3C346.043 66.684 346.211 66.18 346.547 65.788C346.939 65.396 347.443 65.2 348.059 65.2H355.787C356.403 65.2 356.907 65.396 357.299 65.788C357.691 66.18 357.887 66.684 357.887 67.3V88.888H382.415V67.3C382.415 66.684 382.611 66.18 383.003 65.788C383.395 65.396 383.871 65.2 384.431 65.2H392.243C392.859 65.2 393.335 65.396 393.671 65.788C394.063 66.18 394.259 66.684 394.259 67.3V121.984C394.259 122.544 394.063 123.02 393.671 123.412C393.335 123.804 392.859 124 392.243 124H384.431C383.871 124 383.395 123.804 383.003 123.412C382.611 123.02 382.415 122.544 382.415 121.984V99.556H357.887V121.984C357.887 122.544 357.691 123.02 357.299 123.412C356.907 123.804 356.403 124 355.787 124H348.059Z" fill="#0B1F35"/>
<path d="M417.398 124.84C414.542 124.84 411.91 124.28 409.502 123.16C407.15 121.984 405.274 120.416 403.874 118.456C402.53 116.496 401.858 114.34 401.858 111.988C401.858 108.18 403.398 105.1 406.478 102.748C409.558 100.396 413.786 98.8 419.162 97.96L430.67 96.28V94.516C430.67 92.108 430.054 90.288 428.822 89.056C427.59 87.824 425.63 87.208 422.942 87.208C421.094 87.208 419.61 87.544 418.49 88.216C417.37 88.888 416.446 89.588 415.718 90.316C415.046 90.988 414.598 91.436 414.374 91.66C414.15 92.332 413.73 92.668 413.114 92.668H406.562C406.058 92.668 405.61 92.5 405.218 92.164C404.882 91.828 404.714 91.38 404.714 90.82C404.77 89.42 405.442 87.852 406.73 86.116C408.074 84.324 410.118 82.784 412.862 81.496C415.606 80.152 418.994 79.48 423.026 79.48C429.634 79.48 434.45 80.964 437.474 83.932C440.498 86.9 442.01 90.792 442.01 95.608V121.984C442.01 122.544 441.814 123.02 441.422 123.412C441.086 123.804 440.61 124 439.994 124H433.022C432.462 124 431.986 123.804 431.594 123.412C431.202 123.02 431.006 122.544 431.006 121.984V118.708C429.774 120.5 428.038 121.984 425.798 123.16C423.558 124.28 420.758 124.84 417.398 124.84ZM420.254 116.776C423.334 116.776 425.854 115.768 427.814 113.752C429.774 111.736 430.754 108.824 430.754 105.016V103.336L422.354 104.68C415.914 105.688 412.694 107.844 412.694 111.148C412.694 112.94 413.422 114.34 414.878 115.348C416.39 116.3 418.182 116.776 420.254 116.776Z" fill="#0B1F35"/>
<path d="M453.121 124C452.561 124 452.085 123.804 451.693 123.412C451.301 123.02 451.105 122.544 451.105 121.984V82.336C451.105 81.72 451.301 81.244 451.693 80.908C452.085 80.516 452.561 80.32 453.121 80.32H460.093C460.709 80.32 461.185 80.516 461.521 80.908C461.913 81.244 462.109 81.72 462.109 82.336V85.78C465.525 81.58 470.201 79.48 476.137 79.48C481.289 79.48 485.377 81.16 488.401 84.52C491.425 87.88 492.937 92.5 492.937 98.38V121.984C492.937 122.544 492.741 123.02 492.349 123.412C492.013 123.804 491.537 124 490.921 124H483.361C482.801 124 482.325 123.804 481.933 123.412C481.541 123.02 481.345 122.544 481.345 121.984V98.884C481.345 95.636 480.533 93.116 478.909 91.324C477.341 89.476 475.073 88.552 472.105 88.552C469.249 88.552 466.953 89.476 465.217 91.324C463.481 93.172 462.613 95.692 462.613 98.884V121.984C462.613 122.544 462.417 123.02 462.025 123.412C461.689 123.804 461.213 124 460.597 124H453.121Z" fill="#0B1F35"/>
<path d="M518.137 124.84C512.481 124.84 508.141 123.048 505.117 119.464C502.093 115.824 500.441 110.98 500.161 104.932L500.077 102.16L500.161 99.388C500.385 93.452 502.009 88.664 505.033 85.024C508.113 81.328 512.481 79.48 518.137 79.48C523.513 79.48 527.797 81.328 530.989 85.024V66.376C530.989 65.76 531.185 65.284 531.577 64.948C531.969 64.556 532.445 64.36 533.005 64.36H540.313C540.929 64.36 541.405 64.556 541.741 64.948C542.133 65.284 542.329 65.76 542.329 66.376V121.984C542.329 122.544 542.133 123.02 541.741 123.412C541.405 123.804 540.929 124 540.313 124H533.509C532.949 124 532.473 123.804 532.081 123.412C531.689 123.02 531.493 122.544 531.493 121.984V118.876C528.413 122.852 523.961 124.84 518.137 124.84ZM521.329 115.768C524.521 115.768 526.873 114.76 528.385 112.744C529.953 110.672 530.821 108.124 530.989 105.1C531.045 104.428 531.073 103.364 531.073 101.908C531.073 100.396 531.045 99.304 530.989 98.632C530.877 95.832 530.009 93.452 528.385 91.492C526.761 89.532 524.409 88.552 521.329 88.552C515.337 88.552 512.145 92.248 511.753 99.64L511.669 102.16L511.753 104.68C512.145 112.072 515.337 115.768 521.329 115.768Z" fill="#0B1F35"/>
<path d="M576.118 124.84C570.294 124.84 565.842 122.852 562.762 118.876V121.984C562.762 122.544 562.566 123.02 562.174 123.412C561.782 123.804 561.278 124 560.662 124H553.942C553.382 124 552.906 123.804 552.514 123.412C552.122 123.02 551.926 122.544 551.926 121.984V66.376C551.926 65.76 552.122 65.284 552.514 64.948C552.906 64.556 553.382 64.36 553.942 64.36H561.25C561.866 64.36 562.342 64.556 562.678 64.948C563.07 65.284 563.266 65.76 563.266 66.376V85.024C566.402 81.328 570.686 79.48 576.118 79.48C581.774 79.48 586.114 81.328 589.138 85.024C592.218 88.664 593.842 93.452 594.01 99.388C594.066 100.06 594.094 100.984 594.094 102.16C594.094 103.28 594.066 104.204 594.01 104.932C593.786 110.98 592.162 115.824 589.138 119.464C586.114 123.048 581.774 124.84 576.118 124.84ZM572.926 115.768C578.918 115.768 582.11 112.072 582.502 104.68C582.558 104.12 582.586 103.28 582.586 102.16C582.586 101.04 582.558 100.2 582.502 99.64C582.11 92.248 578.918 88.552 572.926 88.552C569.846 88.552 567.494 89.532 565.87 91.492C564.246 93.452 563.378 95.832 563.266 98.632C563.21 99.304 563.182 100.396 563.182 101.908C563.182 103.364 563.21 104.428 563.266 105.1C563.378 108.068 564.218 110.588 565.786 112.66C567.354 114.732 569.734 115.768 572.926 115.768Z" fill="#0B1F35"/>
<path d="M621.164 124.84C614.556 124.84 609.46 123.16 605.876 119.8C602.292 116.44 600.36 111.792 600.08 105.856L599.996 102.16L600.08 98.464C600.36 92.584 602.32 87.964 605.96 84.604C609.6 81.188 614.668 79.48 621.164 79.48C627.604 79.48 632.644 81.188 636.284 84.604C639.924 87.964 641.884 92.584 642.164 98.464C642.22 99.136 642.248 100.368 642.248 102.16C642.248 103.952 642.22 105.184 642.164 105.856C641.884 111.792 639.952 116.44 636.368 119.8C632.784 123.16 627.716 124.84 621.164 124.84ZM621.164 116.356C624.132 116.356 626.4 115.432 627.968 113.584C629.592 111.736 630.46 109.02 630.572 105.436C630.628 104.876 630.656 103.784 630.656 102.16C630.656 100.536 630.628 99.444 630.572 98.884C630.46 95.3 629.592 92.584 627.968 90.736C626.344 88.832 624.076 87.88 621.164 87.88C618.196 87.88 615.9 88.832 614.276 90.736C612.652 92.584 611.784 95.3 611.672 98.884L611.588 102.16L611.672 105.436C611.784 109.02 612.652 111.736 614.276 113.584C615.9 115.432 618.196 116.356 621.164 116.356Z" fill="#0B1F35"/>
<path d="M669.277 124.84C662.669 124.84 657.573 123.16 653.989 119.8C650.405 116.44 648.473 111.792 648.193 105.856L648.109 102.16L648.193 98.464C648.473 92.584 650.433 87.964 654.073 84.604C657.713 81.188 662.781 79.48 669.277 79.48C675.717 79.48 680.757 81.188 684.397 84.604C688.037 87.964 689.997 92.584 690.277 98.464C690.333 99.136 690.361 100.368 690.361 102.16C690.361 103.952 690.333 105.184 690.277 105.856C689.997 111.792 688.065 116.44 684.481 119.8C680.897 123.16 675.829 124.84 669.277 124.84ZM669.277 116.356C672.245 116.356 674.513 115.432 676.081 113.584C677.705 111.736 678.573 109.02 678.685 105.436C678.741 104.876 678.769 103.784 678.769 102.16C678.769 100.536 678.741 99.444 678.685 98.884C678.573 95.3 677.705 92.584 676.081 90.736C674.457 88.832 672.189 87.88 669.277 87.88C666.309 87.88 664.013 88.832 662.389 90.736C660.765 92.584 659.897 95.3 659.785 98.884L659.701 102.16L659.785 105.436C659.897 109.02 660.765 111.736 662.389 113.584C664.013 115.432 666.309 116.356 669.277 116.356Z" fill="#0B1F35"/>
<path d="M700.086 124C699.526 124 699.05 123.804 698.658 123.412C698.266 123.02 698.07 122.544 698.07 121.984V66.376C698.07 65.76 698.266 65.284 698.658 64.948C699.05 64.556 699.526 64.36 700.086 64.36H707.058C707.618 64.36 708.094 64.556 708.486 64.948C708.878 65.34 709.074 65.816 709.074 66.376V95.104L723.018 81.748C723.186 81.636 723.438 81.44 723.774 81.16C724.166 80.824 724.53 80.6 724.866 80.488C725.202 80.376 725.622 80.32 726.126 80.32H734.106C734.666 80.32 735.114 80.488 735.45 80.824C735.786 81.16 735.954 81.608 735.954 82.168C735.954 82.672 735.674 83.176 735.114 83.68L717.978 99.892L737.214 120.724C737.718 121.228 737.97 121.704 737.97 122.152C737.97 122.712 737.802 123.16 737.466 123.496C737.13 123.832 736.71 124 736.206 124H728.058C727.274 124 726.686 123.916 726.294 123.748C725.958 123.524 725.51 123.132 724.95 122.572L709.074 105.688V121.984C709.074 122.544 708.878 123.02 708.486 123.412C708.094 123.804 707.618 124 707.058 124H700.086Z" fill="#0B1F35"/>
<path d="M108 50L104 47.6V175.6L108 178V50Z" fill="#C4C4C4"/>
<path d="M12 148L28 157.6V181.6L20 168L12 172V148Z" fill="#EF3124"/>
<path d="M8 24.8V20.8L36 6.80005V10.8001L8 24.8Z" fill="#0B1F35"/>
<path d="M36 130.8V10.8L12 22.8V142.8L36 130.8Z" fill="#F9FAFA"/>
<path d="M28 2L108 50V178L28 130V2Z" fill="#0B1F35"/>
<path d="M104 51.6L80 63.6L12 22.8L36 10.8L104 51.6Z" fill="#F9FAFA"/>
<path d="M108 50V54L36 10.8001V6.80005L108 50Z" fill="#0B1F35"/>
<path d="M104 171.6V51.6L80 63.6V183.6L104 171.6Z" fill="#F3F4F5"/>
<path d="M112 48L32 0C24.7184 1.37189 20.578 2.5892 14 6C8.03532 9.09279 4.67719 11.1765 0 16L80 64L84 62L12 18.8L36 6.8L108 50L112 48Z" fill="#78A3FF"/>
<path d="M84 62L80 64V192L84 190V62Z" fill="#125EFF"/>
<path d="M112 48L108 50V178L112 176V48Z" fill="#125EFF"/>
<path d="M0 16L80 64V192L0 144V16Z" fill="#4480FF"/>
<path d="M29.1811 82.6494C29.383 82.9989 29.4841 83.3256 29.4841 83.6286C29.4841 83.9318 29.3833 84.1419 29.1811 84.2581L17.2781 91.13L29.181 111.747C29.3829 112.097 29.484 112.423 29.484 112.726C29.484 112.862 29.4637 112.979 29.4232 113.077C29.3733 113.199 29.2926 113.292 29.181 113.356L27.6664 114.229C27.4646 114.346 27.2327 114.328 26.9698 114.177C26.7069 114.025 26.4749 113.775 26.2731 113.425L12.1594 88.9791C11.9575 88.6294 11.8564 88.3027 11.8564 87.9998C11.8564 87.6968 11.9572 87.4866 12.1594 87.3703L26.2732 79.2218C26.475 79.1051 26.7074 79.1223 26.9699 79.2739C27.2324 79.4254 27.4646 79.6765 27.6666 80.0262L29.1811 82.6494Z" fill="#F9FAFA"/>
<path d="M46.4145 84.5896L44.5363 82.9107C44.2945 82.6779 44.0563 82.5697 43.8247 82.5873C43.613 82.6032 43.4637 82.7185 43.378 82.9331C43.3697 82.954 43.362 82.9757 43.3549 82.9982L32.0576 121.626C31.9769 121.882 32.0022 122.183 32.1334 122.527C32.2013 122.705 32.2869 122.87 32.3901 123.021C32.486 123.162 32.5974 123.292 32.7241 123.41L34.6018 125.089C34.8441 125.322 35.0815 125.43 35.3137 125.412C35.546 125.394 35.7027 125.258 35.7831 125.002L47.0808 86.3734C47.1613 86.117 47.1363 85.8166 47.0049 85.4724C46.8735 85.1282 46.6771 84.8342 46.4145 84.5896Z" fill="#F9FAFA"/>
<path d="M66.9792 119.02L52.865 94.574C52.6632 94.2246 52.4308 93.9735 52.1688 93.8222C51.9059 93.6704 51.6743 93.6537 51.4718 93.7697L49.9578 94.6441C49.7561 94.7608 49.6555 94.9708 49.6555 95.274C49.6555 95.5775 49.756 95.9036 49.9578 96.253L61.8611 116.87L49.9578 123.743C49.7561 123.859 49.6555 124.07 49.6555 124.372C49.6555 124.676 49.756 125.002 49.9578 125.351L51.4718 127.973C51.6743 128.324 51.906 128.574 52.1688 128.725C52.4309 128.877 52.6632 128.894 52.865 128.778L66.9792 120.629C67.0665 120.579 67.135 120.511 67.1845 120.426C67.2495 120.313 67.2819 120.171 67.2819 119.999C67.2819 119.696 67.1811 119.37 66.9792 119.02Z" fill="#F9FAFA"/>
</svg>
