<?xml version="1.0" encoding="utf-8"?>
<!-- Generator: Adobe Illustrator 24.0.1, SVG Export Plug-In . SVG Version: 6.00 Build 0)  -->
<svg version="1.1" id="Logo" xmlns="http://www.w3.org/2000/svg" xmlns:xlink="http://www.w3.org/1999/xlink" x="0px" y="0px"
	 viewBox="0 0 356 80" style="enable-background:new 0 0 356 80;" xml:space="preserve">
<style type="text/css">
	.st0{display:none;}
	.st1{fill:none;}
	.st2{fill:#172A3F;}
	.st3{fill:#FFFFFF;}
	.st4{fill:#B6BCC3;}
	.st5{fill:#00263D;}
</style>
<title>Logo Horizontal - Color</title>
<g id="Logo_Horizontal_-_Color" class="st0">
	<rect x="-34" y="-32" class="st1" width="424" height="144"/>
</g>
<g id="Text_Group">
	<path class="st2" d="M356,38c-0.1-8.3-7.2-14.8-15.3-14.8c-4.1,0-8,1.7-10.9,4.7c-2.9,3-4.5,7.1-4.5,11.3V40c0,3.1,0.9,6.2,2.6,8.8
		c2.8,4.4,7.6,7.1,12.8,7.1H353c0.5,0,1-0.4,1-1v-6c0-0.6-0.4-1-1-1h-12.4c-2.4-0.2-4.5-1.7-5.4-4h20.4C355.8,43,356,42,356,38z
		 M334.4,38c0.5-3.6,2.5-6.2,6.3-6.2s5.9,2.6,6.3,6.2H334.4z"/>
	<path class="st2" d="M320.5,22v33c0,0.6-0.4,1-1,1h-12.9c-8.7,0-15.8-7.1-15.8-16c0-0.3,0-0.5,0-0.8c0.4-7.8,6.2-14.1,13.8-15.1
		c0.3,0,0.7-0.1,1-0.1c0.5,0,1,0.4,1,1v6c0,0.6-0.4,1-1,1c-3.2,0.6-6.6,4.6-5.8,9.3c0.7,3.9,4.1,6.7,8.1,6.6h2.7V14c0-0.6,0.4-1,1-1
		l0,0C316.5,13,320.5,17,320.5,22z"/>
	<path class="st2" d="M271.5,24c-8.4,0-15.3,7.3-15.3,16c-0.3,8.6,6.3,15.7,14.8,16.1c8.5,0.3,15.6-6.4,15.9-14.9c0-0.4,0-0.7,0-1.1
		C286.9,31.3,279.9,24,271.5,24z M271.5,47.8c-4,0-6.4-3.9-6.4-7.8s2.5-7.8,6.4-7.8c3.9,0,6.4,3.9,6.4,7.8S275.5,47.8,271.5,47.8
		L271.5,47.8z"/>
	<path class="st2" d="M248.3,24h4.9c0.5,0,1-0.4,1-1v-6c0-0.6-0.4-1-1-1h-6.9c-10.9,0-19.8,9-19.8,20l0,0c0,11,8.9,20,19.8,20h6.9
		c0.5,0,1-0.4,1-1v-6c0-0.6-0.4-1-1-1h-4.9c-6.6,0-11.9-5.4-11.9-12l0,0C236.4,29.4,241.7,24,248.3,24z"/>
	<path class="st2" d="M210.7,25v30c0,0.6-0.4,1-1,1h-7.9c-0.5,0-1-0.4-1-1V32h-3c-4.4,0-7.9,3.6-7.9,8c0,0.9,0.1,1.7,0.4,2.6
		c1,3.2,4.1,5.4,5.5,5.4c0.5,0,1,0.4,1,1v6c0,0.6-0.4,1-1,1h-1c-7,0-14.2-7.6-13.8-16.8c0.4-8.6,7.7-15.2,16.2-15.2h12.4
		C210.3,24,210.7,24.4,210.7,25z"/>
	<path class="st2" d="M168.1,56h-7.9c-0.5,0-1-0.4-1-1V26c0-7.2,5.8-13,12.9-13h4.9c0.5,0,1,0.4,1,1v6c0,0.6-0.4,1-1,1h-3
		c-2.7,0-4.9,2.2-4.9,5v2h5.9c0.5,0,1,0.4,1,1v6c0,0.6-0.4,1-1,1h-5.9v19C169.1,55.5,168.7,56,168.1,56z"/>
	<path class="st2" d="M139.4,55V22c0-5,4-9,8.9-9l0,0c0.5,0,1,0.4,1,1v41c0,0.6-0.4,1-1,1h-7.9C139.9,56,139.4,55.5,139.4,55z"/>
	<path class="st2" d="M119,16h-8.5c-0.4,0-0.8,0.3-0.9,0.6l-14.1,38c-0.2,0.5,0.1,1.1,0.6,1.3c0.1,0,0.2,0.1,0.3,0.1h7.7
		c0.4,0,0.8-0.3,0.9-0.6l2.4-6.3h14.7l2.2,6.3c0.1,0.4,0.5,0.7,0.9,0.7h7.8c0.5,0,1-0.4,1-1c0-0.1,0-0.2-0.1-0.4l-14.1-38
		C119.8,16.3,119.4,16,119,16z M110.8,41h-0.4l4.4-11.7l4.4,11.7H110.8z"/>
</g>
<g id="Symbol_Group">
	<path class="st3" d="M40.3,13.7c-0.5,2.7-1.1,5.3-2,7.9c0.7,0.3,3.1,1.6,4.8,2.5c2.1-3.7,3.2-7.9,3.2-12.2l0,0
		C44.3,12.3,42.3,12.9,40.3,13.7z"/>
	<path class="st3" d="M65.9,49.4c-0.1,0.4-0.2,0.7-0.3,1.1c-0.4,1.5-1.1,3-2,4.3c-1.4,2.1-3.4,3.8-5.7,5l0,0
		c-2.1,1.1-4.4,1.6-6.8,1.6h-0.6c-1.3,0-2.5-0.2-3.8-0.6l0,0c-0.9-0.3-1.8-0.5-2.8-0.6l0,0l-0.6-0.1c-0.3,0-0.6,0-0.9,0
		c-0.7,0-1.4,0-2.1,0.1c-0.1,0-0.2,0-0.2,0C31.5,61.2,24,66.8,20.5,75C2.8,65.1-4.7,43.4,3.1,24.6l0.3-0.1c0.5-0.3,1-0.5,1.5-0.8
		s1-0.5,1.6-0.7c0.5-0.2,1.1-0.4,1.6-0.6C8.6,22.1,9,22,9.5,21.8l0.4-0.1l1.3-0.4l0.2-0.1c0.5-0.1,1-0.3,1.5-0.4h0.2
		c0.5-0.1,1-0.2,1.6-0.3h0.1c0.6-0.1,1.2-0.2,1.8-0.3C20.1,11.7,28,5.8,37.2,5.1c0.7,2.2,1,4.6,1,6.9c0,1-0.1,2-0.2,3
		c-0.3,2.7-1.1,5.3-2.3,7.8c7.3,2.9,13.6,7.9,18.1,14.3c-1.5,0.6-2.6,1.9-3.2,3.4l10.3,6L65.9,49.4z"/>
	<path class="st4" d="M40.2,60.3C34.4,61.2,29.7,65.4,28,71c-0.1,0.3-0.2,0.6-0.2,0.8s-0.1,0.3-0.1,0.5s-0.1,0.4-0.1,0.7
		s-0.1,0.4-0.1,0.6c-0.2,1.5-0.1,3,0.1,4.5c-2.5-0.8-4.9-1.8-7.2-3.1C23.9,66.9,31.5,61.2,40.2,60.3z"/>
	<path class="st5" d="M39.6,0C23.6,0,9.2,9.7,3.1,24.6l0.3-0.2c0.5-0.3,1-0.5,1.5-0.8s1-0.5,1.6-0.7c0.5-0.2,1.1-0.4,1.6-0.6
		C8.6,22.1,9,22,9.5,21.8l0.4-0.1l1.3-0.4l0.2-0.1c0.5-0.1,1-0.3,1.5-0.4h0.2c0.5-0.1,1-0.2,1.6-0.3h0.1c0.6-0.1,1.2-0.2,1.8-0.3
		C20.1,11.7,28,5.8,37.2,5.1c0.7,2.2,1,4.6,1,6.9c0,1-0.1,2-0.2,3c-0.3,2.7-1.1,5.3-2.3,7.8c7.3,2.9,13.6,7.9,18.1,14.3
		c-1.5,0.6-2.6,1.9-3.2,3.4l10.3,6l4.9,2.9c-0.1,0.4-0.2,0.7-0.3,1.1c-0.4,1.5-1.1,3-2,4.3c-1.4,2.1-3.4,3.8-5.7,5l0,0
		c-2.1,1.1-4.4,1.6-6.8,1.6h-0.6c-1.3,0-2.5-0.2-3.8-0.6l0,0c-0.9-0.3-1.8-0.5-2.8-0.6l0,0l-0.6-0.1c-0.3,0-0.6,0-0.9,0
		c-0.7,0-1.4,0-2.1,0.1c-0.1,0-0.2,0-0.2,0C34.5,61.2,29.7,65.3,28,71c-0.1,0.3-0.2,0.6-0.2,0.8s-0.1,0.3-0.1,0.5s-0.1,0.4-0.1,0.7
		s-0.1,0.4-0.1,0.6c-0.2,1.5-0.1,3,0.2,4.5c20.8,6.6,43-5.1,49.6-26.1c6.6-21.1-5-43.5-25.8-50.2C47.6,0.6,43.6,0,39.6,0z
		 M46.4,11.9c0,4.3-1.1,8.5-3.2,12.2c-1.7-0.9-4.1-2.2-4.8-2.5c0.8-2.6,1.5-5.2,2-7.9C42.3,12.8,44.3,12.2,46.4,11.9L46.4,11.9z"/>
	<path class="st5" d="M34.1,37.7c0,0,5.1-0.2,6.9,0.5c1.8,0.7,3.5,2.5,3.6,4c-2.1,0.6-4.4,0.5-6.5-0.2
		C36.4,41.1,34.9,39.6,34.1,37.7z"/>
</g>
</svg>
