<?xml version="1.0" encoding="utf-8"?>
<!-- Generator: Adobe Illustrator 24.0.1, SVG Export Plug-In . SVG Version: 6.00 Build 0)  -->
<svg version="1.1" id="Logo" xmlns="http://www.w3.org/2000/svg" xmlns:xlink="http://www.w3.org/1999/xlink" x="0px" y="0px"
	 viewBox="0 0 356 80" style="enable-background:new 0 0 356 80;" xml:space="preserve">
<style type="text/css">
	.st0{display:none;fill:none;}
</style>
<rect x="90.3" y="4.2" class="st0" width="265.7" height="75.8"/>
<g id="Text_Group">
	<path d="M356,38c-0.1-8.3-7.3-14.8-15.4-14.8c-4.1,0-8.1,1.7-11,4.7c-2.9,3-4.5,7.1-4.5,11.3V40c0,3.1,0.9,6.2,2.6,8.8
		c2.8,4.4,7.7,7.1,12.9,7.1H353c0.6,0,1-0.4,1-1v-6c0-0.6-0.4-1-1-1h-12.5c-2.4-0.2-4.6-1.7-5.5-4h20.5C355.8,43,356,42,356,38z
		 M334.2,38c0.5-3.6,2.5-6.2,6.4-6.2s5.9,2.6,6.4,6.2H334.2z"/>
	<path d="M320.2,22v33c0,0.6-0.4,1-1,1h-13c-8.8,0-16-7.1-16-16c0-0.3,0-0.5,0-0.8c0.4-7.8,6.3-14.1,14-15.1c0.3,0,0.7-0.1,1-0.1
		c0.6,0,1,0.4,1,1v6c0,0.6-0.4,1-1,1c-3.3,0.6-6.6,4.6-5.9,9.3c0.7,3.9,4.2,6.7,8.1,6.6h2.7V14c0-0.6,0.4-1,1-1l0,0
		C316.2,13,320.2,17,320.2,22z"/>
	<path d="M270.8,24c-8.5,0-15.5,7.3-15.5,16c-0.3,8.6,6.4,15.7,14.9,16.1c8.5,0.3,15.7-6.4,16-14.9c0-0.4,0-0.7,0-1.1
		C286.3,31.3,279.3,24,270.8,24z M270.8,47.8c-4,0-6.5-3.9-6.5-7.8s2.5-7.8,6.5-7.8c4,0,6.5,3.9,6.5,7.8S274.8,47.8,270.8,47.8
		L270.8,47.8z"/>
	<path d="M247.4,24h5c0.6,0,1-0.4,1-1v-6c0-0.6-0.4-1-1-1h-7c-11,0-19.9,9-19.9,20l0,0c0,11,8.9,20,19.9,20h7c0.6,0,1-0.4,1-1v-6
		c0-0.6-0.4-1-1-1h-5c-6.6,0-12-5.4-12-12l0,0C235.4,29.4,240.8,24,247.4,24z"/>
	<path d="M209.5,25v30c0,0.6-0.4,1-1,1h-8c-0.6,0-1-0.4-1-1V32h-3c-4.4,0-8,3.6-8,8c0,0.9,0.1,1.7,0.4,2.6c1,3.2,4.1,5.4,5.6,5.4
		c0.6,0,1,0.4,1,1v6c0,0.6-0.4,1-1,1h-1c-7.1,0-14.4-7.6-14-16.8C180,30.6,187.4,24,196,24h12.5C209,24,209.5,24.4,209.5,25z"/>
	<path d="M166.5,56h-8c-0.6,0-1-0.4-1-1V26c0-7.2,5.8-13,13-13h5c0.6,0,1,0.4,1,1v6c0,0.6-0.4,1-1,1h-3c-2.8,0-5,2.2-5,5v2h6
		c0.6,0,1,0.4,1,1v6c0,0.6-0.4,1-1,1h-6v19C167.5,55.5,167,56,166.5,56z"/>
	<path d="M137.6,55V22c0-5,4-9,9-9l0,0c0.6,0,1,0.4,1,1v41c0,0.6-0.4,1-1,1h-8C138,56,137.6,55.5,137.6,55z"/>
	<path d="M116.9,16h-8.6c-0.4,0-0.8,0.3-0.9,0.6l-14.2,38c-0.2,0.5,0.1,1.1,0.6,1.3c0.1,0,0.2,0.1,0.4,0.1h7.8
		c0.4,0,0.8-0.3,0.9-0.6l2.4-6.3h14.9l2.3,6.3c0.1,0.4,0.5,0.7,0.9,0.7h7.8c0.6,0,1-0.4,1-1c0-0.1,0-0.2-0.1-0.4l-14.2-38
		C117.7,16.3,117.4,16,116.9,16z M108.6,41h-0.4l4.4-11.7l4.4,11.7H108.6z"/>
</g>
<g id="Symbol_Logo">
	<path d="M31.3,37.7c0,0,5.2-0.2,7,0.5c1.8,0.7,3.5,2.5,3.7,4c-2.2,0.6-4.4,0.5-6.5-0.2C33.6,41.1,32.1,39.6,31.3,37.7z"/>
	<path d="M36.8,0C20.7,0,6.2,9.7,0,24.6l0.3-0.1c0.5-0.3,1-0.5,1.6-0.8s1.1-0.5,1.6-0.7c0.5-0.2,1.1-0.4,1.6-0.6
		C5.6,22.1,6,22,6.5,21.8l0.4-0.1l1.3-0.4l0.2-0.1c0.5-0.1,1-0.3,1.6-0.4h0.2c0.5-0.1,1-0.2,1.6-0.3h0.1c0.6-0.1,1.2-0.2,1.8-0.3
		c3.5-8.6,11.6-14.5,20.8-15.3c0.7,2.2,1,4.6,1,6.9c0,1-0.1,2-0.2,3c-0.3,2.7-1.1,5.3-2.3,7.8c7.3,2.9,13.7,7.9,18.2,14.3
		c-1.5,0.6-2.7,1.9-3.2,3.4l10.4,6l5,2.9c-0.1,0.4-0.2,0.7-0.3,1.1c-0.4,1.5-1.1,3-2,4.3c-1.5,2.1-3.4,3.8-5.7,5l0,0
		c-2.1,1.1-4.4,1.6-6.8,1.6H48c-1.3,0-2.6-0.2-3.8-0.6l0,0c-0.9-0.3-1.9-0.5-2.8-0.6l0,0l-0.6-0.1c-0.3,0-0.6,0-0.9,0
		c-0.7,0-1.4,0-2.1,0.1c-0.1,0-0.2,0-0.2,0c-5.8,0.9-10.6,5.1-12.3,10.7c-0.1,0.3-0.2,0.6-0.2,0.8c-0.1,0.3-0.1,0.3-0.1,0.5
		s-0.1,0.4-0.1,0.7s-0.1,0.4-0.1,0.6c-0.2,1.5-0.1,3,0.2,4.5c21,6.6,43.4-5.1,50-26.1c6.6-21.1-5-43.5-26.1-50.2
		C44.9,0.6,40.9,0,36.8,0z M43.7,11.9c0,4.3-1.1,8.5-3.2,12.2c-1.7-0.9-4.1-2.2-4.8-2.5c0.8-2.6,1.5-5.2,2-7.9
		C39.5,12.8,41.6,12.2,43.7,11.9L43.7,11.9z"/>
</g>
</svg>
