<?xml version="1.0" encoding="utf-8"?>
<!-- Generator: Adobe Illustrator 24.0.1, SVG Export Plug-In . SVG Version: 6.00 Build 0)  -->
<svg version="1.1" id="Logo" xmlns="http://www.w3.org/2000/svg" xmlns:xlink="http://www.w3.org/1999/xlink" x="0px" y="0px"
	 viewBox="0 0 144 120" style="enable-background:new 0 0 144 120;" xml:space="preserve">
<style type="text/css">
	.st0{display:none;fill:none;}
</style>
<title>Logo Vertical - Black</title>
<rect x="72" y="-124" class="st0" width="208" height="184"/>
<g id="Text_Group">
	<path d="M144,110.1c-0.2-4.6-4.1-8.2-8.7-8c-2.2,0.1-4.2,1-5.7,2.5c-1.6,1.7-2.5,3.9-2.5,6.2v0.4c0,1.7,0.5,3.4,1.4,4.8
		c1.5,2.4,4.2,3.9,7,3.9h6.8c0.3,0,0.5-0.2,0.5-0.5v-3.3c0-0.3-0.2-0.5-0.5-0.5h-6.8c-1.3-0.1-2.5-0.9-3-2.2h11.2
		C144,112.3,144.1,111.2,144,110.1z M132,110.1c0.3-2,1.4-3.4,3.5-3.4c2.1,0,3.2,1.4,3.5,3.4H132z"/>
	<path d="M124.3,101.4v18c0,0.3-0.2,0.5-0.5,0.5h-7.1c-4.8,0-8.7-3.9-8.7-8.7c0-0.1,0-0.3,0-0.4c0.2-4.2,3.4-7.7,7.6-8.3
		c0.2,0,0.3,0,0.5,0c0.3,0,0.6,0.2,0.6,0.5c0,0,0,0,0,0v3.3c0,0.3-0.3,0.5-0.6,0.5c-2.2,0.6-3.6,2.8-3.2,5.1
		c0.4,2.1,2.3,3.7,4.4,3.6h1.5V97.1c0-0.3,0.2-0.5,0.5-0.5l0,0C122.1,96.5,124.3,98.7,124.3,101.4z"/>
	<path d="M97.3,102.5c-4.7,0.1-8.5,4-8.5,8.7c-0.2,4.7,3.5,8.6,8.2,8.7c4.7,0.2,8.6-3.5,8.8-8.2c0-0.2,0-0.4,0-0.6
		C105.8,106.5,102,102.6,97.3,102.5z M97.3,115.5c-2.2,0-3.5-2.1-3.5-4.3s1.4-4.3,3.5-4.3s3.6,2.1,3.6,4.3S99.5,115.5,97.3,115.5
		L97.3,115.5z"/>
	<path d="M84.5,102.5h2.7c0.3,0,0.6-0.2,0.6-0.5l0,0v-3.3c0-0.3-0.2-0.5-0.6-0.5h0h-3.8c-6,0-10.9,4.9-10.9,10.9l0,0
		c0,6,4.9,10.9,10.9,10.9c0,0,0,0,0,0h3.8c0.3,0,0.5-0.2,0.6-0.5v-3.3c0-0.3-0.3-0.5-0.6-0.5h-2.7c-3.6,0-6.6-2.9-6.6-6.5
		c0,0,0,0,0,0l0,0C77.9,105.5,80.8,102.5,84.5,102.5C84.5,102.5,84.5,102.5,84.5,102.5z"/>
	<path d="M63.7,103.1v16.4c0,0.3-0.3,0.5-0.6,0.5h-4.4c-0.3,0-0.5-0.2-0.6-0.5v-12.5h-1.7c-2.4,0-4.4,2-4.4,4.4c0,0.5,0.1,1,0.2,1.4
		c0.6,1.8,2.3,3,3,3c0.3,0,0.5,0.2,0.5,0.5v3.3c0,0.3-0.2,0.5-0.5,0.5H55c-3.9,0-7.9-4.1-7.6-9.1c0.3-4.7,4.3-8.4,9-8.3h6.9
		C63.5,102.6,63.7,102.8,63.7,103.1z"/>
	<path d="M40.2,120h-4.4c-0.3,0-0.5-0.3-0.5-0.5v-15.8c0-3.9,3.2-7.1,7.1-7.1c0,0,0,0,0,0h2.7c0.3,0,0.5,0.2,0.5,0.5v3.3
		c0,0.3-0.2,0.5-0.5,0.5h-1.7c-1.5,0-2.7,1.2-2.7,2.7c0,0,0,0,0,0v1.1H44c0.3,0,0.5,0.2,0.5,0.5v3.3c0,0.3-0.2,0.5-0.5,0.5h-3.3
		v10.4C40.7,119.7,40.5,120,40.2,120C40.2,120,40.2,120,40.2,120z"/>
	<path d="M24.3,119.4v-18c0-2.7,2.2-4.9,4.9-4.9h0l0,0c0.3,0,0.5,0.2,0.5,0.5v22.4c0,0.3-0.2,0.5-0.5,0.5h-4.3
		C24.6,120,24.4,119.7,24.3,119.4C24.3,119.4,24.3,119.4,24.3,119.4z"/>
	<path d="M13,98.1H8.3c-0.2,0-0.4,0.1-0.5,0.4L0,119.2c-0.1,0.3,0,0.6,0.3,0.7c0.1,0,0.1,0,0.2,0h4.3c0.2,0,0.4-0.1,0.5-0.3l1.3-3.5
		h8.1l1.2,3.5c0.1,0.2,0.3,0.4,0.5,0.4h4.3c0.3,0,0.5-0.2,0.5-0.5c0-0.1,0-0.1,0-0.2l-7.8-20.7C13.5,98.3,13.3,98.1,13,98.1z
		 M8.5,111.8H8.3l2.4-6.4l2.4,6.4H8.5z"/>
</g>
<g id="Symbol_Group">
	<path d="M66.4,37.7c0,0,5.2-0.2,7,0.5c1.8,0.7,3.5,2.5,3.7,4c-2.1,0.6-4.4,0.5-6.5-0.2C68.8,41.1,67.3,39.6,66.4,37.7z"/>
	<path d="M72,0C55.8,0,41.3,9.7,35,24.6l0.3-0.1l0,0c0.5-0.3,1-0.5,1.6-0.8c0.6-0.2,1.1-0.5,1.6-0.7c0.5-0.2,1.1-0.4,1.6-0.6
		s0.9-0.3,1.4-0.5l0.4-0.1l1.3-0.4l0.2-0.1c0.5-0.1,1-0.3,1.6-0.4h0.1h0.1c0.5-0.1,1-0.2,1.6-0.3h0.1c0.6-0.1,1.2-0.2,1.8-0.3
		c1.7-4.2,4.6-7.8,8.2-10.5c0.9-0.7,1.8-1.3,2.8-1.8c0.5-0.3,1-0.5,1.5-0.8c2.6-1.2,5.5-1.9,8.3-2.2l0,0c0.7,2.2,1,4.6,1,6.9
		c0,1-0.1,2-0.2,3c-0.3,2.7-1.1,5.3-2.3,7.8c1.7,0.6,3.3,1.4,4.8,2.3c0.5,0.3,1,0.6,1.5,0.9c4.7,2.9,8.7,6.7,11.9,11.2
		c-1.5,0.6-2.7,1.9-3.2,3.4l10.4,6l5,2.9c-0.1,0.4-0.2,0.7-0.3,1.1c-0.2,0.8-0.5,1.5-0.9,2.2c-1.5,3-3.9,5.5-6.9,7l0,0
		c-0.9,0.5-1.9,0.8-2.9,1.1c-0.3,0.1-0.7,0.2-1,0.2c-1,0.2-1.9,0.3-2.9,0.3h-0.6c-0.6,0-1.3-0.1-1.9-0.2c-0.6-0.1-1.3-0.3-1.9-0.4
		l0,0c-0.5-0.1-0.9-0.3-1.4-0.3c-0.5-0.1-0.9-0.2-1.4-0.2l0,0l-0.7-0.1c-0.3,0-0.6,0-0.9,0c-0.3,0-0.7,0-1,0s-0.7,0.1-1,0.1h-0.1
		h-0.1c-1.6,0.3-3.2,0.8-4.7,1.5c-3.7,1.9-6.5,5.2-7.7,9.2c-0.1,0.3-0.2,0.6-0.2,0.8C60,72.1,60,72.1,60,72.3s-0.1,0.4-0.1,0.7
		s-0.1,0.4-0.1,0.6c-0.2,1.5-0.1,3,0.2,4.5c21.1,6.6,43.6-5.1,50.3-26.1S105.1,8.5,84,1.8C80.1,0.6,76.1,0,72,0z M78.9,12
		c0,4.3-1.1,8.5-3.2,12.2c-1.7-0.9-4.1-2.2-4.9-2.5c0.8-2.6,1.5-5.2,2-7.9C74.7,12.9,76.8,12.3,78.9,12L78.9,12z"/>
</g>
</svg>
