<?xml version="1.0" encoding="utf-8"?>
<!-- Generator: Adobe Illustrator 24.0.1, SVG Export Plug-In . SVG Version: 6.00 Build 0)  -->
<svg version="1.1" id="Symbol" xmlns="http://www.w3.org/2000/svg" xmlns:xlink="http://www.w3.org/1999/xlink" x="0px" y="0px"
	 viewBox="0 0 140 140" style="enable-background:new 0 0 140 140;" xml:space="preserve">
<style type="text/css">
	.st0{display:none;fill:none;}
	.st1{fill:#FFFFFF;}
</style>
<title>Symbol - White</title>
<rect x="70" y="-74" class="st0" width="140" height="144"/>
<path class="st1" d="M57.1,66c0,0,9.4-0.3,12.7,0.9s6.4,4.5,6.7,7c-3.9,1-8.1,0.9-11.9-0.4C61.3,71.9,58.6,69.3,57.1,66z"/>
<path class="st1" d="M67.2,0C37.8,0,11.3,16.9,0,43l0.5-0.3c0.9-0.5,1.8-0.9,2.8-1.3s1.9-0.8,2.9-1.2c1-0.4,2-0.8,3-1.1
	c1-0.3,1.7-0.6,2.6-0.8l0.8-0.2l2.4-0.6l0.4-0.1c0.9-0.2,1.8-0.5,2.8-0.6h0.4c0.9-0.2,1.8-0.4,2.9-0.5h0.1c1.1-0.2,2.1-0.3,3.2-0.5
	c6.4-15.1,21.1-25.4,38-26.8c1.2,3.9,1.8,8,1.8,12.1c0,1.8-0.1,3.5-0.3,5.2c-0.6,4.7-2,9.3-4.2,13.6c13.4,5,25,13.8,33.3,25.1
	c-2.7,1.1-4.9,3.3-5.9,5.9l19,10.5l9.1,5.1c-0.2,0.6-0.3,1.3-0.5,1.9c-0.8,2.7-2,5.2-3.6,7.5c-2.7,3.7-6.3,6.7-10.5,8.7l0,0
	c-3.9,1.8-8.1,2.8-12.4,2.8h-1c-2.3-0.1-4.7-0.4-6.9-1.1l0,0c-1.7-0.5-3.4-0.8-5.1-1l0,0l-1.2-0.1c-0.5,0-1.1,0-1.7,0
	c-1.3,0-2.5,0.1-3.8,0.3c-0.1,0-0.3,0-0.4,0c-10.6,1.6-19.4,8.9-22.5,18.8c-0.1,0.5-0.3,1-0.4,1.5c-0.1,0.5-0.1,0.5-0.2,0.8
	c-0.1,0.3-0.2,0.8-0.2,1.2c-0.1,0.4-0.1,0.8-0.2,1.1c-0.3,2.6-0.2,5.3,0.3,7.9c38.4,11.6,79.3-8.8,91.4-45.7
	c12.1-36.9-9.2-76.2-47.6-87.8C82,1.1,74.6,0,67.2,0z M79.7,21c0,7.5-2,14.8-5.9,21.3c-3.1-1.6-7.5-3.8-8.8-4.4
	c1.5-4.5,2.8-9.2,3.6-13.9C72.2,22.6,75.9,21.5,79.7,21L79.7,21z"/>
</svg>
