<svg width="24" height="24" viewBox="0 0 24 24" fill="none" xmlns="http://www.w3.org/2000/svg">
<mask id="mask0" mask-type="alpha" maskUnits="userSpaceOnUse" x="4" y="2" width="16" height="20">
<path d="M19.9544 13.7097C19.71 10.7269 18.2287 8.85777 16.9219 7.20832C15.7118 5.68128 14.6667 4.36261 14.6667 2.41738C14.6667 2.26113 14.5733 2.11832 14.4253 2.04672C14.2769 1.97469 14.0985 1.98648 13.9635 2.07843C12.0009 3.39508 10.3633 5.61418 9.79125 7.73152C9.39412 9.20562 9.34158 10.8628 9.33421 11.9573C7.52171 11.5944 7.11112 9.05265 7.10679 9.02496C7.08637 8.89312 7.00046 8.77839 6.87546 8.71574C6.74917 8.6539 6.60071 8.64941 6.47267 8.70882C6.37762 8.75195 4.13975 9.81796 4.00954 14.0743C4.00042 14.2159 4 14.3579 4 14.4999C4 18.6349 7.58896 21.9994 12 21.9994C12.0061 21.9998 12.0126 22.0006 12.0178 21.9994C12.0195 21.9994 12.0212 21.9994 12.0234 21.9994C16.4236 21.9875 20 18.6276 20 14.4999C20 14.2919 19.9544 13.7097 19.9544 13.7097ZM12 21.1661C10.5295 21.1661 9.33333 19.9715 9.33333 18.5031C9.33333 18.4531 9.33292 18.4026 9.33679 18.3408C9.35458 17.7215 9.48004 17.2988 9.61762 17.0176C9.87546 17.5368 10.3364 18.0141 11.0851 18.0141C11.3307 18.0141 11.5295 17.8277 11.5295 17.5974C11.5295 17.0042 11.5426 16.3198 11.7001 15.7022C11.8403 15.1545 12.1754 14.5719 12.5999 14.1048C12.7887 14.711 13.1567 15.2017 13.5161 15.6806C14.0305 16.3658 14.5621 17.0742 14.6555 18.2822C14.6611 18.3538 14.6667 18.4258 14.6667 18.5031C14.6667 19.9715 13.4705 21.1661 12 21.1661Z" fill="#0B1F35"/>
</mask>
<g mask="url(#mask0)">
<rect width="24" height="24" fill="#0B1F35"/>
</g>
</svg>
