<svg width="24" height="24" viewBox="0 0 24 24" fill="none" xmlns="http://www.w3.org/2000/svg">
<mask id="mask0" mask-type="alpha" maskUnits="userSpaceOnUse" x="0" y="3" width="24" height="18">
<path d="M23.3232 8.01735L12.3905 3.09761C12.1041 2.96746 11.7918 2.96746 11.5315 3.09761L0.598699 8.01735C0.234274 8.17354 0 8.53796 0 8.92842C0 9.31887 0.260302 9.68329 0.624727 9.8655L1.56182 10.308V13.9523C1.56182 14.3167 1.84816 14.6031 2.21258 14.6031C2.57701 14.6031 2.86334 14.3167 2.86334 13.9523V11.0108L4.42516 11.8438V16.269C4.42516 16.4512 4.47723 16.6074 4.58135 16.7636C4.68547 16.9198 7.05423 20.4599 11.8438 20.4599C16.7636 20.4599 19.0282 16.8937 19.1323 16.7636C19.2104 16.6334 19.2885 16.4512 19.2885 16.295V12.026L23.4273 9.91758C23.7918 9.73537 24 9.37092 24 8.98046C23.9479 8.53795 23.6876 8.19957 23.3232 8.01735ZM17.4403 15.9827C16.9197 16.6074 15.1497 18.6378 11.8438 18.6378C8.61605 18.6378 6.7679 16.6334 6.24729 15.9827V12.7809L11.5054 15.4621C11.6616 15.5402 11.8178 15.5662 11.974 15.5662C12.1302 15.5662 12.3124 15.5402 12.4685 15.4621L17.4403 12.9371V15.9827ZM11.974 13.3536L3.43601 9.03254L11.974 5.18004L20.5119 9.03254L11.974 13.3536ZM2.86334 15.5141C3.04555 15.6963 3.1757 15.9827 3.1757 16.243C3.1757 16.5033 3.07158 16.7896 2.86334 16.9718C2.68113 17.154 2.39479 17.2842 2.13449 17.2842C1.87419 17.2842 1.58785 17.18 1.40564 16.9718C1.22343 16.7896 1.09327 16.5033 1.09327 16.243C1.09327 15.9827 1.1974 15.6963 1.40564 15.5141C1.58785 15.3319 1.87419 15.2018 2.13449 15.2018C2.39479 15.2018 2.6551 15.3059 2.86334 15.5141Z" fill="#0B1F35"/>
</mask>
<g mask="url(#mask0)">
<rect width="24" height="24" fill="#0B1F35"/>
</g>
</svg>
