<svg width="24" height="24" viewBox="0 0 24 24" fill="none" xmlns="http://www.w3.org/2000/svg">
<mask id="mask0" mask-type="alpha" maskUnits="userSpaceOnUse" x="3" y="2" width="17" height="21">
<path d="M5.45034 4.26343V16.1262L13.9027 20.7366V8.87382L5.45034 4.26343ZM7.64158 3.75002L15.0119 7.77017C15.2528 7.90159 15.4027 8.15413 15.4027 8.42859V15.8214H18.4265V3.75002H7.64158ZM15.4027 22C15.4027 22.5693 14.7934 22.931 14.2936 22.6584L4.3412 17.2299C4.10025 17.0984 3.95034 16.8459 3.95034 16.5714V3.01393C3.94905 2.94756 3.95657 2.88055 3.97342 2.81466C3.97491 2.80878 3.97648 2.80292 3.97811 2.79709C3.99313 2.7439 4.0143 2.6915 4.04192 2.64088C4.05524 2.61644 4.06973 2.59305 4.08528 2.57072C4.14635 2.48338 4.22556 2.40965 4.31743 2.355C4.40652 2.30222 4.50563 2.26845 4.60802 2.25567C4.61133 2.25524 4.61465 2.25485 4.61797 2.25449C4.65027 2.25089 4.68288 2.24938 4.71557 2.25002H19.1765C19.5907 2.25002 19.9265 2.58581 19.9265 3.00002V16.5714C19.9265 16.9857 19.5907 17.3214 19.1765 17.3214H15.4027V22Z" fill="#1A051D"/>
</mask>
<g mask="url(#mask0)">
<rect width="24" height="24" fill="#0B1F35"/>
</g>
</svg>
