<svg width="24" height="24" viewBox="0 0 24 24" fill="none" xmlns="http://www.w3.org/2000/svg">
<mask id="mask0" mask-type="alpha" maskUnits="userSpaceOnUse" x="1" y="1" width="22" height="22">
<path d="M12.0353 17.4283C9.04379 17.4283 6.61867 15.0032 6.61867 12.0117C6.61867 9.02012 9.04379 6.595 12.0353 6.595C15.0269 6.595 17.452 9.02012 17.452 12.0117C17.452 15.0032 15.0269 17.4283 12.0353 17.4283ZM12.0353 15.9283C14.1984 15.9283 15.952 14.1748 15.952 12.0117C15.952 9.84855 14.1984 8.095 12.0353 8.095C9.87222 8.095 8.11867 9.84855 8.11867 12.0117C8.11867 14.1748 9.87222 15.9283 12.0353 15.9283ZM22.75 11.196V12.8032C22.751 13.5106 22.273 14.129 21.5882 14.3061L20.3815 14.6184C20.2249 15.1216 20.0229 15.6095 19.778 16.0761L20.4096 17.1487C20.7681 17.7575 20.6696 18.5318 20.17 19.0313L19.0327 20.1687C18.5331 20.6683 17.7589 20.7668 17.1501 20.4083L16.0774 19.7767C15.6218 20.0157 15.1459 20.2138 14.6553 20.3687L14.3402 21.5875C14.1635 22.2719 13.5461 22.7501 12.8393 22.75H11.2308C10.5241 22.7498 9.90713 22.2717 9.73035 21.587L9.41923 20.3785C8.92357 20.2236 8.44276 20.0246 7.98258 19.784L6.87693 20.4353C6.26813 20.7938 5.49391 20.6953 4.99434 20.1957L3.85701 19.0583C3.35741 18.5588 3.25887 17.7845 3.6171 17.1763L4.26641 16.0717C4.02473 15.6101 3.82502 15.1277 3.66967 14.6304L2.4125 14.3049C1.72833 14.1282 1.25023 13.5112 1.25 12.8043V11.1961C1.24994 10.4892 1.7281 9.87186 2.41216 9.69524L3.68604 9.36569C3.83761 8.89065 4.02974 8.42951 4.2603 7.98739L3.59041 6.84993C3.23187 6.24113 3.33041 5.46691 3.83 4.96734L4.96732 3.83001C5.46691 3.33041 6.24113 3.23187 6.84987 3.59038L7.98753 4.26024C8.44165 4.02322 8.91583 3.82678 9.40452 3.67322L9.73048 2.4125C9.90713 1.72833 10.5241 1.25023 11.231 1.25H12.8393C13.5461 1.24994 14.1635 1.7281 14.3402 2.41258L14.6673 3.6802C15.1513 3.83364 15.621 4.02915 16.0709 4.26451L17.1751 3.61541C17.7839 3.25687 18.5581 3.35541 19.0577 3.855L20.1947 4.99199C20.6943 5.49157 20.7928 6.2658 20.4343 6.87453L19.7832 7.98026C20.0176 8.42866 20.2124 8.89666 20.3654 9.37892L21.5877 9.69521C22.272 9.87199 22.7501 10.4893 22.75 11.196ZM21.2125 11.1475L19.5761 10.7241C19.3129 10.656 19.1072 10.4508 19.0384 10.1878C18.8697 9.54293 18.6123 8.9246 18.2735 8.35056C18.1348 8.11561 18.1346 7.8239 18.273 7.5888L19.1417 6.1134C19.1533 6.09377 19.1501 6.06879 19.134 6.05266L17.997 4.91565C17.9809 4.89954 17.9559 4.89636 17.9357 4.90823L16.4614 5.7749C16.2263 5.9131 15.9347 5.91279 15.6999 5.77409C15.1246 5.43428 14.5048 5.17621 13.8584 5.00731C13.5951 4.93852 13.3898 4.73255 13.3218 4.46908L12.8878 2.7875C12.8821 2.76542 12.8622 2.75 12.8393 2.75H11.2312C11.2085 2.75001 11.1885 2.76543 11.1828 2.78774L10.7495 4.46374C10.6812 4.72775 10.475 4.93391 10.211 5.00214C9.56022 5.17032 8.93621 5.42882 8.35716 5.77012C8.12227 5.90857 7.83075 5.90863 7.59579 5.77029L6.08874 4.88292C6.0691 4.87136 6.04412 4.87454 6.028 4.89066L4.89065 6.02801C4.87454 6.04412 4.87136 6.0691 4.88292 6.08873L5.77025 7.5954C5.90858 7.83027 5.90858 8.12171 5.77026 8.35659C5.43526 8.92544 5.18009 9.53766 5.01193 10.176C4.94279 10.4385 4.73726 10.6431 4.4745 10.7111L2.7875 11.1475C2.76542 11.1532 2.75 11.1731 2.75 11.196V12.8041C2.75001 12.8269 2.76543 12.8468 2.78802 12.8526L4.46135 13.286C4.7257 13.3544 4.93195 13.5611 4.99981 13.8256C5.16872 14.484 5.43002 15.1152 5.77595 15.7003C5.91479 15.9352 5.91515 16.2269 5.7769 16.4621L4.90992 17.9369C4.89836 17.9566 4.90154 17.9815 4.91766 17.9977L6.05501 19.135C6.07112 19.1511 6.0961 19.1543 6.11569 19.1428L7.59103 18.2738C7.82619 18.1353 8.11803 18.1354 8.35303 18.2742C8.93731 18.6192 9.56743 18.8799 10.2247 19.0485C10.4896 19.1165 10.6965 19.3232 10.7647 19.588L11.1829 21.2125C11.1885 21.2346 11.2085 21.25 11.231 21.25H12.8394C12.8622 21.25 12.8821 21.2346 12.8879 21.2122L13.3102 19.5789C13.3784 19.3153 13.5841 19.1093 13.8476 19.0408C14.5 18.8711 15.1254 18.6107 15.7054 18.2671C15.9405 18.1278 16.2327 18.1274 16.4682 18.266L17.9113 19.1157C17.9309 19.1273 17.9559 19.1241 17.972 19.108L19.1093 17.9707C19.1255 17.9545 19.1286 17.9296 19.117 17.9099L18.2674 16.4669C18.1287 16.2314 18.1291 15.9391 18.2685 15.7039C18.6178 15.1146 18.8812 14.4783 19.0506 13.8145C19.1183 13.5495 19.3247 13.3424 19.5894 13.2739L21.2125 12.8539C21.2346 12.8482 21.25 12.8282 21.25 12.8043V11.1959C21.25 11.1731 21.2346 11.1532 21.2125 11.1475Z" fill="#1A051D"/>
</mask>
<g mask="url(#mask0)">
<rect width="24" height="24" fill="#0B1F35"/>
</g>
</svg>
