<svg width="24" height="24" viewBox="0 0 24 24" fill="none" xmlns="http://www.w3.org/2000/svg">
<mask id="mask0" mask-type="alpha" maskUnits="userSpaceOnUse" x="1" y="1" width="22" height="22">
<path d="M8.60813 0.999997C11.5733 0.999997 16.2364 1.98043 17.3842 2.79348C17.6473 2.98478 17.7907 3.27175 17.7907 3.58262L17.7907 12.9326C17.7907 13.2196 17.6472 13.5065 17.432 13.6739C17.3603 13.7217 15.6864 15.037 13.9407 16.0174C11.7646 17.2131 10.2581 18.8869 9.89942 19.9391C9.46899 21.2304 8.84725 23 6.88638 23C5.95378 23 5.18856 22.4739 4.78204 21.5652C3.969 19.7 4.82987 17.1174 6.26465 15.0848C5.30813 14.8696 4.11248 14.5587 3.39509 14.3435C2.07987 13.937 1.21899 12.9804 1.02769 11.8087C0.860297 10.613 1.45812 9.39346 2.72551 8.46085C3.65812 5.94999 5.26029 1.98044 6.43203 1.33479C6.88638 1.09566 7.67552 0.999997 8.60813 0.999997ZM15.8777 4.15651C14.0603 3.39129 8.46465 2.60218 7.41247 3.0087C6.86248 3.51087 5.45161 6.7152 4.47117 9.41738C4.39943 9.60868 4.27987 9.77607 4.11248 9.89564C3.32335 10.4217 2.91682 11.0435 2.98856 11.5696C3.0603 12 3.44291 12.3587 4.01682 12.55C5.21247 12.9326 8.17768 13.5783 8.22551 13.5783C8.56029 13.65 8.82333 13.8891 8.9429 14.2239C9.06247 14.5587 8.96682 14.9174 8.72769 15.1565C6.57552 17.4761 6.1929 19.8435 6.59942 20.8C6.71899 21.087 6.86247 21.087 6.93421 21.087C7.41247 21.087 7.62769 20.7522 8.12987 19.3174C8.70378 17.6435 10.6886 15.6348 13.0559 14.3435C14.2038 13.7217 15.3516 12.8848 15.9255 12.4544L15.9255 4.15651L15.8777 4.15651ZM19.656 3.48696L19.656 13.0283C19.656 13.8891 20.3494 14.5826 21.2103 14.5826C22.0712 14.5826 22.7646 13.8891 22.7646 13.0283L22.7647 3.48696C22.7647 2.62609 22.0712 1.93261 21.2103 1.93261C20.3733 1.93261 19.656 2.65001 19.656 3.48696Z" fill="#0B1F35"/>
</mask>
<g mask="url(#mask0)">
<rect width="24" height="24" fill="#0B1F35"/>
</g>
</svg>
