<svg width="24" height="24" viewBox="0 0 24 24" fill="none" xmlns="http://www.w3.org/2000/svg">
<mask id="mask0" mask-type="alpha" maskUnits="userSpaceOnUse" x="1" y="1" width="22" height="22">
<path d="M15.1565 23C12.1913 23 7.52826 22.0196 6.38043 21.2065C6.11739 21.0152 5.97392 20.7283 5.97392 20.4174V11.0674C5.97392 10.7804 6.1174 10.4935 6.33262 10.3261C6.40436 10.2783 8.07827 8.96303 9.82392 7.9826C12 6.78694 13.5065 5.11306 13.8652 4.06088C14.2957 2.76958 14.9174 1 16.8783 1C17.8109 1 18.5761 1.52609 18.9826 2.43478C19.7957 4.3 18.9348 6.8826 17.5 8.91521C18.4565 9.13043 19.6522 9.44129 20.3696 9.65651C21.6848 10.063 22.5457 11.0196 22.737 12.1913C22.9044 13.387 22.3065 14.6065 21.0391 15.5391C20.1065 18.05 18.5044 22.0196 17.3326 22.6652C16.8783 22.9043 16.0891 23 15.1565 23ZM7.88697 19.8435C9.70436 20.6087 15.3 21.3978 16.3522 20.9913C16.9022 20.4891 18.313 17.2848 19.2935 14.5826C19.3652 14.3913 19.4848 14.2239 19.6522 14.1044C20.4413 13.5783 20.8478 12.9565 20.7761 12.4304C20.7043 12 20.3217 11.6413 19.7478 11.45C18.5522 11.0674 15.587 10.4217 15.5391 10.4217C15.2044 10.35 14.9413 10.1109 14.8217 9.77608C14.7022 9.44129 14.7978 9.08262 15.037 8.84349C17.1891 6.52393 17.5717 4.15651 17.1652 3.19999C17.0457 2.91303 16.9022 2.91304 16.8304 2.91304C16.3522 2.91304 16.137 3.24783 15.6348 4.68261C15.0609 6.35653 13.0761 8.36521 10.7087 9.65651C9.56088 10.2782 8.41305 11.1152 7.83914 11.5456V19.8435H7.88697ZM4.1087 20.513V10.9717C4.1087 10.1109 3.41522 9.41738 2.55435 9.41738C1.69348 9.41738 1 10.1109 1 10.9717V20.513C1 21.3739 1.69348 22.0674 2.55435 22.0674C3.3913 22.0674 4.1087 21.35 4.1087 20.513Z" fill="#0B1F35"/>
</mask>
<g mask="url(#mask0)">
<rect width="24" height="24" fill="#0B1F35"/>
</g>
</svg>
