<svg width="48" height="48" viewBox="0 0 48 48" fill="none" xmlns="http://www.w3.org/2000/svg">
<path d="M40.02 29.64C39.96 29.88 39.9 30.06 39.84 30.3C39.54 31.26 39.12 32.1 38.64 32.88C38.16 33.6 37.62 34.2 36.96 34.74C36.42 35.22 35.82 35.58 35.16 35.94C34.44 36.3 33.6 36.6 32.82 36.72C32.28 36.84 31.68 36.9 31.08 36.9C30.96 36.9 30.84 36.9 30.78 36.9C30 36.9 29.28 36.78 28.5 36.54C27.96 36.36 27.36 36.24 26.82 36.18C26.7 36.18 26.58 36.18 26.4 36.12C19.68 34.32 12.84 37.38 9.6 43.2C3.72 38.76 0 31.8 0 24C0 20.7 0.66 17.58 1.86 14.76C1.92 14.76 1.98 14.7 2.04 14.64C2.34 14.46 2.64 14.34 3 14.16C3.3 14.04 3.6 13.92 3.9 13.8C4.2 13.68 4.56 13.56 4.86 13.44C5.16 13.32 5.4 13.26 5.7 13.14C5.76 13.14 5.88 13.08 5.94 13.08C6.18 13.02 6.48 12.9 6.72 12.84C6.78 12.84 6.78 12.84 6.84 12.78C7.14 12.72 7.44 12.6 7.8 12.54C7.86 12.54 7.92 12.54 7.92 12.54C8.22 12.48 8.52 12.42 8.88 12.36H8.94C9.3 12.3 9.66 12.24 10.02 12.18C12.12 7.14 16.86 3.48 22.5 3.06C22.86 4.38 23.1 5.76 23.1 7.2C23.1 7.8 23.04 8.4 22.98 9C22.8 10.68 22.32 12.24 21.6 13.68C22.98 14.22 24.24 14.82 25.44 15.6C26.88 16.5 28.2 17.52 29.46 18.72C30.6 19.8 31.68 21.06 32.58 22.32C31.68 22.68 30.96 23.46 30.66 24.36L36.9 27.96L40.02 29.64Z" fill="#172A3F"/>
<path d="M24.48 8.22C24.24 9.48 23.64 12 23.28 12.96C23.7 13.14 25.14 13.92 26.16 14.46C27.42 12.3 28.08 9.78 28.08 7.14C26.82 7.32 25.62 7.74 24.48 8.22Z" fill="#172A3F"/>
<path d="M24 0C14.04 0 5.46002 6.06 1.86002 14.76C1.92002 14.76 1.98002 14.7 2.04002 14.64C2.34002 14.46 2.64002 14.34 3.00002 14.16C3.30002 14.04 3.60002 13.92 3.90002 13.8C4.20002 13.68 4.56002 13.56 4.86002 13.44C5.16002 13.32 5.40002 13.26 5.70002 13.14C5.76002 13.14 5.88002 13.08 5.94002 13.08C6.18002 13.02 6.48002 12.9 6.72002 12.84C6.78002 12.84 6.78002 12.84 6.84002 12.78C7.14002 12.72 7.44002 12.6 7.80002 12.54C7.86002 12.54 7.92002 12.54 7.92002 12.54C8.22002 12.48 8.52002 12.42 8.88002 12.36H8.94001C9.30001 12.3 9.66002 12.24 10.02 12.18C12.12 7.14 16.86 3.48 22.5 3.06C22.86 4.38 23.1 5.76 23.1 7.2C23.1 7.8 23.04 8.4 22.98 9C22.8 10.68 22.32 12.24 21.6 13.68C22.98 14.22 24.24 14.82 25.44 15.6C26.88 16.5 28.2 17.52 29.46 18.72C30.6 19.8 31.68 21.06 32.58 22.32C31.68 22.68 30.96 23.46 30.66 24.36L36.9 27.96L39.9 29.7C39.84 29.94 39.78 30.12 39.72 30.36C39.42 31.32 39 32.16 38.52 32.94C38.04 33.66 37.5 34.26 36.84 34.8C36.3 35.28 35.7 35.64 35.04 36C34.32 36.36 33.48 36.66 32.7 36.78C32.16 36.9 31.56 36.96 30.96 36.96C30.84 36.96 30.72 36.96 30.66 36.96C29.88 36.96 29.16 36.84 28.38 36.6C27.84 36.42 27.24 36.3 26.7 36.24C26.58 36.24 26.46 36.24 26.28 36.18C26.1 36.18 25.92 36.18 25.74 36.18C25.32 36.18 24.9 36.18 24.48 36.3C24.42 36.3 24.36 36.3 24.36 36.3C22.38 36.6 20.52 37.56 19.14 39C18.18 40.02 17.4 41.28 16.98 42.72C16.92 42.9 16.86 43.08 16.86 43.2C16.86 43.32 16.8 43.38 16.8 43.5C16.74 43.62 16.74 43.74 16.74 43.92C16.74 44.04 16.68 44.16 16.68 44.34C16.56 45.24 16.62 46.2 16.8 47.04C19.08 47.58 21.48 48 24 48C28.44 48 32.58 46.8 36.18 44.7C43.26 40.5 48 32.82 48 24C48 10.74 37.26 0 24 0ZM28.14 7.2C28.14 9.84 27.42 12.36 26.22 14.52C25.2 13.98 23.76 13.2 23.34 13.02C23.7 12.06 24.3 9.54 24.54 8.28C25.62 7.74 26.82 7.32 28.14 7.2Z" fill="#FFFFFF"/>
<path d="M20.7 22.62C20.7 22.62 23.82 22.5 24.9 22.92C25.98 23.34 27 24.42 27.12 25.32C27.12 25.32 24.96 25.92 23.22 25.2C21.42 24.48 20.7 22.62 20.7 22.62Z" fill="#FFFFFF"/>
<path d="M26.34 36.06C26.16 36.06 25.98 36.06 25.8 36.06C25.38 36.06 24.96 36.06 24.54 36.18C24.48 36.18 24.42 36.18 24.42 36.18C22.44 36.48 20.58 37.44 19.2 38.88C18.24 39.9 17.46 41.16 17.04 42.6C16.98 42.78 16.92 42.96 16.92 43.08C16.92 43.2 16.86 43.26 16.86 43.38C16.8 43.5 16.8 43.62 16.8 43.8C16.8 43.92 16.74 44.04 16.74 44.22C16.62 45.12 16.68 46.08 16.86 46.92C14.22 46.08 11.76 44.82 9.66 43.2C12.78 37.38 19.62 34.26 26.34 36.06Z" fill="#B5BBC2"/>
</svg>
