<svg width="32" height="32" viewBox="0 0 32 32" fill="none" xmlns="http://www.w3.org/2000/svg">
<mask id="mask0" mask-type="alpha" maskUnits="userSpaceOnUse" x="0" y="4" width="32" height="24">
<path d="M31.0976 10.6898L16.5206 4.13014C16.1388 3.95661 15.7223 3.95661 15.3753 4.13014L0.798266 10.6898C0.312365 10.898 0 11.3839 0 11.9046C0 12.4252 0.347069 12.9111 0.83297 13.154L2.08243 13.7441V18.6031C2.08243 19.089 2.46421 19.4707 2.95011 19.4707C3.43601 19.4707 3.81779 19.089 3.81779 18.6031V14.6811L5.90022 15.7917V21.692C5.90022 21.9349 5.96963 22.1432 6.10846 22.3514C6.24729 22.5597 9.40564 27.2798 15.7918 27.2798C22.3514 27.2798 25.3709 22.525 25.5098 22.3514C25.6139 22.1779 25.718 21.9349 25.718 21.7267V16.0347L31.2364 13.2234C31.7223 12.9805 32 12.4946 32 11.974C31.9306 11.3839 31.5835 10.9328 31.0976 10.6898ZM23.2538 21.3102C22.5597 22.1432 20.1996 24.8503 15.7918 24.8503C11.4881 24.8503 9.02386 22.1779 8.32972 21.3102V17.0412L15.3406 20.6161C15.5488 20.7202 15.7571 20.7549 15.9653 20.7549C16.1735 20.7549 16.4165 20.7202 16.6247 20.6161L23.2538 17.2494V21.3102ZM15.9653 17.8048L4.58134 12.0434L15.9653 6.90672L27.3492 12.0434L15.9653 17.8048ZM3.81779 20.6855C4.06074 20.9284 4.23427 21.3102 4.23427 21.6573C4.23427 22.0044 4.09544 22.3861 3.81779 22.629C3.57484 22.872 3.19306 23.0456 2.84599 23.0456C2.49891 23.0456 2.11713 22.9067 1.87418 22.629C1.63123 22.3861 1.4577 22.0044 1.4577 21.6573C1.4577 21.3102 1.59653 20.9284 1.87418 20.6855C2.11713 20.4425 2.49891 20.269 2.84599 20.269C3.19306 20.269 3.54013 20.4078 3.81779 20.6855Z" fill="#0B1F35"/>
</mask>
<g mask="url(#mask0)">
<g filter="url(#filter0_d)">
<rect width="32" height="32" fill="#0B1F35"/>
</g>
</g>
<defs>
<filter id="filter0_d" x="-4" y="0" width="40" height="40" filterUnits="userSpaceOnUse" color-interpolation-filters="sRGB">
<feFlood flood-opacity="0" result="BackgroundImageFix"/>
<feColorMatrix in="SourceAlpha" type="matrix" values="0 0 0 0 0 0 0 0 0 0 0 0 0 0 0 0 0 0 127 0"/>
<feOffset dy="4"/>
<feGaussianBlur stdDeviation="2"/>
<feColorMatrix type="matrix" values="0 0 0 0 0 0 0 0 0 0 0 0 0 0 0 0 0 0 0.25 0"/>
<feBlend mode="normal" in2="BackgroundImageFix" result="effect1_dropShadow"/>
<feBlend mode="normal" in="SourceGraphic" in2="effect1_dropShadow" result="shape"/>
</filter>
</defs>
</svg>
