<svg width="32" height="32" viewBox="0 0 32 32" fill="none" xmlns="http://www.w3.org/2000/svg">
<mask id="mask0" mask-type="alpha" maskUnits="userSpaceOnUse" x="0" y="5" width="32" height="22">
<path fill-rule="evenodd" clip-rule="evenodd" d="M31.2768 8.1477C31.7209 8.37624 32 8.83381 32 9.33326V22.6666C32 23.166 31.7209 23.6236 31.2768 23.8521C30.8327 24.0807 30.2981 24.0419 29.8917 23.7516L20.5584 17.0849C20.208 16.8346 20 16.4305 20 15.9999C20 15.5693 20.208 15.1652 20.5584 14.9149L29.8917 8.24828C30.2981 7.95798 30.8327 7.91916 31.2768 8.1477ZM23.6273 15.9999L29.3333 20.0757V11.9242L23.6273 15.9999Z" fill="#0B1F35"/>
<path fill-rule="evenodd" clip-rule="evenodd" d="M4 7.99992C3.26362 7.99992 2.66667 8.59687 2.66667 9.33325V22.6666C2.66667 23.403 3.26362 23.9999 4 23.9999H18.6667C19.403 23.9999 20 23.403 20 22.6666V9.33325C20 8.59687 19.403 7.99992 18.6667 7.99992H4ZM0 9.33325C0 7.12411 1.79086 5.33325 4 5.33325H18.6667C20.8758 5.33325 22.6667 7.12411 22.6667 9.33325V22.6666C22.6667 24.8757 20.8758 26.6666 18.6667 26.6666H4C1.79086 26.6666 0 24.8757 0 22.6666V9.33325Z" fill="#0B1F35"/>
</mask>
<g mask="url(#mask0)">
<rect width="32" height="32" fill="#0B1F35"/>
</g>
</svg>
