<svg width="40" height="40" viewBox="0 0 40 40" fill="none" xmlns="http://www.w3.org/2000/svg">
<mask id="mask0" mask-type="alpha" maskUnits="userSpaceOnUse" x="0" y="0" width="40" height="40">
<circle cx="20" cy="20" r="20" fill="#0E3464"/>
</mask>
<g mask="url(#mask0)">
<rect width="40" height="40" fill="#F3F4F5"/>
<path d="M30.1155 26.3077C29.7886 26.3077 29.4809 26.3653 29.1925 26.5C28.8655 26.6346 28.5771 26.8653 28.3463 27.1346C28.2694 27.2307 28.1925 27.3846 28.1155 27.5769C27.6732 28.7884 26.8848 29.8653 25.8078 30.5769C24.4809 31.4423 22.5194 32.3269 20.0002 32.3269C17.4809 32.3269 15.5194 31.4615 14.1925 30.5769C13.1155 29.8653 12.3271 28.7884 11.8848 27.5769C11.8271 27.4038 11.7502 27.25 11.654 27.1346C11.4232 26.8653 11.1348 26.6346 10.8078 26.5C10.5194 26.3846 10.2117 26.3077 9.88477 26.3077C9.904 26.2884 9.98092 26.2115 10.2694 26.0961C11.0771 25.7692 13.4809 25.1538 20.0002 25.1538C26.5194 25.1538 28.9232 25.7692 29.7309 26.0961C30.0386 26.2307 30.1155 26.3077 30.1155 26.3077Z" fill="#F0F1F2"/>
<path d="M11.0574 23.7885C13.0382 21.9808 17.0959 21.4423 19.9997 21.4423C22.9035 21.4423 26.9805 21.9808 28.942 23.7885L30.4805 22.8462C29.7882 21.5962 29.4228 20.2115 29.4228 18.7885C29.4228 18.7308 29.4228 18.6923 29.4228 18.6346C29.4228 18.5769 29.4228 18.5192 29.4228 18.4615C29.4228 11.9808 27.4228 8.80769 26.692 7.88461C26.5382 7.69231 26.2882 7.63461 26.0766 7.75C25.2882 8.15384 23.4228 9.38461 21.9035 12.5385C21.2882 12.4038 20.6535 12.3269 19.9805 12.3269C19.3074 12.3269 18.6728 12.4038 18.0574 12.5385C16.5382 9.38461 14.6728 8.13461 13.8843 7.75C13.6728 7.63461 13.4035 7.69231 13.2689 7.88461C12.5382 8.80769 10.5382 11.9808 10.5382 18.4615C10.5382 18.5192 10.5382 18.5769 10.5382 18.6346C10.5574 20.0962 10.192 21.5577 9.48047 22.8462L11.0574 23.7885Z" fill="#828C97"/>
<path d="M11.5576 17.5385C11.5576 17.5385 11.6153 16.5 11.6922 15.6539C12.0768 11.9039 13.1922 9.76927 13.8268 8.84619C14.5192 9.71158 15.2307 11.0385 15.5961 12.4423C15.7115 12.9039 15.4999 13.3847 15.0576 13.5962C14.0576 14.0385 12.0576 15.077 11.5576 17.5385Z" fill="#B3B9C0"/>
<path d="M15.5961 12.4423C15.4423 11.8269 15.2115 11.2308 14.9423 10.6731C14.7692 11.0385 14.5769 11.4616 14.3846 11.9616C14.3269 11.9039 14.2692 11.8462 14.2115 11.8077C14.1346 11.7308 14 11.7692 13.9615 11.8654C13.7115 12.4616 13.4231 13.4039 13.25 14.7116C13.9038 14.1539 14.5769 13.8077 15.0577 13.5962C15.5 13.3846 15.7115 12.9039 15.5961 12.4423Z" fill="white"/>
<path d="M28.4426 17.5385C28.4426 17.5385 28.3849 16.5 28.308 15.6539C27.9234 11.9039 26.808 9.76927 26.1734 8.84619C25.4811 9.71158 24.7695 11.0385 24.4041 12.4423C24.2888 12.9039 24.5003 13.3847 24.9426 13.5962C25.9426 14.0385 27.9426 15.077 28.4426 17.5385Z" fill="#B3B9C0"/>
<path d="M24.4041 12.4423C24.558 11.8269 24.7888 11.2308 25.058 10.6731C25.2311 11.0385 25.4234 11.4616 25.6157 11.9616C25.6734 11.9039 25.7311 11.8462 25.7888 11.8077C25.8657 11.7308 26.0003 11.7692 26.0387 11.8654C26.2887 12.4616 26.5772 13.4039 26.7503 14.7116C26.0964 14.1539 25.4234 13.8077 24.9426 13.5962C24.5003 13.3846 24.2888 12.9039 24.4041 12.4423Z" fill="white"/>
<path d="M30.0768 25.8461C30.0768 25.8076 30.0768 25.7692 30.0575 25.7499C29.9229 24.9807 29.5191 24.3269 28.9422 23.7884C28.4806 23.3653 27.8845 22.9999 27.2306 22.7115C27.6729 22.0769 27.9422 21.2884 27.9422 20.4615C27.9422 18.2692 26.1537 16.4999 23.9614 16.4999C21.7691 16.4999 19.9998 18.2499 19.9998 20.4423C19.9998 18.2499 18.2114 16.4807 16.0191 16.4807C13.8268 16.4807 12.0383 18.2499 12.0383 20.4423C12.0383 21.2884 12.3075 22.0576 12.7499 22.6923C12.096 22.9807 11.4999 23.3461 11.0383 23.7692C10.4614 24.3076 10.0575 24.9615 9.92293 25.7307C9.92293 25.7692 9.9037 25.7884 9.9037 25.8269C9.88447 25.9807 9.86523 26.1346 9.86523 26.2884C9.88447 26.2692 9.96139 26.1923 10.2498 26.0769C10.4806 25.9807 10.8268 25.8653 11.346 25.7499C13.1152 25.3653 14.9614 25.6538 16.5575 26.5192C17.5768 27.0576 18.7498 27.3846 19.9806 27.3846C21.2114 27.3846 22.3845 27.0769 23.4037 26.5192C24.9998 25.6538 26.846 25.3653 28.6152 25.7499C29.1345 25.8653 29.4806 25.9807 29.7114 26.0769C30.0191 26.1923 30.096 26.2884 30.096 26.2884C30.1152 26.1538 30.1152 25.9999 30.0768 25.8461Z" fill="white"/>
<path d="M30.4808 22.8269L28.9424 23.7884L30.4808 22.8269Z" fill="#828C97"/>
<path d="M21.9811 23.4423C21.9811 24.5384 20.5003 25.173 20.0003 25.173C19.5003 25.173 18.0195 24.5384 18.0195 23.4423C18.0195 22.3461 18.9041 22.4615 20.0003 22.4615C21.0965 22.4615 21.9811 22.3461 21.9811 23.4423Z" fill="#0B1F35"/>
<path d="M16.0195 21.4231C16.5718 21.4231 17.0195 20.984 17.0195 20.4423C17.0195 19.9007 16.5718 19.4615 16.0195 19.4615C15.4672 19.4615 15.0195 19.9007 15.0195 20.4423C15.0195 20.984 15.4672 21.4231 16.0195 21.4231Z" fill="#0B1F35"/>
<path d="M15.5391 20.1923C15.6771 20.1923 15.7891 20.0803 15.7891 19.9423C15.7891 19.8042 15.6771 19.6923 15.5391 19.6923C15.401 19.6923 15.2891 19.8042 15.2891 19.9423C15.2891 20.0803 15.401 20.1923 15.5391 20.1923Z" fill="white"/>
<path d="M23.9805 21.4231C24.5328 21.4231 24.9805 20.984 24.9805 20.4423C24.9805 19.9007 24.5328 19.4615 23.9805 19.4615C23.4282 19.4615 22.9805 19.9007 22.9805 20.4423C22.9805 20.984 23.4282 21.4231 23.9805 21.4231Z" fill="#0B1F35"/>
<path d="M23.4805 20.1923C23.6185 20.1923 23.7305 20.0803 23.7305 19.9423C23.7305 19.8042 23.6185 19.6923 23.4805 19.6923C23.3424 19.6923 23.2305 19.8042 23.2305 19.9423C23.2305 20.0803 23.3424 20.1923 23.4805 20.1923Z" fill="white"/>
<path d="M18.0198 27.2116C16.8082 27.2116 15.8467 26.2308 15.8467 25.0385C15.8467 24.9231 15.9236 24.8462 16.039 24.8462C16.1544 24.8462 16.2313 24.9231 16.2313 25.0385C16.2313 26.0193 17.039 26.827 18.0198 26.827C19.0005 26.827 19.789 26.0577 19.8082 25.0962C19.8082 25.077 19.8082 25.0577 19.8082 25.0577C19.8082 24.9423 19.8851 24.8654 20.0005 24.8654C20.1159 24.8654 20.1928 24.9423 20.1928 25.0577C20.1928 25.077 20.1928 25.0962 20.1928 25.1154C20.1736 26.2885 19.2121 27.2116 18.0198 27.2116Z" fill="#0B1F35"/>
<path d="M19.9996 32.5C17.3457 32.5 15.3073 31.5385 14.0765 30.7308C12.9996 30.0193 12.1726 28.9616 11.6919 27.6346C11.615 27.4231 11.538 27.3077 11.4996 27.25C11.288 27 11.0188 26.8077 10.7303 26.6731C10.4611 26.5577 10.1919 26.5 9.88418 26.5C9.7688 26.5 9.69187 26.4231 9.69187 26.3077C9.69187 26.1346 9.71111 25.9808 9.73034 25.8077C9.73034 25.7693 9.74957 25.7308 9.74957 25.6923C9.86495 25 10.1919 24.3654 10.7496 23.8077L9.42264 23C9.32649 22.9423 9.30726 22.8269 9.34572 22.75C10.0188 21.5193 10.3842 20.1539 10.3842 18.7885C10.3842 18.75 10.3842 18.6923 10.3842 18.6346C10.3842 18.5769 10.3842 18.5193 10.3842 18.4616C10.3842 12.0193 12.3265 8.84618 13.1534 7.76925C13.365 7.50002 13.7111 7.4231 14.0188 7.57695C14.7688 7.96156 16.6726 9.19233 18.2111 12.3269C19.4034 12.0769 20.6534 12.0769 21.8265 12.3269C23.365 9.19233 25.2688 7.96156 26.0188 7.57695C26.3073 7.4231 26.6726 7.50002 26.8842 7.76925C27.6919 8.84618 29.6342 12.0193 29.6342 18.4616C29.6342 18.5193 29.6342 18.5769 29.6342 18.6346C29.6342 18.6731 29.6342 18.7308 29.6342 18.7885C29.6342 20.1539 29.9996 21.5193 30.6726 22.75C30.7303 22.8462 30.6919 22.9616 30.5957 23L29.2688 23.8077C29.8073 24.3654 30.1534 25 30.2688 25.6923C30.2688 25.7308 30.288 25.7693 30.288 25.8077C30.3073 25.9616 30.3265 26.1346 30.3265 26.3077C30.3265 26.4231 30.2496 26.5 30.1342 26.5C29.8457 26.5 29.5573 26.5577 29.288 26.6731C28.9803 26.8077 28.7111 27 28.5188 27.25C28.4803 27.3077 28.4034 27.4039 28.3265 27.6346C27.8457 28.9423 27.0188 30.0193 25.9419 30.7308C24.6919 31.5385 22.6534 32.5 19.9996 32.5ZM10.0765 26.1346C10.3457 26.1539 10.615 26.2308 10.865 26.3269C11.2111 26.4808 11.538 26.7116 11.788 27.0193C11.8842 27.1346 11.9611 27.2885 12.038 27.5193C12.4996 28.75 13.2688 29.75 14.2688 30.4231C15.4611 31.2116 17.4226 32.1346 19.9803 32.1346C22.538 32.1346 24.4996 31.2116 25.6919 30.4231C26.7111 29.75 27.4803 28.75 27.9226 27.5193C27.9996 27.2885 28.0957 27.1346 28.1726 27.0193C28.4226 26.7308 28.7303 26.4808 29.0957 26.3269C29.3457 26.2116 29.615 26.1539 29.8842 26.1346C29.8842 26.0577 29.865 25.9616 29.865 25.8846C29.865 25.8462 29.865 25.8269 29.8457 25.8077C29.7303 25.1154 29.365 24.5 28.788 23.9616C28.7496 23.9231 28.7303 23.8654 28.7303 23.8077C28.7303 23.75 28.7688 23.6923 28.8265 23.6539L30.2111 22.8077C29.5573 21.5577 29.2111 20.1923 29.2111 18.8269C29.2111 18.7693 29.2111 18.7308 29.2111 18.6731C29.2111 18.6154 29.2111 18.5577 29.2111 18.5C29.2111 12 27.1534 8.84618 26.5188 8.03848C26.4226 7.9231 26.2688 7.88464 26.1342 7.96156C25.4034 8.32695 23.538 9.53848 22.0573 12.6731C22.0188 12.75 21.9226 12.7885 21.8457 12.7693C20.615 12.5 19.3265 12.5 18.0957 12.7693C18.0188 12.7885 17.9226 12.75 17.8842 12.6731C16.3842 9.53848 14.538 8.34618 13.8073 7.96156C13.6726 7.88464 13.5188 7.9231 13.4226 8.03848C12.788 8.84618 10.7303 12 10.7303 18.5C10.7303 18.5577 10.7303 18.6154 10.7303 18.6731C10.7303 18.7308 10.7303 18.7693 10.7303 18.8269C10.7303 20.1923 10.3842 21.5769 9.73034 22.8077L11.115 23.6539C11.1726 23.6923 11.1919 23.7308 11.2111 23.8077C11.2111 23.8654 11.1919 23.9231 11.1534 23.9616C10.5765 24.5 10.2111 25.1154 10.0957 25.8077C10.0957 25.8462 10.0765 25.8654 10.0765 25.9039C10.0957 25.9616 10.0765 26.0385 10.0765 26.1346Z" fill="#0B1F35"/>
<path d="M21.9807 27.2116C20.7884 27.2116 19.8268 26.2885 19.8076 25.0962C19.8076 25.077 19.8076 25.0577 19.8076 25.0385C19.8076 24.9231 19.8845 24.8462 19.9999 24.8462C20.1153 24.8462 20.1922 24.9231 20.1922 25.0385C20.1922 25.0577 20.1922 25.0577 20.1922 25.077C20.2115 26.0577 20.9999 26.827 21.9807 26.827C22.9807 26.827 23.7884 26.0193 23.7884 25.0385C23.7884 24.9231 23.8653 24.8462 23.9807 24.8462C24.0961 24.8462 24.173 24.9231 24.173 25.0385C24.173 26.2308 23.1922 27.2116 21.9807 27.2116Z" fill="#0B1F35"/>
<path d="M21.9811 27.0191V28.3461C21.9811 29.4422 21.0965 30.3268 20.0003 30.3268C18.9041 30.3268 18.0195 29.4422 18.0195 28.3461V27.0191C19.0965 27.0191 19.9811 26.1538 20.0003 25.0961C20.0195 26.1538 20.9042 27.0191 21.9811 27.0191Z" fill="#FF5C5C"/>
<path d="M20.0002 30.5192C18.8079 30.5192 17.8271 29.5384 17.8271 28.3461V27.0192C17.8271 26.9038 17.9041 26.8269 18.0195 26.8269C19.0002 26.8269 19.7887 26.0577 19.8079 25.0961C19.8079 25 19.9041 24.9038 20.0002 24.9038C20.0964 24.9038 20.1925 24.9807 20.1925 25.0961C20.2118 26.0769 21.0002 26.8269 21.981 26.8269C22.0964 26.8269 22.1733 26.9038 22.1733 27.0192V28.3461C22.1733 29.5577 21.1925 30.5192 20.0002 30.5192ZM18.2118 27.2115V28.3653C18.2118 29.3461 19.0195 30.1538 20.0002 30.1538C20.981 30.1538 21.7887 29.3461 21.7887 28.3653V27.2115C20.981 27.1346 20.3079 26.6538 20.0002 25.9615C19.6925 26.6346 19.0195 27.1346 18.2118 27.2115Z" fill="#0B1F35"/>
<path d="M19.9999 29.3077C19.8845 29.3077 19.8076 29.2308 19.8076 29.1154V25.1539C19.8076 25.0385 19.8845 24.9615 19.9999 24.9615C20.1153 24.9615 20.1922 25.0385 20.1922 25.1539V29.1154C20.1922 29.2308 20.1153 29.3077 19.9999 29.3077Z" fill="#0B1F35"/>
</g>
</svg>
