<svg width="64" height="64" viewBox="0 0 64 64" fill="none" xmlns="http://www.w3.org/2000/svg">
    <path opacity="0.3" d="M21.24 2.93994H50C50.7957 2.93994 51.5587 3.25601 52.1213 3.81862C52.6839 4.38123 53 5.14429 53 5.93994V53.9399C53 54.7356 52.6839 55.4987 52.1213 56.0613C51.5587 56.6239 50.7957 56.9399 50 56.9399H12C11.2044 56.9399 10.4413 56.6239 9.87868 56.0613C9.31607 55.4987 9 54.7356 9 53.9399V15.1799C9.0007 14.3846 9.31723 13.622 9.88 13.0599L19.12 3.81994C19.6821 3.25717 20.4446 2.94064 21.24 2.93994Z" fill="#4480FF"/>
    <path d="M21 3V15H9L21 3Z" fill="#FF5C5C"/>
    <path d="M13 50C12.7348 50 12.4804 50.1054 12.2929 50.2929C12.1054 50.4804 12 50.7348 12 51V53C12 53.2652 12.1054 53.5196 12.2929 53.7071C12.4804 53.8946 12.7348 54 13 54C13.2652 54 13.5196 53.8946 13.7071 53.7071C13.8946 53.5196 14 53.2652 14 53V51C14 50.7348 13.8946 50.4804 13.7071 50.2929C13.5196 50.1054 13.2652 50 13 50ZM18 50C17.7348 50 17.4804 50.1054 17.2929 50.2929C17.1054 50.4804 17 50.7348 17 51V53C17 53.2652 17.1054 53.5196 17.2929 53.7071C17.4804 53.8946 17.7348 54 18 54C18.2652 54 18.5196 53.8946 18.7071 53.7071C18.8946 53.5196 19 53.2652 19 53V51C19 50.7348 18.8946 50.4804 18.7071 50.2929C18.5196 50.1054 18.2652 50 18 50ZM23 50C22.7348 50 22.4804 50.1054 22.2929 50.2929C22.1054 50.4804 22 50.7348 22 51V53C22 53.2652 22.1054 53.5196 22.2929 53.7071C22.4804 53.8946 22.7348 54 23 54C23.2652 54 23.5196 53.8946 23.7071 53.7071C23.8946 53.5196 24 53.2652 24 53V51C24 50.7348 23.8946 50.4804 23.7071 50.2929C23.5196 50.1054 23.2652 50 23 50ZM28 50C27.7348 50 27.4804 50.1054 27.2929 50.2929C27.1054 50.4804 27 50.7348 27 51V53C27 53.2652 27.1054 53.5196 27.2929 53.7071C27.4804 53.8946 27.7348 54 28 54C28.2652 54 28.5196 53.8946 28.7071 53.7071C28.8946 53.5196 29 53.2652 29 53V51C29 50.7348 28.8946 50.4804 28.7071 50.2929C28.5196 50.1054 28.2652 50 28 50ZM33 50C32.7348 50 32.4804 50.1054 32.2929 50.2929C32.1054 50.4804 32 50.7348 32 51V53C32 53.2652 32.1054 53.5196 32.2929 53.7071C32.4804 53.8946 32.7348 54 33 54C33.2652 54 33.5196 53.8946 33.7071 53.7071C33.8946 53.5196 34 53.2652 34 53V51C34 50.7348 33.8946 50.4804 33.7071 50.2929C33.5196 50.1054 33.2652 50 33 50ZM38 50C37.7348 50 37.4804 50.1054 37.2929 50.2929C37.1054 50.4804 37 50.7348 37 51V53C37 53.2652 37.1054 53.5196 37.2929 53.7071C37.4804 53.8946 37.7348 54 38 54C38.2652 54 38.5196 53.8946 38.7071 53.7071C38.8946 53.5196 39 53.2652 39 53V51C39 50.7348 38.8946 50.4804 38.7071 50.2929C38.5196 50.1054 38.2652 50 38 50ZM43 50C42.7348 50 42.4804 50.1054 42.2929 50.2929C42.1054 50.4804 42 50.7348 42 51V53C42 53.2652 42.1054 53.5196 42.2929 53.7071C42.4804 53.8946 42.7348 54 43 54C43.2652 54 43.5196 53.8946 43.7071 53.7071C43.8946 53.5196 44 53.2652 44 53V51C44 50.7348 43.8946 50.4804 43.7071 50.2929C43.5196 50.1054 43.2652 50 43 50ZM48 50C47.7348 50 47.4804 50.1054 47.2929 50.2929C47.1054 50.4804 47 50.7348 47 51V53C47 53.2652 47.1054 53.5196 47.2929 53.7071C47.4804 53.8946 47.7348 54 48 54C48.2652 54 48.5196 53.8946 48.7071 53.7071C48.8946 53.5196 49 53.2652 49 53V51C49 50.7348 48.8946 50.4804 48.7071 50.2929C48.5196 50.1054 48.2652 50 48 50Z" fill="#0B1F35"/>
    <path d="M53.9998 15.41V5C53.9998 4.20435 53.6838 3.44129 53.1212 2.87868C52.5585 2.31607 51.7955 2 50.9998 2H21.6198C20.3067 2.00818 19.0495 2.53261 18.1198 3.46L17.5798 4L9.45984 12.12C8.58162 12.9974 8.06121 14.1701 7.99984 15.41C7.99485 15.4933 7.99485 15.5767 7.99984 15.66V55C7.99984 55.7957 8.31591 56.5587 8.87851 57.1213C9.44112 57.6839 10.2042 58 10.9998 58H50.9998C51.7955 58 52.5585 57.6839 53.1212 57.1213C53.6838 56.5587 53.9998 55.7957 53.9998 55V15.66C54.0048 15.5767 54.0048 15.4933 53.9998 15.41ZM19.5398 4.87C19.679 4.73004 19.8333 4.60595 19.9998 4.5V13C19.9998 13.2652 19.8945 13.5196 19.7069 13.7071C19.5194 13.8946 19.2651 14 18.9998 14H10.4998C10.6097 13.8305 10.7371 13.673 10.8798 13.53L19.5398 4.87ZM51.9998 55C51.9998 55.2652 51.8945 55.5196 51.7069 55.7071C51.5194 55.8946 51.2651 56 50.9998 56H10.9998C10.7346 56 10.4803 55.8946 10.2927 55.7071C10.1052 55.5196 9.99984 55.2652 9.99984 55V16H18.9998C19.7955 16 20.5585 15.6839 21.1212 15.1213C21.6838 14.5587 21.9998 13.7956 21.9998 13V4H50.9998C51.2651 4 51.5194 4.10536 51.7069 4.29289C51.8945 4.48043 51.9998 4.73478 51.9998 5V16V55Z" fill="#0B1F35"/>
    <path d="M15 45.13L25 35.13L35.71 45.13H15Z" fill="#7BE0B9"/>
    <path d="M49 45.13H23.75L36.48 31.13L49 45.13Z" fill="#42CBAE"/>
    <path d="M49 44.13H26L36.47 32.62L43.25 40.2C43.3373 40.2985 43.4432 40.3788 43.5616 40.4364C43.6799 40.494 43.8085 40.5277 43.9399 40.5356C44.0713 40.5434 44.203 40.5254 44.3274 40.4824C44.4518 40.4394 44.5665 40.3723 44.665 40.285C44.7635 40.1977 44.8438 40.0918 44.9014 39.9734C44.959 39.855 44.9927 39.7265 45.0006 39.5951C45.0084 39.4637 44.9904 39.332 44.9474 39.2076C44.9044 39.0832 44.8373 38.9685 44.75 38.87L37.23 30.46C37.1343 30.3557 37.0186 30.2718 36.8897 30.2134C36.7608 30.155 36.6215 30.1232 36.48 30.12C36.3405 30.1203 36.2025 30.1499 36.0751 30.2067C35.9476 30.2635 35.8335 30.3464 35.74 30.45L29.07 37.79L25.71 34.42C25.617 34.3263 25.5064 34.2519 25.3846 34.2011C25.2627 34.1503 25.132 34.1242 25 34.1242C24.868 34.1242 24.7373 34.1503 24.6154 34.2011C24.4936 34.2519 24.383 34.3263 24.29 34.42L14.58 44.13H13C12.7348 44.13 12.4804 44.2354 12.2929 44.4229C12.1054 44.6104 12 44.8648 12 45.13C12 45.3952 12.1054 45.6496 12.2929 45.8371C12.4804 46.0246 12.7348 46.13 13 46.13H49C49.2652 46.13 49.5196 46.0246 49.7071 45.8371C49.8946 45.6496 50 45.3952 50 45.13C50 44.8648 49.8946 44.6104 49.7071 44.4229C49.5196 44.2354 49.2652 44.13 49 44.13ZM25 36.54L27.72 39.27L23.3 44.13H17.41L25 36.54Z" fill="#0B1F35"/>
    <path d="M23 27.13C25.2091 27.13 27 25.3391 27 23.13C27 20.9209 25.2091 19.13 23 19.13C20.7909 19.13 19 20.9209 19 23.13C19 25.3391 20.7909 27.13 23 27.13Z" fill="#FFBA6F"/>
    <path d="M23 21.13C23.3956 21.13 23.7822 21.2473 24.1111 21.4671C24.44 21.6868 24.6964 21.9992 24.8478 22.3646C24.9991 22.7301 25.0387 23.1322 24.9616 23.5202C24.8844 23.9081 24.6939 24.2645 24.4142 24.5442C24.1345 24.8239 23.7781 25.0144 23.3902 25.0916C23.0022 25.1687 22.6001 25.1291 22.2346 24.9778C21.8692 24.8264 21.5568 24.57 21.3371 24.2411C21.1173 23.9122 21 23.5256 21 23.13C21 22.5996 21.2107 22.0909 21.5858 21.7158C21.9609 21.3407 22.4696 21.13 23 21.13ZM23 19.13C22.2089 19.13 21.4355 19.3646 20.7777 19.8041C20.1199 20.2437 19.6072 20.8684 19.3045 21.5993C19.0017 22.3302 18.9225 23.1344 19.0769 23.9104C19.2312 24.6863 19.6122 25.399 20.1716 25.9584C20.731 26.5178 21.4437 26.8988 22.2196 27.0531C22.9956 27.2075 23.7998 27.1283 24.5307 26.8255C25.2616 26.5228 25.8864 26.0101 26.3259 25.3523C26.7654 24.6945 27 23.9211 27 23.13C27 22.0691 26.5786 21.0517 25.8284 20.3016C25.0783 19.5514 24.0609 19.13 23 19.13Z" fill="#0B1F35"/>
</svg>
