<svg width="64" height="64" viewBox="0 0 64 64" fill="none" xmlns="http://www.w3.org/2000/svg">
    <path d="M56.0001 10.79L53.2101 8.00001C51.3349 6.1253 48.7918 5.07214 46.1401 5.07214C43.4885 5.07214 40.9454 6.1253 39.0701 8.00001L32.0001 15C30.1254 16.8753 29.0723 19.4184 29.0723 22.07C29.0723 24.7216 30.1254 27.2647 32.0001 29.14L34.8301 32C35.7592 32.9328 36.8634 33.6729 38.0792 34.1779C39.295 34.6829 40.5986 34.9429 41.9151 34.9429C43.2317 34.9429 44.5352 34.6829 45.7511 34.1779C46.9669 33.6729 48.071 32.9328 49.0001 32L56.0001 24.93C57.8748 23.0547 58.928 20.5117 58.928 17.86C58.928 15.2084 57.8748 12.6653 56.0001 10.79ZM46.8501 25.64C45.7243 26.7659 44.1973 27.3983 42.6051 27.3983C41.0129 27.3983 39.486 26.7659 38.3601 25.64C37.2343 24.5142 36.6018 22.9872 36.6018 21.395C36.6018 19.8028 37.2343 18.2759 38.3601 17.15L41.9001 13.62C42.4494 13.0305 43.1118 12.5577 43.8478 12.2298C44.5838 11.9018 45.3783 11.7255 46.1839 11.7113C46.9896 11.6971 47.7898 11.8453 48.5369 12.147C49.284 12.4488 49.9627 12.898 50.5324 13.4677C51.1022 14.0375 51.5513 14.7161 51.8531 15.4632C52.1549 16.2103 52.3031 17.0106 52.2889 17.8162C52.2747 18.6218 52.0983 19.4163 51.7704 20.1523C51.4424 20.8883 50.9696 21.5507 50.3801 22.1L46.8501 25.64Z" fill="#FFBA6F"/>
    <path d="M54.6301 12.2C56.1293 13.7001 56.9714 15.7342 56.9714 17.855C56.9714 19.9758 56.1293 22.0099 54.6301 23.51L47.5601 30.59C46.8171 31.3338 45.9348 31.9239 44.9637 32.3265C43.9925 32.7291 42.9515 32.9363 41.9001 32.9363C40.8488 32.9363 39.8078 32.7291 38.8366 32.3265C37.8654 31.9239 36.9831 31.3338 36.2401 30.59L33.4101 27.76C32.6663 27.017 32.0762 26.1347 31.6737 25.1635C31.2711 24.1923 31.0638 23.1513 31.0638 22.1C31.0638 21.0487 31.2711 20.0077 31.6737 19.0365C32.0762 18.0653 32.6663 17.183 33.4101 16.44L40.4901 9.37001C41.9903 7.87085 44.0243 7.02872 46.1451 7.02872C48.266 7.02872 50.3 7.87085 51.8001 9.37001L54.6301 12.2ZM56.0001 10.79L53.2101 8.00001C51.3349 6.1253 48.7918 5.07214 46.1401 5.07214C43.4885 5.07214 40.9454 6.1253 39.0701 8.00001L32.0001 15C30.1254 16.8753 29.0723 19.4184 29.0723 22.07C29.0723 24.7216 30.1254 27.2647 32.0001 29.14L34.8301 32C35.7592 32.9328 36.8634 33.6729 38.0792 34.1779C39.295 34.6829 40.5986 34.9429 41.9151 34.9429C43.2317 34.9429 44.5352 34.6829 45.7511 34.1779C46.9669 33.6729 48.071 32.9328 49.0001 32L56.0001 24.93C57.8748 23.0547 58.928 20.5117 58.928 17.86C58.928 15.2084 57.8748 12.6653 56.0001 10.79Z" fill="#0B1F35"/>
    <path d="M48.9992 15C49.3711 15.3715 49.6661 15.8127 49.8674 16.2983C50.0687 16.7839 50.1723 17.3044 50.1723 17.83C50.1723 18.3557 50.0687 18.8762 49.8674 19.3618C49.6661 19.8474 49.3711 20.2886 48.9992 20.66L45.4692 24.19C45.0976 24.5617 44.6564 24.8565 44.1708 25.0576C43.6852 25.2588 43.1648 25.3623 42.6392 25.3623C42.1136 25.3623 41.5932 25.2588 41.1076 25.0576C40.622 24.8565 40.1808 24.5617 39.8092 24.19C39.4376 23.8184 39.1428 23.3772 38.9416 22.8916C38.7405 22.4061 38.637 21.8856 38.637 21.36C38.637 20.8345 38.7405 20.314 38.9416 19.8285C39.1428 19.3429 39.4376 18.9017 39.8092 18.53L43.3092 15C43.6812 14.6236 44.1242 14.3248 44.6126 14.1208C45.101 13.9168 45.625 13.8118 46.1542 13.8118C46.6834 13.8118 47.2074 13.9168 47.6958 14.1208C48.1841 14.3248 48.6272 14.6236 48.9992 15ZM50.4092 13.59C49.2842 12.4664 47.7592 11.8353 46.1692 11.8353C44.5792 11.8353 43.0542 12.4664 41.9292 13.59L38.3892 17.12C37.8317 17.6775 37.3895 18.3393 37.0878 19.0677C36.7861 19.796 36.6309 20.5767 36.6309 21.365C36.6309 22.9572 37.2634 24.4842 38.3892 25.61C39.515 26.7359 41.042 27.3684 42.6342 27.3684C44.2264 27.3684 45.7534 26.7359 46.8792 25.61L50.4092 22.07C51.5328 20.945 52.1639 19.4201 52.1639 17.83C52.1639 16.24 51.5328 14.7151 50.4092 13.59Z" fill="#0B1F35"/>
    <path d="M32.0001 34.83L29.1701 32C28.241 31.0673 27.1369 30.3271 25.9211 29.8221C24.7052 29.3171 23.4017 29.0571 22.0851 29.0571C20.7686 29.0571 19.465 29.3171 18.2492 29.8221C17.0334 30.3271 15.9292 31.0673 15.0001 32L8.00013 39.07C6.12542 40.9453 5.07227 43.4884 5.07227 46.14C5.07227 48.7917 6.12542 51.3347 8.00013 53.21L10.7901 56C12.6654 57.8747 15.2085 58.9279 17.8601 58.9279C20.5118 58.9279 23.0549 57.8747 24.9301 56L32.0001 49C32.9329 48.0709 33.673 46.9668 34.178 45.751C34.6831 44.5351 34.943 43.2316 34.943 41.915C34.943 40.5985 34.6831 39.2949 34.178 38.0791C33.673 36.8633 32.9329 35.7591 32.0001 34.83ZM22.8101 49.68C22.2527 50.2375 21.5909 50.6797 20.8625 50.9814C20.1341 51.2831 19.3535 51.4384 18.5651 51.4384C17.7768 51.4384 16.9961 51.2831 16.2678 50.9814C15.5394 50.6797 14.8776 50.2375 14.3201 49.68C13.7627 49.1226 13.3205 48.4608 13.0188 47.7324C12.7171 47.004 12.5618 46.2234 12.5618 45.435C12.5618 44.6467 12.7171 43.866 13.0188 43.1376C13.3205 42.4093 13.7627 41.7475 14.3201 41.19L17.8601 37.66C18.4094 37.0705 19.0718 36.5977 19.8078 36.2698C20.5438 35.9418 21.3383 35.7655 22.1439 35.7513C22.9496 35.7371 23.7498 35.8853 24.4969 36.187C25.244 36.4888 25.9227 36.938 26.4924 37.5077C27.0622 38.0775 27.5113 38.7561 27.8131 39.5032C28.1149 40.2503 28.2631 41.0506 28.2489 41.8562C28.2346 42.6618 28.0583 43.4563 27.7304 44.1923C27.4024 44.9283 26.9296 45.5907 26.3401 46.14L22.8101 49.68Z" fill="#FFBA6F"/>
    <path d="M30.5901 36.24C31.3339 36.983 31.924 37.8653 32.3266 38.8365C32.7292 39.8077 32.9364 40.8487 32.9364 41.9C32.9364 42.9513 32.7292 43.9924 32.3266 44.9635C31.924 45.9347 31.3339 46.817 30.5901 47.56L23.5101 54.63C22.01 56.1292 19.976 56.9713 17.8551 56.9713C15.7343 56.9713 13.7003 56.1292 12.2001 54.63L9.37013 51.8C7.87097 50.2999 7.02884 48.2658 7.02884 46.145C7.02884 44.0242 7.87097 41.9902 9.37013 40.49L16.4401 33.41C17.1831 32.6662 18.0654 32.0761 19.0366 31.6735C20.0078 31.2709 21.0488 31.0637 22.1001 31.0637C23.1515 31.0637 24.1925 31.2709 25.1637 31.6735C26.1348 32.0761 27.0171 32.6662 27.7601 33.41L30.5901 36.24ZM32.0001 34.83L29.1701 32C28.241 31.0673 27.1369 30.3271 25.9211 29.8221C24.7052 29.3171 23.4017 29.0571 22.0851 29.0571C20.7686 29.0571 19.465 29.3171 18.2492 29.8221C17.0334 30.3271 15.9292 31.0673 15.0001 32L8.00013 39.07C6.12542 40.9453 5.07227 43.4884 5.07227 46.14C5.07227 48.7917 6.12542 51.3347 8.00013 53.21L10.7901 56C12.6654 57.8747 15.2085 58.9279 17.8601 58.9279C20.5118 58.9279 23.0549 57.8747 24.9301 56L32.0001 49C33.8748 47.1247 34.928 44.5817 34.928 41.93C34.928 39.2784 33.8748 36.7353 32.0001 34.86V34.83Z" fill="#0B1F35"/>
    <path d="M24.9308 39.07C25.3027 39.4415 25.5978 39.8826 25.7991 40.3682C26.0004 40.8538 26.104 41.3743 26.104 41.9C26.104 42.4257 26.0004 42.9462 25.7991 43.4318C25.5978 43.9173 25.3027 44.3585 24.9308 44.73L21.3908 48.26C21.027 48.6615 20.5854 48.985 20.0928 49.2107C19.6001 49.4364 19.0668 49.5596 18.5251 49.573C17.9834 49.5863 17.4446 49.4894 16.9415 49.2883C16.4384 49.0871 15.9814 48.7858 15.5982 48.4026C15.2151 48.0195 14.9137 47.5625 14.7126 47.0593C14.5114 46.5562 14.4145 46.0174 14.4279 45.4757C14.4412 44.934 14.5645 44.4007 14.7902 43.9081C15.0159 43.4155 15.3393 42.9738 15.7408 42.61L19.2708 39.07C19.6423 38.6981 20.0835 38.403 20.5691 38.2018C21.0547 38.0005 21.5752 37.8968 22.1008 37.8968C22.6265 37.8968 23.147 38.0005 23.6326 38.2018C24.1182 38.403 24.5593 38.6981 24.9308 39.07ZM26.3408 37.66C25.2158 36.5364 23.6908 35.9053 22.1008 35.9053C20.5108 35.9053 18.9858 36.5364 17.8608 37.66L14.3208 41.19C13.7634 41.7475 13.3212 42.4093 13.0195 43.1376C12.7178 43.866 12.5625 44.6466 12.5625 45.435C12.5625 46.2234 12.7178 47.004 13.0195 47.7324C13.3212 48.4607 13.7634 49.1225 14.3208 49.68C14.8783 50.2375 15.5401 50.6797 16.2685 50.9814C16.9968 51.283 17.7775 51.4383 18.5658 51.4383C19.3542 51.4383 20.1349 51.283 20.8632 50.9814C21.5916 50.6797 22.2534 50.2375 22.8108 49.68L26.3408 46.14C27.4644 45.015 28.0956 43.49 28.0956 41.9C28.0956 40.31 27.4644 38.785 26.3408 37.66Z" fill="#0B1F35"/>
    <path d="M36.9551 21.3934L21.3987 36.9498C19.8366 38.5119 19.8366 41.0445 21.3987 42.6066C22.9608 44.1687 25.4935 44.1687 27.0556 42.6066L42.6119 27.0503C44.174 25.4882 44.174 22.9555 42.6119 21.3934C41.0498 19.8313 38.5172 19.8313 36.9551 21.3934Z" fill="#FFBA6F"/>
    <path d="M41.191 22.8099C41.3769 22.9957 41.5244 23.2163 41.6251 23.4591C41.7257 23.7019 41.7775 23.9621 41.7775 24.2249C41.7775 24.4878 41.7257 24.748 41.6251 24.9908C41.5244 25.2336 41.3769 25.4542 41.191 25.6399L25.641 41.1899C25.2657 41.5652 24.7567 41.7761 24.226 41.7761C23.6952 41.7761 23.1863 41.5652 22.811 41.1899C22.4357 40.8147 22.2249 40.3057 22.2249 39.7749C22.2249 39.2442 22.4357 38.7352 22.811 38.3599L38.361 22.8099C38.5467 22.624 38.7673 22.4765 39.0101 22.3758C39.2529 22.2752 39.5131 22.2234 39.776 22.2234C40.0388 22.2234 40.2991 22.2752 40.5419 22.3758C40.7847 22.4765 41.0052 22.624 41.191 22.8099ZM42.611 21.3899C42.2395 21.018 41.7983 20.723 41.3127 20.5217C40.8271 20.3204 40.3066 20.2168 39.781 20.2168C39.2553 20.2168 38.7348 20.3204 38.2492 20.5217C37.7636 20.723 37.3225 21.018 36.951 21.3899L21.391 36.9999C21.0193 37.3716 20.7245 37.8128 20.5234 38.2984C20.3223 38.7839 20.2188 39.3044 20.2188 39.8299C20.2187 40.3555 20.3223 40.876 20.5234 41.3615C20.7245 41.8471 21.0193 42.2883 21.391 42.6599C21.7626 43.0316 22.2038 43.3264 22.6894 43.5275C23.175 43.7286 23.6954 43.8322 24.221 43.8322C24.7466 43.8322 25.267 43.7286 25.7526 43.5275C26.2381 43.3264 26.6793 43.0316 27.051 42.6599L42.611 27.0499C42.9829 26.6784 43.2779 26.2373 43.4792 25.7517C43.6805 25.2661 43.7841 24.7456 43.7841 24.2199C43.7841 23.6943 43.6805 23.1738 43.4792 22.6882C43.2779 22.2026 42.9829 21.7614 42.611 21.3899Z" fill="#0B1F35"/>
    <path d="M19.9999 20C20.0936 19.907 20.168 19.7964 20.2187 19.6746C20.2695 19.5527 20.2957 19.422 20.2957 19.29C20.2957 19.158 20.2695 19.0273 20.2187 18.9054C20.168 18.7835 20.0936 18.6729 19.9999 18.58L18.5799 17.17C18.4902 17.0653 18.3799 16.9803 18.2558 16.9203C18.1318 16.8602 17.9966 16.8265 17.8589 16.8212C17.7212 16.8159 17.5839 16.8391 17.4555 16.8893C17.3272 16.9396 17.2107 17.0159 17.1132 17.1133C17.0158 17.2108 16.9395 17.3273 16.8892 17.4557C16.8389 17.584 16.8157 17.7213 16.8211 17.859C16.8264 17.9968 16.8601 18.1319 16.9201 18.2559C16.9802 18.38 17.0652 18.4903 17.1699 18.58L18.5599 20C18.6531 20.0968 18.765 20.1737 18.8887 20.2263C19.0124 20.2789 19.1454 20.306 19.2799 20.306C19.4143 20.306 19.5473 20.2789 19.671 20.2263C19.7947 20.1737 19.9066 20.0968 19.9999 20Z" fill="#0B1F35"/>
    <path d="M15.6095 27.9301C15.6317 27.6663 15.5483 27.4044 15.3778 27.202C15.2072 26.9995 14.9633 26.873 14.6995 26.8501L12.6995 26.6701C12.4343 26.6462 12.1705 26.7287 11.966 26.8993C11.7616 27.07 11.6334 27.3148 11.6095 27.5801C11.5856 27.8453 11.6681 28.1091 11.8388 28.3135C12.0094 28.5179 12.2543 28.6462 12.5195 28.6701L14.5195 28.8401C14.6509 28.8524 14.7835 28.8386 14.9096 28.7995C15.0357 28.7604 15.1527 28.6967 15.2541 28.6121C15.3554 28.5275 15.439 28.4237 15.5 28.3066C15.561 28.1896 15.5982 28.0616 15.6095 27.9301Z" fill="#0B1F35"/>
    <path d="M17.5509 23.65C17.6636 23.41 17.6763 23.1351 17.5863 22.8857C17.4963 22.6362 17.3109 22.4328 17.0709 22.32L15.2509 21.48C15.1308 21.4141 14.9984 21.3735 14.862 21.3608C14.7255 21.3482 14.588 21.3637 14.4578 21.4064C14.3276 21.4491 14.2076 21.5181 14.1051 21.6092C14.0027 21.7002 13.9201 21.8113 13.8625 21.9356C13.8048 22.0599 13.7733 22.1947 13.7698 22.3317C13.7664 22.4687 13.7912 22.6049 13.8426 22.7319C13.8941 22.8589 13.971 22.974 14.0688 23.07C14.1665 23.166 14.283 23.2409 14.4109 23.29L16.2209 24.14C16.3403 24.1955 16.4696 24.2268 16.6012 24.2322C16.7328 24.2376 16.8641 24.2169 16.9877 24.1714C17.1113 24.1258 17.2246 24.0563 17.3213 23.9669C17.4179 23.8774 17.496 23.7697 17.5509 23.65Z" fill="#0B1F35"/>
    <path d="M28.8401 14.52L28.6701 12.52C28.6582 12.3887 28.6207 12.261 28.5595 12.1442C28.4983 12.0274 28.4147 11.9238 28.3135 11.8393C28.2123 11.7548 28.0954 11.691 27.9696 11.6517C27.8437 11.6123 27.7114 11.5982 27.5801 11.61C27.3148 11.6339 27.07 11.7621 26.8993 11.9665C26.7287 12.1709 26.6462 12.4348 26.6701 12.7L26.8501 14.7C26.8739 14.9652 27.0022 15.2101 27.2066 15.3807C27.3078 15.4652 27.4247 15.529 27.5505 15.5683C27.6764 15.6077 27.8087 15.6218 27.9401 15.61C28.0714 15.5982 28.1991 15.5606 28.3159 15.4994C28.4327 15.4383 28.5363 15.3547 28.6208 15.2535C28.7053 15.1523 28.769 15.0354 28.8084 14.9095C28.8477 14.7837 28.8619 14.6513 28.8501 14.52H28.8401Z" fill="#0B1F35"/>
    <path d="M24.1409 16.22L23.2909 14.41C23.2418 14.2821 23.1669 14.1657 23.0708 14.0679C22.9748 13.9702 22.8597 13.8932 22.7327 13.8418C22.6057 13.7904 22.4695 13.7656 22.3325 13.769C22.1956 13.7724 22.0607 13.8039 21.9365 13.8616C21.8122 13.9193 21.7011 14.0019 21.61 14.1043C21.519 14.2067 21.45 14.3267 21.4073 14.4569C21.3645 14.5871 21.349 14.7247 21.3617 14.8611C21.3744 14.9976 21.4149 15.1299 21.4809 15.25L22.3209 17.07C22.4336 17.3114 22.6376 17.4981 22.8879 17.589C23.1383 17.68 23.4145 17.6677 23.6559 17.555C23.8972 17.4423 24.0839 17.2383 24.1749 16.988C24.2658 16.7376 24.2536 16.4614 24.1409 16.22Z" fill="#0B1F35"/>
    <path d="M43.9994 45.44L45.4194 46.85C45.6107 47.0138 45.8568 47.0994 46.1085 47.0897C46.3601 47.08 46.5989 46.9757 46.777 46.7976C46.9551 46.6195 47.0594 46.3807 47.0691 46.1291C47.0788 45.8774 46.9932 45.6313 46.8294 45.44L45.4394 44C45.2484 43.8091 44.9895 43.7018 44.7194 43.7018C44.4494 43.7018 44.1904 43.8091 43.9994 44C43.8084 44.191 43.7012 44.45 43.7012 44.72C43.7012 44.9901 43.8084 45.2491 43.9994 45.44Z" fill="#0B1F35"/>
    <path d="M35.1605 49.48L35.3305 51.48C35.3544 51.7452 35.4826 51.9901 35.6871 52.1608C35.8915 52.3314 36.1553 52.4139 36.4205 52.39C36.6857 52.3662 36.9306 52.2379 37.1013 52.0335C37.2719 51.8291 37.3544 51.5652 37.3305 51.3L37.1505 49.3C37.1387 49.1687 37.1011 49.041 37.04 48.9242C36.9788 48.8074 36.8952 48.7038 36.794 48.6193C36.6928 48.5348 36.5759 48.471 36.4501 48.4317C36.3242 48.3924 36.1918 48.3782 36.0605 48.39C35.9292 48.4018 35.8015 48.4394 35.6847 48.5006C35.5679 48.5618 35.4643 48.6453 35.3798 48.7466C35.2953 48.8478 35.2315 48.9646 35.1922 49.0905C35.1529 49.2163 35.1387 49.3487 35.1505 49.48H35.1605Z" fill="#0B1F35"/>
    <path d="M39.86 47.7799L40.71 49.5899C40.7591 49.7178 40.834 49.8343 40.93 49.932C41.0261 50.0298 41.1411 50.1068 41.2681 50.1582C41.3951 50.2096 41.5314 50.2344 41.6683 50.231C41.8053 50.2276 41.9401 50.1961 42.0644 50.1384C42.1887 50.0807 42.2998 49.9981 42.3908 49.8957C42.4819 49.7933 42.5509 49.6732 42.5936 49.5431C42.6363 49.4129 42.6518 49.2753 42.6392 49.1388C42.6265 49.0024 42.5859 48.87 42.52 48.7499L41.68 46.9299C41.5673 46.6886 41.3633 46.5019 41.1129 46.411C40.8626 46.32 40.5863 46.3322 40.345 46.4449C40.1036 46.5577 39.9169 46.7616 39.826 47.012C39.735 47.2624 39.7473 47.5386 39.86 47.7799Z" fill="#0B1F35"/>
    <path d="M48.3902 36.07C48.3681 36.3338 48.4514 36.5957 48.622 36.7981C48.7926 37.0006 49.0365 37.1271 49.3002 37.15L51.3002 37.33C51.5655 37.3539 51.8293 37.2714 52.0337 37.1008C52.2381 36.9301 52.3664 36.6853 52.3902 36.42C52.4141 36.1548 52.3316 35.891 52.161 35.6866C51.9903 35.4822 51.7455 35.3539 51.4802 35.33L49.4802 35.16C49.3488 35.1477 49.2162 35.1614 49.0902 35.2006C48.9641 35.2397 48.847 35.3034 48.7457 35.388C48.6444 35.4726 48.5608 35.5764 48.4998 35.6935C48.4388 35.8105 48.4015 35.9385 48.3902 36.07Z" fill="#0B1F35"/>
    <path d="M46.4502 40.35C46.3376 40.59 46.3248 40.8649 46.4149 41.1143C46.5049 41.3637 46.6902 41.5672 46.9302 41.68L48.7502 42.52C48.8703 42.5859 49.0027 42.6265 49.1391 42.6391C49.2756 42.6518 49.4132 42.6363 49.5433 42.5936C49.6735 42.5509 49.7936 42.4819 49.896 42.3908C49.9984 42.2998 50.081 42.1887 50.1387 42.0644C50.1963 41.9401 50.2279 41.8053 50.2313 41.6683C50.2347 41.5313 50.2099 41.3951 50.1585 41.2681C50.1071 41.1411 50.0301 41.026 49.9323 40.93C49.8346 40.834 49.7181 40.7591 49.5902 40.71L47.7802 39.86C47.6608 39.8045 47.5316 39.7732 47.4 39.7678C47.2684 39.7624 47.137 39.7831 47.0134 39.8286C46.8899 39.8742 46.7765 39.9436 46.6798 40.0331C46.5832 40.1226 46.5052 40.2302 46.4502 40.35Z" fill="#0B1F35"/>
</svg>
