<svg width="64" height="64" viewBox="0 0 64 64" fill="none" xmlns="http://www.w3.org/2000/svg">
    <path d="M21.24 2.93994H50C50.7957 2.93994 51.5587 3.25601 52.1213 3.81862C52.6839 4.38123 53 5.14429 53 5.93994V53.9399C53 54.7356 52.6839 55.4987 52.1213 56.0613C51.5587 56.6239 50.7957 56.9399 50 56.9399H12C11.2044 56.9399 10.4413 56.6239 9.87868 56.0613C9.31607 55.4987 9 54.7356 9 53.9399V15.1799C9.0007 14.3846 9.31723 13.622 9.88 13.0599L19.12 3.81994C19.6821 3.25717 20.4446 2.94064 21.24 2.93994Z" fill="#F1F2F3"/>
    <path d="M21 3V15H9L21 3Z" fill="#FF5C5C"/>
    <path d="M41 22H37C36.7348 22 36.4804 22.1054 36.2929 22.2929C36.1054 22.4804 36 22.7348 36 23C36 23.2652 36.1054 23.5196 36.2929 23.7071C36.4804 23.8946 36.7348 24 37 24H41C41.2652 24 41.5196 23.8946 41.7071 23.7071C41.8946 23.5196 42 23.2652 42 23C42 22.7348 41.8946 22.4804 41.7071 22.2929C41.5196 22.1054 41.2652 22 41 22ZM17 24H33C33.2652 24 33.5196 23.8946 33.7071 23.7071C33.8946 23.5196 34 23.2652 34 23C34 22.7348 33.8946 22.4804 33.7071 22.2929C33.5196 22.1054 33.2652 22 33 22H17C16.7348 22 16.4804 22.1054 16.2929 22.2929C16.1054 22.4804 16 22.7348 16 23C16 23.2652 16.1054 23.5196 16.2929 23.7071C16.4804 23.8946 16.7348 24 17 24ZM17 28H37C37.2652 28 37.5196 27.8946 37.7071 27.7071C37.8946 27.5196 38 27.2652 38 27C38 26.7348 37.8946 26.4804 37.7071 26.2929C37.5196 26.1054 37.2652 26 37 26H17C16.7348 26 16.4804 26.1054 16.2929 26.2929C16.1054 26.4804 16 26.7348 16 27C16 27.2652 16.1054 27.5196 16.2929 27.7071C16.4804 27.8946 16.7348 28 17 28ZM34 36H17C16.7348 36 16.4804 36.1054 16.2929 36.2929C16.1054 36.4804 16 36.7348 16 37C16 37.2652 16.1054 37.5196 16.2929 37.7071C16.4804 37.8946 16.7348 38 17 38H34C34.2652 38 34.5196 37.8946 34.7071 37.7071C34.8946 37.5196 35 37.2652 35 37C35 36.7348 34.8946 36.4804 34.7071 36.2929C34.5196 36.1054 34.2652 36 34 36ZM39 32H17C16.7348 32 16.4804 32.1054 16.2929 32.2929C16.1054 32.4804 16 32.7348 16 33C16 33.2652 16.1054 33.5196 16.2929 33.7071C16.4804 33.8946 16.7348 34 17 34H39C39.2652 34 39.5196 33.8946 39.7071 33.7071C39.8946 33.5196 40 33.2652 40 33C40 32.7348 39.8946 32.4804 39.7071 32.2929C39.5196 32.1054 39.2652 32 39 32Z" fill="#0B1F35"/>
    <path d="M13 50C12.7348 50 12.4804 50.1054 12.2929 50.2929C12.1054 50.4804 12 50.7348 12 51V53C12 53.2652 12.1054 53.5196 12.2929 53.7071C12.4804 53.8946 12.7348 54 13 54C13.2652 54 13.5196 53.8946 13.7071 53.7071C13.8946 53.5196 14 53.2652 14 53V51C14 50.7348 13.8946 50.4804 13.7071 50.2929C13.5196 50.1054 13.2652 50 13 50ZM18 50C17.7348 50 17.4804 50.1054 17.2929 50.2929C17.1054 50.4804 17 50.7348 17 51V53C17 53.2652 17.1054 53.5196 17.2929 53.7071C17.4804 53.8946 17.7348 54 18 54C18.2652 54 18.5196 53.8946 18.7071 53.7071C18.8946 53.5196 19 53.2652 19 53V51C19 50.7348 18.8946 50.4804 18.7071 50.2929C18.5196 50.1054 18.2652 50 18 50ZM23 50C22.7348 50 22.4804 50.1054 22.2929 50.2929C22.1054 50.4804 22 50.7348 22 51V53C22 53.2652 22.1054 53.5196 22.2929 53.7071C22.4804 53.8946 22.7348 54 23 54C23.2652 54 23.5196 53.8946 23.7071 53.7071C23.8946 53.5196 24 53.2652 24 53V51C24 50.7348 23.8946 50.4804 23.7071 50.2929C23.5196 50.1054 23.2652 50 23 50ZM28 50C27.7348 50 27.4804 50.1054 27.2929 50.2929C27.1054 50.4804 27 50.7348 27 51V53C27 53.2652 27.1054 53.5196 27.2929 53.7071C27.4804 53.8946 27.7348 54 28 54C28.2652 54 28.5196 53.8946 28.7071 53.7071C28.8946 53.5196 29 53.2652 29 53V51C29 50.7348 28.8946 50.4804 28.7071 50.2929C28.5196 50.1054 28.2652 50 28 50ZM33 50C32.7348 50 32.4804 50.1054 32.2929 50.2929C32.1054 50.4804 32 50.7348 32 51V53C32 53.2652 32.1054 53.5196 32.2929 53.7071C32.4804 53.8946 32.7348 54 33 54C33.2652 54 33.5196 53.8946 33.7071 53.7071C33.8946 53.5196 34 53.2652 34 53V51C34 50.7348 33.8946 50.4804 33.7071 50.2929C33.5196 50.1054 33.2652 50 33 50ZM38 50C37.7348 50 37.4804 50.1054 37.2929 50.2929C37.1054 50.4804 37 50.7348 37 51V53C37 53.2652 37.1054 53.5196 37.2929 53.7071C37.4804 53.8946 37.7348 54 38 54C38.2652 54 38.5196 53.8946 38.7071 53.7071C38.8946 53.5196 39 53.2652 39 53V51C39 50.7348 38.8946 50.4804 38.7071 50.2929C38.5196 50.1054 38.2652 50 38 50ZM43 50C42.7348 50 42.4804 50.1054 42.2929 50.2929C42.1054 50.4804 42 50.7348 42 51V53C42 53.2652 42.1054 53.5196 42.2929 53.7071C42.4804 53.8946 42.7348 54 43 54C43.2652 54 43.5196 53.8946 43.7071 53.7071C43.8946 53.5196 44 53.2652 44 53V51C44 50.7348 43.8946 50.4804 43.7071 50.2929C43.5196 50.1054 43.2652 50 43 50ZM48 50C47.7348 50 47.4804 50.1054 47.2929 50.2929C47.1054 50.4804 47 50.7348 47 51V53C47 53.2652 47.1054 53.5196 47.2929 53.7071C47.4804 53.8946 47.7348 54 48 54C48.2652 54 48.5196 53.8946 48.7071 53.7071C48.8946 53.5196 49 53.2652 49 53V51C49 50.7348 48.8946 50.4804 48.7071 50.2929C48.5196 50.1054 48.2652 50 48 50Z" fill="#0B1F35"/>
    <path d="M53.9998 15.41V5C53.9998 4.20435 53.6838 3.44129 53.1212 2.87868C52.5585 2.31607 51.7955 2 50.9998 2H21.6198C20.3067 2.00818 19.0495 2.53261 18.1198 3.46L17.5798 4L9.45984 12.12C8.58162 12.9974 8.06121 14.1701 7.99984 15.41C7.99485 15.4933 7.99485 15.5767 7.99984 15.66V55C7.99984 55.7957 8.31591 56.5587 8.87851 57.1213C9.44112 57.6839 10.2042 58 10.9998 58H50.9998C51.7955 58 52.5585 57.6839 53.1212 57.1213C53.6838 56.5587 53.9998 55.7957 53.9998 55V15.66C54.0048 15.5767 54.0048 15.4933 53.9998 15.41ZM19.5398 4.87C19.679 4.73004 19.8333 4.60595 19.9998 4.5V13C19.9998 13.2652 19.8945 13.5196 19.7069 13.7071C19.5194 13.8946 19.2651 14 18.9998 14H10.4998C10.6097 13.8305 10.7371 13.673 10.8798 13.53L19.5398 4.87ZM51.9998 55C51.9998 55.2652 51.8945 55.5196 51.7069 55.7071C51.5194 55.8946 51.2651 56 50.9998 56H10.9998C10.7346 56 10.4803 55.8946 10.2927 55.7071C10.1052 55.5196 9.99984 55.2652 9.99984 55V16H18.9998C19.7955 16 20.5585 15.6839 21.1212 15.1213C21.6838 14.5587 21.9998 13.7956 21.9998 13V4H50.9998C51.2651 4 51.5194 4.10536 51.7069 4.29289C51.8945 4.48043 51.9998 4.73478 51.9998 5V16V55Z" fill="#0B1F35"/>
</svg>
