<svg width="512" height="488" viewBox="0 0 512 488" fill="none" xmlns="http://www.w3.org/2000/svg">
<path d="M370.3 323.2C370.3 323.2 376.4 326.5 377.8 332.5C379.2 338.5 374.5 363.5 374.5 363.5C374.5 363.5 384.2 372.3 397.5 372C410.8 371.7 413.8 363.5 413.8 363.5C413.8 363.5 407 325 413.8 316.5L370.3 323.2Z" fill="#FFA3A2"/>
<path d="M378 333.5C379.1 333.6 380.1 333.7 381 333.8C385.4 340.9 392 348.6 400.2 359.8C400.6 359.7 401.1 359.6 401.5 359.5C401.8 359.4 402.2 359.3 402.5 359.3C402.1 358.6 401.7 357.9 401.3 357.4C401.1 357.2 401 357 400.8 356.8C400.4 356.2 399.9 355.6 399.5 355C399.3 354.7 399.1 354.4 398.8 354.1C398.3 353.4 397.7 352.6 397.2 351.9C397 351.7 396.9 351.5 396.7 351.2C396.2 350.5 395.6 349.8 395.1 349.1L395 349C392.2 345.3 389.6 342.1 387.3 339C387.2 338.8 387.1 338.7 387 338.5C386.6 337.9 386.1 337.3 385.7 336.8C385.5 336.5 385.3 336.3 385.1 336C384.9 335.7 384.7 335.4 384.5 335.1C384.2 334.7 383.9 334.3 383.6 333.8C382.6 332.4 381.7 331.1 380.9 329.7C379.5 329.6 378 329.5 376.5 329.3C377 330.2 377.5 331.3 377.8 332.4C377.9 332.7 377.9 333.1 378 333.5Z" fill="#FF8988"/>
<path d="M393.1 242.5C387.8 242.8 381.3 242.6 376.7 245.4C373.4 247.4 368.7 254.2 367.3 257.8C365.8 261.6 364.7 267.6 363.2 271.4C361.6 275.3 358.7 278.7 356.7 282.2C352.7 289.3 353.3 294.2 353.9 301.7C354.4 307.9 354.5 312.5 353.8 315.9C353 320.4 355.5 324.8 359.9 326C363.2 326.9 376.4 329.8 383.1 329.8C396.7 329.8 421.5 327.8 430.4 302C439.2 276.2 424.9 241 393.1 242.5Z" fill="#FFA3A2"/>
<path d="M379.3 277.7C374.2 271.8 371.7 259.9 372.1 251C372.5 259.2 374.9 268.6 379.3 273.7C380.2 274.7 380.2 276.4 379.8 278.7C379.8 278.3 379.6 278 379.3 277.7Z" fill="#FF8988"/>
<path d="M244.5 230.1L272.8 317.1C275.8 326.6 286.2 331.7 295.5 328.1C305.3 324.4 309.6 312.8 304.6 303.6L262.5 221.8L244.5 230.1Z" fill="#FF9D9B"/>
<path d="M310.1 364.6L276 325.5C269.6 318.1 270.2 306.9 277.5 300.3C284.8 293.7 296.1 294.2 302.8 301.4L336.9 338.1L310.1 364.6Z" fill="#FF9D9B"/>
<path d="M280.4 327.1C279.9 326.9 279.4 326.7 278.9 326.4C276.9 325.2 273.1 322 272.8 318.1C272.8 317.9 272.9 317.7 273.2 317.7C273.4 317.7 273.6 317.8 273.6 318.1C273.8 321.7 277.4 324.7 279.3 325.8C279.8 326.1 280.2 326.3 280.6 326.5L280.5 326.9L280.4 327.1Z" fill="#FF736F"/>
<path d="M234.5 212.2C235.1 214.2 234.5 213.6 235.9 217.6C236.7 219.8 239.9 223 241 224.7C242.9 227.8 244.5 230 244.5 230L262.6 221.7L264 217.7L261.3 210.6C261.1 210.3 260.4 209.2 259.5 208C258.7 206.9 257.9 205.8 257.3 205C256.9 204.4 256.5 204 256.4 203.8C256.3 203.6 256.2 203.5 256 203.3C253.1 199.3 250.1 197.9 250.1 197.9C249.9 197.9 249.7 197.9 249.5 198H249.4C248.5 198.2 247.8 198.7 247 199.4C246.1 200.1 245.3 200.9 244.1 201.5C243.9 201.6 243.7 201.7 243.5 201.8C243.5 201.8 243.5 201.8 243.4 201.8C242.6 202.2 241.8 202.7 241 203.1C239.7 203.8 238.5 204.6 237.5 205.4C235.2 207.5 233.7 209.7 234.5 212.2Z" fill="#FF9D9B"/>
<path d="M243.2 200.6L246.3 209.5C246.4 209.7 246.5 209.9 246.6 210.1C246.6 210.2 246.7 210.2 246.7 210.3C247.6 211.6 249.2 212.2 250.8 211.7C251.7 211.4 252.4 210.7 252.8 209.9C253.1 209.3 253.2 208.6 253.1 207.9C253.1 207.7 253 207.4 252.9 207.2L249.8 198.3C249.7 197.9 249.5 197.6 249.3 197.3L249.2 197.2C249.2 197.1 249.1 197.1 249 197C248.1 196 246.7 195.6 245.3 196.1C244.6 196.3 244.1 196.7 243.7 197.3C243.5 197.5 243.4 197.7 243.3 197.9C242.9 198.7 242.8 199.7 243.2 200.6Z" fill="#FF9D9B"/>
<path d="M237.1 204.2L240.4 213.7C241 215.5 243 216.5 244.9 215.9C245.8 215.6 246.5 215 246.9 214.2V214.1C247.2 213.4 247.3 212.6 247.2 211.8C247.2 211.7 247.1 211.6 247.1 211.5L243.8 202C243.7 201.7 243.6 201.5 243.4 201.2C243.4 201.1 243.3 201.1 243.3 201.1C243.3 201 243.2 201 243.1 200.9C242.2 199.8 240.7 199.4 239.3 199.9C238.7 200.1 238.3 200.4 237.9 200.8C237.7 201.1 237.5 201.4 237.3 201.7C236.9 202.3 236.8 203.3 237.1 204.2Z" fill="#FF9D9B"/>
<path d="M232.4 207.7L235.7 217.2C236.2 218.7 237.8 219.4 239.3 218.9C240 218.6 240.6 218.1 240.9 217.5C241.1 217.2 241.2 216.8 241.2 216.4C241.2 216.1 241.2 215.7 241.1 215.4L237.8 205.9C237.3 204.4 235.7 203.6 234.2 204.2C233.5 204.5 232.9 205 232.6 205.6C232.4 206.1 232.3 206.6 232.3 207.1C232.3 207.3 232.4 207.5 232.4 207.7Z" fill="#FF9D9B"/>
<path d="M244.1 209.6C244 209.4 244 209.2 243.9 209C243.8 208.4 244.2 207.8 244.7 207.7C244.8 207.7 244.9 207.7 245 207.7C247 207.6 250.5 206 252.7 205C253.6 204.6 259.6 202.6 262.4 205.7C267 211 263.3 220 263.3 220L256 211.7C254.8 212.2 252.5 212.8 250.1 212.7C246.6 213.2 244.6 211.3 244.1 209.6Z" fill="#FF9D9B"/>
<path d="M260.4 207.5L250.2 179.6C249.8 178.4 248.7 177.6 247.5 177.6C247.4 177.6 247.2 177.6 247.1 177.6C246.2 177.7 245.5 178.3 245.1 178.9C244.6 179.6 244.5 180.5 244.7 181.3C246 185.8 250.9 203.2 252.6 207.4C253.1 208.5 253.1 209.4 253 210.1L260.4 207.5Z" fill="#FF9D9B"/>
<path d="M464.4 433.7C463.6 433.5 462.9 433.3 462.1 433C458.2 436.3 454.2 439.4 449.9 442.4C446.7 444.6 443.4 446.8 440 448.8L440.6 423.1L441.6 384.1L457.5 366.3L457.9 365.9L464.2 431.2L464.4 433.7Z" fill="#808085"/>
<path d="M450 437.2C449.9 438.2 450 440.7 450 442.4C446.8 444.6 443.5 446.8 440.1 448.8C418.6 461.7 393.7 470.6 367.1 476.6C361.8 477.8 356.5 478.9 351.1 479.9C346.2 465.5 336.5 436.4 335.2 430.5C335.1 430.1 335.1 429.5 335.1 428.9L335.4 425.5C335.4 425.1 335.5 424.7 335.6 424.2C335.7 423.9 335.7 423.6 335.8 423.2L336.3 420.5C336.4 419.7 336.6 418.8 336.8 417.9C336.8 417.8 336.8 417.8 336.8 417.7C336.9 417.1 337.1 416.4 337.2 415.8L337.4 414.8C337.6 414.1 337.7 413.4 337.9 412.8C338 412.2 338.2 411.7 338.3 411.1C338.3 411 338.4 410.8 338.4 410.7C338.9 408.6 339.5 406.4 340 404.2L340.3 403.1C340.5 402.4 340.7 401.8 340.8 401.1L341.2 399.7C345.3 384.4 349.9 369.4 349.9 369.4C349.9 369.4 361.7 367.4 376.2 364.6C376.9 364.5 377.6 364.3 378.3 364.2C385.4 362.8 393.1 361.2 400.2 359.6C400.6 359.5 401.1 359.4 401.5 359.3C401.8 359.2 402.2 359.1 402.5 359.1C406 358.3 409.4 357.5 412.7 356.7C430.8 352.5 446.1 349.6 454.2 358.1C456 360 457 362.8 457.6 366.3C459.7 380.3 453.5 405.5 450.8 428.5C450.4 431.5 450.2 434.3 450 437.2Z" fill="#C5C6CD"/>
<path opacity="0.5" d="M367.1 476.6C361.8 477.8 356.5 478.9 351.1 479.9C346.2 465.5 336.5 436.4 335.2 430.5C335.1 430.1 335.1 429.5 335.1 428.9L335.4 425.5C335.4 425.1 335.5 424.7 335.6 424.2C335.7 423.9 335.7 423.6 335.8 423.2L336.3 420.5C336.5 419.7 336.6 418.8 336.8 417.9C336.8 417.8 336.8 417.8 336.8 417.7C336.9 417.1 337.1 416.4 337.2 415.8L337.4 414.8C337.6 414.1 337.7 413.4 337.9 412.8C338 412.2 338.2 411.7 338.3 411.1C338.3 411 338.4 410.8 338.4 410.7C338.9 408.6 339.5 406.4 340 404.2L340.3 403.1C340.5 402.4 340.7 401.8 340.8 401.1L341.2 399.7L354.5 412.8C354.5 412.8 364 424.8 365.3 442.6C366.1 456 365.7 467.8 367.1 476.6Z" fill="#808085"/>
<path d="M311.8 310C311.8 310 340 338.6 353.4 347.4C366.8 356.2 382 365.4 387.5 373.2L354.5 413L294.4 353.8C294.4 353.8 295.4 332.1 299.5 325C306.3 310 311.8 310 311.8 310Z" fill="#C5C6CD"/>
<path d="M387.5 373.6C387.4 373.6 387.3 373.5 387.2 373.4C384.3 369.2 378.6 365 378.5 365C378.3 364.9 378.3 364.6 378.4 364.5C378.5 364.3 378.8 364.3 378.9 364.4C379.1 364.6 384.8 368.8 387.8 373C387.9 373.2 387.9 373.4 387.7 373.5C387.6 373.5 387.5 373.6 387.5 373.6Z" fill="#808085"/>
<path d="M500.4 424.8C494.4 432.4 483.2 438.6 464.5 433.6C463.7 433.4 463 433.2 462.2 432.9C458.7 431.8 454.9 430.3 450.8 428.4C447.6 426.9 444.3 425.1 440.7 423C439.4 422.3 438.2 421.5 436.9 420.6C436.3 420.2 435.6 419.8 434.9 419.3C434.2 418.9 433.6 418.4 432.9 418C432.4 417.6 431.8 417.3 431.3 416.9C430.8 416.5 430.3 416.1 429.8 415.7C429.2 415.2 428.7 414.8 428.1 414.3C427.7 414 427.3 413.6 426.9 413.2C426.5 412.8 426.2 412.5 425.8 412.1C425.7 412 425.5 411.8 425.4 411.7C425.1 411.4 424.8 411.1 424.5 410.7C424.4 410.6 424.3 410.5 424.2 410.4C423.8 410 423.4 409.5 423.1 409.1C422.7 408.6 422.3 408.1 421.9 407.5C421.2 406.6 420.5 405.6 419.9 404.6C419.6 404.2 419.4 403.9 419.2 403.5C418.8 402.8 418.4 402.1 417.9 401.4C417.6 400.9 417.3 400.4 417.1 399.9C417.1 399.9 417.1 399.8 417 399.8C416.7 399.3 416.5 398.8 416.2 398.3C415.9 397.7 415.6 397.1 415.3 396.5C415.1 396 414.9 395.5 414.6 395.1C414.3 394.6 414.1 394 413.9 393.5C413.7 393 413.5 392.5 413.3 392.1C412.2 389.5 411.3 386.8 410.4 384.2C410.3 383.8 410.2 383.5 410 383.1C408.8 379.4 407.8 375.8 406.9 372.5C406.7 371.8 406.5 371.2 406.3 370.5C406.2 370.3 406.2 370.1 406.2 370C404.9 365.6 403.7 361.8 402.3 359C402.2 358.8 402.1 358.6 402 358.5C401.9 358.3 401.8 358.2 401.7 358C401.5 357.7 401.3 357.4 401.1 357.1C400.5 356.3 399.9 355.5 399.3 354.7C398.8 354 398.3 353.4 397.8 352.7C397.4 352.1 396.9 351.5 396.5 350.9C395.9 350.1 395.4 349.4 394.8 348.6C394.1 347.8 393.5 346.9 392.9 346.1C391.2 343.8 389.5 341.7 388 339.8C387.7 339.4 387.3 338.9 387 338.5C386.9 338.4 386.8 338.3 386.8 338.2C386.6 337.9 386.4 337.6 386.1 337.3C386.1 337.2 386 337.2 386 337.1C385.6 336.6 385.3 336.1 384.9 335.7C384.4 335 383.8 334.3 383.4 333.5L382 331.4C381.8 331.1 381.6 330.7 381.3 330.4C381.1 330.1 380.9 329.7 380.7 329.4C379.1 326.9 377.9 324.4 376.9 321.9C376.9 321.9 376.9 321.9 376.9 321.8C373.7 313 374 304.3 375.3 296.7C375.9 293.1 376.8 289.7 377.6 286.7C377.7 286.4 377.7 286.2 377.8 285.9C377.8 285.8 377.8 285.8 377.8 285.7C378.3 283.7 378.8 281.9 379.2 280.3C379.3 279.9 379.4 279.6 379.4 279.2C379.5 278.9 379.5 278.6 379.6 278.3C379.7 277.9 379.7 277.5 379.8 277.1C379.8 277 379.8 276.9 379.8 276.8C379.8 276.5 379.8 276.2 379.8 276C379.8 274.8 379.6 273.9 379 273.3C378.4 272.6 377.9 271.8 377.3 271C377.2 270.8 377 270.6 376.9 270.4C376.4 269.5 375.9 268.5 375.4 267.5C375.2 267.1 375 266.6 374.8 266.2C374.4 265.1 374 264.1 373.7 262.9C373.6 262.5 373.5 262.2 373.4 261.8C373.4 261.6 373.3 261.5 373.3 261.3C373.2 260.9 373.1 260.5 373 260.1C372.9 259.6 372.8 259.1 372.7 258.5C372.6 258 372.5 257.4 372.4 256.9C372.3 256.4 372.2 255.9 372.2 255.3C372.2 255.1 372.1 255 372.1 254.8C372 253.9 371.9 253 371.8 252.2C371.8 251.7 371.7 251.2 371.7 250.7C371.7 250.4 371.7 250 371.7 249.7C371.7 248.4 371.7 247.1 371.8 245.9C371.9 244.2 372.2 242.6 372.5 241.2C375.3 230.4 386.4 222.9 397.5 221.4C432.1 216.8 439.5 244.4 440.6 249.8C440.7 250.4 440.8 250.7 440.8 250.7C440.8 250.7 441.2 250.7 441.8 250.7C444.9 250.9 454.7 252.5 458.8 265.6C460.6 271.1 463.5 282.7 466.1 292.6C466.6 294.5 467.1 296.4 467.6 298.2C468.8 302.5 469.9 306 470.7 307.9C475.4 318.9 494.6 350.7 499.4 367.4C500.2 370.2 501 372.8 501.6 375.4C509.2 402.5 508.1 415.1 500.4 424.8Z" fill="#1C334D"/>
<path d="M441.2 251.5C441.1 251.5 441 251.5 440.9 251.4C440.7 251.3 440.7 251 440.8 250.8C440.8 250.8 442.8 246.3 441.8 242.6C441.7 242.3 441.9 242.1 442.1 242C442.4 241.9 442.6 242.1 442.7 242.3C443.5 245.1 442.8 248.1 442.2 249.8C443.6 249 445.8 247.9 447 247.9C447.3 247.9 447.5 248.1 447.5 248.4C447.5 248.7 447.3 248.9 447 248.9C445.8 248.9 442.6 250.7 441.5 251.4C441.4 251.4 441.3 251.5 441.2 251.5Z" fill="#1C334D"/>
<path d="M379.6 280.7C379.5 280.7 379.4 280.7 379.3 280.6C367.3 269.5 372.7 243.5 372.9 242.4C373 242.1 373.2 242 373.5 242C373.8 242.1 373.9 242.3 373.9 242.6C373.8 242.9 368.3 269.2 380 279.9C380.2 280.1 380.2 280.4 380 280.6C379.9 280.7 379.7 280.7 379.6 280.7Z" fill="#1C334D"/>
<path d="M506.8 383.8C506.6 383.8 506.3 383.6 506.3 383.4C503.5 360.3 493 341.6 484.1 327.8C473.9 312 463.8 289.4 463.7 289.2C463.6 288.9 463.7 288.7 464 288.5C464.3 288.4 464.5 288.5 464.7 288.8C464.8 289 474.8 311.5 485 327.3C493.9 341.1 504.6 360 507.4 383.3C507.4 383.5 507.2 383.8 506.8 383.8C506.9 383.8 506.9 383.8 506.8 383.8Z" fill="#1C334D"/>
<path d="M371.1 293.6C373.2 297.5 378.7 298.6 383.5 296.1C388.3 293.6 390.5 288.3 388.5 284.4C386.4 280.5 380.9 279.4 376.1 281.9C371.2 284.4 369 289.7 371.1 293.6Z" fill="#FFA3A2"/>
<path d="M374.4 289.7C374.3 289.7 374.2 289.7 374.1 289.6C374 289.5 373.9 289.2 374.1 289.1C379.9 283.1 384.4 286.3 384.5 286.4C384.7 286.5 384.7 286.8 384.6 286.9C384.5 287.1 384.2 287.1 384.1 287C383.9 286.9 380.1 284.1 374.7 289.7C374.6 289.6 374.5 289.7 374.4 289.7Z" fill="#FF736F"/>
<path d="M379.4 293C379.3 293 379.3 293 379.2 293C379 292.9 378.9 292.7 379 292.5C380.6 289 377.7 287.1 377.6 287C377.4 286.9 377.4 286.7 377.5 286.5C377.6 286.3 377.8 286.3 378 286.4C378 286.4 381.5 288.7 379.6 292.8C379.7 292.9 379.5 293 379.4 293Z" fill="#FF736F"/>
</svg>
