<svg width="179" height="48" viewBox="0 0 179 48" fill="none" xmlns="http://www.w3.org/2000/svg">
<g clip-path="url(#clip0)">
<path d="M90.6364 32H87C86.7273 32 86.5455 31.8182 86.5455 31.5455V18.3636C86.5455 15.0909 89.1818 12.4545 92.4546 12.4545H94.7273C95 12.4545 95.1818 12.6364 95.1818 12.9091V15.6364C95.1818 15.8636 95 16.0909 94.7273 16.0909C94.3637 16.0909 93.8637 16.0909 93.3637 16.0909C92.0909 16.0909 91.0909 17.0909 91.0909 18.3636V19.2727H93.8182C94.0909 19.2727 94.2727 19.4545 94.2727 19.7273V22.4545C94.2727 22.7273 94.0909 22.9091 93.8182 22.9091H91.0909V31.5455C91.0909 31.8182 90.9091 32 90.6364 32Z" fill="#0B1F35"/>
<path d="M77.4546 31.5455V16.5455C77.4546 14.2727 79.2727 12.4545 81.5455 12.4545C81.8182 12.4545 82 12.6364 82 12.9091V31.5455C82 31.8182 81.8182 32 81.5455 32H77.9091C77.6818 32 77.4546 31.8182 77.4546 31.5455Z" fill="#0B1F35"/>
<path d="M68.0454 13.8182H64.1363C63.9545 13.8182 63.7727 13.9545 63.7272 14.0909L57.2727 31.3636C57.1363 31.6818 57.3636 32 57.6818 32H61.2272C61.4091 32 61.5909 31.8636 61.6363 31.7273L62.7272 28.8182H69.5L70.5454 31.6818C70.5909 31.8636 70.7727 32 70.9545 32H74.5C74.8182 32 75.0454 31.6818 74.9091 31.3636L68.4545 14.0909C68.4091 13.9545 68.2272 13.8182 68.0454 13.8182ZM64.2727 25.1818H64.0909L66.0909 19.8636L68.0909 25.1818H64.2727Z" fill="#0B1F35"/>
<path d="M162.455 16.5455V31.5455C162.455 31.7727 162.227 32 162 32H156.091C151.955 32 148.636 28.5455 148.818 24.3636C149 20.6818 151.955 17.8182 155.182 17.4545C155.318 17.4545 155.455 17.4091 155.636 17.4091C155.909 17.4091 156.091 17.5909 156.091 17.8636V20.5909C156.091 20.8182 155.864 21.0455 155.636 21.0455C154.136 21.3182 152.591 23.1364 152.955 25.2727C153.227 27.0455 154.864 28.2727 156.636 28.2727H157.864V12.9091C157.864 12.6818 158.045 12.4545 158.318 12.4545C160.636 12.4545 162.455 14.2727 162.455 16.5455Z" fill="#0B1F35"/>
<path d="M129.273 17.4545H131.545C131.818 17.4545 132 17.2727 132 17V14.2727C132 14 131.818 13.8182 131.545 13.8182H128.364C123.364 13.8182 119.273 17.9091 119.273 22.9091C119.273 27.9091 123.364 32 128.364 32H131.545C131.818 32 132 31.8182 132 31.5455V28.8182C132 28.5455 131.818 28.3636 131.545 28.3636H129.273C126.273 28.3636 123.818 25.9091 123.818 22.9091C123.818 19.9091 126.273 17.4545 129.273 17.4545Z" fill="#0B1F35"/>
<path d="M178.818 23.8182C178.773 20.0455 175.5 17.0909 171.818 17.0909C169.864 17.0909 168.091 17.9091 166.818 19.2273C165.545 20.5455 164.773 22.3636 164.773 24.3636V24.7273C164.773 26.2273 165.227 27.5909 165.955 28.7273C167.227 30.6818 169.364 32 171.818 32H177.455C177.727 32 177.909 31.8182 177.909 31.5455V28.8182C177.909 28.5455 177.727 28.3636 177.455 28.3636H171.773C170.682 28.3636 169.773 27.6364 169.227 26.5455H174.273H178.545C178.727 26.0909 178.818 25.6364 178.818 23.8182ZM168.864 23.8182C169.091 22.1364 170 21 171.773 21C173.545 21 174.455 22.1818 174.682 23.8182H168.864Z" fill="#0B1F35"/>
<path d="M139.955 17.4545C136.091 17.4545 132.909 20.7727 132.909 24.7273C132.909 28.8182 136.091 32 139.955 32C143.818 32 147 28.8182 147 24.7273C147 20.7727 143.818 17.4545 139.955 17.4545ZM139.955 28.3182C138.136 28.3182 137 26.5455 137 24.7727C137 23 138.136 21.2273 139.955 21.2273C141.773 21.2273 142.909 23 142.909 24.7727C142.909 26.5 141.773 28.3182 139.955 28.3182Z" fill="#0B1F35"/>
<path d="M110.227 17.9091V31.5455C110.227 31.7727 110 32 109.773 32H106.136C105.864 32 105.682 31.8182 105.682 31.5455V21.0909H104.318C101.909 21.0909 100.091 23.4091 100.909 25.9091C101.364 27.3636 102.818 28.3636 103.455 28.3636C103.682 28.3636 103.909 28.5909 103.909 28.8182V31.5455C103.909 31.7727 103.682 32 103.455 32H103C99.7727 32 96.4545 28.5455 96.6363 24.3636C96.8181 20.4545 100.182 17.4545 104.091 17.4545H109.773C110 17.4545 110.227 17.6364 110.227 17.9091Z" fill="#0B1F35"/>
</g>
<circle cx="16" cy="24" r="16" fill="#EF3124"/>
<g clip-path="url(#clip1)">
<path d="M48.06 24C48.06 37.26 37.32 48 24.06 48C21.12 48 18.36 47.46 15.78 46.5C15.42 46.38 15 46.2 14.64 46.02C6 42.42 0.0599976 33.9 0.0599976 24C0.0599976 22.14 0.299998 20.34 0.659998 18.6C0.779998 18.06 0.899997 17.52 1.08 16.98C4.08 7.14 13.2 0 24.06 0C37.26 0 48.06 10.74 48.06 24Z" fill="#FF0000"/>
<path d="M48.06 24C48.06 37.26 37.32 48 24.06 48C21.12 48 18.36 47.46 15.78 46.5C15.42 46.38 15 46.2 14.64 46.02C6 42.42 0.0599976 33.9 0.0599976 24C0.0599976 22.14 0.299998 20.34 0.659998 18.6C0.779998 18.06 0.899997 17.52 1.08 16.98C4.08 7.14 13.2 0 24.06 0C37.26 0 48.06 10.74 48.06 24Z" fill="#FF0000"/>
<path d="M0.48 28.8C2.04 36.6 7.44 43.02 14.52 46.08C14.88 46.26 15.3 46.38 15.66 46.56C16.14 46.74 16.62 46.92 17.1 47.04C18.18 45.84 19.32 44.58 19.62 44.28C21.3 42.42 22.68 40.44 22.62 37.86C22.8 37.68 22.98 37.5 23.16 37.32C25.02 35.7 27.06 35.04 29.52 35.64C31.08 36 32.64 36.3 34.2 36.66C34.38 36.72 34.56 36.72 34.68 36.66C37.08 35.88 39.3 34.68 41.04 32.76C41.82 31.92 42.42 30.96 42.78 29.82C39.84 27.84 36.9 25.92 33.96 24C33.9 22.98 34.62 22.68 35.34 22.38C33.18 19.92 31.02 17.64 28.56 15.6C30.42 11.16 31.2 8.4 31.14 6.9C29.34 7.38 27.66 8.04 25.98 9C26.16 6.9 26.16 4.86 25.5 2.82C23.94 3.3 22.44 3.9 21 4.62C18.84 5.7 16.8 6.96 15.12 8.76C14.16 9.72 13.44 10.86 12.9 12.06C8.4 13.74 4.32 16.08 0.6 19.08C0.54 19.14 0.54 19.14 0.48 19.2C0.24 20.28 0.12 21.42 0 22.56L0.48 28.8ZM16.98 11.58C17.28 10.38 17.94 9.36 18.78 8.46C20.34 6.78 22.26 5.64 24.42 4.68C24.42 4.98 24.42 5.28 24.48 5.52C24.54 8.46 24.12 11.34 22.68 14.04C22.02 14.22 21.36 14.34 20.64 14.52C20.34 13.86 20.4 13.2 20.46 12.48C19.86 12.96 19.5 13.44 19.26 14.1C18.6 12.42 19.86 9.96 20.04 9.42C19.92 9.48 17.76 10.74 16.98 13.98C16.8 13.44 16.8 12.42 16.98 11.58ZM39.66 32.82C38.52 33.84 37.2 34.56 35.82 35.22C34.92 35.64 34.14 35.7 33.18 35.4C29.94 34.32 26.64 33.96 23.22 34.26C23.16 34.26 23.04 34.26 22.98 34.32C23.7 34.5 24.42 34.68 25.14 34.86C24.18 35.46 23.34 36.06 22.44 36.6C22.26 36.06 22.14 35.46 21.84 34.86C21.24 33.72 20.64 32.58 19.98 31.5C19.26 30.36 18.48 29.22 17.7 28.08C17.58 28.56 17.46 29.04 17.34 29.52C16.68 27.9 16.2 26.34 16.56 24.54C16.86 23.04 17.82 21.96 19.14 21.3C19.62 21.06 20.16 20.94 20.7 20.76C21.84 20.52 23.04 20.28 24.12 20.1C23.46 19.74 22.74 19.56 22.74 19.56C22.98 19.5 23.34 19.44 23.7 19.44C27.36 19.2 30.12 20.64 32.04 23.7C32.28 24.06 32.58 24.36 32.94 24.6C34.98 25.8 36.96 27 39 28.26C38.76 29.7 38.82 31.14 39.72 32.4C40.08 32.64 39.78 32.7 39.66 32.82Z" fill="#172A3F"/>
<path d="M22.74 14.04C22.08 14.22 21.42 14.34 20.7 14.52C20.4 13.86 20.46 13.2 20.52 12.48C19.92 12.96 19.56 13.44 19.32 14.1C18.66 12.42 19.92 9.96 20.1 9.42C19.98 9.48 17.82 10.74 17.04 13.98C16.8 13.5 16.8 12.48 17.04 11.64C17.34 10.44 18 9.42 18.84 8.52C20.4 6.84 22.32 5.7 24.48 4.74C24.48 5.04 24.48 5.34 24.54 5.58C24.6 8.52 24.18 11.34 22.74 14.04Z" fill="white"/>
<path d="M39.66 32.82C38.52 33.84 37.2 34.56 35.82 35.22C34.92 35.64 34.14 35.7 33.18 35.4C29.94 34.32 26.64 33.96 23.22 34.26C23.16 34.26 23.04 34.26 22.98 34.32C23.7 34.5 24.42 34.68 25.14 34.86C24.18 35.46 23.34 36.06 22.44 36.6C22.26 36.06 22.14 35.46 21.84 34.86C21.24 33.72 20.64 32.58 19.98 31.5C19.26 30.36 18.48 29.22 17.7 28.08C17.58 28.56 17.46 29.04 17.34 29.52C16.68 27.9 16.2 26.34 16.56 24.54C16.86 23.04 17.82 21.96 19.14 21.3C19.62 21.06 20.16 20.94 20.7 20.76C21.84 20.52 23.04 20.28 24.12 20.1C23.46 19.74 22.74 19.56 22.74 19.56C22.98 19.5 23.34 19.44 23.7 19.44C27.36 19.2 30.12 20.64 32.04 23.7C32.28 24.06 32.58 24.36 32.94 24.6C34.98 25.8 36.96 27 39 28.26C38.76 29.7 38.82 31.14 39.72 32.4C40.08 32.64 39.78 32.7 39.66 32.82Z" fill="white"/>
<path d="M10.56 15.3C10.5 15.36 10.44 15.42 10.38 15.48C10.32 15.54 10.26 15.54 10.2 15.6C8.1 16.92 6.18 18.48 4.68 20.52C3.84 21.66 3.18 22.92 2.94 24.42C2.94 24.54 2.88 24.66 2.88 24.72C2.88 24.84 2.88 24.9 2.88 25.14C3.72 24.18 4.62 23.46 5.88 23.04C5.82 23.28 5.82 23.4 5.7 23.52C1.92 29.58 3.72 34.92 5.04 38.7C1.86 34.62 0 29.52 0 24C0 23.46 0 22.92 0.06 22.38C3.06 19.38 6.48 16.92 10.44 15.18C10.5 15.24 10.5 15.24 10.56 15.3Z" fill="#B6BCC3"/>
<path d="M10.56 15.3C10.5 15.36 10.44 15.42 10.38 15.48C10.32 15.54 10.26 15.54 10.2 15.6C8.1 16.92 6.18 18.48 4.68 20.52C3.84 21.66 3.18 22.92 2.94 24.42C2.94 24.54 2.88 24.66 2.88 24.72C2.88 24.84 2.88 24.9 2.88 25.14C3.72 24.18 4.62 23.46 5.88 23.04C5.82 23.28 5.82 23.4 5.7 23.52C1.92 29.58 3.72 34.92 5.04 38.7C1.86 34.62 0 29.52 0 24C0 23.46 0 22.92 0.06 22.38C3.06 19.38 6.48 16.92 10.44 15.18C10.5 15.24 10.5 15.24 10.56 15.3Z" fill="#B6BCC3"/>
<path d="M20.76 20.82C20.64 20.88 20.52 21 20.34 21.06C19.2 21.6 18.24 22.26 17.76 23.52C17.52 24.12 17.46 24.66 17.58 25.38C18.18 24.9 18.72 24.48 19.5 24.6C19.32 25.08 19.14 25.5 19.02 25.98C18.78 27.06 19.02 28.08 19.5 29.04C20.34 30.72 21.54 32.04 22.86 33.24C23.64 33.12 24.36 33.06 25.08 32.94C27.78 32.7 30.36 33 32.88 34.02C33.06 34.08 33.3 34.14 33.48 34.26C34.08 34.68 34.68 34.62 35.34 34.5C36.96 34.2 39.78 32.4 39.78 32.34C40.02 32.58 39.72 32.64 39.66 32.7C38.52 33.72 37.2 34.44 35.82 35.1C34.92 35.52 34.14 35.58 33.18 35.28C29.94 34.2 26.64 33.84 23.28 34.14C23.22 34.14 23.1 34.14 23.04 34.2C23.76 34.38 24.48 34.56 25.2 34.74C24.24 35.34 23.4 35.88 22.5 36.48C22.32 35.94 22.2 35.34 21.9 34.74C21.3 33.6 20.7 32.46 20.04 31.38C19.32 30.24 18.54 29.1 17.76 27.96C17.64 28.44 17.52 28.92 17.4 29.4C16.74 27.84 16.26 26.22 16.62 24.42C16.92 22.92 17.88 21.84 19.2 21.18C19.68 21.12 20.22 21 20.76 20.82Z" fill="#B6BCC3"/>
<path d="M24.54 5.52C23.82 6 23.1 6.36 22.5 6.96C21.72 7.68 21 8.58 20.28 9.36C20.28 9.36 20.22 9.36 20.16 9.36C20.04 9.42 19.86 9.48 19.8 9.6C18.54 10.8 17.52 12.18 17.1 13.92C16.86 13.44 16.86 12.42 17.1 11.58C17.4 10.38 18.06 9.36 18.9 8.46C20.46 6.78 22.38 5.64 24.54 4.68C24.48 4.98 24.48 5.28 24.54 5.52Z" fill="#B6BCC3"/>
<path d="M25.14 22.26C25.14 22.26 26.94 21.96 28.56 22.5C29.46 22.8 30.3 23.76 30.36 24.48C30.36 24.48 28.56 25.02 27.12 24.42C25.74 23.76 25.14 22.26 25.14 22.26Z" fill="#172A3F"/>
<path d="M40.02 29.64C39.96 29.88 39.9 30.06 39.84 30.3C39.54 31.26 39.12 32.1 38.64 32.88C38.16 33.6 37.62 34.2 36.96 34.74C36.42 35.22 35.82 35.58 35.16 35.94C34.44 36.3 33.6 36.6 32.82 36.72C32.28 36.84 31.68 36.9 31.08 36.9C30.96 36.9 30.84 36.9 30.78 36.9C30 36.9 29.28 36.78 28.5 36.54C27.96 36.36 27.36 36.24 26.82 36.18C26.7 36.18 26.58 36.18 26.4 36.12C19.68 34.32 12.84 37.38 9.6 43.2C3.72 38.76 0 31.8 0 24C0 20.7 0.66 17.58 1.86 14.76C1.92 14.76 1.98 14.7 2.04 14.64C2.34 14.46 2.64 14.34 3 14.16C3.3 14.04 3.6 13.92 3.9 13.8C4.2 13.68 4.56 13.56 4.86 13.44C5.16 13.32 5.4 13.26 5.7 13.14C5.76 13.14 5.88 13.08 5.94 13.08C6.18 13.02 6.48 12.9 6.72 12.84C6.78 12.84 6.78 12.84 6.84 12.78C7.14 12.72 7.44 12.6 7.8 12.54C7.86 12.54 7.92 12.54 7.92 12.54C8.22 12.48 8.52 12.42 8.88 12.36H8.94C9.3 12.3 9.66 12.24 10.02 12.18C12.12 7.14 16.86 3.48 22.5 3.06C22.86 4.38 23.1 5.76 23.1 7.2C23.1 7.8 23.04 8.4 22.98 9C22.8 10.68 22.32 12.24 21.6 13.68C22.98 14.22 24.24 14.82 25.44 15.6C26.88 16.5 28.2 17.52 29.46 18.72C30.6 19.8 31.68 21.06 32.58 22.32C31.68 22.68 30.96 23.46 30.66 24.36L36.9 27.96L40.02 29.64Z" fill="white"/>
<path d="M24.48 8.22C24.24 9.48 23.64 12 23.28 12.96C23.7 13.14 25.14 13.92 26.16 14.46C27.42 12.3 28.08 9.78 28.08 7.14C26.82 7.32 25.62 7.74 24.48 8.22Z" fill="white"/>
<path d="M24 0C14.04 0 5.46002 6.06 1.86002 14.76C1.92002 14.76 1.98002 14.7 2.04002 14.64C2.34002 14.46 2.64002 14.34 3.00002 14.16C3.30002 14.04 3.60002 13.92 3.90002 13.8C4.20002 13.68 4.56002 13.56 4.86002 13.44C5.16002 13.32 5.40002 13.26 5.70002 13.14C5.76002 13.14 5.88002 13.08 5.94002 13.08C6.18002 13.02 6.48002 12.9 6.72002 12.84C6.78002 12.84 6.78001 12.84 6.84001 12.78C7.14002 12.72 7.44002 12.6 7.80002 12.54C7.86002 12.54 7.92002 12.54 7.92002 12.54C8.22002 12.48 8.52002 12.42 8.88002 12.36H8.94001C9.30001 12.3 9.66002 12.24 10.02 12.18C12.12 7.14 16.86 3.48 22.5 3.06C22.86 4.38 23.1 5.76 23.1 7.2C23.1 7.8 23.04 8.4 22.98 9C22.8 10.68 22.32 12.24 21.6 13.68C22.98 14.22 24.24 14.82 25.44 15.6C26.88 16.5 28.2 17.52 29.46 18.72C30.6 19.8 31.68 21.06 32.58 22.32C31.68 22.68 30.96 23.46 30.66 24.36L36.9 27.96L39.9 29.7C39.84 29.94 39.78 30.12 39.72 30.36C39.42 31.32 39 32.16 38.52 32.94C38.04 33.66 37.5 34.26 36.84 34.8C36.3 35.28 35.7 35.64 35.04 36C34.32 36.36 33.48 36.66 32.7 36.78C32.16 36.9 31.56 36.96 30.96 36.96C30.84 36.96 30.72 36.96 30.66 36.96C29.88 36.96 29.16 36.84 28.38 36.6C27.84 36.42 27.24 36.3 26.7 36.24C26.58 36.24 26.46 36.24 26.28 36.18C26.1 36.18 25.92 36.18 25.74 36.18C25.32 36.18 24.9 36.18 24.48 36.3C24.42 36.3 24.36 36.3 24.36 36.3C22.38 36.6 20.52 37.56 19.14 39C18.18 40.02 17.4 41.28 16.98 42.72C16.92 42.9 16.86 43.08 16.86 43.2C16.86 43.32 16.8 43.38 16.8 43.5C16.74 43.62 16.74 43.74 16.74 43.92C16.74 44.04 16.68 44.16 16.68 44.34C16.56 45.24 16.62 46.2 16.8 47.04C19.08 47.58 21.48 48 24 48C28.44 48 32.58 46.8 36.18 44.7C43.26 40.5 48 32.82 48 24C48 10.74 37.26 0 24 0ZM28.14 7.2C28.14 9.84 27.42 12.36 26.22 14.52C25.2 13.98 23.76 13.2 23.34 13.02C23.7 12.06 24.3 9.54 24.54 8.28C25.62 7.74 26.82 7.32 28.14 7.2Z" fill="#172A3F"/>
<path d="M20.7 22.62C20.7 22.62 23.82 22.5 24.9 22.92C25.98 23.34 27 24.42 27.12 25.32C27.12 25.32 24.96 25.92 23.22 25.2C21.42 24.48 20.7 22.62 20.7 22.62Z" fill="#172A3F"/>
<path d="M26.34 36.06C26.16 36.06 25.98 36.06 25.8 36.06C25.38 36.06 24.96 36.06 24.54 36.18C24.48 36.18 24.42 36.18 24.42 36.18C22.44 36.48 20.58 37.44 19.2 38.88C18.24 39.9 17.46 41.16 17.04 42.6C16.98 42.78 16.92 42.96 16.92 43.08C16.92 43.2 16.86 43.26 16.86 43.38C16.8 43.5 16.8 43.62 16.8 43.8C16.8 43.92 16.74 44.04 16.74 44.22C16.62 45.12 16.68 46.08 16.86 46.92C14.22 46.08 11.76 44.82 9.66 43.2C12.78 37.38 19.62 34.26 26.34 36.06Z" fill="#B5BBC2"/>
</g>
<defs>
<clipPath id="clip0">
<rect width="121.818" height="20" fill="white" transform="translate(57 12)"/>
</clipPath>
<clipPath id="clip1">
<rect width="48.06" height="48" fill="white"/>
</clipPath>
</defs>
</svg>
