<svg width="16" height="16" viewBox="0 0 16 16" fill="none" xmlns="http://www.w3.org/2000/svg">
<mask id="mask0" mask-type="alpha" maskUnits="userSpaceOnUse" x="0" y="2" width="16" height="12">
<path fill-rule="evenodd" clip-rule="evenodd" d="M2.66669 3.33333C2.30154 3.33333 2.00002 3.63486 2.00002 4V12C2.00002 12.3651 2.30154 12.6667 2.66669 12.6667H13.3334C13.6985 12.6667 14 12.3651 14 12V4C14 3.63486 13.6985 3.33333 13.3334 3.33333H2.66669ZM0.666687 4C0.666687 2.89848 1.56516 2 2.66669 2H13.3334C14.4349 2 15.3334 2.89848 15.3334 4V12C15.3334 13.1015 14.4349 14 13.3334 14H2.66669C1.56516 14 0.666687 13.1015 0.666687 12V4Z" fill="black"/>
<path fill-rule="evenodd" clip-rule="evenodd" d="M0.787195 3.61769C0.998338 3.31606 1.41403 3.2427 1.71566 3.45384L8.00002 7.85289L14.2844 3.45384C14.586 3.2427 15.0017 3.31606 15.2128 3.61769C15.424 3.91932 15.3506 4.33501 15.049 4.54615L8.38232 9.21282C8.15278 9.3735 7.84725 9.3735 7.61771 9.21282L0.951042 4.54615C0.649409 4.33501 0.576052 3.91932 0.787195 3.61769Z" fill="black"/>
</mask>
<g mask="url(#mask0)">
<rect width="16" height="16" fill="#EF3124"/>
</g>
</svg>
