<svg width="208" height="176" viewBox="0 0 208 176" fill="none" xmlns="http://www.w3.org/2000/svg">
<path opacity="0.5" d="M55.3 31.4007C25.8 51.9007 0 81.5007 0 114.501C0 186.401 108.3 187.201 172.7 157.701C237.1 128.201 203.4 0.000732422 151.1 0.000732422C108.3 0.000732422 73.4 18.9007 55.3 31.4007Z" fill="#F3F4F5"/>
<path d="M184 128.001V132.001C184 136.401 180.4 140.001 176 140.001H32C27.6 140.001 24 136.401 24 132.001V128.001H88V130.001C88 132.201 89.8 134.001 92 134.001H116C118.2 134.001 120 132.201 120 130.001V128.001H184Z" fill="#C5C6CD"/>
<path d="M116 134.401H91.9996C89.5996 134.401 87.5996 132.401 87.5996 130.001V128.001C87.5996 127.801 87.7996 127.601 87.9996 127.601C88.1996 127.601 88.3997 127.801 88.3997 128.001V130.001C88.3997 132.001 89.9996 133.601 91.9996 133.601H116C118 133.601 119.6 132.001 119.6 130.001V128.001C119.6 127.801 119.8 127.601 120 127.601C120.2 127.601 120.4 127.801 120.4 128.001V130.001C120.4 132.401 118.4 134.401 116 134.401Z" fill="#828C97"/>
<path d="M120 128.001V130.001C120 132.201 118.2 134.001 116 134.001H92C89.8 134.001 88 132.201 88 130.001V128.001H120Z" fill="#B3B9C0"/>
<path d="M112 128.001V130.001C112 132.201 110.2 134.001 108 134.001H116C118.2 134.001 120 132.201 120 130.001V128.001H112Z" fill="#828C97"/>
<path d="M176 128.001H32V40.0007C32 35.6007 35.6 32.0007 40 32.0007H168C172.4 32.0007 176 35.6007 176 40.0007V128.001Z" fill="#0B1F35"/>
<path d="M168 120.001H40V44.0007C40 41.8007 41.8 40.0007 44 40.0007H164C166.2 40.0007 168 41.8007 168 44.0007V120.001Z" fill="white"/>
<path d="M144 58.0007H88V90.0007H144V58.0007Z" fill="#4480FF"/>
<path d="M132 48.5007H124C123.7 48.5007 123.5 48.3007 123.5 48.0007C123.5 47.7007 123.7 47.5007 124 47.5007H132C132.3 47.5007 132.5 47.7007 132.5 48.0007C132.5 48.3007 132.3 48.5007 132 48.5007Z" fill="#0B1F35"/>
<path d="M120 48.5007H112C111.7 48.5007 111.5 48.3007 111.5 48.0007C111.5 47.7007 111.7 47.5007 112 47.5007H120C120.3 47.5007 120.5 47.7007 120.5 48.0007C120.5 48.3007 120.3 48.5007 120 48.5007Z" fill="#0B1F35"/>
<path d="M108 48.5007H100C99.7 48.5007 99.5 48.3007 99.5 48.0007C99.5 47.7007 99.7 47.5007 100 47.5007H108C108.3 47.5007 108.5 47.7007 108.5 48.0007C108.5 48.3007 108.3 48.5007 108 48.5007Z" fill="#0B1F35"/>
<path d="M144 48.5007H136C135.7 48.5007 135.5 48.3007 135.5 48.0007C135.5 47.7007 135.7 47.5007 136 47.5007H144C144.3 47.5007 144.5 47.7007 144.5 48.0007C144.5 48.3007 144.3 48.5007 144 48.5007Z" fill="#0B1F35"/>
<path d="M116 96.0007H92V112.001H116V96.0007Z" fill="#4480FF"/>
<path d="M116 117.501H92C91.7 117.501 91.5 117.301 91.5 117.001C91.5 116.701 91.7 116.501 92 116.501H116C116.3 116.501 116.5 116.701 116.5 117.001C116.5 117.301 116.3 117.501 116 117.501Z" fill="#0B1F35"/>
<path d="M109.1 114.501H92C91.7 114.501 91.5 114.301 91.5 114.001C91.5 113.701 91.7 113.501 92 113.501H109.1C109.4 113.501 109.6 113.701 109.6 114.001C109.6 114.301 109.4 114.501 109.1 114.501Z" fill="#0B1F35"/>
<path d="M144 96.0007H120V112.001H144V96.0007Z" fill="#4480FF"/>
<path d="M140 114.501H120C119.7 114.501 119.5 114.301 119.5 114.001C119.5 113.701 119.7 113.501 120 113.501H140C140.3 113.501 140.5 113.701 140.5 114.001C140.5 114.301 140.3 114.501 140 114.501Z" fill="#0B1F35"/>
<path d="M144 117.501H120C119.7 117.501 119.5 117.301 119.5 117.001C119.5 116.701 119.7 116.501 120 116.501H144C144.3 116.501 144.5 116.701 144.5 117.001C144.5 117.301 144.3 117.501 144 117.501Z" fill="#0B1F35"/>
<path d="M88 120.001H40V44.0007C40 41.8007 41.8 40.0007 44 40.0007H88V120.001Z" fill="#F0F1F2"/>
<path d="M49.9996 46.4007H47.9996C47.7996 46.4007 47.5996 46.2007 47.5996 46.0007C47.5996 45.8007 47.7996 45.6007 47.9996 45.6007H49.9996C50.1996 45.6007 50.3997 45.8007 50.3997 46.0007C50.3997 46.2007 50.1996 46.4007 49.9996 46.4007Z" fill="#DC3124"/>
<path d="M69 46.5007H53C52.7 46.5007 52.5 46.3007 52.5 46.0007C52.5 45.7007 52.7 45.5007 53 45.5007H69C69.3 45.5007 69.5 45.7007 69.5 46.0007C69.5 46.3007 69.3 46.5007 69 46.5007Z" fill="#0B1F35"/>
<path d="M61 51.5007H53C52.7 51.5007 52.5 51.3007 52.5 51.0007C52.5 50.7007 52.7 50.5007 53 50.5007H61C61.3 50.5007 61.5 50.7007 61.5 51.0007C61.5 51.3007 61.3 51.5007 61 51.5007Z" fill="#0B1F35"/>
<path d="M80 63.5007H70C69.7 63.5007 69.5 63.3007 69.5 63.0007C69.5 62.7007 69.7 62.5007 70 62.5007H80C80.3 62.5007 80.5 62.7007 80.5 63.0007C80.5 63.3007 80.3 63.5007 80 63.5007Z" fill="#4480FF"/>
<path d="M80 51.5007H64C63.7 51.5007 63.5 51.3007 63.5 51.0007C63.5 50.7007 63.7 50.5007 64 50.5007H80C80.3 50.5007 80.5 50.7007 80.5 51.0007C80.5 51.3007 80.3 51.5007 80 51.5007Z" fill="#4480FF"/>
<path d="M67 63.5007H53C52.7 63.5007 52.5 63.3007 52.5 63.0007C52.5 62.7007 52.7 62.5007 53 62.5007H67C67.3 62.5007 67.5 62.7007 67.5 63.0007C67.5 63.3007 67.3 63.5007 67 63.5007Z" fill="#0B1F35"/>
<path d="M73 58.5007H53C52.7 58.5007 52.5 58.3007 52.5 58.0007C52.5 57.7007 52.7 57.5007 53 57.5007H73C73.3 57.5007 73.5 57.7007 73.5 58.0007C73.5 58.3007 73.3 58.5007 73 58.5007Z" fill="#4480FF"/>
<path d="M84 58.5007H76C75.7 58.5007 75.5 58.3007 75.5 58.0007C75.5 57.7007 75.7 57.5007 76 57.5007H84C84.3 57.5007 84.5 57.7007 84.5 58.0007C84.5 58.3007 84.3 58.5007 84 58.5007Z" fill="#0B1F35"/>
<path d="M49.9996 58.4007H47.9996C47.7996 58.4007 47.5996 58.2007 47.5996 58.0007C47.5996 57.8007 47.7996 57.6007 47.9996 57.6007H49.9996C50.1996 57.6007 50.3997 57.8007 50.3997 58.0007C50.3997 58.2007 50.1996 58.4007 49.9996 58.4007Z" fill="#DC3124"/>
<path d="M49.9996 70.4007H47.9996C47.7996 70.4007 47.5996 70.2007 47.5996 70.0007C47.5996 69.8007 47.7996 69.6007 47.9996 69.6007H49.9996C50.1996 69.6007 50.3997 69.8007 50.3997 70.0007C50.3997 70.2007 50.1996 70.4007 49.9996 70.4007Z" fill="#DC3124"/>
<path d="M69 70.5007H53C52.7 70.5007 52.5 70.3007 52.5 70.0007C52.5 69.7007 52.7 69.5007 53 69.5007H69C69.3 69.5007 69.5 69.7007 69.5 70.0007C69.5 70.3007 69.3 70.5007 69 70.5007Z" fill="#4480FF"/>
<path d="M61 75.5007H53C52.7 75.5007 52.5 75.3007 52.5 75.0007C52.5 74.7007 52.7 74.5007 53 74.5007H61C61.3 74.5007 61.5 74.7007 61.5 75.0007C61.5 75.3007 61.3 75.5007 61 75.5007Z" fill="#0B1F35"/>
<path d="M80 87.5007H70C69.7 87.5007 69.5 87.3007 69.5 87.0007C69.5 86.7007 69.7 86.5007 70 86.5007H80C80.3 86.5007 80.5 86.7007 80.5 87.0007C80.5 87.3007 80.3 87.5007 80 87.5007Z" fill="#4480FF"/>
<path d="M80 75.5007H64C63.7 75.5007 63.5 75.3007 63.5 75.0007C63.5 74.7007 63.7 74.5007 64 74.5007H80C80.3 74.5007 80.5 74.7007 80.5 75.0007C80.5 75.3007 80.3 75.5007 80 75.5007Z" fill="#0B1F35"/>
<path d="M67 87.5007H53C52.7 87.5007 52.5 87.3007 52.5 87.0007C52.5 86.7007 52.7 86.5007 53 86.5007H67C67.3 86.5007 67.5 86.7007 67.5 87.0007C67.5 87.3007 67.3 87.5007 67 87.5007Z" fill="#0B1F35"/>
<path d="M73 82.5007H53C52.7 82.5007 52.5 82.3007 52.5 82.0007C52.5 81.7007 52.7 81.5007 53 81.5007H73C73.3 81.5007 73.5 81.7007 73.5 82.0007C73.5 82.3007 73.3 82.5007 73 82.5007Z" fill="#4480FF"/>
<path d="M84 82.5007H76C75.7 82.5007 75.5 82.3007 75.5 82.0007C75.5 81.7007 75.7 81.5007 76 81.5007H84C84.3 81.5007 84.5 81.7007 84.5 82.0007C84.5 82.3007 84.3 82.5007 84 82.5007Z" fill="#0B1F35"/>
<path d="M49.9996 82.4007H47.9996C47.7996 82.4007 47.5996 82.2007 47.5996 82.0007C47.5996 81.8007 47.7996 81.6007 47.9996 81.6007H49.9996C50.1996 81.6007 50.3997 81.8007 50.3997 82.0007C50.3997 82.2007 50.1996 82.4007 49.9996 82.4007Z" fill="#DC3124"/>
<path d="M49.9996 94.4007H47.9996C47.7996 94.4007 47.5996 94.2007 47.5996 94.0007C47.5996 93.8007 47.7996 93.6007 47.9996 93.6007H49.9996C50.1996 93.6007 50.3997 93.8007 50.3997 94.0007C50.3997 94.2007 50.1996 94.4007 49.9996 94.4007Z" fill="#DC3124"/>
<path d="M69 94.5007H53C52.7 94.5007 52.5 94.3007 52.5 94.0007C52.5 93.7007 52.7 93.5007 53 93.5007H69C69.3 93.5007 69.5 93.7007 69.5 94.0007C69.5 94.3007 69.3 94.5007 69 94.5007Z" fill="#0B1F35"/>
<path d="M61 99.5007H53C52.7 99.5007 52.5 99.3007 52.5 99.0007C52.5 98.7007 52.7 98.5007 53 98.5007H61C61.3 98.5007 61.5 98.7007 61.5 99.0007C61.5 99.3007 61.3 99.5007 61 99.5007Z" fill="#0B1F35"/>
<path d="M80 111.501H70C69.7 111.501 69.5 111.301 69.5 111.001C69.5 110.701 69.7 110.501 70 110.501H80C80.3 110.501 80.5 110.701 80.5 111.001C80.5 111.301 80.3 111.501 80 111.501Z" fill="#4480FF"/>
<path d="M80 99.5007H64C63.7 99.5007 63.5 99.3007 63.5 99.0007C63.5 98.7007 63.7 98.5007 64 98.5007H80C80.3 98.5007 80.5 98.7007 80.5 99.0007C80.5 99.3007 80.3 99.5007 80 99.5007Z" fill="#4480FF"/>
<path d="M67 111.501H53C52.7 111.501 52.5 111.301 52.5 111.001C52.5 110.701 52.7 110.501 53 110.501H67C67.3 110.501 67.5 110.701 67.5 111.001C67.5 111.301 67.3 111.501 67 111.501Z" fill="#0B1F35"/>
<path d="M73 106.501H53C52.7 106.501 52.5 106.301 52.5 106.001C52.5 105.701 52.7 105.501 53 105.501H73C73.3 105.501 73.5 105.701 73.5 106.001C73.5 106.301 73.3 106.501 73 106.501Z" fill="#4480FF"/>
<path d="M84 106.501H76C75.7 106.501 75.5 106.301 75.5 106.001C75.5 105.701 75.7 105.501 76 105.501H84C84.3 105.501 84.5 105.701 84.5 106.001C84.5 106.301 84.3 106.501 84 106.501Z" fill="#0B1F35"/>
<path d="M49.9996 106.401H47.9996C47.7996 106.401 47.5996 106.201 47.5996 106.001C47.5996 105.801 47.7996 105.601 47.9996 105.601H49.9996C50.1996 105.601 50.3997 105.801 50.3997 106.001C50.3997 106.201 50.1996 106.401 49.9996 106.401Z" fill="#DC3124"/>
<path opacity="0.3" d="M184 56.0007C197.255 56.0007 208 45.2556 208 32.0007C208 18.7459 197.255 8.00073 184 8.00073C170.745 8.00073 160 18.7459 160 32.0007C160 45.2556 170.745 56.0007 184 56.0007Z" fill="#B3B9C0"/>
<path d="M176 48.0007C189.255 48.0007 200 37.2556 200 24.0007C200 10.7459 189.255 0.000732422 176 0.000732422C162.745 0.000732422 152 10.7459 152 24.0007C152 37.2556 162.745 48.0007 176 48.0007Z" fill="#FF5C5C"/>
<path d="M173.7 29.2007C173.5 29.2007 173.2 29.1007 173.1 28.9007L169.1 24.9007C168.7 24.5007 168.7 24.0007 169.1 23.6007C169.5 23.2007 170 23.2007 170.4 23.6007L173.8 26.9007L181.8 18.9007C182.2 18.5007 182.7 18.5007 183.1 18.9007C183.5 19.3007 183.5 19.8007 183.1 20.2007L174.5 28.8007C174.1 29.1007 173.9 29.2007 173.7 29.2007Z" fill="white"/>
<path d="M23.9996 166.401C20.4996 166.401 17.5996 163.501 17.5996 160.001C17.5996 156.501 20.4996 153.601 23.9996 153.601C27.4996 153.601 30.3996 156.501 30.3996 160.001C30.3996 163.501 27.4996 166.401 23.9996 166.401ZM23.9996 154.401C20.8996 154.401 18.3996 156.901 18.3996 160.001C18.3996 163.101 20.8996 165.601 23.9996 165.601C27.0996 165.601 29.5996 163.101 29.5996 160.001C29.5996 156.901 27.0996 154.401 23.9996 154.401Z" fill="#0B1F35"/>
<path d="M24 30.0007C23.5 30.0007 23 29.8007 22.6 29.4007L14.6 21.4007C13.8 20.6007 13.8 19.4007 14.6 18.6007L22.6 10.6007C23.4 9.80073 24.6 9.80073 25.4 10.6007C26.2 11.4007 26.2 12.6007 25.4 13.4007L18.8 20.0007L25.4 26.6007C26.2 27.4007 26.2 28.6007 25.4 29.4007C25 29.8007 24.5 30.0007 24 30.0007Z" fill="#4480FF"/>
<path d="M168 166.001C171.314 166.001 174 163.314 174 160.001C174 156.687 171.314 154.001 168 154.001C164.686 154.001 162 156.687 162 160.001C162 163.314 164.686 166.001 168 166.001Z" fill="#40B198"/>
</svg>
