<svg width="688" height="480" viewBox="0 0 688 480" fill="none" xmlns="http://www.w3.org/2000/svg">
<path d="M568 480H120V233.1C120 222.8 125 213.1 133.4 207.1L325.4 70.0002C336.5 62.1002 351.5 62.1002 362.6 70.0002L554.6 207.1C563 213.1 568 222.8 568 233.1V480Z" fill="#C5C6CD"/>
<path opacity="0.3" d="M536 160V193.8L552 205.2V160H536Z" fill="#E0DEDE"/>
<path opacity="0.3" d="M570.6 239.1L568 237.2V480H584V265.1C584 254.8 579 245.1 570.6 239.1Z" fill="#E0DEDE"/>
<path d="M536 128H152V480H536V128Z" fill="white"/>
<path d="M509.9 480H120V265.1L344 388.6L509.9 480Z" fill="#808085"/>
<path d="M568 265.1V480H178.1L344 388.6L568 265.1Z" fill="#808085"/>
<path d="M546.3 480H141.7L325.4 348.8C336.5 340.8 351.5 340.8 362.6 348.8L546.3 480Z" fill="#C5C6CD"/>
<path d="M276.7 308.5L231.5 263.3C226.8 258.6 226.8 251 231.5 246.3L276.7 201.1C278.3 199.5 280.8 199.5 282.4 201.1L293.7 212.4C295.3 214 295.3 216.5 293.7 218.1L257 254.8L293.7 291.5C295.3 293.1 295.3 295.6 293.7 297.2L282.4 308.5C280.8 310 278.2 310 276.7 308.5Z" fill="#FF5C5C"/>
<path d="M327.2 306.401L312.9 299.201C310.9 298.201 310.1 295.801 311.1 293.801L355.5 205.001C356.5 203.001 358.9 202.201 360.9 203.201L375.2 210.401C377.2 211.401 378 213.801 377 215.801L332.6 304.601C331.5 306.601 329.1 307.401 327.2 306.401Z" fill="#FF5C5C"/>
<path d="M405.7 308.5L394.4 297.2C392.8 295.6 392.8 293.1 394.4 291.5L431.1 254.8L394.4 218.1C392.8 216.5 392.8 214 394.4 212.4L405.7 201.1C407.3 199.5 409.8 199.5 411.4 201.1L456.6 246.3C461.3 251 461.3 258.6 456.6 263.3L411.4 308.5C409.8 310 407.2 310 405.7 308.5Z" fill="#FF5C5C"/>
<path d="M90 426H86C84.9 426 84 425.1 84 424V408C84 406.9 84.9 406 86 406H90C91.1 406 92 406.9 92 408C92 409.1 91.1 410 90 410H88V422H90C91.1 422 92 422.9 92 424C92 425.1 91.1 426 90 426Z" fill="#40B198"/>
<path d="M95 146.5C98.3137 146.5 101 143.814 101 140.5C101 137.186 98.3137 134.5 95 134.5C91.6863 134.5 89 137.186 89 140.5C89 143.814 91.6863 146.5 95 146.5Z" fill="#FFB96F"/>
<path d="M640 294C634.5 294 630 289.5 630 284C630 282.9 630.9 282 632 282C633.1 282 634 282.9 634 284C634 287.3 636.7 290 640 290C643.3 290 646 287.3 646 284C646 282.9 646.9 282 648 282C649.1 282 650 282.9 650 284C650 289.5 645.5 294 640 294Z" fill="#4480FF"/>
<path d="M228 58C227.5 58 227 57.8 226.6 57.4L218.6 49.4C217.8 48.6 217.8 47.4 218.6 46.6L226.6 38.6C227.4 37.8 228.6 37.8 229.4 38.6C230.2 39.4 230.2 40.6 229.4 41.4L222.8 48L229.4 54.6C230.2 55.4 230.2 56.6 229.4 57.4C229 57.8 228.5 58 228 58Z" fill="#40B198"/>
<path d="M37.7 274.4C41 277.7 41 283 37.7 286.2C37.6 286.3 37.3 286.3 37.2 286.2C37.1 286.1 37.1 285.8 37.2 285.7C40.2 282.7 40.2 277.9 37.2 274.9C34.2 271.9 29.4 271.9 26.4 274.9C26.3 275 26 275 25.9 274.9C25.8 274.8 25.8 274.5 25.9 274.4C29.1 271.1 34.4 271.1 37.7 274.4Z" fill="black"/>
<path d="M600 422.4C596.5 422.4 593.6 419.5 593.6 416C593.6 412.5 596.5 409.6 600 409.6C603.5 409.6 606.4 412.5 606.4 416C606.4 419.5 603.5 422.4 600 422.4ZM600 410.4C596.9 410.4 594.4 412.9 594.4 416C594.4 419.1 596.9 421.6 600 421.6C603.1 421.6 605.6 419.1 605.6 416C605.6 412.9 603.1 410.4 600 410.4Z" fill="#0B1F35"/>
<path d="M602.1 125.9C602 125.8 602 125.5 602.1 125.4L613.4 114.1C613.5 114 613.8 114 613.9 114.1C614 114.2 614 114.5 613.9 114.6L602.6 125.9C602.5 126.1 602.2 126.1 602.1 125.9Z" fill="black"/>
<path d="M464 57C459 57 455 53 455 48C455 43 459 39 464 39C469 39 473 43 473 48C473 53 469 57 464 57ZM464 43C461.2 43 459 45.2 459 48C459 50.8 461.2 53 464 53C466.8 53 469 50.8 469 48C469 45.2 466.8 43 464 43Z" fill="#FF5C5C"/>
</svg>
