<svg width="32" height="32" viewBox="0 0 32 32" fill="none" xmlns="http://www.w3.org/2000/svg">
<mask id="mask0" mask-type="alpha" maskUnits="userSpaceOnUse" x="1" y="1" width="30" height="30">
<path d="M20.2087 30.6666C16.2551 30.6666 10.0377 29.3593 8.50726 28.2753C8.15653 28.0202 7.96524 27.6376 7.96524 27.2231V14.7564C7.96524 14.3738 8.15655 13.9912 8.4435 13.768C8.53915 13.7043 10.771 11.9506 13.0986 10.6434C16 9.04918 18.0087 6.81733 18.487 5.41443C19.0609 3.69269 19.8899 1.33325 22.5044 1.33325C23.7478 1.33325 24.7681 2.0347 25.3102 3.2463C26.3942 5.73325 25.2464 9.17672 23.3333 11.8869C24.6087 12.1738 26.2029 12.5883 27.1594 12.8753C28.913 13.4173 30.0609 14.6927 30.316 16.255C30.5391 17.8492 29.7421 19.4753 28.0522 20.7188C26.8087 24.0666 24.6725 29.3593 23.1102 30.2202C22.5044 30.539 21.4522 30.6666 20.2087 30.6666ZM10.516 26.4579C12.9392 27.4782 20.4 28.5303 21.8029 27.9883C22.5362 27.3188 24.4174 23.0463 25.7246 19.4434C25.8203 19.1883 25.9797 18.9652 26.2029 18.8057C27.2551 18.1043 27.7971 17.2753 27.7015 16.5738C27.6058 15.9999 27.0957 15.5216 26.3304 15.2666C24.7362 14.7564 20.7826 13.8956 20.7189 13.8956C20.2725 13.7999 19.9218 13.4811 19.7623 13.0347C19.6029 12.5883 19.7304 12.1101 20.0493 11.7912C22.9189 8.69848 23.429 5.54193 22.887 4.26657C22.7276 3.88396 22.5362 3.88398 22.4406 3.88398C21.8029 3.88398 21.516 4.33036 20.8464 6.2434C20.0812 8.47529 17.4348 11.1535 14.2783 12.8753C12.7478 13.7042 11.2174 14.8202 10.4522 15.3941V26.4579H10.516ZM5.47827 27.3506V14.6289C5.47827 13.4811 4.55363 12.5564 3.40581 12.5564C2.25798 12.5564 1.33334 13.4811 1.33334 14.6289V27.3506C1.33334 28.4985 2.25798 29.4231 3.40581 29.4231C4.52175 29.4231 5.47827 28.4666 5.47827 27.3506Z" fill="#0B1F35"/>
</mask>
<g mask="url(#mask0)">
<rect width="32" height="32" fill="#0B1F35"/>
</g>
</svg>
