<svg width="209" height="176" viewBox="0 0 209 176" fill="none" xmlns="http://www.w3.org/2000/svg">
<path opacity="0.5" d="M209 138.101C209 176.001 165.3 176.001 107.6 176.001C94.2003 176.001 81.3003 174.201 69.4003 171.101C63.7003 169.601 58.2003 167.801 53.0003 165.801C52.0003 165.401 51.0003 165.001 50.0003 164.601C47.2003 163.401 44.4003 162.101 41.8003 160.801C40.5003 160.201 39.3003 159.501 38.0003 158.801C32.3003 155.701 27.1003 152.201 22.6003 148.401C19.8003 146.101 17.2003 143.701 15.0003 141.301C10.5003 136.501 6.9003 131.401 4.5003 126.101C2.2003 121.101 1.0003 115.901 1.0003 110.801C0.900304 69.2007 25.5003 37.7007 50.0003 25.2007C74.5003 12.6007 99.0003 0.000732422 160.3 0.000732422C162.7 0.000732422 164.9 0.100732 167 0.300732C167.7 0.400732 168.4 0.400732 169.1 0.500732C219 7.00073 197 69.8007 196.9 81.7007C196.9 101.601 209 111.201 209 138.101Z" fill="#F3F4F5"/>
<path d="M47.8 93.1007C43.7 89.7007 39.1 87.0007 34.3 85.0007C34 84.9007 33.7 84.7007 33.5 84.4007C32.9 83.8007 32.6 82.8007 32.8 81.9007C35.3 72.2007 40.7 63.1007 48.3 55.5007C61.7 42.1007 79.4 36.3007 94.2 39.1007C90.4 42.0007 86.8 45.2007 83.5 48.6007C66.2 65.9007 53.8 83.8007 47.8 93.1007Z" fill="#C5C6CD"/>
<path d="M133.1 140.401C125.5 148.001 116.4 153.301 106.7 155.901C105.8 156.101 104.9 155.901 104.2 155.201C104 155.001 103.8 154.701 103.6 154.401C101.6 149.501 98.8 145.001 95.5 140.901C104.8 134.901 122.7 122.501 140 105.301C143.4 101.901 146.5 98.3007 149.5 94.6007C152.3 109.401 146.5 127.001 133.1 140.401Z" fill="#B3B9C0"/>
<path d="M149.5 94.5007C147.8 96.6007 146.1 98.7007 144.3 100.701C143.2 112.501 137.4 124.801 127.4 134.801C120 142.201 111 147.501 101.6 150.101C102.3 151.501 103 152.901 103.6 154.401C103.7 154.701 103.9 155.001 104.2 155.201C104.8 155.801 105.8 156.101 106.7 155.901C116.4 153.401 125.5 148.001 133.1 140.401C146.5 127.001 152.3 109.401 149.5 94.5007Z" fill="#828C97"/>
<path d="M140 105.201C122.2 123.001 103.6 135.801 94.5997 141.401C91.3997 143.401 87.2997 143.001 84.6997 140.301L66.4997 122.101L48.2997 104.001C45.5997 101.301 45.1997 97.2007 47.1997 94.1007C52.8997 85.1007 65.5997 66.5007 83.3997 48.7007C117.4 14.7007 174 3.40071 179.6 9.10071C185.3 14.7007 174 71.3007 140 105.201Z" fill="white"/>
<path d="M140 105.201C122.2 123.001 103.5 135.801 94.6 141.401C91.4 143.401 87.3 143.001 84.7 140.301L79 134.601C81.7 137.301 85.8 137.701 88.9 135.701C97.9 130.001 116.5 117.301 134.3 99.5007C148.3 85.5007 158.4 67.7007 165.1 51.1007L170.8 56.8007C164.2 73.4007 154 91.2007 140 105.201Z" fill="#F0F1F2"/>
<path d="M66.5002 144.801L43.9002 122.201C42.3002 120.601 42.3002 118.101 43.9002 116.501L52.4002 108.001L80.7002 136.301L72.2002 144.801C70.6002 146.401 68.0002 146.401 66.5002 144.801Z" fill="#B3B9C0"/>
<path d="M74.9998 130.701L66.4998 139.201C64.8998 140.801 62.3998 140.801 60.7998 139.201L66.4998 144.901C68.0998 146.501 70.5998 146.501 72.1998 144.901L80.6998 136.401L74.9998 130.701Z" fill="#828C97"/>
<path d="M111.7 97.0008C106.4 97.0008 101.3 94.9008 97.6 91.1008C89.8 83.3008 89.8 70.6008 97.6 62.8008C101.4 59.0008 106.4 56.9008 111.7 56.9008C117 56.9008 122.1 59.0008 125.8 62.8008C129.6 66.6008 131.7 71.6008 131.7 76.9008C131.7 82.2008 129.6 87.3008 125.8 91.0008C122.1 94.9008 117.1 97.0008 111.7 97.0008Z" fill="#4480FF"/>
<path d="M128.7 60.0007C124.2 55.5007 118.1 53.0007 111.7 53.0007C105.3 53.0007 99.3002 55.5007 94.7002 60.0007C90.1002 64.5007 87.7002 70.6007 87.7002 77.0007C87.7002 83.4007 90.2002 89.4007 94.7002 94.0007C99.2002 98.5007 105.3 101.001 111.7 101.001C118.1 101.001 124.1 98.5007 128.7 94.0007C138.1 84.6007 138.1 69.3007 128.7 60.0007ZM123 88.3007C119.9 91.4007 115.8 93.0007 111.7 93.0007C107.6 93.0007 103.5 91.4007 100.4 88.3007C94.2002 82.1007 94.2002 71.9007 100.4 65.7007C103.5 62.6007 107.6 61.0007 111.7 61.0007C115.8 61.0007 119.9 62.6007 123 65.7007C129.3 71.9007 129.3 82.0007 123 88.3007Z" fill="black"/>
<path d="M123 65.6007C122 64.6007 120.9 63.8007 119.8 63.1007C123.4 69.2007 122.6 77.3007 117.3 82.5007C112 87.8007 104 88.6007 97.9004 85.0007C98.6004 86.1007 99.4004 87.2007 100.4 88.2007C106.6 94.4007 116.8 94.4007 123 88.2007C129.3 82.0007 129.3 71.9007 123 65.6007Z" fill="#366CBA"/>
<path d="M181 14.6007C181 14.4007 181 14.3007 181 14.1007C180.9 12.4007 180.7 11.1007 180.3 10.1007C180.3 10.0007 180.2 9.90073 180.1 9.70073C180 9.60073 180 9.50073 179.9 9.30073C179.9 9.30073 179.9 9.20073 179.8 9.20073C179.7 9.10073 179.7 9.00073 179.6 9.00073C179.5 8.90073 179.5 8.90073 179.4 8.80073C179.4 8.80073 179.3 8.80073 179.3 8.70073C179.2 8.60073 179.1 8.60073 178.9 8.50073C178.8 8.50073 178.7 8.40073 178.5 8.30073C177.8 8.00073 176.7 7.80073 175.5 7.70073C175.4 7.70073 175.3 7.70073 175.2 7.70073C167.2 7.10073 150.3 10.2007 131.7 17.8007L142.7 28.8007L138.5 33.0007C137.7 33.8007 137.7 35.0007 138.5 35.8007L152.6 49.9007C153.4 50.7007 154.6 50.7007 155.4 49.9007L159.6 45.7007L170.6 56.7007C171 55.7007 171.4 54.7007 171.8 53.7007C172 53.1007 172.3 52.5007 172.5 51.9007C178.6 36.3007 181.2 22.2007 181 14.6007Z" fill="#B3B9C0"/>
<path d="M172 53.9008C172.2 53.3008 172.5 52.7008 172.7 52.1008C178.5 36.4008 181.2 22.3008 180.9 14.7008C180.9 14.5008 180.9 14.4008 180.9 14.2008C180.8 12.5008 180.6 11.2008 180.2 10.2008C180.2 10.1008 180.1 10.0008 180 9.80078C179.9 9.70078 179.9 9.60078 179.8 9.40078C179.8 9.40078 179.8 9.30078 179.7 9.30078C179.6 9.20078 179.6 9.10078 179.5 9.10078C179.4 9.00078 179.4 9.00078 179.3 8.90078C179.3 8.90078 179.2 8.90078 179.2 8.80078C179.1 8.70078 179 8.70078 178.8 8.60078C178.7 8.60078 178.6 8.50078 178.4 8.40078C177.7 8.10078 176.6 7.90078 175.4 7.80078C175.3 7.80078 175.2 7.80078 175.1 7.80078C175.1 8.00078 175.1 8.20078 175.1 8.50078C175.1 8.70078 175.1 8.80078 175.1 9.00078C175.3 16.6008 172.7 30.6008 166.9 46.4008C166.7 47.0008 166.4 47.6008 166.2 48.2008C165.8 49.2008 165.4 50.2008 165 51.2008L170.7 56.9008C171.3 55.9008 171.7 54.9008 172 53.9008Z" fill="#828C97"/>
<path d="M154.2 40.2007L150 44.4007C149.2 45.2007 148 45.2007 147.2 44.4007L152.9 50.1007C153.7 50.9007 154.9 50.9007 155.7 50.1007L159.9 45.9007L154.2 40.2007Z" fill="#828C97"/>
<path d="M90.3004 143.301C88.1004 143.301 86.0004 142.401 84.3004 140.801L80.3004 136.801C80.1004 136.601 80.1004 136.301 80.3004 136.101C80.5004 135.901 80.8004 135.901 81.0004 136.101L85.0004 140.101C87.5004 142.601 91.3004 143.001 94.3004 141.101C103.7 135.201 122 122.601 139.6 104.901C155.2 89.3008 164.9 70.1008 170.3 56.7008C170.4 56.4008 170.7 56.3008 171 56.4008C171.3 56.5008 171.4 56.8008 171.3 57.1008C165.8 70.6008 156 89.9008 140.4 105.601C122.7 123.301 104.3 136.001 94.9004 141.901C93.4004 142.801 91.9004 143.301 90.3004 143.301Z" fill="#B3B9C0"/>
<path d="M48.2 136.501C42.3 130.501 32.4 130.501 26.5 136.501C18.3 144.901 13.3 169.301 13 170.301C13 171.001 13 171.301 13.3 171.601C14 171.901 14.6 171.901 15.3 171.901C16.3 171.601 40.3 166.901 48.5 158.201C54.5 152.301 54.5 142.601 48.2 136.501Z" fill="#FFB96F"/>
<path d="M47.2002 136.901C44.2002 133.901 39.3002 133.901 36.3002 136.901C32.0002 141.301 29.7002 153.301 29.7002 153.601C29.7002 153.901 29.7002 154.301 30.0002 154.301C30.3002 154.601 30.3002 154.601 30.7002 154.601C31.4002 154.601 43.2002 151.901 47.2002 147.901C50.2002 144.901 50.2002 139.901 47.2002 136.901Z" fill="#FFD19F"/>
<path opacity="0.3" d="M185 176.001C198.255 176.001 209 165.256 209 152.001C209 138.746 198.255 128.001 185 128.001C171.745 128.001 161 138.746 161 152.001C161 165.256 171.745 176.001 185 176.001Z" fill="#B3B9C0"/>
<path d="M177 168.001C190.255 168.001 201 157.256 201 144.001C201 130.746 190.255 120.001 177 120.001C163.745 120.001 153 130.746 153 144.001C153 157.256 163.745 168.001 177 168.001Z" fill="#FF5C5C"/>
<path d="M181.9 152.401C181.7 152.401 181.6 152.401 181.5 152.301L177 149.401L172.5 152.301C172.2 152.501 171.9 152.501 171.6 152.301C171.3 152.101 171.2 151.801 171.3 151.401L172.7 146.401L168.5 142.801C168.3 142.601 168.2 142.301 168.3 141.901C168.4 141.601 168.7 141.401 169 141.301L174.1 140.901L176.4 135.901C176.5 135.601 176.8 135.401 177.1 135.401C177.4 135.401 177.7 135.601 177.8 135.901L180.1 140.901L185.2 141.301C185.5 141.301 185.8 141.501 185.9 141.901C186 142.201 185.9 142.501 185.7 142.801L181.5 146.401L182.9 151.401C183 151.701 182.9 152.101 182.6 152.301C182.3 152.301 182.1 152.401 181.9 152.401ZM177 147.601C177.2 147.601 177.3 147.601 177.4 147.701L180.6 149.701L179.6 146.201C179.5 145.901 179.6 145.601 179.9 145.401L183 142.801L179.4 142.501C179.1 142.501 178.9 142.301 178.7 142.001L177 138.201L175.3 142.001C175.2 142.301 174.9 142.401 174.6 142.501L171 142.801L174.1 145.401C174.3 145.601 174.4 145.901 174.4 146.201L173.4 149.701L176.6 147.701C176.7 147.601 176.8 147.601 177 147.601Z" fill="white"/>
<path d="M189 92.0007H185C183.9 92.0007 183 91.1007 183 90.0007V74.0007C183 72.9007 183.9 72.0007 185 72.0007H189C190.1 72.0007 191 72.9007 191 74.0007C191 75.1007 190.1 76.0007 189 76.0007H187V88.0007H189C190.1 88.0007 191 88.9007 191 90.0007C191 91.1007 190.1 92.0007 189 92.0007Z" fill="#FFB96F"/>
<path d="M35 43.0007C30 43.0007 26 39.0007 26 34.0007C26 29.0007 30 25.0007 35 25.0007C40 25.0007 44 29.0007 44 34.0007C44 39.0007 40 43.0007 35 43.0007ZM35 29.0007C32.2 29.0007 30 31.2007 30 34.0007C30 36.8007 32.2 39.0007 35 39.0007C37.8 39.0007 40 36.8007 40 34.0007C40 31.2007 37.8 29.0007 35 29.0007Z" fill="#FF5C5C"/>
<path d="M17.7 115.101C17.6 115.001 17.6 114.701 17.7 114.601L29 103.301C29.1 103.201 29.4 103.201 29.5 103.301C29.6 103.401 29.6 103.701 29.5 103.801L18.2 115.101C18.1 115.301 17.9 115.301 17.7 115.101Z" fill="black"/>
</svg>
