<svg width="208" height="176" viewBox="0 0 208 176" fill="none" xmlns="http://www.w3.org/2000/svg">
<path opacity="0.5" d="M106.5 176.001C23 176.001 0 141.001 0 106.201C0 37.2007 54.3 36.1007 84.5 20.9007C106.1 10.0007 129.3 -0.0992636 149.9 0.000736405C165.8 0.100736 179.9 2.40074 188.5 10.8007C210.2 31.8007 188.1 57.5007 192.7 81.0007C195.6 95.9007 209.7 102.801 207.8 135.401C205.8 168.001 167.3 176.001 106.5 176.001Z" fill="#F3F4F5"/>
<path d="M116 160.001H76C73.8 160.001 72 158.201 72 156.001C72 153.801 73.8 152.001 76 152.001H116C118.2 152.001 120 153.801 120 156.001C120 158.201 118.2 160.001 116 160.001Z" fill="#C5C6CD"/>
<path d="M112 152.001H80L84 128.001H108L112 152.001Z" fill="#B3B9C0"/>
<path d="M109.3 136.001L108 128.001H84.0002L82.7002 136.001H109.3Z" fill="#828C97"/>
<path d="M112 152.401H79.9996C79.7996 152.401 79.5996 152.201 79.5996 152.001C79.5996 151.801 79.7996 151.601 79.9996 151.601H112C112.2 151.601 112.4 151.801 112.4 152.001C112.4 152.201 112.2 152.401 112 152.401Z" fill="#828C97"/>
<path d="M168 112.001V120.001C168 124.401 164.4 128.001 160 128.001H32C27.6 128.001 24 124.401 24 120.001V112.001H168Z" fill="#C5C6CD"/>
<path d="M95.9996 124.401C93.5996 124.401 91.5996 122.401 91.5996 120.001C91.5996 117.601 93.5996 115.601 95.9996 115.601C98.3996 115.601 100.4 117.601 100.4 120.001C100.4 122.401 98.3996 124.401 95.9996 124.401ZM95.9996 116.401C93.9996 116.401 92.3996 118.001 92.3996 120.001C92.3996 122.001 93.9996 123.601 95.9996 123.601C97.9996 123.601 99.5996 122.001 99.5996 120.001C99.5996 118.001 97.9996 116.401 95.9996 116.401Z" fill="#828C97"/>
<path d="M160 24.0007H32C27.6 24.0007 24 27.6007 24 32.0007V112.001H168V32.0007C168 27.6007 164.4 24.0007 160 24.0007Z" fill="#0B1F35"/>
<path d="M160 104.001H32V36.0007C32 33.8007 33.8 32.0007 36 32.0007H156C158.2 32.0007 160 33.8007 160 36.0007V104.001Z" fill="white"/>
<path d="M136 50.0007H56V82.0007H136V50.0007Z" fill="#4480FF"/>
<path d="M80 88.0007H56V104.001H80V88.0007Z" fill="#4480FF"/>
<path d="M136 88.0007H112V104.001H136V88.0007Z" fill="#4480FF"/>
<path d="M108 88.0007H84V104.001H108V88.0007Z" fill="#4480FF"/>
<path d="M76 40.5007H56C55.7 40.5007 55.5 40.3007 55.5 40.0007C55.5 39.7007 55.7 39.5007 56 39.5007H76C76.3 39.5007 76.5 39.7007 76.5 40.0007C76.5 40.3007 76.3 40.5007 76 40.5007Z" fill="#0B1F35"/>
<path d="M124 40.5007H116C115.7 40.5007 115.5 40.3007 115.5 40.0007C115.5 39.7007 115.7 39.5007 116 39.5007H124C124.3 39.5007 124.5 39.7007 124.5 40.0007C124.5 40.3007 124.3 40.5007 124 40.5007Z" fill="#0B1F35"/>
<path d="M112 40.5007H104C103.7 40.5007 103.5 40.3007 103.5 40.0007C103.5 39.7007 103.7 39.5007 104 39.5007H112C112.3 39.5007 112.5 39.7007 112.5 40.0007C112.5 40.3007 112.3 40.5007 112 40.5007Z" fill="#0B1F35"/>
<path d="M100 40.5007H92C91.7 40.5007 91.5 40.3007 91.5 40.0007C91.5 39.7007 91.7 39.5007 92 39.5007H100C100.3 39.5007 100.5 39.7007 100.5 40.0007C100.5 40.3007 100.3 40.5007 100 40.5007Z" fill="#0B1F35"/>
<path d="M136 40.5007H128C127.7 40.5007 127.5 40.3007 127.5 40.0007C127.5 39.7007 127.7 39.5007 128 39.5007H136C136.3 39.5007 136.5 39.7007 136.5 40.0007C136.5 40.3007 136.3 40.5007 136 40.5007Z" fill="#0B1F35"/>
<path d="M176 64.0007H138C133.6 64.0007 130 67.6007 130 72.0007V152.001C130 156.401 133.6 160.001 138 160.001H176C180.4 160.001 184 156.401 184 152.001V72.0007C184 67.6007 180.4 64.0007 176 64.0007Z" fill="#0B1F35"/>
<path d="M175 70.0007H139C137.3 70.0007 136 71.3007 136 73.0007V151.001C136 152.701 137.3 154.001 139 154.001H175C176.7 154.001 178 152.701 178 151.001V73.0007C178 71.3007 176.7 70.0007 175 70.0007Z" fill="white"/>
<path d="M178 88.0007H136V112.001H178V88.0007Z" fill="#4480FF"/>
<path d="M174 116.001H140V134.001H174V116.001Z" fill="#4480FF"/>
<path d="M174 78.5007H168C167.7 78.5007 167.5 78.3007 167.5 78.0007C167.5 77.7007 167.7 77.5007 168 77.5007H174C174.3 77.5007 174.5 77.7007 174.5 78.0007C174.5 78.3007 174.3 78.5007 174 78.5007Z" fill="#0B1F35"/>
<path d="M174 80.5007H168C167.7 80.5007 167.5 80.3007 167.5 80.0007C167.5 79.7007 167.7 79.5007 168 79.5007H174C174.3 79.5007 174.5 79.7007 174.5 80.0007C174.5 80.3007 174.3 80.5007 174 80.5007Z" fill="#0B1F35"/>
<path d="M174 82.5007H168C167.7 82.5007 167.5 82.3007 167.5 82.0007C167.5 81.7007 167.7 81.5007 168 81.5007H174C174.3 81.5007 174.5 81.7007 174.5 82.0007C174.5 82.3007 174.3 82.5007 174 82.5007Z" fill="#0B1F35"/>
<path d="M156 80.5007H140C139.7 80.5007 139.5 80.3007 139.5 80.0007C139.5 79.7007 139.7 79.5007 140 79.5007H156C156.3 79.5007 156.5 79.7007 156.5 80.0007C156.5 80.3007 156.3 80.5007 156 80.5007Z" fill="#0B1F35"/>
<path d="M160 137.501H140C139.7 137.501 139.5 137.301 139.5 137.001C139.5 136.701 139.7 136.501 140 136.501H160C160.3 136.501 160.5 136.701 160.5 137.001C160.5 137.301 160.3 137.501 160 137.501Z" fill="#0B1F35"/>
<path d="M168 140.501H140C139.7 140.501 139.5 140.301 139.5 140.001C139.5 139.701 139.7 139.501 140 139.501H168C168.3 139.501 168.5 139.701 168.5 140.001C168.5 140.301 168.3 140.501 168 140.501Z" fill="#0B1F35"/>
<path d="M165 152.001H149C148.4 152.001 148 151.601 148 151.001C148 150.401 148.4 150.001 149 150.001H165C165.6 150.001 166 150.401 166 151.001C166 151.601 165.6 152.001 165 152.001Z" fill="#0B1F35"/>
<path d="M164 74.0007H150C147.8 74.0007 146 72.2007 146 70.0007V64.0007H168V70.0007C168 72.2007 166.2 74.0007 164 74.0007Z" fill="#0B1F35"/>
<path opacity="0.3" d="M32 56.0007C45.2548 56.0007 56 45.2556 56 32.0007C56 18.7459 45.2548 8.00073 32 8.00073C18.7452 8.00073 8 18.7459 8 32.0007C8 45.2556 18.7452 56.0007 32 56.0007Z" fill="#B3B9C0"/>
<path d="M24 48.0007C37.2548 48.0007 48 37.2556 48 24.0007C48 10.7459 37.2548 0.000732422 24 0.000732422C10.7452 0.000732422 0 10.7459 0 24.0007C0 37.2556 10.7452 48.0007 24 48.0007Z" fill="#FF5C5C"/>
<path d="M35.3992 24.0007C35.3992 24.2007 35.2992 24.4007 35.1992 24.6007L29.9992 29.6007C29.7992 29.7007 29.5992 29.8007 29.3992 29.8007C29.1992 29.8007 28.9992 29.7007 28.7992 29.6007C28.4992 29.3007 28.4992 28.8007 28.7992 28.5007L33.3992 24.1007L28.7992 19.7007C28.4992 19.4007 28.4992 18.9007 28.7992 18.6007C29.0992 18.3007 29.5992 18.3007 29.8992 18.6007L35.0992 23.6007C35.2992 23.6007 35.3992 23.8007 35.3992 24.0007Z" fill="white"/>
<path d="M12.5996 24.0008C12.5996 24.2008 12.6996 24.4008 12.7996 24.6008L17.9996 29.6008C18.1996 29.7008 18.3996 29.8008 18.5996 29.8008C18.7996 29.8008 18.9996 29.7008 19.1996 29.6008C19.4996 29.3008 19.4996 28.8008 19.1996 28.5008L14.5996 24.0008L19.1996 19.6008C19.4996 19.3008 19.4996 18.8008 19.1996 18.5008C18.8996 18.2008 18.3996 18.2008 18.0996 18.5008L12.8996 23.5008C12.6996 23.6008 12.5996 23.8008 12.5996 24.0008Z" fill="white"/>
<path d="M22.5997 29.8008C22.4997 29.8008 22.4997 29.8008 22.3997 29.8008C21.9997 29.7008 21.6997 29.2008 21.7997 28.8008L24.4997 18.8008C24.5997 18.4008 25.0997 18.1008 25.4997 18.2008C25.8997 18.3008 26.1997 18.8008 26.0997 19.2008L23.3997 29.2008C23.2997 29.6008 22.9997 29.8008 22.5997 29.8008Z" fill="white"/>
<path d="M192 50.4007C187.4 50.4007 183.6 46.6007 183.6 42.0007C183.6 41.8007 183.8 41.6007 184 41.6007C184.2 41.6007 184.4 41.8007 184.4 42.0007C184.4 46.2007 187.8 49.6007 192 49.6007C196.2 49.6007 199.6 46.2007 199.6 42.0007C199.6 41.8007 199.8 41.6007 200 41.6007C200.2 41.6007 200.4 41.8007 200.4 42.0007C200.4 46.6007 196.6 50.4007 192 50.4007Z" fill="black"/>
<path d="M18 158.001C18.5 158.001 19 157.801 19.4 157.401L27.4 149.401C28.2 148.601 28.2 147.401 27.4 146.601L19.4 138.601C18.6 137.801 17.4 137.801 16.6 138.601C15.8 139.401 15.8 140.601 16.6 141.401L23.2 148.001L16.6 154.601C15.8 155.401 15.8 156.601 16.6 157.401C17 157.801 17.5 158.001 18 158.001Z" fill="#40B198"/>
<path d="M115.5 12.0007C118.814 12.0007 121.5 9.31444 121.5 6.00073C121.5 2.68702 118.814 0.000732422 115.5 0.000732422C112.186 0.000732422 109.5 2.68702 109.5 6.00073C109.5 9.31444 112.186 12.0007 115.5 12.0007Z" fill="#FFB96F"/>
</svg>
