<?xml version="1.0" encoding="utf-8"?>
<!-- Generator: Adobe Illustrator 24.0.1, SVG Export Plug-In . SVG Version: 6.00 Build 0)  -->
<svg version="1.1" id="Symbol" xmlns="http://www.w3.org/2000/svg" xmlns:xlink="http://www.w3.org/1999/xlink" x="0px" y="0px"
	 viewBox="0 0 140 140" style="enable-background:new 0 0 140 140;" xml:space="preserve">
<style type="text/css">
	.st0{display:none;fill:none;}
	.st1{fill:#FFFFFF;}
	.st2{fill:#B6BCC3;}
	.st3{fill:#00263D;}
</style>
<title>Symbol - Color</title>
<rect class="st0" width="140" height="140"/>
<path class="st1" d="M71.4,24c-0.8,4.7-2,9.3-3.5,13.9c1.3,0.6,5.5,2.8,8.5,4.4C80.1,35.8,82,28.5,82,21v-0.2
	C78.4,21.4,74.8,22.5,71.4,24z"/>
<path class="st1" d="M116.7,86.5c-0.2,0.6-0.3,1.3-0.5,1.9c-0.8,2.7-2,5.2-3.5,7.5c-2.6,3.7-6,6.7-10,8.7l0,0
	c-3.7,1.8-7.8,2.8-12,2.8h-1.1c-2.3-0.1-4.5-0.4-6.7-1.1l0,0c-1.6-0.5-3.3-0.8-4.9-1l0,0l-1.1-0.1c-0.5,0-1.1,0-1.6,0
	c-1.2,0-2.4,0.1-3.6,0.3c-0.1,0-0.3,0-0.4,0c-15.5,1.7-28.8,11.5-35,25.7C4.9,114-8.4,75.9,5.4,43l0.5-0.3c0.9-0.5,1.8-0.9,2.7-1.3
	c1-0.4,1.9-0.8,2.8-1.2c0.9-0.4,1.9-0.8,2.9-1.1c1-0.3,1.6-0.6,2.5-0.8l0.8-0.2l2.3-0.6l0.4-0.1c0.9-0.2,1.8-0.5,2.7-0.6h0.4
	c0.9-0.2,1.8-0.4,2.8-0.5h0.1c1-0.2,2.1-0.3,3.1-0.5c6.2-15.1,20.3-25.4,36.5-26.8c1.2,3.9,1.7,8,1.8,12.1c0,1.8-0.1,3.5-0.3,5.2
	c-0.6,4.7-1.9,9.3-4,13.6c12.9,5,24,13.8,32,25.1c-2.6,1.1-4.7,3.3-5.6,5.9l18.2,10.5L116.7,86.5z"/>
<path class="st2" d="M71.1,105.5c-10.2,1.6-18.5,8.9-21.5,18.8c-0.1,0.5-0.3,1-0.4,1.5c-0.1,0.5-0.1,0.5-0.2,0.8
	c-0.1,0.3-0.2,0.8-0.2,1.2c-0.1,0.4-0.1,0.8-0.2,1.1c-0.3,2.6-0.2,5.3,0.3,7.9c-4.4-1.4-8.7-3.2-12.7-5.5
	C42.4,117,55.7,107.2,71.1,105.5z"/>
<path class="st3" d="M70,0C41.8,0,16.3,16.9,5.4,43l0.5-0.3c0.9-0.5,1.8-0.9,2.7-1.3c1-0.4,1.9-0.8,2.8-1.2c0.9-0.4,1.9-0.8,2.9-1.1
	c1-0.3,1.6-0.6,2.5-0.8l0.8-0.2l2.3-0.6l0.4-0.1c0.9-0.2,1.8-0.5,2.7-0.6h0.4c0.9-0.2,1.8-0.4,2.8-0.5h0.1c1-0.2,2.1-0.3,3.1-0.5
	c6.2-15.1,20.3-25.4,36.5-26.8c1.2,3.9,1.7,8,1.8,12.1c0,1.8-0.1,3.5-0.3,5.2c-0.6,4.7-1.9,9.3-4,13.6c12.9,5,24,13.8,32,25.1
	c-2.6,1.1-4.7,3.3-5.6,5.9l18.2,10.5l8.8,5.1c-0.2,0.6-0.3,1.3-0.5,1.9c-0.8,2.7-2,5.2-3.5,7.5c-2.6,3.7-6,6.7-10,8.7l0,0
	c-3.7,1.8-7.8,2.8-12,2.8h-1c-2.3-0.1-4.5-0.4-6.7-1.1l0,0c-1.6-0.5-3.3-0.8-4.9-1l0,0l-1.1-0.1c-0.5,0-1.1,0-1.6,0
	c-1.2,0-2.4,0.1-3.6,0.3c-0.1,0-0.3,0-0.4,0c-10.2,1.6-18.7,8.9-21.6,18.8c-0.1,0.5-0.3,1-0.4,1.5c-0.1,0.5-0.1,0.5-0.2,0.8
	c-0.1,0.3-0.2,0.8-0.2,1.2c-0.1,0.4-0.1,0.8-0.2,1.1c-0.3,2.6-0.2,5.3,0.3,7.9c36.9,11.6,76.2-8.8,87.8-45.7S127.9,14.9,91,3.2
	C84.2,1.1,77.1,0,70,0z M82,21c0,7.5-1.9,14.8-5.7,21.3c-3-1.6-7.2-3.8-8.5-4.4c1.5-4.5,2.7-9.2,3.5-13.9C74.8,22.6,78.4,21.5,82,21
	L82,21z"/>
<path class="st3" d="M60.3,66c0,0,9.1-0.3,12.3,0.9c3.2,1.2,6.1,4.5,6.5,7c-3.8,1-7.8,0.9-11.5-0.4C64.3,71.9,61.8,69.3,60.3,66z"/>
</svg>
